<?xml version="1.0" encoding="utf-8" standalone="no"?>
<!DOCTYPE svg PUBLIC "-//W3C//DTD SVG 1.1//EN"
  "http://www.w3.org/Graphics/SVG/1.1/DTD/svg11.dtd">
<!-- Created with matplotlib (http://matplotlib.org/) -->
<svg height="432pt" version="1.1" viewBox="0 0 576 432" width="576pt" xmlns="http://www.w3.org/2000/svg" xmlns:xlink="http://www.w3.org/1999/xlink">
 <defs>
  <style type="text/css">
*{stroke-linecap:butt;stroke-linejoin:round;}
  </style>
 </defs>
 <g id="figure_1">
  <g id="patch_1">
   <path d="
M0 432
L576 432
L576 0
L0 0
z
" style="fill:#ffffff;"/>
  </g>
  <g id="axes_1">
   <g id="patch_2">
    <path d="
M72 388.8
L518.4 388.8
L518.4 43.2
L72 43.2
z
" style="fill:#ffffff;"/>
   </g>
   <g id="PolyCollection_1">
    <defs>
     <path d="
M72 -166.826
L72 -314.545
L76.464 -341.996
L80.928 -365.694
L85.392 -326.789
L89.856 -296.673
L94.32 -320.075
L98.784 -320.075
L103.248 -343.872
L107.712 -343.872
L112.176 -353.055
L116.64 -353.055
L121.104 -348.217
L125.568 -348.217
L130.032 -348.217
L134.496 -349.5
L138.96 -329.752
L143.424 -336.763
L147.888 -336.763
L152.352 -339.922
L156.816 -332.319
L161.28 -332.714
L165.744 -326.493
L170.208 -326.493
L174.672 -332.615
L179.136 -332.615
L183.6 -318.89
L188.064 -318.89
L192.528 -331.628
L196.992 -334.393
L201.456 -324.716
L205.92 -324.716
L210.384 -324.716
L214.848 -310.991
L219.312 -304.375
L223.776 -309.806
L228.24 -312.373
L232.704 -312.373
L237.168 -316.915
L241.632 -315.138
L246.096 -317.804
L250.56 -317.804
L255.024 -324.123
L259.488 -324.123
L263.952 -326.888
L268.416 -326.888
L272.88 -327.678
L277.344 -327.678
L281.808 -327.678
L286.272 -329.357
L290.736 -332.912
L295.2 -329.554
L299.664 -329.554
L304.128 -328.073
L308.592 -329.851
L313.056 -330.64
L317.52 -330.64
L321.984 -330.64
L326.448 -330.64
L330.912 -330.64
L335.376 -330.64
L339.84 -330.64
L344.304 -330.64
L348.768 -330.64
L353.232 -324.321
L357.696 -318.989
L362.16 -324.518
L366.624 -319.285
L371.088 -318.89
L375.552 -324.518
L380.016 -323.136
L384.48 -323.136
L388.944 -323.136
L393.408 -323.136
L397.872 -323.136
L402.336 -326.789
L406.8 -327.678
L411.264 -327.678
L415.728 -327.678
L420.192 -327.678
L424.656 -330.344
L429.12 -330.344
L433.584 -330.344
L438.048 -333.109
L442.512 -333.109
L446.976 -329.949
L451.44 -325.802
L455.904 -315.632
L460.368 -315.632
L464.832 -315.632
L469.296 -315.632
L473.76 -315.632
L478.224 -317.508
L478.224 -282.355
L478.224 -282.355
L473.76 -280.282
L469.296 -280.282
L464.832 -280.282
L460.368 -280.282
L455.904 -280.282
L451.44 -289.86
L446.976 -293.612
L442.512 -296.377
L438.048 -296.377
L433.584 -293.217
L429.12 -293.217
L424.656 -293.217
L420.192 -289.958
L415.728 -289.958
L411.264 -289.958
L406.8 -289.958
L402.336 -288.872
L397.872 -284.626
L393.408 -284.626
L388.944 -284.626
L384.48 -284.626
L380.016 -284.626
L375.552 -285.219
L371.088 -278.998
L366.624 -278.603
L362.16 -283.244
L357.696 -276.924
L353.232 -281.467
L348.768 -286.996
L344.304 -286.996
L339.84 -286.996
L335.376 -286.996
L330.912 -286.996
L326.448 -286.996
L321.984 -286.996
L317.52 -286.996
L313.056 -286.996
L308.592 -285.811
L304.128 -283.639
L299.664 -284.133
L295.2 -284.133
L290.736 -286.7
L286.272 -282.355
L281.808 -280.084
L277.344 -280.084
L272.88 -280.084
L268.416 -278.899
L263.952 -278.899
L259.488 -275.739
L255.024 -275.739
L250.56 -268.235
L246.096 -268.235
L241.632 -264.976
L237.168 -265.174
L232.704 -259.842
L228.24 -259.842
L223.776 -256.485
L219.312 -250.066
L214.848 -255.3
L210.384 -267.248
L205.92 -267.248
L201.456 -267.248
L196.992 -275.344
L192.528 -270.21
L188.064 -255.3
L183.6 -255.3
L179.136 -267.248
L174.672 -267.248
L170.208 -259.546
L165.744 -259.546
L161.28 -263.199
L156.816 -259.644
L152.352 -263.89
L147.888 -259.151
L143.424 -259.151
L138.96 -250.363
L134.496 -266.161
L130.032 -259.546
L125.568 -259.546
L121.104 -259.546
L116.64 -258.657
L112.176 -258.657
L107.712 -242.167
L103.248 -242.167
L98.784 -212.643
L94.32 -212.643
L89.856 -182.724
L85.392 -205.928
L80.928 -236.144
L76.464 -204.546
L72 -166.826
z
" id="C0_0_1a9e879830"/>
    </defs>
    <g clip-path="url(#p7ff5b81e1d)">
     <use style="fill:#0000ff;fill-opacity:0.25;stroke:#0000ff;stroke-opacity:0.25;" x="0.0" xlink:href="#C0_0_1a9e879830" y="432.0"/>
    </g>
   </g>
   <g id="PolyCollection_2">
    <defs>
     <path d="
M72 -166.826
L72 -314.545
L76.464 -341.996
L80.928 -310.398
L85.392 -340.613
L89.856 -363.818
L94.32 -334.886
L98.784 -334.886
L103.248 -334.886
L107.712 -354.24
L112.176 -337.552
L116.64 -337.552
L121.104 -336.664
L125.568 -336.664
L130.032 -336.664
L134.496 -329.949
L138.96 -345.748
L143.424 -345.748
L147.888 -341.008
L152.352 -336.368
L156.816 -336.368
L161.28 -331.628
L165.744 -331.628
L170.208 -331.924
L174.672 -331.924
L179.136 -338.836
L183.6 -338.836
L188.064 -343.181
L192.528 -327.184
L196.992 -322.05
L201.456 -322.05
L205.92 -322.05
L210.384 -322.05
L214.848 -322.05
L219.312 -328.172
L223.776 -328.172
L228.24 -331.628
L232.704 -331.628
L237.168 -336.861
L241.632 -336.861
L246.096 -340.317
L250.56 -343.675
L255.024 -343.675
L259.488 -331.035
L263.952 -327.777
L268.416 -327.777
L272.88 -327.777
L277.344 -330.048
L281.808 -332.615
L286.272 -334.294
L290.736 -329.949
L295.2 -332.418
L299.664 -332.418
L304.128 -332.912
L308.592 -335.578
L313.056 -336.368
L317.52 -336.368
L321.984 -340.021
L326.448 -340.811
L330.912 -334.689
L335.376 -335.479
L339.84 -334.195
L344.304 -334.195
L348.768 -336.861
L353.232 -342.49
L357.696 -347.032
L362.16 -340.811
L366.624 -344.464
L371.088 -344.069
L375.552 -338.836
L380.016 -339.527
L384.48 -329.258
L388.944 -329.258
L393.408 -326
L397.872 -326
L402.336 -322.84
L406.8 -320.766
L411.264 -320.766
L415.728 -322.544
L420.192 -322.544
L424.656 -322.544
L429.12 -322.544
L433.584 -322.544
L438.048 -322.544
L442.512 -322.544
L446.976 -322.544
L451.44 -322.544
L455.904 -322.544
L460.368 -322.544
L464.832 -322.544
L469.296 -322.544
L473.76 -322.544
L478.224 -322.544
L478.224 -287.194
L478.224 -287.194
L473.76 -287.194
L469.296 -287.194
L464.832 -287.194
L460.368 -287.194
L455.904 -287.194
L451.44 -287.194
L446.976 -287.194
L442.512 -287.194
L438.048 -287.194
L433.584 -287.194
L429.12 -287.194
L424.656 -287.194
L420.192 -287.194
L415.728 -287.194
L411.264 -285.021
L406.8 -285.021
L402.336 -286.897
L397.872 -289.662
L393.408 -289.662
L388.944 -292.328
L384.48 -292.328
L380.016 -301.808
L375.552 -300.524
L371.088 -305.165
L366.624 -304.77
L362.16 -300.524
L357.696 -306.152
L353.232 -300.82
L348.768 -294.599
L344.304 -291.341
L339.84 -291.341
L335.376 -292.032
L330.912 -290.847
L326.448 -296.574
L321.984 -295.389
L317.52 -291.143
L313.056 -291.143
L308.592 -289.958
L304.128 -286.7
L299.664 -285.219
L295.2 -285.219
L290.736 -281.763
L286.272 -285.317
L281.808 -283.046
L277.344 -279.689
L272.88 -276.036
L268.416 -276.036
L263.952 -276.036
L259.488 -278.702
L255.024 -289.761
L250.56 -289.761
L246.096 -285.219
L241.632 -280.775
L237.168 -280.775
L232.704 -274.16
L228.24 -274.16
L223.776 -269.716
L219.312 -269.716
L214.848 -262.014
L210.384 -262.014
L205.92 -262.014
L201.456 -262.014
L196.992 -262.014
L192.528 -264.779
L188.064 -278.405
L183.6 -272.876
L179.136 -272.876
L174.672 -263.989
L170.208 -263.989
L165.744 -260.336
L161.28 -260.336
L156.816 -261.52
L152.352 -261.52
L147.888 -264.779
L143.424 -265.964
L138.96 -265.964
L134.496 -246.215
L130.032 -247.4
L125.568 -247.4
L121.104 -247.4
L116.64 -242.562
L112.176 -242.562
L107.712 -251.547
L103.248 -227.454
L98.784 -227.454
L94.32 -227.454
L89.856 -249.869
L85.392 -219.752
L80.928 -180.848
L76.464 -204.546
L72 -166.826
z
" id="C1_0_21ff0f6e0e"/>
    </defs>
    <g clip-path="url(#p7ff5b81e1d)">
     <use style="fill:#008000;fill-opacity:0.25;stroke:#008000;stroke-opacity:0.25;" x="0.0" xlink:href="#C1_0_21ff0f6e0e" y="432.0"/>
    </g>
   </g>
   <g id="PolyCollection_3">
    <defs>
     <path d="
M72 -166.826
L72 -314.545
L76.464 -276.826
L80.928 -276.826
L85.392 -232.095
L89.856 -257.669
L94.32 -282.553
L98.784 -267.248
L103.248 -290.255
L107.712 -290.255
L112.176 -275.048
L116.64 -261.915
L121.104 -261.915
L125.568 -249.671
L130.032 -235.354
L134.496 -235.354
L138.96 -251.152
L143.424 -258.163
L147.888 -258.361
L152.352 -258.361
L156.816 -263.792
L161.28 -263.792
L165.744 -256.386
L170.208 -252.831
L174.672 -252.831
L179.136 -245.03
L183.6 -231.404
L188.064 -231.404
L192.528 -231.404
L196.992 -231.404
L201.456 -241.179
L205.92 -232.589
L210.384 -232.589
L214.848 -232.589
L219.312 -237.723
L223.776 -230.219
L228.24 -225.776
L232.704 -225.776
L237.168 -225.776
L241.632 -224.887
L246.096 -224.887
L250.56 -219.456
L255.024 -226.763
L259.488 -226.763
L263.952 -226.763
L268.416 -223.998
L272.88 -221.826
L277.344 -221.826
L281.808 -218.567
L286.272 -216.197
L290.736 -211.853
L295.2 -208.496
L299.664 -205.237
L304.128 -205.237
L308.592 -205.237
L313.056 -203.065
L317.52 -203.065
L321.984 -198.819
L326.448 -197.634
L330.912 -203.361
L335.376 -202.176
L339.84 -202.867
L344.304 -202.867
L348.768 -199.609
L353.232 -205.237
L357.696 -205.237
L362.16 -210.767
L366.624 -215.408
L371.088 -215.013
L375.552 -215.013
L380.016 -213.63
L384.48 -223.109
L388.944 -224.986
L393.408 -220.74
L397.872 -220.74
L402.336 -224.492
L406.8 -224.492
L411.264 -222.32
L415.728 -222.32
L420.192 -222.32
L424.656 -220.147
L429.12 -220.147
L433.584 -220.147
L438.048 -222.912
L442.512 -220.838
L446.976 -220.838
L451.44 -224.492
L455.904 -224.492
L460.368 -227.257
L464.832 -228.145
L469.296 -226.96
L473.76 -226.96
L478.224 -226.96
L478.224 -193.19
L478.224 -193.19
L473.76 -193.19
L469.296 -193.19
L464.832 -193.98
L460.368 -192.894
L455.904 -189.734
L451.44 -189.734
L446.976 -185.488
L442.512 -185.488
L438.048 -187.365
L433.584 -184.205
L429.12 -184.205
L424.656 -184.205
L420.192 -185.982
L415.728 -185.982
L411.264 -185.982
L406.8 -187.76
L402.336 -187.76
L397.872 -183.612
L393.408 -183.612
L388.944 -187.266
L384.48 -185.192
L380.016 -174.923
L375.552 -175.515
L371.088 -175.515
L366.624 -175.12
L362.16 -169.887
L357.696 -163.568
L353.232 -163.568
L348.768 -157.347
L344.304 -160.013
L339.84 -160.013
L335.376 -158.729
L330.912 -159.519
L326.448 -153.397
L321.984 -154.187
L317.52 -157.84
L313.056 -157.84
L308.592 -159.618
L304.128 -159.618
L299.664 -159.618
L295.2 -162.284
L290.736 -164.851
L286.272 -168.406
L281.808 -169.986
L277.344 -172.652
L272.88 -172.652
L268.416 -174.429
L263.952 -175.614
L259.488 -175.614
L255.024 -175.614
L250.56 -167.122
L246.096 -171.566
L241.632 -171.566
L237.168 -170.677
L232.704 -170.677
L228.24 -170.677
L223.776 -174.133
L219.312 -180.453
L214.848 -173.738
L210.384 -173.738
L205.92 -173.738
L201.456 -180.946
L196.992 -168.998
L192.528 -168.998
L188.064 -168.998
L183.6 -168.998
L179.136 -181.045
L174.672 -187.068
L170.208 -187.068
L165.744 -187.463
L161.28 -191.907
L156.816 -191.907
L152.352 -183.514
L147.888 -183.514
L143.424 -179.761
L138.96 -170.973
L134.496 -151.225
L130.032 -151.225
L125.568 -162.58
L121.104 -172.059
L116.64 -172.059
L112.176 -182.625
L107.712 -191.117
L103.248 -191.117
L98.784 -162.778
L94.32 -171.171
L89.856 -138.783
L85.392 -105.112
L80.928 -139.376
L76.464 -139.376
L72 -166.826
z
" id="C2_0_f627f77ddf"/>
    </defs>
    <g clip-path="url(#p7ff5b81e1d)">
     <use style="fill:#ff0000;fill-opacity:0.25;stroke:#ff0000;stroke-opacity:0.25;" x="0.0" xlink:href="#C2_0_f627f77ddf" y="432.0"/>
    </g>
   </g>
   <g id="PolyCollection_4">
    <defs>
     <path d="
M72 -166.826
L72 -314.545
L76.464 -276.826
L80.928 -276.826
L85.392 -310.102
L89.856 -310.102
L94.32 -310.102
L98.784 -320.766
L103.248 -285.416
L107.712 -285.416
L112.176 -285.416
L116.64 -285.416
L121.104 -285.416
L125.568 -285.416
L130.032 -285.416
L134.496 -285.416
L138.96 -285.416
L143.424 -285.416
L147.888 -285.416
L152.352 -285.416
L156.816 -294.303
L161.28 -285.317
L165.744 -290.156
L170.208 -283.244
L174.672 -273.073
L179.136 -273.073
L183.6 -288.28
L188.064 -288.28
L192.528 -288.28
L196.992 -288.28
L201.456 -301.511
L205.92 -301.511
L210.384 -304.77
L214.848 -321.951
L219.312 -321.951
L223.776 -321.951
L228.24 -321.951
L232.704 -321.951
L237.168 -314.15
L241.632 -313.657
L246.096 -308.127
L250.56 -308.127
L255.024 -298.253
L259.488 -311.089
L263.952 -311.089
L268.416 -311.089
L272.88 -307.831
L277.344 -303.98
L281.808 -303.98
L286.272 -301.61
L290.736 -305.955
L295.2 -309.411
L299.664 -312.965
L304.128 -311.386
L308.592 -308.127
L313.056 -305.856
L317.52 -305.856
L321.984 -310.398
L326.448 -309.312
L330.912 -309.312
L335.376 -309.312
L339.84 -309.312
L344.304 -309.312
L348.768 -309.312
L353.232 -309.312
L357.696 -309.312
L362.16 -309.312
L366.624 -309.312
L371.088 -309.312
L375.552 -309.312
L380.016 -309.312
L384.48 -309.312
L388.944 -309.312
L393.408 -313.558
L397.872 -315.335
L402.336 -315.335
L406.8 -317.014
L411.264 -318.693
L415.728 -318.693
L420.192 -318.693
L424.656 -318.693
L429.12 -318.693
L433.584 -318.693
L438.048 -314.447
L442.512 -317.014
L446.976 -317.014
L451.44 -321.556
L455.904 -334.096
L460.368 -334.096
L464.832 -334.096
L469.296 -334.096
L473.76 -334.096
L478.224 -331.825
L478.224 -291.736
L478.224 -291.736
L473.76 -293.414
L469.296 -293.414
L464.832 -293.414
L460.368 -293.414
L455.904 -293.414
L451.44 -280.282
L446.976 -274.949
L442.512 -274.949
L438.048 -271.592
L433.584 -275.246
L429.12 -275.246
L424.656 -275.246
L420.192 -275.246
L415.728 -275.246
L411.264 -275.246
L406.8 -272.975
L402.336 -270.704
L397.872 -270.704
L393.408 -268.531
L388.944 -262.903
L384.48 -262.903
L380.016 -262.903
L375.552 -262.903
L371.088 -262.903
L366.624 -262.903
L362.16 -262.903
L357.696 -262.903
L353.232 -262.903
L348.768 -262.903
L344.304 -262.903
L339.84 -262.903
L335.376 -262.903
L330.912 -262.903
L326.448 -262.903
L321.984 -263.792
L317.52 -258.459
L313.056 -258.459
L308.592 -260.138
L304.128 -262.804
L299.664 -263.199
L295.2 -258.854
L290.736 -254.411
L286.272 -248.881
L281.808 -250.461
L277.344 -250.461
L272.88 -252.535
L268.416 -255.201
L263.952 -255.201
L259.488 -255.201
L255.024 -240.389
L250.56 -248.289
L246.096 -248.289
L241.632 -252.634
L237.168 -250.165
L232.704 -256.188
L228.24 -256.188
L223.776 -256.188
L219.312 -256.188
L214.848 -256.188
L210.384 -235.847
L205.92 -231.206
L201.456 -231.206
L196.992 -214.815
L192.528 -214.815
L188.064 -214.815
L183.6 -214.815
L179.136 -196.449
L174.672 -196.449
L170.208 -204.052
L165.744 -205.04
L161.28 -194.079
L156.816 -194.968
L152.352 -176.207
L147.888 -176.207
L143.424 -176.207
L138.96 -176.207
L134.496 -176.207
L130.032 -176.207
L125.568 -176.207
L121.104 -176.207
L116.64 -176.207
L112.176 -176.207
L107.712 -176.207
L103.248 -176.207
L98.784 -204.052
L94.32 -183.119
L89.856 -183.119
L85.392 -183.119
L80.928 -139.376
L76.464 -139.376
L72 -166.826
z
" id="C3_0_562ae95822"/>
    </defs>
    <g clip-path="url(#p7ff5b81e1d)">
     <use style="fill:#00bfbf;fill-opacity:0.25;stroke:#00bfbf;stroke-opacity:0.25;" x="0.0" xlink:href="#C3_0_562ae95822" y="432.0"/>
    </g>
   </g>
   <g id="PolyCollection_5">
    <defs>
     <path d="
M72 -158.433
L72 -322.939
L76.464 -322.939
L80.928 -322.939
L85.392 -322.939
L89.856 -322.939
L94.32 -322.939
L98.784 -284.626
L103.248 -284.626
L107.712 -241.574
L112.176 -241.574
L116.64 -241.574
L121.104 -236.835
L125.568 -251.646
L130.032 -251.646
L134.496 -239.698
L138.96 -211.754
L143.424 -200.399
L147.888 -200.399
L152.352 -200.399
L156.816 -200.399
L161.28 -200.399
L165.744 -200.399
L170.208 -200.399
L174.672 -200.399
L179.136 -185.291
L183.6 -185.291
L188.064 -176.997
L192.528 -197.338
L196.992 -200.004
L201.456 -200.004
L205.92 -210.47
L210.384 -205.829
L214.848 -185.587
L219.312 -185.587
L223.776 -185.587
L228.24 -185.587
L232.704 -191.808
L237.168 -191.808
L241.632 -191.808
L246.096 -191.808
L250.56 -184.995
L255.024 -184.995
L259.488 -167.912
L263.952 -167.912
L268.416 -169.69
L272.88 -169.69
L277.344 -169.69
L281.808 -165.147
L286.272 -165.147
L290.736 -165.147
L295.2 -165.147
L299.664 -165.147
L304.128 -165.147
L308.592 -165.147
L313.056 -165.147
L317.52 -165.147
L321.984 -165.147
L326.448 -165.147
L330.912 -165.147
L335.376 -165.147
L339.84 -165.147
L344.304 -165.147
L348.768 -165.147
L353.232 -165.147
L357.696 -165.147
L362.16 -165.147
L366.624 -165.147
L371.088 -165.147
L375.552 -165.147
L380.016 -165.147
L384.48 -165.147
L388.944 -165.147
L393.408 -171.961
L397.872 -168.505
L402.336 -168.505
L406.8 -168.505
L411.264 -165.049
L415.728 -167.616
L420.192 -167.616
L424.656 -171.961
L429.12 -171.961
L433.584 -177.194
L438.048 -177.194
L442.512 -172.751
L446.976 -172.751
L451.44 -172.751
L455.904 -172.751
L460.368 -177.194
L464.832 -177.194
L469.296 -179.465
L473.76 -179.465
L478.224 -179.465
L478.224 -134.043
L478.224 -134.043
L473.76 -134.043
L469.296 -134.043
L464.832 -130.39
L460.368 -130.39
L455.904 -124.959
L451.44 -124.959
L446.976 -124.959
L442.512 -124.959
L438.048 -128.415
L433.584 -128.415
L429.12 -121.799
L424.656 -121.799
L420.192 -116.27
L415.728 -116.27
L411.264 -112.912
L406.8 -115.381
L402.336 -115.381
L397.872 -115.381
L393.408 -117.85
L388.944 -108.864
L384.48 -108.864
L380.016 -108.864
L375.552 -108.864
L371.088 -108.864
L366.624 -108.864
L362.16 -108.864
L357.696 -108.864
L353.232 -108.864
L348.768 -108.864
L344.304 -108.864
L339.84 -108.864
L335.376 -108.864
L330.912 -108.864
L326.448 -108.864
L321.984 -108.864
L317.52 -108.864
L313.056 -108.864
L308.592 -108.864
L304.128 -108.864
L299.664 -108.864
L295.2 -108.864
L290.736 -108.864
L286.272 -108.864
L281.808 -108.864
L277.344 -112.221
L272.88 -112.221
L268.416 -112.221
L263.952 -108.074
L259.488 -108.074
L255.024 -122.589
L250.56 -122.589
L246.096 -127.625
L241.632 -127.625
L237.168 -127.625
L232.704 -127.625
L228.24 -120.022
L223.776 -120.022
L219.312 -120.022
L214.848 -120.022
L210.384 -137.302
L205.92 -140.56
L201.456 -127.329
L196.992 -127.329
L192.528 -120.121
L188.064 -95.04
L183.6 -100.57
L179.136 -100.57
L174.672 -111.135
L170.208 -111.135
L165.744 -111.135
L161.28 -111.135
L156.816 -111.135
L152.352 -111.135
L147.888 -111.135
L143.424 -111.135
L138.96 -119.528
L134.496 -140.955
L130.032 -142.832
L125.568 -142.832
L121.104 -122.096
L116.64 -111.431
L112.176 -111.431
L107.712 -111.431
L103.248 -143.424
L98.784 -143.424
L94.32 -158.433
L89.856 -158.433
L85.392 -158.433
L80.928 -158.433
L76.464 -158.433
L72 -158.433
z
" id="C4_0_50c629c66f"/>
    </defs>
    <g clip-path="url(#p7ff5b81e1d)">
     <use style="fill:#bf00bf;fill-opacity:0.25;stroke:#bf00bf;stroke-opacity:0.25;" x="0.0" xlink:href="#C4_0_50c629c66f" y="432.0"/>
    </g>
   </g>
   <g id="PolyCollection_6">
    <defs>
     <path d="
M72 -158.433
L72 -322.939
L76.464 -322.939
L80.928 -276.628
L85.392 -276.628
L89.856 -228.244
L94.32 -184.007
L98.784 -193.783
L103.248 -193.783
L107.712 -216.494
L112.176 -226.664
L116.64 -226.664
L121.104 -221.233
L125.568 -207.804
L130.032 -192.4
L134.496 -193.783
L138.96 -193.783
L143.424 -193.783
L147.888 -189.833
L152.352 -184.106
L156.816 -184.106
L161.28 -184.106
L165.744 -184.106
L170.208 -184.995
L174.672 -184.995
L179.136 -191.709
L183.6 -191.709
L188.064 -191.709
L192.528 -174.429
L196.992 -174.429
L201.456 -161.296
L205.92 -169.295
L210.384 -164.851
L214.848 -178.576
L219.312 -171.862
L223.776 -171.862
L228.24 -171.862
L232.704 -165.444
L237.168 -165.444
L241.632 -165.444
L246.096 -165.444
L250.56 -169.788
L255.024 -169.788
L259.488 -181.736
L263.952 -181.736
L268.416 -178.873
L272.88 -178.873
L277.344 -180.156
L281.808 -182.724
L286.272 -182.724
L290.736 -182.724
L295.2 -182.724
L299.664 -182.724
L304.128 -182.724
L308.592 -182.724
L313.056 -182.724
L317.52 -182.724
L321.984 -182.724
L326.448 -182.724
L330.912 -182.724
L335.376 -182.724
L339.84 -182.724
L344.304 -182.724
L348.768 -182.724
L353.232 -182.724
L357.696 -182.724
L362.16 -182.724
L366.624 -182.724
L371.088 -182.724
L375.552 -182.724
L380.016 -183.909
L384.48 -199.016
L388.944 -196.844
L393.408 -196.844
L397.872 -198.523
L402.336 -198.523
L406.8 -195.264
L411.264 -197.93
L415.728 -194.672
L420.192 -194.672
L424.656 -191.413
L429.12 -191.413
L433.584 -194.869
L438.048 -194.869
L442.512 -194.869
L446.976 -189.636
L451.44 -184.304
L455.904 -184.304
L460.368 -180.058
L464.832 -180.058
L469.296 -180.551
L473.76 -180.551
L478.224 -180.551
L478.224 -140.857
L478.224 -140.857
L473.76 -140.857
L469.296 -140.857
L464.832 -139.376
L460.368 -139.376
L455.904 -143.029
L451.44 -143.029
L446.976 -147.571
L442.512 -152.212
L438.048 -152.212
L433.584 -152.212
L429.12 -147.769
L424.656 -147.769
L420.192 -150.435
L415.728 -150.435
L411.264 -153.101
L406.8 -149.842
L402.336 -152.508
L397.872 -152.508
L393.408 -150.237
L388.944 -150.237
L384.48 -152.015
L380.016 -135.525
L375.552 -132.76
L371.088 -132.76
L366.624 -132.76
L362.16 -132.76
L357.696 -132.76
L353.232 -132.76
L348.768 -132.76
L344.304 -132.76
L339.84 -132.76
L335.376 -132.76
L330.912 -132.76
L326.448 -132.76
L321.984 -132.76
L317.52 -132.76
L313.056 -132.76
L308.592 -132.76
L304.128 -132.76
L299.664 -132.76
L295.2 -132.76
L290.736 -132.76
L286.272 -132.76
L281.808 -132.76
L277.344 -129.403
L272.88 -126.736
L268.416 -126.736
L263.952 -127.823
L259.488 -127.823
L255.024 -114.097
L250.56 -114.097
L246.096 -108.568
L241.632 -108.568
L237.168 -108.568
L232.704 -108.568
L228.24 -113.999
L223.776 -113.999
L219.312 -113.999
L214.848 -119.133
L210.384 -103.236
L205.92 -106.692
L201.456 -96.9161
L196.992 -107.482
L192.528 -107.482
L188.064 -121.799
L183.6 -121.799
L179.136 -121.799
L174.672 -112.715
L170.208 -112.715
L165.744 -107.679
L161.28 -107.679
L156.816 -107.679
L152.352 -107.679
L147.888 -111.826
L143.424 -111.826
L138.96 -111.826
L134.496 -111.826
L130.032 -105.309
L125.568 -117.553
L121.104 -127.823
L116.64 -126.341
L112.176 -126.341
L107.712 -106.889
L103.248 -78.2537
L98.784 -78.2537
L94.32 -58.4064
L89.856 -91.189
L85.392 -125.749
L80.928 -125.749
L76.464 -158.433
L72 -158.433
z
" id="C5_0_6a5ff685cd"/>
    </defs>
    <g clip-path="url(#p7ff5b81e1d)">
     <use style="fill:#bfbf00;fill-opacity:0.25;stroke:#bfbf00;stroke-opacity:0.25;" x="0.0" xlink:href="#C5_0_6a5ff685cd" y="432.0"/>
    </g>
   </g>
   <g id="line2d_1">
    <path clip-path="url(#p7ff5b81e1d)" d="
M72 191.314
L76.464 158.729
L80.928 131.081
L85.392 165.641
L89.856 192.302
L94.32 165.641
L98.784 165.641
L103.248 138.981
L107.712 138.981
L112.176 126.144
L116.64 126.144
L121.104 128.119
L125.568 128.119
L130.032 128.119
L134.496 124.169
L138.96 141.943
L143.424 134.043
L147.888 134.043
L152.352 130.094
L156.816 136.018
L161.28 134.043
L165.744 138.981
L170.208 138.981
L174.672 132.069
L179.136 132.069
L183.6 144.905
L188.064 144.905
L192.528 131.081
L196.992 127.131
L201.456 136.018
L205.92 136.018
L210.384 136.018
L214.848 148.855
L219.312 154.779
L223.776 148.855
L228.24 145.893
L232.704 145.893
L237.168 140.955
L241.632 141.943
L246.096 138.981
L250.56 138.981
L255.024 132.069
L259.488 132.069
L263.952 129.106
L268.416 129.106
L272.88 128.119
L277.344 128.119
L281.808 128.119
L286.272 126.144
L290.736 122.194
L295.2 125.157
L299.664 125.157
L304.128 126.144
L308.592 124.169
L313.056 123.182
L317.52 123.182
L321.984 123.182
L326.448 123.182
L330.912 123.182
L335.376 123.182
L339.84 123.182
L344.304 123.182
L348.768 123.182
L353.232 129.106
L357.696 134.043
L362.16 128.119
L366.624 133.056
L371.088 133.056
L375.552 127.131
L380.016 128.119
L384.48 128.119
L388.944 128.119
L393.408 128.119
L397.872 128.119
L402.336 124.169
L406.8 123.182
L411.264 123.182
L415.728 123.182
L420.192 123.182
L424.656 120.219
L429.12 120.219
L433.584 120.219
L438.048 117.257
L442.512 117.257
L446.976 120.219
L451.44 124.169
L455.904 134.043
L460.368 134.043
L464.832 134.043
L469.296 134.043
L473.76 134.043
L478.224 132.069" style="fill:none;stroke:#0000ff;stroke-linecap:square;"/>
   </g>
   <g id="line2d_2">
    <path clip-path="url(#p7ff5b81e1d)" d="
M72 191.314
L76.464 158.729
L80.928 131.081
L85.392 165.641
L89.856 192.302
L94.32 165.641
L98.784 165.641
L103.248 138.981
L107.712 138.981
L112.176 126.144
L116.64 126.144
L121.104 128.119
L125.568 128.119
L130.032 128.119
L134.496 124.169
L138.96 141.943
L143.424 134.043
L147.888 134.043
L152.352 130.094
L156.816 136.018
L161.28 134.043
L165.744 138.981
L170.208 138.981
L174.672 132.069
L179.136 132.069
L183.6 144.905
L188.064 144.905
L192.528 131.081
L196.992 127.131
L201.456 136.018
L205.92 136.018
L210.384 136.018
L214.848 148.855
L219.312 154.779
L223.776 148.855
L228.24 145.893
L232.704 145.893
L237.168 140.955
L241.632 141.943
L246.096 138.981
L250.56 138.981
L255.024 132.069
L259.488 132.069
L263.952 129.106
L268.416 129.106
L272.88 128.119
L277.344 128.119
L281.808 128.119
L286.272 126.144
L290.736 122.194
L295.2 125.157
L299.664 125.157
L304.128 126.144
L308.592 124.169
L313.056 123.182
L317.52 123.182
L321.984 123.182
L326.448 123.182
L330.912 123.182
L335.376 123.182
L339.84 123.182
L344.304 123.182
L348.768 123.182
L353.232 129.106
L357.696 134.043
L362.16 128.119
L366.624 133.056
L371.088 133.056
L375.552 127.131
L380.016 128.119
L384.48 128.119
L388.944 128.119
L393.408 128.119
L397.872 128.119
L402.336 124.169
L406.8 123.182
L411.264 123.182
L415.728 123.182
L420.192 123.182
L424.656 120.219
L429.12 120.219
L433.584 120.219
L438.048 117.257
L442.512 117.257
L446.976 120.219
L451.44 124.169
L455.904 134.043
L460.368 134.043
L464.832 134.043
L469.296 134.043
L473.76 134.043
L478.224 132.069" style="fill:none;stroke:#0000ff;stroke-linecap:square;"/>
   </g>
   <g id="line2d_3">
    <path clip-path="url(#p7ff5b81e1d)" d="
M72 191.314
L76.464 158.729
L80.928 186.377
L85.392 151.817
L89.856 125.157
L94.32 150.83
L98.784 150.83
L103.248 150.83
L107.712 129.106
L112.176 141.943
L116.64 141.943
L121.104 139.968
L125.568 139.968
L130.032 139.968
L134.496 143.918
L138.96 126.144
L143.424 126.144
L147.888 129.106
L152.352 133.056
L156.816 133.056
L161.28 136.018
L165.744 136.018
L170.208 134.043
L174.672 134.043
L179.136 126.144
L183.6 126.144
L188.064 121.207
L192.528 136.018
L196.992 139.968
L201.456 139.968
L205.92 139.968
L210.384 139.968
L214.848 139.968
L219.312 133.056
L223.776 133.056
L228.24 129.106
L232.704 129.106
L237.168 123.182
L241.632 123.182
L246.096 119.232
L250.56 115.282
L255.024 115.282
L259.488 127.131
L263.952 130.094
L268.416 130.094
L272.88 130.094
L277.344 127.131
L281.808 124.169
L286.272 122.194
L290.736 126.144
L295.2 123.182
L299.664 123.182
L304.128 122.194
L308.592 119.232
L313.056 118.245
L317.52 118.245
L321.984 114.295
L326.448 113.307
L330.912 119.232
L335.376 118.245
L339.84 119.232
L344.304 119.232
L348.768 116.27
L353.232 110.345
L357.696 105.408
L362.16 111.333
L366.624 107.383
L371.088 107.383
L375.552 112.32
L380.016 111.333
L384.48 121.207
L388.944 121.207
L393.408 124.169
L397.872 124.169
L402.336 127.131
L406.8 129.106
L411.264 129.106
L415.728 127.131
L420.192 127.131
L424.656 127.131
L429.12 127.131
L433.584 127.131
L438.048 127.131
L442.512 127.131
L446.976 127.131
L451.44 127.131
L455.904 127.131
L460.368 127.131
L464.832 127.131
L469.296 127.131
L473.76 127.131
L478.224 127.131" style="fill:none;stroke:#008000;stroke-linecap:square;"/>
   </g>
   <g id="line2d_4">
    <path clip-path="url(#p7ff5b81e1d)" d="
M72 191.314
L76.464 158.729
L80.928 186.377
L85.392 151.817
L89.856 125.157
L94.32 150.83
L98.784 150.83
L103.248 150.83
L107.712 129.106
L112.176 141.943
L116.64 141.943
L121.104 139.968
L125.568 139.968
L130.032 139.968
L134.496 143.918
L138.96 126.144
L143.424 126.144
L147.888 129.106
L152.352 133.056
L156.816 133.056
L161.28 136.018
L165.744 136.018
L170.208 134.043
L174.672 134.043
L179.136 126.144
L183.6 126.144
L188.064 121.207
L192.528 136.018
L196.992 139.968
L201.456 139.968
L205.92 139.968
L210.384 139.968
L214.848 139.968
L219.312 133.056
L223.776 133.056
L228.24 129.106
L232.704 129.106
L237.168 123.182
L241.632 123.182
L246.096 119.232
L250.56 115.282
L255.024 115.282
L259.488 127.131
L263.952 130.094
L268.416 130.094
L272.88 130.094
L277.344 127.131
L281.808 124.169
L286.272 122.194
L290.736 126.144
L295.2 123.182
L299.664 123.182
L304.128 122.194
L308.592 119.232
L313.056 118.245
L317.52 118.245
L321.984 114.295
L326.448 113.307
L330.912 119.232
L335.376 118.245
L339.84 119.232
L344.304 119.232
L348.768 116.27
L353.232 110.345
L357.696 105.408
L362.16 111.333
L366.624 107.383
L371.088 107.383
L375.552 112.32
L380.016 111.333
L384.48 121.207
L388.944 121.207
L393.408 124.169
L397.872 124.169
L402.336 127.131
L406.8 129.106
L411.264 129.106
L415.728 127.131
L420.192 127.131
L424.656 127.131
L429.12 127.131
L433.584 127.131
L438.048 127.131
L442.512 127.131
L446.976 127.131
L451.44 127.131
L455.904 127.131
L460.368 127.131
L464.832 127.131
L469.296 127.131
L473.76 127.131
L478.224 127.131" style="fill:none;stroke:#008000;stroke-linecap:square;"/>
   </g>
   <g id="line2d_5">
    <path clip-path="url(#p7ff5b81e1d)" d="
M72 191.314
L76.464 223.899
L80.928 223.899
L85.392 263.397
L89.856 233.774
L94.32 205.138
L98.784 216.987
L103.248 191.314
L107.712 191.314
L112.176 203.163
L116.64 215.013
L121.104 215.013
L125.568 225.874
L130.032 238.711
L134.496 238.711
L138.96 220.937
L143.424 213.038
L147.888 211.063
L152.352 211.063
L156.816 204.151
L161.28 204.151
L165.744 210.075
L170.208 212.05
L174.672 212.05
L179.136 218.962
L183.6 231.799
L188.064 231.799
L192.528 231.799
L196.992 231.799
L201.456 220.937
L205.92 228.837
L210.384 228.837
L214.848 228.837
L219.312 222.912
L223.776 229.824
L228.24 233.774
L232.704 233.774
L237.168 233.774
L241.632 233.774
L246.096 233.774
L250.56 238.711
L255.024 230.811
L259.488 230.811
L263.952 230.811
L268.416 232.786
L272.88 234.761
L277.344 234.761
L281.808 237.723
L286.272 239.698
L290.736 243.648
L295.2 246.61
L299.664 249.573
L304.128 249.573
L308.592 249.573
L313.056 251.547
L317.52 251.547
L321.984 255.497
L326.448 256.485
L330.912 250.56
L335.376 251.547
L339.84 250.56
L344.304 250.56
L348.768 253.522
L353.232 247.598
L357.696 247.598
L362.16 241.673
L366.624 236.736
L371.088 236.736
L375.552 236.736
L380.016 237.723
L384.48 227.849
L388.944 225.874
L393.408 229.824
L397.872 229.824
L402.336 225.874
L406.8 225.874
L411.264 227.849
L415.728 227.849
L420.192 227.849
L424.656 229.824
L429.12 229.824
L433.584 229.824
L438.048 226.862
L442.512 228.837
L446.976 228.837
L451.44 224.887
L455.904 224.887
L460.368 221.925
L464.832 220.937
L469.296 221.925
L473.76 221.925
L478.224 221.925" style="fill:none;stroke:#ff0000;stroke-linecap:square;"/>
   </g>
   <g id="line2d_6">
    <path clip-path="url(#p7ff5b81e1d)" d="
M72 191.314
L76.464 223.899
L80.928 223.899
L85.392 263.397
L89.856 233.774
L94.32 205.138
L98.784 216.987
L103.248 191.314
L107.712 191.314
L112.176 203.163
L116.64 215.013
L121.104 215.013
L125.568 225.874
L130.032 238.711
L134.496 238.711
L138.96 220.937
L143.424 213.038
L147.888 211.063
L152.352 211.063
L156.816 204.151
L161.28 204.151
L165.744 210.075
L170.208 212.05
L174.672 212.05
L179.136 218.962
L183.6 231.799
L188.064 231.799
L192.528 231.799
L196.992 231.799
L201.456 220.937
L205.92 228.837
L210.384 228.837
L214.848 228.837
L219.312 222.912
L223.776 229.824
L228.24 233.774
L232.704 233.774
L237.168 233.774
L241.632 233.774
L246.096 233.774
L250.56 238.711
L255.024 230.811
L259.488 230.811
L263.952 230.811
L268.416 232.786
L272.88 234.761
L277.344 234.761
L281.808 237.723
L286.272 239.698
L290.736 243.648
L295.2 246.61
L299.664 249.573
L304.128 249.573
L308.592 249.573
L313.056 251.547
L317.52 251.547
L321.984 255.497
L326.448 256.485
L330.912 250.56
L335.376 251.547
L339.84 250.56
L344.304 250.56
L348.768 253.522
L353.232 247.598
L357.696 247.598
L362.16 241.673
L366.624 236.736
L371.088 236.736
L375.552 236.736
L380.016 237.723
L384.48 227.849
L388.944 225.874
L393.408 229.824
L397.872 229.824
L402.336 225.874
L406.8 225.874
L411.264 227.849
L415.728 227.849
L420.192 227.849
L424.656 229.824
L429.12 229.824
L433.584 229.824
L438.048 226.862
L442.512 228.837
L446.976 228.837
L451.44 224.887
L455.904 224.887
L460.368 221.925
L464.832 220.937
L469.296 221.925
L473.76 221.925
L478.224 221.925" style="fill:none;stroke:#ff0000;stroke-linecap:square;"/>
   </g>
   <g id="line2d_7">
    <path clip-path="url(#p7ff5b81e1d)" d="
M72 191.314
L76.464 223.899
L80.928 223.899
L85.392 185.39
L89.856 185.39
L94.32 185.39
L98.784 169.591
L103.248 201.189
L107.712 201.189
L112.176 201.189
L116.64 201.189
L121.104 201.189
L125.568 201.189
L130.032 201.189
L134.496 201.189
L138.96 201.189
L143.424 201.189
L147.888 201.189
L152.352 201.189
L156.816 187.365
L161.28 192.302
L165.744 184.402
L170.208 188.352
L174.672 197.239
L179.136 197.239
L183.6 180.453
L188.064 180.453
L192.528 180.453
L196.992 180.453
L201.456 165.641
L205.92 165.641
L210.384 161.691
L214.848 142.93
L219.312 142.93
L223.776 142.93
L228.24 142.93
L232.704 142.93
L237.168 149.842
L241.632 148.855
L246.096 153.792
L250.56 153.792
L255.024 162.679
L259.488 148.855
L263.952 148.855
L268.416 148.855
L272.88 151.817
L277.344 154.779
L281.808 154.779
L286.272 156.754
L290.736 151.817
L295.2 147.867
L299.664 143.918
L304.128 144.905
L308.592 147.867
L313.056 149.842
L317.52 149.842
L321.984 144.905
L326.448 145.893
L330.912 145.893
L335.376 145.893
L339.84 145.893
L344.304 145.893
L348.768 145.893
L353.232 145.893
L357.696 145.893
L362.16 145.893
L366.624 145.893
L371.088 145.893
L375.552 145.893
L380.016 145.893
L384.48 145.893
L388.944 145.893
L393.408 140.955
L397.872 138.981
L402.336 138.981
L406.8 137.006
L411.264 135.031
L415.728 135.031
L420.192 135.031
L424.656 135.031
L429.12 135.031
L433.584 135.031
L438.048 138.981
L442.512 136.018
L446.976 136.018
L451.44 131.081
L455.904 118.245
L460.368 118.245
L464.832 118.245
L469.296 118.245
L473.76 118.245
L478.224 120.219" style="fill:none;stroke:#00bfbf;stroke-linecap:square;"/>
   </g>
   <g id="line2d_8">
    <path clip-path="url(#p7ff5b81e1d)" d="
M72 191.314
L76.464 223.899
L80.928 223.899
L85.392 185.39
L89.856 185.39
L94.32 185.39
L98.784 169.591
L103.248 201.189
L107.712 201.189
L112.176 201.189
L116.64 201.189
L121.104 201.189
L125.568 201.189
L130.032 201.189
L134.496 201.189
L138.96 201.189
L143.424 201.189
L147.888 201.189
L152.352 201.189
L156.816 187.365
L161.28 192.302
L165.744 184.402
L170.208 188.352
L174.672 197.239
L179.136 197.239
L183.6 180.453
L188.064 180.453
L192.528 180.453
L196.992 180.453
L201.456 165.641
L205.92 165.641
L210.384 161.691
L214.848 142.93
L219.312 142.93
L223.776 142.93
L228.24 142.93
L232.704 142.93
L237.168 149.842
L241.632 148.855
L246.096 153.792
L250.56 153.792
L255.024 162.679
L259.488 148.855
L263.952 148.855
L268.416 148.855
L272.88 151.817
L277.344 154.779
L281.808 154.779
L286.272 156.754
L290.736 151.817
L295.2 147.867
L299.664 143.918
L304.128 144.905
L308.592 147.867
L313.056 149.842
L317.52 149.842
L321.984 144.905
L326.448 145.893
L330.912 145.893
L335.376 145.893
L339.84 145.893
L344.304 145.893
L348.768 145.893
L353.232 145.893
L357.696 145.893
L362.16 145.893
L366.624 145.893
L371.088 145.893
L375.552 145.893
L380.016 145.893
L384.48 145.893
L388.944 145.893
L393.408 140.955
L397.872 138.981
L402.336 138.981
L406.8 137.006
L411.264 135.031
L415.728 135.031
L420.192 135.031
L424.656 135.031
L429.12 135.031
L433.584 135.031
L438.048 138.981
L442.512 136.018
L446.976 136.018
L451.44 131.081
L455.904 118.245
L460.368 118.245
L464.832 118.245
L469.296 118.245
L473.76 118.245
L478.224 120.219" style="fill:none;stroke:#00bfbf;stroke-linecap:square;"/>
   </g>
   <g id="line2d_9">
    <path clip-path="url(#p7ff5b81e1d)" d="
M72 191.314
L76.464 191.314
L80.928 191.314
L85.392 191.314
L89.856 191.314
L94.32 191.314
L98.784 217.975
L103.248 217.975
L107.712 255.497
L112.176 255.497
L116.64 255.497
L121.104 252.535
L125.568 234.761
L130.032 234.761
L134.496 241.673
L138.96 266.359
L143.424 276.233
L147.888 276.233
L152.352 276.233
L156.816 276.233
L161.28 276.233
L165.744 276.233
L170.208 276.233
L174.672 276.233
L179.136 289.07
L183.6 289.07
L188.064 295.982
L192.528 273.271
L196.992 268.334
L201.456 268.334
L205.92 256.485
L210.384 260.434
L214.848 279.195
L219.312 279.195
L223.776 279.195
L228.24 279.195
L232.704 272.283
L237.168 272.283
L241.632 272.283
L246.096 272.283
L250.56 278.208
L255.024 278.208
L259.488 294.007
L263.952 294.007
L268.416 291.045
L272.88 291.045
L277.344 291.045
L281.808 294.994
L286.272 294.994
L290.736 294.994
L295.2 294.994
L299.664 294.994
L304.128 294.994
L308.592 294.994
L313.056 294.994
L317.52 294.994
L321.984 294.994
L326.448 294.994
L330.912 294.994
L335.376 294.994
L339.84 294.994
L344.304 294.994
L348.768 294.994
L353.232 294.994
L357.696 294.994
L362.16 294.994
L366.624 294.994
L371.088 294.994
L375.552 294.994
L380.016 294.994
L384.48 294.994
L388.944 294.994
L393.408 287.095
L397.872 290.057
L402.336 290.057
L406.8 290.057
L411.264 293.019
L415.728 290.057
L420.192 290.057
L424.656 285.12
L429.12 285.12
L433.584 279.195
L438.048 279.195
L442.512 283.145
L446.976 283.145
L451.44 283.145
L455.904 283.145
L460.368 278.208
L464.832 278.208
L469.296 275.246
L473.76 275.246
L478.224 275.246" style="fill:none;stroke:#bf00bf;stroke-linecap:square;"/>
   </g>
   <g id="line2d_10">
    <path clip-path="url(#p7ff5b81e1d)" d="
M72 191.314
L76.464 191.314
L80.928 191.314
L85.392 191.314
L89.856 191.314
L94.32 191.314
L98.784 217.975
L103.248 217.975
L107.712 255.497
L112.176 255.497
L116.64 255.497
L121.104 252.535
L125.568 234.761
L130.032 234.761
L134.496 241.673
L138.96 266.359
L143.424 276.233
L147.888 276.233
L152.352 276.233
L156.816 276.233
L161.28 276.233
L165.744 276.233
L170.208 276.233
L174.672 276.233
L179.136 289.07
L183.6 289.07
L188.064 295.982
L192.528 273.271
L196.992 268.334
L201.456 268.334
L205.92 256.485
L210.384 260.434
L214.848 279.195
L219.312 279.195
L223.776 279.195
L228.24 279.195
L232.704 272.283
L237.168 272.283
L241.632 272.283
L246.096 272.283
L250.56 278.208
L255.024 278.208
L259.488 294.007
L263.952 294.007
L268.416 291.045
L272.88 291.045
L277.344 291.045
L281.808 294.994
L286.272 294.994
L290.736 294.994
L295.2 294.994
L299.664 294.994
L304.128 294.994
L308.592 294.994
L313.056 294.994
L317.52 294.994
L321.984 294.994
L326.448 294.994
L330.912 294.994
L335.376 294.994
L339.84 294.994
L344.304 294.994
L348.768 294.994
L353.232 294.994
L357.696 294.994
L362.16 294.994
L366.624 294.994
L371.088 294.994
L375.552 294.994
L380.016 294.994
L384.48 294.994
L388.944 294.994
L393.408 287.095
L397.872 290.057
L402.336 290.057
L406.8 290.057
L411.264 293.019
L415.728 290.057
L420.192 290.057
L424.656 285.12
L429.12 285.12
L433.584 279.195
L438.048 279.195
L442.512 283.145
L446.976 283.145
L451.44 283.145
L455.904 283.145
L460.368 278.208
L464.832 278.208
L469.296 275.246
L473.76 275.246
L478.224 275.246" style="fill:none;stroke:#bf00bf;stroke-linecap:square;"/>
   </g>
   <g id="line2d_11">
    <path clip-path="url(#p7ff5b81e1d)" d="
M72 191.314
L76.464 191.314
L80.928 230.811
L85.392 230.811
L89.856 272.283
L94.32 310.793
L98.784 295.982
L103.248 295.982
L107.712 270.309
L112.176 255.497
L116.64 255.497
L121.104 257.472
L125.568 269.321
L130.032 283.145
L134.496 279.195
L138.96 279.195
L143.424 279.195
L147.888 281.17
L152.352 286.107
L156.816 286.107
L161.28 286.107
L165.744 286.107
L170.208 283.145
L174.672 283.145
L179.136 275.246
L183.6 275.246
L188.064 275.246
L192.528 291.045
L196.992 291.045
L201.456 302.894
L205.92 294.007
L210.384 297.957
L214.848 283.145
L219.312 289.07
L223.776 289.07
L228.24 289.07
L232.704 294.994
L237.168 294.994
L241.632 294.994
L246.096 294.994
L250.56 290.057
L255.024 290.057
L259.488 277.221
L263.952 277.221
L268.416 279.195
L272.88 279.195
L277.344 277.221
L281.808 274.258
L286.272 274.258
L290.736 274.258
L295.2 274.258
L299.664 274.258
L304.128 274.258
L308.592 274.258
L313.056 274.258
L317.52 274.258
L321.984 274.258
L326.448 274.258
L330.912 274.258
L335.376 274.258
L339.84 274.258
L344.304 274.258
L348.768 274.258
L353.232 274.258
L357.696 274.258
L362.16 274.258
L366.624 274.258
L371.088 274.258
L375.552 274.258
L380.016 272.283
L384.48 256.485
L388.944 258.459
L393.408 258.459
L397.872 256.485
L402.336 256.485
L406.8 259.447
L411.264 256.485
L415.728 259.447
L420.192 259.447
L424.656 262.409
L429.12 262.409
L433.584 258.459
L438.048 258.459
L442.512 258.459
L446.976 263.397
L451.44 268.334
L455.904 268.334
L460.368 272.283
L464.832 272.283
L469.296 271.296
L473.76 271.296
L478.224 271.296" style="fill:none;stroke:#bfbf00;stroke-linecap:square;"/>
   </g>
   <g id="line2d_12">
    <path clip-path="url(#p7ff5b81e1d)" d="
M72 191.314
L76.464 191.314
L80.928 230.811
L85.392 230.811
L89.856 272.283
L94.32 310.793
L98.784 295.982
L103.248 295.982
L107.712 270.309
L112.176 255.497
L116.64 255.497
L121.104 257.472
L125.568 269.321
L130.032 283.145
L134.496 279.195
L138.96 279.195
L143.424 279.195
L147.888 281.17
L152.352 286.107
L156.816 286.107
L161.28 286.107
L165.744 286.107
L170.208 283.145
L174.672 283.145
L179.136 275.246
L183.6 275.246
L188.064 275.246
L192.528 291.045
L196.992 291.045
L201.456 302.894
L205.92 294.007
L210.384 297.957
L214.848 283.145
L219.312 289.07
L223.776 289.07
L228.24 289.07
L232.704 294.994
L237.168 294.994
L241.632 294.994
L246.096 294.994
L250.56 290.057
L255.024 290.057
L259.488 277.221
L263.952 277.221
L268.416 279.195
L272.88 279.195
L277.344 277.221
L281.808 274.258
L286.272 274.258
L290.736 274.258
L295.2 274.258
L299.664 274.258
L304.128 274.258
L308.592 274.258
L313.056 274.258
L317.52 274.258
L321.984 274.258
L326.448 274.258
L330.912 274.258
L335.376 274.258
L339.84 274.258
L344.304 274.258
L348.768 274.258
L353.232 274.258
L357.696 274.258
L362.16 274.258
L366.624 274.258
L371.088 274.258
L375.552 274.258
L380.016 272.283
L384.48 256.485
L388.944 258.459
L393.408 258.459
L397.872 256.485
L402.336 256.485
L406.8 259.447
L411.264 256.485
L415.728 259.447
L420.192 259.447
L424.656 262.409
L429.12 262.409
L433.584 258.459
L438.048 258.459
L442.512 258.459
L446.976 263.397
L451.44 268.334
L455.904 268.334
L460.368 272.283
L464.832 272.283
L469.296 271.296
L473.76 271.296
L478.224 271.296" style="fill:none;stroke:#bfbf00;stroke-linecap:square;"/>
   </g>
   <g id="matplotlib.axis_1">
    <g id="xtick_1">
     <g id="line2d_13">
      <defs>
       <path d="
M0 0
L0 -4" id="m93b0483c22" style="stroke:#000000;stroke-width:0.5;"/>
      </defs>
      <g>
       <use style="stroke:#000000;stroke-width:0.5;" x="72.0" xlink:href="#m93b0483c22" y="388.8"/>
      </g>
     </g>
     <g id="line2d_14">
      <defs>
       <path d="
M0 0
L0 4" id="m741efc42ff" style="stroke:#000000;stroke-width:0.5;"/>
      </defs>
      <g>
       <use style="stroke:#000000;stroke-width:0.5;" x="72.0" xlink:href="#m741efc42ff" y="43.2"/>
      </g>
     </g>
     <g id="text_1">
      <!-- 0 -->
      <defs>
       <path d="
M31.7812 66.4062
Q24.1719 66.4062 20.3281 58.9062
Q16.5 51.4219 16.5 36.375
Q16.5 21.3906 20.3281 13.8906
Q24.1719 6.39062 31.7812 6.39062
Q39.4531 6.39062 43.2812 13.8906
Q47.125 21.3906 47.125 36.375
Q47.125 51.4219 43.2812 58.9062
Q39.4531 66.4062 31.7812 66.4062
M31.7812 74.2188
Q44.0469 74.2188 50.5156 64.5156
Q56.9844 54.8281 56.9844 36.375
Q56.9844 17.9688 50.5156 8.26562
Q44.0469 -1.42188 31.7812 -1.42188
Q19.5312 -1.42188 13.0625 8.26562
Q6.59375 17.9688 6.59375 36.375
Q6.59375 54.8281 13.0625 64.5156
Q19.5312 74.2188 31.7812 74.2188" id="DejaVuSans-30"/>
      </defs>
      <g transform="translate(68.9765625 401.918125)scale(0.12 -0.12)">
       <use xlink:href="#DejaVuSans-30"/>
      </g>
     </g>
    </g>
    <g id="xtick_2">
     <g id="line2d_15">
      <g>
       <use style="stroke:#000000;stroke-width:0.5;" x="161.28" xlink:href="#m93b0483c22" y="388.8"/>
      </g>
     </g>
     <g id="line2d_16">
      <g>
       <use style="stroke:#000000;stroke-width:0.5;" x="161.28" xlink:href="#m741efc42ff" y="43.2"/>
      </g>
     </g>
     <g id="text_2">
      <!-- 20 -->
      <defs>
       <path d="
M19.1875 8.29688
L53.6094 8.29688
L53.6094 0
L7.32812 0
L7.32812 8.29688
Q12.9375 14.1094 22.625 23.8906
Q32.3281 33.6875 34.8125 36.5312
Q39.5469 41.8438 41.4219 45.5312
Q43.3125 49.2188 43.3125 52.7812
Q43.3125 58.5938 39.2344 62.25
Q35.1562 65.9219 28.6094 65.9219
Q23.9688 65.9219 18.8125 64.3125
Q13.6719 62.7031 7.8125 59.4219
L7.8125 69.3906
Q13.7656 71.7812 18.9375 73
Q24.125 74.2188 28.4219 74.2188
Q39.75 74.2188 46.4844 68.5469
Q53.2188 62.8906 53.2188 53.4219
Q53.2188 48.9219 51.5312 44.8906
Q49.8594 40.875 45.4062 35.4062
Q44.1875 33.9844 37.6406 27.2188
Q31.1094 20.4531 19.1875 8.29688" id="DejaVuSans-32"/>
      </defs>
      <g transform="translate(154.483125 401.918125)scale(0.12 -0.12)">
       <use xlink:href="#DejaVuSans-32"/>
       <use x="63.623046875" xlink:href="#DejaVuSans-30"/>
      </g>
     </g>
    </g>
    <g id="xtick_3">
     <g id="line2d_17">
      <g>
       <use style="stroke:#000000;stroke-width:0.5;" x="250.56" xlink:href="#m93b0483c22" y="388.8"/>
      </g>
     </g>
     <g id="line2d_18">
      <g>
       <use style="stroke:#000000;stroke-width:0.5;" x="250.56" xlink:href="#m741efc42ff" y="43.2"/>
      </g>
     </g>
     <g id="text_3">
      <!-- 40 -->
      <defs>
       <path d="
M37.7969 64.3125
L12.8906 25.3906
L37.7969 25.3906
z

M35.2031 72.9062
L47.6094 72.9062
L47.6094 25.3906
L58.0156 25.3906
L58.0156 17.1875
L47.6094 17.1875
L47.6094 0
L37.7969 0
L37.7969 17.1875
L4.89062 17.1875
L4.89062 26.7031
z
" id="DejaVuSans-34"/>
      </defs>
      <g transform="translate(243.616875 401.918125)scale(0.12 -0.12)">
       <use xlink:href="#DejaVuSans-34"/>
       <use x="63.623046875" xlink:href="#DejaVuSans-30"/>
      </g>
     </g>
    </g>
    <g id="xtick_4">
     <g id="line2d_19">
      <g>
       <use style="stroke:#000000;stroke-width:0.5;" x="339.84" xlink:href="#m93b0483c22" y="388.8"/>
      </g>
     </g>
     <g id="line2d_20">
      <g>
       <use style="stroke:#000000;stroke-width:0.5;" x="339.84" xlink:href="#m741efc42ff" y="43.2"/>
      </g>
     </g>
     <g id="text_4">
      <!-- 60 -->
      <defs>
       <path d="
M33.0156 40.375
Q26.375 40.375 22.4844 35.8281
Q18.6094 31.2969 18.6094 23.3906
Q18.6094 15.5312 22.4844 10.9531
Q26.375 6.39062 33.0156 6.39062
Q39.6562 6.39062 43.5312 10.9531
Q47.4062 15.5312 47.4062 23.3906
Q47.4062 31.2969 43.5312 35.8281
Q39.6562 40.375 33.0156 40.375
M52.5938 71.2969
L52.5938 62.3125
Q48.875 64.0625 45.0938 64.9844
Q41.3125 65.9219 37.5938 65.9219
Q27.8281 65.9219 22.6719 59.3281
Q17.5312 52.7344 16.7969 39.4062
Q19.6719 43.6562 24.0156 45.9219
Q28.375 48.1875 33.5938 48.1875
Q44.5781 48.1875 50.9531 41.5156
Q57.3281 34.8594 57.3281 23.3906
Q57.3281 12.1562 50.6875 5.35938
Q44.0469 -1.42188 33.0156 -1.42188
Q20.3594 -1.42188 13.6719 8.26562
Q6.98438 17.9688 6.98438 36.375
Q6.98438 53.6562 15.1875 63.9375
Q23.3906 74.2188 37.2031 74.2188
Q40.9219 74.2188 44.7031 73.4844
Q48.4844 72.75 52.5938 71.2969" id="DejaVuSans-36"/>
      </defs>
      <g transform="translate(333.0225 401.918125)scale(0.12 -0.12)">
       <use xlink:href="#DejaVuSans-36"/>
       <use x="63.623046875" xlink:href="#DejaVuSans-30"/>
      </g>
     </g>
    </g>
    <g id="xtick_5">
     <g id="line2d_21">
      <g>
       <use style="stroke:#000000;stroke-width:0.5;" x="429.12" xlink:href="#m93b0483c22" y="388.8"/>
      </g>
     </g>
     <g id="line2d_22">
      <g>
       <use style="stroke:#000000;stroke-width:0.5;" x="429.12" xlink:href="#m741efc42ff" y="43.2"/>
      </g>
     </g>
     <g id="text_5">
      <!-- 80 -->
      <defs>
       <path d="
M31.7812 34.625
Q24.75 34.625 20.7188 30.8594
Q16.7031 27.0938 16.7031 20.5156
Q16.7031 13.9219 20.7188 10.1562
Q24.75 6.39062 31.7812 6.39062
Q38.8125 6.39062 42.8594 10.1719
Q46.9219 13.9688 46.9219 20.5156
Q46.9219 27.0938 42.8906 30.8594
Q38.875 34.625 31.7812 34.625
M21.9219 38.8125
Q15.5781 40.375 12.0312 44.7188
Q8.5 49.0781 8.5 55.3281
Q8.5 64.0625 14.7188 69.1406
Q20.9531 74.2188 31.7812 74.2188
Q42.6719 74.2188 48.875 69.1406
Q55.0781 64.0625 55.0781 55.3281
Q55.0781 49.0781 51.5312 44.7188
Q48 40.375 41.7031 38.8125
Q48.8281 37.1562 52.7969 32.3125
Q56.7812 27.4844 56.7812 20.5156
Q56.7812 9.90625 50.3125 4.23438
Q43.8438 -1.42188 31.7812 -1.42188
Q19.7344 -1.42188 13.25 4.23438
Q6.78125 9.90625 6.78125 20.5156
Q6.78125 27.4844 10.7812 32.3125
Q14.7969 37.1562 21.9219 38.8125
M18.3125 54.3906
Q18.3125 48.7344 21.8438 45.5625
Q25.3906 42.3906 31.7812 42.3906
Q38.1406 42.3906 41.7188 45.5625
Q45.3125 48.7344 45.3125 54.3906
Q45.3125 60.0625 41.7188 63.2344
Q38.1406 66.4062 31.7812 66.4062
Q25.3906 66.4062 21.8438 63.2344
Q18.3125 60.0625 18.3125 54.3906" id="DejaVuSans-38"/>
      </defs>
      <g transform="translate(422.2903125 401.918125)scale(0.12 -0.12)">
       <use xlink:href="#DejaVuSans-38"/>
       <use x="63.623046875" xlink:href="#DejaVuSans-30"/>
      </g>
     </g>
    </g>
    <g id="xtick_6">
     <g id="line2d_23">
      <g>
       <use style="stroke:#000000;stroke-width:0.5;" x="518.4" xlink:href="#m93b0483c22" y="388.8"/>
      </g>
     </g>
     <g id="line2d_24">
      <g>
       <use style="stroke:#000000;stroke-width:0.5;" x="518.4" xlink:href="#m741efc42ff" y="43.2"/>
      </g>
     </g>
     <g id="text_6">
      <!-- 100 -->
      <defs>
       <path d="
M12.4062 8.29688
L28.5156 8.29688
L28.5156 63.9219
L10.9844 60.4062
L10.9844 69.3906
L28.4219 72.9062
L38.2812 72.9062
L38.2812 8.29688
L54.3906 8.29688
L54.3906 0
L12.4062 0
z
" id="DejaVuSans-31"/>
      </defs>
      <g transform="translate(508.005 401.918125)scale(0.12 -0.12)">
       <use xlink:href="#DejaVuSans-31"/>
       <use x="63.623046875" xlink:href="#DejaVuSans-30"/>
       <use x="127.24609375" xlink:href="#DejaVuSans-30"/>
      </g>
     </g>
    </g>
   </g>
   <g id="matplotlib.axis_2">
    <g id="ytick_1">
     <g id="line2d_25">
      <defs>
       <path d="
M0 0
L4 0" id="m728421d6d4" style="stroke:#000000;stroke-width:0.5;"/>
      </defs>
      <g>
       <use style="stroke:#000000;stroke-width:0.5;" x="72.0" xlink:href="#m728421d6d4" y="388.8"/>
      </g>
     </g>
     <g id="line2d_26">
      <defs>
       <path d="
M0 0
L-4 0" id="mcb0005524f" style="stroke:#000000;stroke-width:0.5;"/>
      </defs>
      <g>
       <use style="stroke:#000000;stroke-width:0.5;" x="518.4" xlink:href="#mcb0005524f" y="388.8"/>
      </g>
     </g>
     <g id="text_7">
      <!-- 5 -->
      <defs>
       <path d="
M10.7969 72.9062
L49.5156 72.9062
L49.5156 64.5938
L19.8281 64.5938
L19.8281 46.7344
Q21.9688 47.4688 24.1094 47.8281
Q26.2656 48.1875 28.4219 48.1875
Q40.625 48.1875 47.75 41.5
Q54.8906 34.8125 54.8906 23.3906
Q54.8906 11.625 47.5625 5.09375
Q40.2344 -1.42188 26.9062 -1.42188
Q22.3125 -1.42188 17.5469 -0.640625
Q12.7969 0.140625 7.71875 1.70312
L7.71875 11.625
Q12.1094 9.23438 16.7969 8.0625
Q21.4844 6.89062 26.7031 6.89062
Q35.1562 6.89062 40.0781 11.3281
Q45.0156 15.7656 45.0156 23.3906
Q45.0156 31 40.0781 35.4375
Q35.1562 39.8906 26.7031 39.8906
Q22.75 39.8906 18.8125 39.0156
Q14.8906 38.1406 10.7969 36.2812
z
" id="DejaVuSans-35"/>
      </defs>
      <g transform="translate(62.339375 392.11125)scale(0.12 -0.12)">
       <use xlink:href="#DejaVuSans-35"/>
      </g>
     </g>
    </g>
    <g id="ytick_2">
     <g id="line2d_27">
      <g>
       <use style="stroke:#000000;stroke-width:0.5;" x="72.0" xlink:href="#m728421d6d4" y="339.428571429"/>
      </g>
     </g>
     <g id="line2d_28">
      <g>
       <use style="stroke:#000000;stroke-width:0.5;" x="518.4" xlink:href="#mcb0005524f" y="339.428571429"/>
      </g>
     </g>
     <g id="text_8">
      <!-- 10 -->
      <g transform="translate(54.845 342.739821429)scale(0.12 -0.12)">
       <use xlink:href="#DejaVuSans-31"/>
       <use x="63.623046875" xlink:href="#DejaVuSans-30"/>
      </g>
     </g>
    </g>
    <g id="ytick_3">
     <g id="line2d_29">
      <g>
       <use style="stroke:#000000;stroke-width:0.5;" x="72.0" xlink:href="#m728421d6d4" y="290.057142857"/>
      </g>
     </g>
     <g id="line2d_30">
      <g>
       <use style="stroke:#000000;stroke-width:0.5;" x="518.4" xlink:href="#mcb0005524f" y="290.057142857"/>
      </g>
     </g>
     <g id="text_9">
      <!-- 15 -->
      <g transform="translate(55.09625 293.368392857)scale(0.12 -0.12)">
       <use xlink:href="#DejaVuSans-31"/>
       <use x="63.623046875" xlink:href="#DejaVuSans-35"/>
      </g>
     </g>
    </g>
    <g id="ytick_4">
     <g id="line2d_31">
      <g>
       <use style="stroke:#000000;stroke-width:0.5;" x="72.0" xlink:href="#m728421d6d4" y="240.685714286"/>
      </g>
     </g>
     <g id="line2d_32">
      <g>
       <use style="stroke:#000000;stroke-width:0.5;" x="518.4" xlink:href="#mcb0005524f" y="240.685714286"/>
      </g>
     </g>
     <g id="text_10">
      <!-- 20 -->
      <g transform="translate(54.40625 243.996964286)scale(0.12 -0.12)">
       <use xlink:href="#DejaVuSans-32"/>
       <use x="63.623046875" xlink:href="#DejaVuSans-30"/>
      </g>
     </g>
    </g>
    <g id="ytick_5">
     <g id="line2d_33">
      <g>
       <use style="stroke:#000000;stroke-width:0.5;" x="72.0" xlink:href="#m728421d6d4" y="191.314285714"/>
      </g>
     </g>
     <g id="line2d_34">
      <g>
       <use style="stroke:#000000;stroke-width:0.5;" x="518.4" xlink:href="#mcb0005524f" y="191.314285714"/>
      </g>
     </g>
     <g id="text_11">
      <!-- 25 -->
      <g transform="translate(54.6575 194.625535714)scale(0.12 -0.12)">
       <use xlink:href="#DejaVuSans-32"/>
       <use x="63.623046875" xlink:href="#DejaVuSans-35"/>
      </g>
     </g>
    </g>
    <g id="ytick_6">
     <g id="line2d_35">
      <g>
       <use style="stroke:#000000;stroke-width:0.5;" x="72.0" xlink:href="#m728421d6d4" y="141.942857143"/>
      </g>
     </g>
     <g id="line2d_36">
      <g>
       <use style="stroke:#000000;stroke-width:0.5;" x="518.4" xlink:href="#mcb0005524f" y="141.942857143"/>
      </g>
     </g>
     <g id="text_12">
      <!-- 30 -->
      <defs>
       <path d="
M40.5781 39.3125
Q47.6562 37.7969 51.625 33
Q55.6094 28.2188 55.6094 21.1875
Q55.6094 10.4062 48.1875 4.48438
Q40.7656 -1.42188 27.0938 -1.42188
Q22.5156 -1.42188 17.6562 -0.515625
Q12.7969 0.390625 7.625 2.20312
L7.625 11.7188
Q11.7188 9.32812 16.5938 8.10938
Q21.4844 6.89062 26.8125 6.89062
Q36.0781 6.89062 40.9375 10.5469
Q45.7969 14.2031 45.7969 21.1875
Q45.7969 27.6406 41.2812 31.2656
Q36.7656 34.9062 28.7188 34.9062
L20.2188 34.9062
L20.2188 43.0156
L29.1094 43.0156
Q36.375 43.0156 40.2344 45.9219
Q44.0938 48.8281 44.0938 54.2969
Q44.0938 59.9062 40.1094 62.9062
Q36.1406 65.9219 28.7188 65.9219
Q24.6562 65.9219 20.0156 65.0312
Q15.375 64.1562 9.8125 62.3125
L9.8125 71.0938
Q15.4375 72.6562 20.3438 73.4375
Q25.25 74.2188 29.5938 74.2188
Q40.8281 74.2188 47.3594 69.1094
Q53.9062 64.0156 53.9062 55.3281
Q53.9062 49.2656 50.4375 45.0938
Q46.9688 40.9219 40.5781 39.3125" id="DejaVuSans-33"/>
      </defs>
      <g transform="translate(54.441875 145.254107143)scale(0.12 -0.12)">
       <use xlink:href="#DejaVuSans-33"/>
       <use x="63.623046875" xlink:href="#DejaVuSans-30"/>
      </g>
     </g>
    </g>
    <g id="ytick_7">
     <g id="line2d_37">
      <g>
       <use style="stroke:#000000;stroke-width:0.5;" x="72.0" xlink:href="#m728421d6d4" y="92.5714285714"/>
      </g>
     </g>
     <g id="line2d_38">
      <g>
       <use style="stroke:#000000;stroke-width:0.5;" x="518.4" xlink:href="#mcb0005524f" y="92.5714285714"/>
      </g>
     </g>
     <g id="text_13">
      <!-- 35 -->
      <g transform="translate(54.693125 95.8826785714)scale(0.12 -0.12)">
       <use xlink:href="#DejaVuSans-33"/>
       <use x="63.623046875" xlink:href="#DejaVuSans-35"/>
      </g>
     </g>
    </g>
    <g id="ytick_8">
     <g id="line2d_39">
      <g>
       <use style="stroke:#000000;stroke-width:0.5;" x="72.0" xlink:href="#m728421d6d4" y="43.2"/>
      </g>
     </g>
     <g id="line2d_40">
      <g>
       <use style="stroke:#000000;stroke-width:0.5;" x="518.4" xlink:href="#mcb0005524f" y="43.2"/>
      </g>
     </g>
     <g id="text_14">
      <!-- 40 -->
      <g transform="translate(54.11375 46.51125)scale(0.12 -0.12)">
       <use xlink:href="#DejaVuSans-34"/>
       <use x="63.623046875" xlink:href="#DejaVuSans-30"/>
      </g>
     </g>
    </g>
   </g>
   <g id="patch_3">
    <path d="
M72 43.2
L518.4 43.2" style="fill:none;stroke:#000000;"/>
   </g>
   <g id="patch_4">
    <path d="
M518.4 388.8
L518.4 43.2" style="fill:none;stroke:#000000;"/>
   </g>
   <g id="patch_5">
    <path d="
M72 388.8
L518.4 388.8" style="fill:none;stroke:#000000;"/>
   </g>
   <g id="patch_6">
    <path d="
M72 388.8
L72 43.2" style="fill:none;stroke:#000000;"/>
   </g>
   <g id="legend_1">
    <g id="patch_7">
     <path d="
M79.2 381.6
L385.722 381.6
L385.722 335.007
L79.2 335.007
L79.2 381.6
z
" style="fill:#ffffff;stroke:#000000;"/>
    </g>
    <g id="line2d_41">
     <path d="
M89.28 346.669
L109.44 346.669" style="fill:none;stroke:#0000ff;stroke-linecap:square;"/>
    </g>
    <g id="line2d_42"/>
    <g id="text_15">
     <!-- evan -->
     <defs>
      <path d="
M54.8906 33.0156
L54.8906 0
L45.9062 0
L45.9062 32.7188
Q45.9062 40.4844 42.875 44.3281
Q39.8438 48.1875 33.7969 48.1875
Q26.5156 48.1875 22.3125 43.5469
Q18.1094 38.9219 18.1094 30.9062
L18.1094 0
L9.07812 0
L9.07812 54.6875
L18.1094 54.6875
L18.1094 46.1875
Q21.3438 51.125 25.7031 53.5625
Q30.0781 56 35.7969 56
Q45.2188 56 50.0469 50.1719
Q54.8906 44.3438 54.8906 33.0156" id="DejaVuSans-6e"/>
      <path d="
M56.2031 29.5938
L56.2031 25.2031
L14.8906 25.2031
Q15.4844 15.9219 20.4844 11.0625
Q25.4844 6.20312 34.4219 6.20312
Q39.5938 6.20312 44.4531 7.46875
Q49.3125 8.73438 54.1094 11.2812
L54.1094 2.78125
Q49.2656 0.734375 44.1875 -0.34375
Q39.1094 -1.42188 33.8906 -1.42188
Q20.7969 -1.42188 13.1562 6.1875
Q5.51562 13.8125 5.51562 26.8125
Q5.51562 40.2344 12.7656 48.1094
Q20.0156 56 32.3281 56
Q43.3594 56 49.7812 48.8906
Q56.2031 41.7969 56.2031 29.5938
M47.2188 32.2344
Q47.125 39.5938 43.0938 43.9844
Q39.0625 48.3906 32.4219 48.3906
Q24.9062 48.3906 20.3906 44.1406
Q15.875 39.8906 15.1875 32.1719
z
" id="DejaVuSans-65"/>
      <path d="
M34.2812 27.4844
Q23.3906 27.4844 19.1875 25
Q14.9844 22.5156 14.9844 16.5
Q14.9844 11.7188 18.1406 8.90625
Q21.2969 6.10938 26.7031 6.10938
Q34.1875 6.10938 38.7031 11.4062
Q43.2188 16.7031 43.2188 25.4844
L43.2188 27.4844
z

M52.2031 31.2031
L52.2031 0
L43.2188 0
L43.2188 8.29688
Q40.1406 3.32812 35.5469 0.953125
Q30.9531 -1.42188 24.3125 -1.42188
Q15.9219 -1.42188 10.9531 3.29688
Q6 8.01562 6 15.9219
Q6 25.1406 12.1719 29.8281
Q18.3594 34.5156 30.6094 34.5156
L43.2188 34.5156
L43.2188 35.4062
Q43.2188 41.6094 39.1406 45
Q35.0625 48.3906 27.6875 48.3906
Q23 48.3906 18.5469 47.2656
Q14.1094 46.1406 10.0156 43.8906
L10.0156 52.2031
Q14.9375 54.1094 19.5781 55.0469
Q24.2188 56 28.6094 56
Q40.4844 56 46.3438 49.8438
Q52.2031 43.7031 52.2031 31.2031" id="DejaVuSans-61"/>
      <path d="
M2.98438 54.6875
L12.5 54.6875
L29.5938 8.79688
L46.6875 54.6875
L56.2031 54.6875
L35.6875 0
L23.4844 0
z
" id="DejaVuSans-76"/>
     </defs>
     <g transform="translate(125.28 351.70875)scale(0.144 -0.144)">
      <use xlink:href="#DejaVuSans-65"/>
      <use x="61.5234375" xlink:href="#DejaVuSans-76"/>
      <use x="120.703125" xlink:href="#DejaVuSans-61"/>
      <use x="181.982421875" xlink:href="#DejaVuSans-6e"/>
     </g>
    </g>
    <g id="line2d_43">
     <path d="
M89.28 367.805
L109.44 367.805" style="fill:none;stroke:#008000;stroke-linecap:square;"/>
    </g>
    <g id="line2d_44"/>
    <g id="text_16">
     <!-- nick -->
     <defs>
      <path d="
M9.07812 75.9844
L18.1094 75.9844
L18.1094 31.1094
L44.9219 54.6875
L56.3906 54.6875
L27.3906 29.1094
L57.625 0
L45.9062 0
L18.1094 26.7031
L18.1094 0
L9.07812 0
z
" id="DejaVuSans-6b"/>
      <path d="
M48.7812 52.5938
L48.7812 44.1875
Q44.9688 46.2969 41.1406 47.3438
Q37.3125 48.3906 33.4062 48.3906
Q24.6562 48.3906 19.8125 42.8438
Q14.9844 37.3125 14.9844 27.2969
Q14.9844 17.2812 19.8125 11.7344
Q24.6562 6.20312 33.4062 6.20312
Q37.3125 6.20312 41.1406 7.25
Q44.9688 8.29688 48.7812 10.4062
L48.7812 2.09375
Q45.0156 0.34375 40.9844 -0.53125
Q36.9688 -1.42188 32.4219 -1.42188
Q20.0625 -1.42188 12.7812 6.34375
Q5.51562 14.1094 5.51562 27.2969
Q5.51562 40.6719 12.8594 48.3281
Q20.2188 56 33.0156 56
Q37.1562 56 41.1094 55.1406
Q45.0625 54.2969 48.7812 52.5938" id="DejaVuSans-63"/>
      <path d="
M9.42188 54.6875
L18.4062 54.6875
L18.4062 0
L9.42188 0
z

M9.42188 75.9844
L18.4062 75.9844
L18.4062 64.5938
L9.42188 64.5938
z
" id="DejaVuSans-69"/>
     </defs>
     <g transform="translate(125.28 372.84525)scale(0.144 -0.144)">
      <use xlink:href="#DejaVuSans-6e"/>
      <use x="63.37890625" xlink:href="#DejaVuSans-69"/>
      <use x="91.162109375" xlink:href="#DejaVuSans-63"/>
      <use x="146.142578125" xlink:href="#DejaVuSans-6b"/>
     </g>
    </g>
    <g id="line2d_45">
     <path d="
M191.718 346.669
L211.878 346.669" style="fill:none;stroke:#ff0000;stroke-linecap:square;"/>
    </g>
    <g id="line2d_46"/>
    <g id="text_17">
     <!-- william -->
     <defs>
      <path d="
M52 44.1875
Q55.375 50.25 60.0625 53.125
Q64.75 56 71.0938 56
Q79.6406 56 84.2812 50.0156
Q88.9219 44.0469 88.9219 33.0156
L88.9219 0
L79.8906 0
L79.8906 32.7188
Q79.8906 40.5781 77.0938 44.375
Q74.3125 48.1875 68.6094 48.1875
Q61.625 48.1875 57.5625 43.5469
Q53.5156 38.9219 53.5156 30.9062
L53.5156 0
L44.4844 0
L44.4844 32.7188
Q44.4844 40.625 41.7031 44.4062
Q38.9219 48.1875 33.1094 48.1875
Q26.2188 48.1875 22.1562 43.5312
Q18.1094 38.875 18.1094 30.9062
L18.1094 0
L9.07812 0
L9.07812 54.6875
L18.1094 54.6875
L18.1094 46.1875
Q21.1875 51.2188 25.4844 53.6094
Q29.7812 56 35.6875 56
Q41.6562 56 45.8281 52.9688
Q50 49.9531 52 44.1875" id="DejaVuSans-6d"/>
      <path d="
M4.20312 54.6875
L13.1875 54.6875
L24.4219 12.0156
L35.5938 54.6875
L46.1875 54.6875
L57.4219 12.0156
L68.6094 54.6875
L77.5938 54.6875
L63.2812 0
L52.6875 0
L40.9219 44.8281
L29.1094 0
L18.5 0
z
" id="DejaVuSans-77"/>
      <path d="
M9.42188 75.9844
L18.4062 75.9844
L18.4062 0
L9.42188 0
z
" id="DejaVuSans-6c"/>
     </defs>
     <g transform="translate(227.718 351.70875)scale(0.144 -0.144)">
      <use xlink:href="#DejaVuSans-77"/>
      <use x="81.787109375" xlink:href="#DejaVuSans-69"/>
      <use x="109.5703125" xlink:href="#DejaVuSans-6c"/>
      <use x="137.353515625" xlink:href="#DejaVuSans-6c"/>
      <use x="165.13671875" xlink:href="#DejaVuSans-69"/>
      <use x="192.919921875" xlink:href="#DejaVuSans-61"/>
      <use x="254.19921875" xlink:href="#DejaVuSans-6d"/>
     </g>
    </g>
    <g id="line2d_47">
     <path d="
M191.718 367.805
L211.878 367.805" style="fill:none;stroke:#00bfbf;stroke-linecap:square;"/>
    </g>
    <g id="line2d_48"/>
    <g id="text_18">
     <!-- chris -->
     <defs>
      <path d="
M44.2812 53.0781
L44.2812 44.5781
Q40.4844 46.5312 36.375 47.5
Q32.2812 48.4844 27.875 48.4844
Q21.1875 48.4844 17.8438 46.4375
Q14.5 44.3906 14.5 40.2812
Q14.5 37.1562 16.8906 35.375
Q19.2812 33.5938 26.5156 31.9844
L29.5938 31.2969
Q39.1562 29.25 43.1875 25.5156
Q47.2188 21.7812 47.2188 15.0938
Q47.2188 7.46875 41.1875 3.01562
Q35.1562 -1.42188 24.6094 -1.42188
Q20.2188 -1.42188 15.4531 -0.5625
Q10.6875 0.296875 5.42188 2
L5.42188 11.2812
Q10.4062 8.6875 15.2344 7.39062
Q20.0625 6.10938 24.8125 6.10938
Q31.1562 6.10938 34.5625 8.28125
Q37.9844 10.4531 37.9844 14.4062
Q37.9844 18.0625 35.5156 20.0156
Q33.0625 21.9688 24.7031 23.7812
L21.5781 24.5156
Q13.2344 26.2656 9.51562 29.9062
Q5.8125 33.5469 5.8125 39.8906
Q5.8125 47.6094 11.2812 51.7969
Q16.75 56 26.8125 56
Q31.7812 56 36.1719 55.2656
Q40.5781 54.5469 44.2812 53.0781" id="DejaVuSans-73"/>
      <path d="
M54.8906 33.0156
L54.8906 0
L45.9062 0
L45.9062 32.7188
Q45.9062 40.4844 42.875 44.3281
Q39.8438 48.1875 33.7969 48.1875
Q26.5156 48.1875 22.3125 43.5469
Q18.1094 38.9219 18.1094 30.9062
L18.1094 0
L9.07812 0
L9.07812 75.9844
L18.1094 75.9844
L18.1094 46.1875
Q21.3438 51.125 25.7031 53.5625
Q30.0781 56 35.7969 56
Q45.2188 56 50.0469 50.1719
Q54.8906 44.3438 54.8906 33.0156" id="DejaVuSans-68"/>
      <path d="
M41.1094 46.2969
Q39.5938 47.1719 37.8125 47.5781
Q36.0312 48 33.8906 48
Q26.2656 48 22.1875 43.0469
Q18.1094 38.0938 18.1094 28.8125
L18.1094 0
L9.07812 0
L9.07812 54.6875
L18.1094 54.6875
L18.1094 46.1875
Q20.9531 51.1719 25.4844 53.5781
Q30.0312 56 36.5312 56
Q37.4531 56 38.5781 55.875
Q39.7031 55.7656 41.0625 55.5156
z
" id="DejaVuSans-72"/>
     </defs>
     <g transform="translate(227.718 372.84525)scale(0.144 -0.144)">
      <use xlink:href="#DejaVuSans-63"/>
      <use x="54.98046875" xlink:href="#DejaVuSans-68"/>
      <use x="118.359375" xlink:href="#DejaVuSans-72"/>
      <use x="159.47265625" xlink:href="#DejaVuSans-69"/>
      <use x="187.255859375" xlink:href="#DejaVuSans-73"/>
     </g>
    </g>
    <g id="line2d_49">
     <path d="
M309.64 346.669
L329.8 346.669" style="fill:none;stroke:#bf00bf;stroke-linecap:square;"/>
    </g>
    <g id="line2d_50"/>
    <g id="text_19">
     <!-- andy -->
     <defs>
      <path d="
M45.4062 46.3906
L45.4062 75.9844
L54.3906 75.9844
L54.3906 0
L45.4062 0
L45.4062 8.20312
Q42.5781 3.32812 38.25 0.953125
Q33.9375 -1.42188 27.875 -1.42188
Q17.9688 -1.42188 11.7344 6.48438
Q5.51562 14.4062 5.51562 27.2969
Q5.51562 40.1875 11.7344 48.0938
Q17.9688 56 27.875 56
Q33.9375 56 38.25 53.625
Q42.5781 51.2656 45.4062 46.3906
M14.7969 27.2969
Q14.7969 17.3906 18.875 11.75
Q22.9531 6.10938 30.0781 6.10938
Q37.2031 6.10938 41.2969 11.75
Q45.4062 17.3906 45.4062 27.2969
Q45.4062 37.2031 41.2969 42.8438
Q37.2031 48.4844 30.0781 48.4844
Q22.9531 48.4844 18.875 42.8438
Q14.7969 37.2031 14.7969 27.2969" id="DejaVuSans-64"/>
      <path d="
M32.1719 -5.07812
Q28.375 -14.8438 24.75 -17.8125
Q21.1406 -20.7969 15.0938 -20.7969
L7.90625 -20.7969
L7.90625 -13.2812
L13.1875 -13.2812
Q16.8906 -13.2812 18.9375 -11.5156
Q21 -9.76562 23.4844 -3.21875
L25.0938 0.875
L2.98438 54.6875
L12.5 54.6875
L29.5938 11.9219
L46.6875 54.6875
L56.2031 54.6875
z
" id="DejaVuSans-79"/>
     </defs>
     <g transform="translate(345.6405 351.70875)scale(0.144 -0.144)">
      <use xlink:href="#DejaVuSans-61"/>
      <use x="61.279296875" xlink:href="#DejaVuSans-6e"/>
      <use x="124.658203125" xlink:href="#DejaVuSans-64"/>
      <use x="188.134765625" xlink:href="#DejaVuSans-79"/>
     </g>
    </g>
    <g id="line2d_51">
     <path d="
M309.64 367.805
L329.8 367.805" style="fill:none;stroke:#bfbf00;stroke-linecap:square;"/>
    </g>
    <g id="line2d_52"/>
    <g id="text_20">
     <!-- tim -->
     <defs>
      <path d="
M18.3125 70.2188
L18.3125 54.6875
L36.8125 54.6875
L36.8125 47.7031
L18.3125 47.7031
L18.3125 18.0156
Q18.3125 11.3281 20.1406 9.42188
Q21.9688 7.51562 27.5938 7.51562
L36.8125 7.51562
L36.8125 0
L27.5938 0
Q17.1875 0 13.2344 3.875
Q9.28125 7.76562 9.28125 18.0156
L9.28125 47.7031
L2.6875 47.7031
L2.6875 54.6875
L9.28125 54.6875
L9.28125 70.2188
z
" id="DejaVuSans-74"/>
     </defs>
     <g transform="translate(345.6405 372.84525)scale(0.144 -0.144)">
      <use xlink:href="#DejaVuSans-74"/>
      <use x="39.208984375" xlink:href="#DejaVuSans-69"/>
      <use x="66.9921875" xlink:href="#DejaVuSans-6d"/>
     </g>
    </g>
   </g>
  </g>
 </g>
 <defs>
  <clipPath id="p7ff5b81e1d">
   <rect height="345.6" width="446.4" x="72.0" y="43.2"/>
  </clipPath>
 </defs>
</svg>
