<?xml version="1.0" encoding="utf-8" standalone="no"?>
<!DOCTYPE svg PUBLIC "-//W3C//DTD SVG 1.1//EN"
  "http://www.w3.org/Graphics/SVG/1.1/DTD/svg11.dtd">
<!-- Created with matplotlib (http://matplotlib.org/) -->
<svg height="432pt" version="1.1" viewBox="0 0 576 432" width="576pt" xmlns="http://www.w3.org/2000/svg" xmlns:xlink="http://www.w3.org/1999/xlink">
 <defs>
  <style type="text/css">
*{stroke-linecap:butt;stroke-linejoin:round;}
  </style>
 </defs>
 <g id="figure_1">
  <g id="patch_1">
   <path d="
M0 432
L576 432
L576 0
L0 0
z
" style="fill:#ffffff;"/>
  </g>
  <g id="axes_1">
   <g id="patch_2">
    <path d="
M72 388.8
L518.4 388.8
L518.4 43.2
L72 43.2
z
" style="fill:#ffffff;"/>
   </g>
   <g id="line2d_1">
    <path clip-path="url(#p7ff5b81e1d)" d="
M72 60.48
L76.464 371.52
L80.928 371.52
L85.392 354.24
L89.856 354.24
L94.32 354.24
L98.784 354.24
L103.248 371.52
L107.712 354.24
L112.176 371.52
L116.64 371.52
L121.104 371.52
L125.568 371.52
L130.032 371.52
L134.496 371.52
L138.96 354.24
L143.424 354.24
L147.888 354.24
L152.352 371.52
L156.816 371.52
L161.28 371.52
L165.744 371.52
L170.208 354.24
L174.672 371.52
L179.136 354.24
L183.6 354.24
L188.064 354.24
L192.528 371.52
L196.992 371.52
L201.456 371.52
L205.92 371.52
L210.384 371.52
L214.848 354.24
L219.312 354.24
L223.776 354.24
L228.24 354.24
L232.704 354.24
L237.168 354.24
L241.632 354.24
L246.096 354.24
L250.56 354.24
L255.024 354.24
L259.488 371.52
L263.952 371.52
L268.416 371.52
L272.88 371.52
L277.344 371.52
L281.808 354.24
L286.272 354.24
L290.736 371.52
L295.2 371.52
L299.664 371.52
L304.128 354.24
L308.592 354.24
L313.056 354.24
L317.52 354.24
L321.984 354.24
L326.448 354.24
L330.912 354.24
L335.376 354.24
L339.84 354.24
L344.304 354.24
L348.768 354.24
L353.232 354.24
L357.696 354.24
L362.16 354.24
L366.624 354.24
L371.088 354.24
L375.552 354.24
L380.016 354.24
L384.48 354.24
L388.944 354.24
L393.408 354.24
L397.872 354.24
L402.336 354.24
L406.8 371.52
L411.264 371.52
L415.728 371.52
L420.192 371.52
L424.656 371.52
L429.12 371.52
L433.584 371.52
L438.048 371.52
L442.512 371.52
L446.976 354.24
L451.44 354.24
L455.904 336.96
L460.368 336.96
L464.832 336.96
L469.296 336.96
L473.76 319.68
L478.224 336.96" style="fill:none;stroke:#0000ff;stroke-linecap:square;"/>
   </g>
   <g id="line2d_2">
    <path clip-path="url(#p7ff5b81e1d)" d="
M72 60.48
L76.464 354.24
L80.928 336.96
L85.392 371.52
L89.856 371.52
L94.32 371.52
L98.784 371.52
L103.248 354.24
L107.712 371.52
L112.176 354.24
L116.64 354.24
L121.104 354.24
L125.568 354.24
L130.032 354.24
L134.496 354.24
L138.96 371.52
L143.424 371.52
L147.888 371.52
L152.352 354.24
L156.816 354.24
L161.28 354.24
L165.744 354.24
L170.208 371.52
L174.672 354.24
L179.136 371.52
L183.6 371.52
L188.064 371.52
L192.528 354.24
L196.992 354.24
L201.456 354.24
L205.92 354.24
L210.384 354.24
L214.848 371.52
L219.312 371.52
L223.776 371.52
L228.24 371.52
L232.704 371.52
L237.168 371.52
L241.632 371.52
L246.096 371.52
L250.56 371.52
L255.024 371.52
L259.488 354.24
L263.952 354.24
L268.416 354.24
L272.88 354.24
L277.344 354.24
L281.808 371.52
L286.272 371.52
L290.736 354.24
L295.2 354.24
L299.664 354.24
L304.128 371.52
L308.592 371.52
L313.056 371.52
L317.52 371.52
L321.984 371.52
L326.448 371.52
L330.912 371.52
L335.376 371.52
L339.84 371.52
L344.304 371.52
L348.768 371.52
L353.232 371.52
L357.696 371.52
L362.16 371.52
L366.624 371.52
L371.088 371.52
L375.552 371.52
L380.016 371.52
L384.48 371.52
L388.944 371.52
L393.408 371.52
L397.872 371.52
L402.336 371.52
L406.8 354.24
L411.264 354.24
L415.728 354.24
L420.192 354.24
L424.656 354.24
L429.12 354.24
L433.584 354.24
L438.048 354.24
L442.512 354.24
L446.976 336.96
L451.44 336.96
L455.904 354.24
L460.368 354.24
L464.832 354.24
L469.296 354.24
L473.76 354.24
L478.224 371.52" style="fill:none;stroke:#008000;stroke-linecap:square;"/>
   </g>
   <g id="line2d_3">
    <path clip-path="url(#p7ff5b81e1d)" d="
M72 60.48
L76.464 336.96
L80.928 319.68
L85.392 95.04
L89.856 302.4
L94.32 336.96
L98.784 319.68
L103.248 336.96
L107.712 336.96
L112.176 336.96
L116.64 336.96
L121.104 336.96
L125.568 319.68
L130.032 319.68
L134.496 319.68
L138.96 319.68
L143.424 319.68
L147.888 336.96
L152.352 319.68
L156.816 319.68
L161.28 319.68
L165.744 302.4
L170.208 302.4
L174.672 319.68
L179.136 302.4
L183.6 302.4
L188.064 302.4
L192.528 302.4
L196.992 302.4
L201.456 302.4
L205.92 302.4
L210.384 302.4
L214.848 302.4
L219.312 302.4
L223.776 302.4
L228.24 302.4
L232.704 302.4
L237.168 302.4
L241.632 302.4
L246.096 302.4
L250.56 302.4
L255.024 302.4
L259.488 302.4
L263.952 302.4
L268.416 302.4
L272.88 302.4
L277.344 302.4
L281.808 302.4
L286.272 302.4
L290.736 302.4
L295.2 302.4
L299.664 302.4
L304.128 285.12
L308.592 285.12
L313.056 285.12
L317.52 285.12
L321.984 285.12
L326.448 285.12
L330.912 267.84
L335.376 267.84
L339.84 267.84
L344.304 267.84
L348.768 267.84
L353.232 267.84
L357.696 267.84
L362.16 285.12
L366.624 285.12
L371.088 285.12
L375.552 285.12
L380.016 285.12
L384.48 285.12
L388.944 285.12
L393.408 285.12
L397.872 285.12
L402.336 285.12
L406.8 285.12
L411.264 285.12
L415.728 285.12
L420.192 285.12
L424.656 285.12
L429.12 285.12
L433.584 285.12
L438.048 285.12
L442.512 285.12
L446.976 285.12
L451.44 285.12
L455.904 285.12
L460.368 285.12
L464.832 302.4
L469.296 302.4
L473.76 302.4
L478.224 302.4" style="fill:none;stroke:#ff0000;stroke-linecap:square;"/>
   </g>
   <g id="line2d_4">
    <path clip-path="url(#p7ff5b81e1d)" d="
M72 60.48
L76.464 319.68
L80.928 302.4
L85.392 336.96
L89.856 336.96
L94.32 319.68
L98.784 336.96
L103.248 319.68
L107.712 319.68
L112.176 319.68
L116.64 319.68
L121.104 319.68
L125.568 302.4
L130.032 302.4
L134.496 302.4
L138.96 302.4
L143.424 302.4
L147.888 302.4
L152.352 302.4
L156.816 302.4
L161.28 302.4
L165.744 319.68
L170.208 319.68
L174.672 302.4
L179.136 319.68
L183.6 336.96
L188.064 336.96
L192.528 336.96
L196.992 336.96
L201.456 336.96
L205.92 336.96
L210.384 336.96
L214.848 336.96
L219.312 336.96
L223.776 336.96
L228.24 336.96
L232.704 336.96
L237.168 336.96
L241.632 336.96
L246.096 336.96
L250.56 336.96
L255.024 336.96
L259.488 336.96
L263.952 336.96
L268.416 336.96
L272.88 336.96
L277.344 336.96
L281.808 336.96
L286.272 336.96
L290.736 336.96
L295.2 336.96
L299.664 336.96
L304.128 336.96
L308.592 336.96
L313.056 336.96
L317.52 336.96
L321.984 336.96
L326.448 336.96
L330.912 336.96
L335.376 336.96
L339.84 336.96
L344.304 336.96
L348.768 336.96
L353.232 336.96
L357.696 336.96
L362.16 336.96
L366.624 336.96
L371.088 336.96
L375.552 336.96
L380.016 336.96
L384.48 336.96
L388.944 336.96
L393.408 336.96
L397.872 336.96
L402.336 336.96
L406.8 336.96
L411.264 336.96
L415.728 336.96
L420.192 336.96
L424.656 336.96
L429.12 319.68
L433.584 319.68
L438.048 319.68
L442.512 319.68
L446.976 319.68
L451.44 319.68
L455.904 371.52
L460.368 371.52
L464.832 371.52
L469.296 371.52
L473.76 371.52
L478.224 354.24" style="fill:none;stroke:#00bfbf;stroke-linecap:square;"/>
   </g>
   <g id="line2d_5">
    <path clip-path="url(#p7ff5b81e1d)" d="
M72 60.48
L76.464 60.48
L80.928 60.48
L85.392 60.48
L89.856 60.48
L94.32 60.48
L98.784 60.48
L103.248 60.48
L107.712 285.12
L112.176 302.4
L116.64 267.84
L121.104 267.84
L125.568 250.56
L130.032 216
L134.496 233.28
L138.96 250.56
L143.424 250.56
L147.888 233.28
L152.352 233.28
L156.816 233.28
L161.28 233.28
L165.744 233.28
L170.208 233.28
L174.672 233.28
L179.136 233.28
L183.6 216
L188.064 216
L192.528 198.72
L196.992 198.72
L201.456 198.72
L205.92 198.72
L210.384 198.72
L214.848 233.28
L219.312 233.28
L223.776 216
L228.24 216
L232.704 164.16
L237.168 164.16
L241.632 164.16
L246.096 164.16
L250.56 181.44
L255.024 181.44
L259.488 233.28
L263.952 233.28
L268.416 233.28
L272.88 233.28
L277.344 250.56
L281.808 250.56
L286.272 250.56
L290.736 250.56
L295.2 250.56
L299.664 233.28
L304.128 233.28
L308.592 233.28
L313.056 233.28
L317.52 233.28
L321.984 233.28
L326.448 233.28
L330.912 216
L335.376 216
L339.84 198.72
L344.304 198.72
L348.768 198.72
L353.232 216
L357.696 216
L362.16 216
L366.624 233.28
L371.088 233.28
L375.552 216
L380.016 216
L384.48 250.56
L388.944 250.56
L393.408 250.56
L397.872 250.56
L402.336 250.56
L406.8 250.56
L411.264 250.56
L415.728 250.56
L420.192 250.56
L424.656 250.56
L429.12 250.56
L433.584 250.56
L438.048 250.56
L442.512 250.56
L446.976 250.56
L451.44 233.28
L455.904 216
L460.368 216
L464.832 216
L469.296 216
L473.76 216
L478.224 216" style="fill:none;stroke:#bf00bf;stroke-linecap:square;"/>
   </g>
   <g id="line2d_6">
    <path clip-path="url(#p7ff5b81e1d)" d="
M72 60.48
L76.464 60.48
L80.928 60.48
L85.392 60.48
L89.856 60.48
L94.32 60.48
L98.784 60.48
L103.248 60.48
L107.712 60.48
L112.176 60.48
L116.64 60.48
L121.104 60.48
L125.568 60.48
L130.032 60.48
L134.496 60.48
L138.96 60.48
L143.424 60.48
L147.888 60.48
L152.352 60.48
L156.816 60.48
L161.28 60.48
L165.744 60.48
L170.208 60.48
L174.672 60.48
L179.136 60.48
L183.6 60.48
L188.064 60.48
L192.528 60.48
L196.992 60.48
L201.456 60.48
L205.92 60.48
L210.384 60.48
L214.848 60.48
L219.312 60.48
L223.776 60.48
L228.24 60.48
L232.704 60.48
L237.168 60.48
L241.632 60.48
L246.096 60.48
L250.56 60.48
L255.024 60.48
L259.488 60.48
L263.952 60.48
L268.416 60.48
L272.88 60.48
L277.344 60.48
L281.808 60.48
L286.272 60.48
L290.736 60.48
L295.2 60.48
L299.664 60.48
L304.128 60.48
L308.592 60.48
L313.056 60.48
L317.52 60.48
L321.984 60.48
L326.448 60.48
L330.912 60.48
L335.376 60.48
L339.84 60.48
L344.304 60.48
L348.768 60.48
L353.232 60.48
L357.696 60.48
L362.16 60.48
L366.624 60.48
L371.088 60.48
L375.552 60.48
L380.016 60.48
L384.48 60.48
L388.944 60.48
L393.408 60.48
L397.872 60.48
L402.336 60.48
L406.8 60.48
L411.264 60.48
L415.728 60.48
L420.192 60.48
L424.656 60.48
L429.12 233.28
L433.584 233.28
L438.048 233.28
L442.512 233.28
L446.976 233.28
L451.44 250.56
L455.904 233.28
L460.368 233.28
L464.832 233.28
L469.296 233.28
L473.76 233.28
L478.224 233.28" style="fill:none;stroke:#bfbf00;stroke-linecap:square;"/>
   </g>
   <g id="line2d_7">
    <path clip-path="url(#p7ff5b81e1d)" d="
M72 60.48
L76.464 60.48
L80.928 60.48
L85.392 60.48
L89.856 60.48
L94.32 60.48
L98.784 60.48
L103.248 60.48
L107.712 60.48
L112.176 60.48
L116.64 60.48
L121.104 60.48
L125.568 60.48
L130.032 60.48
L134.496 60.48
L138.96 60.48
L143.424 60.48
L147.888 60.48
L152.352 60.48
L156.816 60.48
L161.28 60.48
L165.744 60.48
L170.208 60.48
L174.672 60.48
L179.136 60.48
L183.6 60.48
L188.064 60.48
L192.528 60.48
L196.992 60.48
L201.456 60.48
L205.92 60.48
L210.384 60.48
L214.848 60.48
L219.312 60.48
L223.776 60.48
L228.24 60.48
L232.704 60.48
L237.168 60.48
L241.632 60.48
L246.096 60.48
L250.56 60.48
L255.024 60.48
L259.488 60.48
L263.952 60.48
L268.416 60.48
L272.88 60.48
L277.344 60.48
L281.808 60.48
L286.272 60.48
L290.736 60.48
L295.2 60.48
L299.664 60.48
L304.128 60.48
L308.592 60.48
L313.056 60.48
L317.52 60.48
L321.984 60.48
L326.448 60.48
L330.912 60.48
L335.376 60.48
L339.84 60.48
L344.304 60.48
L348.768 60.48
L353.232 60.48
L357.696 60.48
L362.16 60.48
L366.624 60.48
L371.088 60.48
L375.552 60.48
L380.016 60.48
L384.48 60.48
L388.944 60.48
L393.408 60.48
L397.872 60.48
L402.336 60.48
L406.8 60.48
L411.264 60.48
L415.728 60.48
L420.192 60.48
L424.656 60.48
L429.12 129.6
L433.584 129.6
L438.048 129.6
L442.512 129.6
L446.976 129.6
L451.44 129.6
L455.904 129.6
L460.368 129.6
L464.832 129.6
L469.296 129.6
L473.76 129.6
L478.224 112.32" style="fill:none;stroke:#000000;stroke-linecap:square;"/>
   </g>
   <g id="line2d_8">
    <path clip-path="url(#p7ff5b81e1d)" d="
M72 60.48
L76.464 60.48
L80.928 60.48
L85.392 60.48
L89.856 60.48
L94.32 60.48
L98.784 60.48
L103.248 60.48
L107.712 285.12
L112.176 302.4
L116.64 267.84
L121.104 267.84
L125.568 250.56
L130.032 216
L134.496 233.28
L138.96 250.56
L143.424 250.56
L147.888 233.28
L152.352 233.28
L156.816 233.28
L161.28 233.28
L165.744 233.28
L170.208 233.28
L174.672 233.28
L179.136 233.28
L183.6 216
L188.064 216
L192.528 198.72
L196.992 198.72
L201.456 198.72
L205.92 198.72
L210.384 198.72
L214.848 233.28
L219.312 233.28
L223.776 216
L228.24 216
L232.704 164.16
L237.168 164.16
L241.632 164.16
L246.096 164.16
L250.56 181.44
L255.024 181.44
L259.488 233.28
L263.952 233.28
L268.416 233.28
L272.88 233.28
L277.344 250.56
L281.808 250.56
L286.272 250.56
L290.736 250.56
L295.2 250.56
L299.664 233.28
L304.128 233.28
L308.592 233.28
L313.056 233.28
L317.52 233.28
L321.984 233.28
L326.448 233.28
L330.912 216
L335.376 216
L339.84 250.56
L344.304 250.56
L348.768 250.56
L353.232 250.56
L357.696 250.56
L362.16 250.56
L366.624 250.56
L371.088 250.56
L375.552 233.28
L380.016 233.28
L384.48 250.56
L388.944 250.56
L393.408 250.56
L397.872 250.56
L402.336 250.56
L406.8 250.56
L411.264 250.56
L415.728 250.56
L420.192 250.56
L424.656 250.56
L429.12 250.56
L433.584 250.56
L438.048 250.56
L442.512 250.56
L446.976 250.56
L451.44 233.28
L455.904 216
L460.368 216
L464.832 216
L469.296 216
L473.76 216
L478.224 216" style="fill:none;stroke:#0000ff;stroke-linecap:square;"/>
   </g>
   <g id="line2d_9">
    <path clip-path="url(#p7ff5b81e1d)" d="
M72 60.48
L76.464 60.48
L80.928 60.48
L85.392 60.48
L89.856 60.48
L94.32 60.48
L98.784 60.48
L103.248 302.4
L107.712 302.4
L112.176 285.12
L116.64 250.56
L121.104 250.56
L125.568 233.28
L130.032 267.84
L134.496 267.84
L138.96 267.84
L143.424 267.84
L147.888 267.84
L152.352 267.84
L156.816 285.12
L161.28 285.12
L165.744 285.12
L170.208 285.12
L174.672 267.84
L179.136 267.84
L183.6 250.56
L188.064 250.56
L192.528 250.56
L196.992 250.56
L201.456 250.56
L205.92 250.56
L210.384 250.56
L214.848 250.56
L219.312 250.56
L223.776 250.56
L228.24 250.56
L232.704 250.56
L237.168 250.56
L241.632 267.84
L246.096 267.84
L250.56 267.84
L255.024 267.84
L259.488 267.84
L263.952 267.84
L268.416 267.84
L272.88 267.84
L277.344 267.84
L281.808 267.84
L286.272 267.84
L290.736 267.84
L295.2 267.84
L299.664 250.56
L304.128 250.56
L308.592 267.84
L313.056 267.84
L317.52 267.84
L321.984 267.84
L326.448 267.84
L330.912 250.56
L335.376 233.28
L339.84 216
L344.304 216
L348.768 216
L353.232 198.72
L357.696 181.44
L362.16 181.44
L366.624 181.44
L371.088 181.44
L375.552 181.44
L380.016 181.44
L384.48 181.44
L388.944 181.44
L393.408 164.16
L397.872 164.16
L402.336 164.16
L406.8 164.16
L411.264 164.16
L415.728 164.16
L420.192 146.88
L424.656 146.88
L429.12 146.88
L433.584 146.88
L438.048 146.88
L442.512 146.88
L446.976 146.88
L451.44 146.88
L455.904 146.88
L460.368 146.88
L464.832 146.88
L469.296 146.88
L473.76 146.88
L478.224 146.88" style="fill:none;stroke:#008000;stroke-linecap:square;"/>
   </g>
   <g id="line2d_10">
    <path clip-path="url(#p7ff5b81e1d)" d="
M72 60.48
L76.464 60.48
L80.928 60.48
L85.392 60.48
L89.856 60.48
L94.32 60.48
L98.784 60.48
L103.248 60.48
L107.712 95.04
L112.176 95.04
L116.64 95.04
L121.104 233.28
L125.568 267.84
L130.032 250.56
L134.496 250.56
L138.96 233.28
L143.424 216
L147.888 198.72
L152.352 198.72
L156.816 198.72
L161.28 198.72
L165.744 198.72
L170.208 198.72
L174.672 198.72
L179.136 198.72
L183.6 198.72
L188.064 198.72
L192.528 216
L196.992 233.28
L201.456 233.28
L205.92 233.28
L210.384 233.28
L214.848 216
L219.312 216
L223.776 198.72
L228.24 198.72
L232.704 216
L237.168 216
L241.632 216
L246.096 216
L250.56 198.72
L255.024 198.72
L259.488 164.16
L263.952 164.16
L268.416 181.44
L272.88 181.44
L277.344 181.44
L281.808 164.16
L286.272 164.16
L290.736 164.16
L295.2 164.16
L299.664 164.16
L304.128 164.16
L308.592 164.16
L313.056 164.16
L317.52 164.16
L321.984 164.16
L326.448 164.16
L330.912 181.44
L335.376 181.44
L339.84 164.16
L344.304 164.16
L348.768 146.88
L353.232 146.88
L357.696 146.88
L362.16 146.88
L366.624 146.88
L371.088 146.88
L375.552 146.88
L380.016 146.88
L384.48 146.88
L388.944 146.88
L393.408 181.44
L397.872 181.44
L402.336 181.44
L406.8 181.44
L411.264 181.44
L415.728 181.44
L420.192 164.16
L424.656 181.44
L429.12 181.44
L433.584 198.72
L438.048 198.72
L442.512 198.72
L446.976 181.44
L451.44 181.44
L455.904 164.16
L460.368 181.44
L464.832 181.44
L469.296 181.44
L473.76 181.44
L478.224 181.44" style="fill:none;stroke:#ff0000;stroke-linecap:square;"/>
   </g>
   <g id="line2d_11">
    <path clip-path="url(#p7ff5b81e1d)" d="
M72 60.48
L76.464 60.48
L80.928 60.48
L85.392 60.48
L89.856 60.48
L94.32 60.48
L98.784 60.48
L103.248 60.48
L107.712 60.48
L112.176 60.48
L116.64 60.48
L121.104 60.48
L125.568 60.48
L130.032 60.48
L134.496 60.48
L138.96 60.48
L143.424 60.48
L147.888 60.48
L152.352 60.48
L156.816 60.48
L161.28 60.48
L165.744 60.48
L170.208 60.48
L174.672 60.48
L179.136 60.48
L183.6 60.48
L188.064 60.48
L192.528 60.48
L196.992 60.48
L201.456 60.48
L205.92 60.48
L210.384 60.48
L214.848 60.48
L219.312 60.48
L223.776 60.48
L228.24 60.48
L232.704 60.48
L237.168 60.48
L241.632 60.48
L246.096 60.48
L250.56 60.48
L255.024 60.48
L259.488 60.48
L263.952 60.48
L268.416 60.48
L272.88 60.48
L277.344 60.48
L281.808 60.48
L286.272 60.48
L290.736 60.48
L295.2 60.48
L299.664 60.48
L304.128 60.48
L308.592 60.48
L313.056 60.48
L317.52 60.48
L321.984 60.48
L326.448 60.48
L330.912 60.48
L335.376 60.48
L339.84 60.48
L344.304 60.48
L348.768 60.48
L353.232 60.48
L357.696 60.48
L362.16 60.48
L366.624 60.48
L371.088 60.48
L375.552 60.48
L380.016 60.48
L384.48 60.48
L388.944 60.48
L393.408 60.48
L397.872 60.48
L402.336 60.48
L406.8 60.48
L411.264 60.48
L415.728 60.48
L420.192 60.48
L424.656 60.48
L429.12 60.48
L433.584 60.48
L438.048 60.48
L442.512 60.48
L446.976 60.48
L451.44 60.48
L455.904 60.48
L460.368 60.48
L464.832 60.48
L469.296 60.48
L473.76 60.48
L478.224 60.48" style="fill:none;stroke:#00bfbf;stroke-linecap:square;"/>
   </g>
   <g id="line2d_12">
    <path clip-path="url(#p7ff5b81e1d)" d="
M72 60.48
L76.464 60.48
L80.928 60.48
L85.392 60.48
L89.856 60.48
L94.32 60.48
L98.784 60.48
L103.248 60.48
L107.712 60.48
L112.176 60.48
L116.64 60.48
L121.104 60.48
L125.568 336.96
L130.032 336.96
L134.496 336.96
L138.96 336.96
L143.424 336.96
L147.888 319.68
L152.352 336.96
L156.816 336.96
L161.28 336.96
L165.744 336.96
L170.208 336.96
L174.672 336.96
L179.136 336.96
L183.6 319.68
L188.064 319.68
L192.528 319.68
L196.992 319.68
L201.456 319.68
L205.92 319.68
L210.384 319.68
L214.848 319.68
L219.312 319.68
L223.776 319.68
L228.24 319.68
L232.704 319.68
L237.168 319.68
L241.632 319.68
L246.096 319.68
L250.56 319.68
L255.024 319.68
L259.488 319.68
L263.952 319.68
L268.416 319.68
L272.88 319.68
L277.344 319.68
L281.808 319.68
L286.272 319.68
L290.736 319.68
L295.2 319.68
L299.664 319.68
L304.128 319.68
L308.592 319.68
L313.056 319.68
L317.52 319.68
L321.984 319.68
L326.448 319.68
L330.912 319.68
L335.376 319.68
L339.84 319.68
L344.304 319.68
L348.768 319.68
L353.232 319.68
L357.696 319.68
L362.16 319.68
L366.624 319.68
L371.088 319.68
L375.552 319.68
L380.016 319.68
L384.48 319.68
L388.944 319.68
L393.408 319.68
L397.872 319.68
L402.336 319.68
L406.8 319.68
L411.264 319.68
L415.728 319.68
L420.192 319.68
L424.656 319.68
L429.12 336.96
L433.584 336.96
L438.048 336.96
L442.512 336.96
L446.976 371.52
L451.44 371.52
L455.904 319.68
L460.368 319.68
L464.832 319.68
L469.296 319.68
L473.76 336.96
L478.224 319.68" style="fill:none;stroke:#bf00bf;stroke-linecap:square;"/>
   </g>
   <g id="line2d_13">
    <path clip-path="url(#p7ff5b81e1d)" d="
M72 60.48
L76.464 60.48
L80.928 60.48
L85.392 60.48
L89.856 60.48
L94.32 60.48
L98.784 60.48
L103.248 60.48
L107.712 60.48
L112.176 60.48
L116.64 60.48
L121.104 60.48
L125.568 60.48
L130.032 60.48
L134.496 60.48
L138.96 60.48
L143.424 60.48
L147.888 60.48
L152.352 60.48
L156.816 60.48
L161.28 60.48
L165.744 60.48
L170.208 60.48
L174.672 60.48
L179.136 60.48
L183.6 60.48
L188.064 60.48
L192.528 60.48
L196.992 60.48
L201.456 60.48
L205.92 77.76
L210.384 181.44
L214.848 181.44
L219.312 181.44
L223.776 233.28
L228.24 233.28
L232.704 198.72
L237.168 198.72
L241.632 198.72
L246.096 198.72
L250.56 216
L255.024 216
L259.488 198.72
L263.952 198.72
L268.416 198.72
L272.88 198.72
L277.344 198.72
L281.808 198.72
L286.272 198.72
L290.736 198.72
L295.2 198.72
L299.664 198.72
L304.128 198.72
L308.592 198.72
L313.056 198.72
L317.52 198.72
L321.984 198.72
L326.448 198.72
L330.912 164.16
L335.376 164.16
L339.84 146.88
L344.304 146.88
L348.768 181.44
L353.232 181.44
L357.696 233.28
L362.16 233.28
L366.624 198.72
L371.088 198.72
L375.552 250.56
L380.016 250.56
L384.48 198.72
L388.944 198.72
L393.408 198.72
L397.872 198.72
L402.336 198.72
L406.8 198.72
L411.264 198.72
L415.728 198.72
L420.192 181.44
L424.656 164.16
L429.12 164.16
L433.584 164.16
L438.048 164.16
L442.512 164.16
L446.976 198.72
L451.44 198.72
L455.904 181.44
L460.368 164.16
L464.832 164.16
L469.296 164.16
L473.76 164.16
L478.224 164.16" style="fill:none;stroke:#bfbf00;stroke-linecap:square;"/>
   </g>
   <g id="line2d_14">
    <path clip-path="url(#p7ff5b81e1d)" d="
M72 60.48
L76.464 60.48
L80.928 60.48
L85.392 60.48
L89.856 60.48
L94.32 60.48
L98.784 60.48
L103.248 60.48
L107.712 60.48
L112.176 60.48
L116.64 60.48
L121.104 60.48
L125.568 60.48
L130.032 60.48
L134.496 60.48
L138.96 60.48
L143.424 60.48
L147.888 60.48
L152.352 60.48
L156.816 60.48
L161.28 60.48
L165.744 60.48
L170.208 60.48
L174.672 60.48
L179.136 60.48
L183.6 60.48
L188.064 60.48
L192.528 60.48
L196.992 60.48
L201.456 60.48
L205.92 60.48
L210.384 60.48
L214.848 60.48
L219.312 60.48
L223.776 60.48
L228.24 60.48
L232.704 60.48
L237.168 60.48
L241.632 60.48
L246.096 60.48
L250.56 60.48
L255.024 60.48
L259.488 60.48
L263.952 60.48
L268.416 60.48
L272.88 60.48
L277.344 60.48
L281.808 60.48
L286.272 60.48
L290.736 60.48
L295.2 60.48
L299.664 60.48
L304.128 60.48
L308.592 60.48
L313.056 60.48
L317.52 60.48
L321.984 60.48
L326.448 60.48
L330.912 302.4
L335.376 302.4
L339.84 302.4
L344.304 302.4
L348.768 302.4
L353.232 302.4
L357.696 302.4
L362.16 302.4
L366.624 302.4
L371.088 302.4
L375.552 302.4
L380.016 302.4
L384.48 302.4
L388.944 302.4
L393.408 302.4
L397.872 302.4
L402.336 302.4
L406.8 302.4
L411.264 302.4
L415.728 302.4
L420.192 302.4
L424.656 302.4
L429.12 302.4
L433.584 302.4
L438.048 302.4
L442.512 302.4
L446.976 302.4
L451.44 302.4
L455.904 302.4
L460.368 302.4
L464.832 285.12
L469.296 285.12
L473.76 285.12
L478.224 285.12" style="fill:none;stroke:#000000;stroke-linecap:square;"/>
   </g>
   <g id="line2d_15">
    <path clip-path="url(#p7ff5b81e1d)" d="
M72 60.48
L76.464 60.48
L80.928 60.48
L85.392 60.48
L89.856 60.48
L94.32 60.48
L98.784 60.48
L103.248 60.48
L107.712 60.48
L112.176 60.48
L116.64 60.48
L121.104 60.48
L125.568 60.48
L130.032 60.48
L134.496 60.48
L138.96 60.48
L143.424 60.48
L147.888 60.48
L152.352 60.48
L156.816 60.48
L161.28 60.48
L165.744 60.48
L170.208 60.48
L174.672 60.48
L179.136 60.48
L183.6 60.48
L188.064 60.48
L192.528 60.48
L196.992 60.48
L201.456 60.48
L205.92 60.48
L210.384 60.48
L214.848 60.48
L219.312 60.48
L223.776 60.48
L228.24 60.48
L232.704 60.48
L237.168 60.48
L241.632 60.48
L246.096 60.48
L250.56 60.48
L255.024 60.48
L259.488 60.48
L263.952 60.48
L268.416 60.48
L272.88 60.48
L277.344 60.48
L281.808 60.48
L286.272 60.48
L290.736 60.48
L295.2 60.48
L299.664 60.48
L304.128 60.48
L308.592 60.48
L313.056 60.48
L317.52 60.48
L321.984 60.48
L326.448 60.48
L330.912 60.48
L335.376 60.48
L339.84 60.48
L344.304 60.48
L348.768 60.48
L353.232 60.48
L357.696 60.48
L362.16 60.48
L366.624 60.48
L371.088 60.48
L375.552 60.48
L380.016 60.48
L384.48 60.48
L388.944 60.48
L393.408 60.48
L397.872 60.48
L402.336 60.48
L406.8 60.48
L411.264 60.48
L415.728 60.48
L420.192 60.48
L424.656 60.48
L429.12 60.48
L433.584 60.48
L438.048 60.48
L442.512 60.48
L446.976 60.48
L451.44 60.48
L455.904 60.48
L460.368 60.48
L464.832 60.48
L469.296 60.48
L473.76 60.48
L478.224 60.48" style="fill:none;stroke:#0000ff;stroke-linecap:square;"/>
   </g>
   <g id="line2d_16">
    <path clip-path="url(#p7ff5b81e1d)" d="
M72 60.48
L76.464 60.48
L80.928 60.48
L85.392 60.48
L89.856 77.76
L94.32 77.76
L98.784 77.76
L103.248 77.76
L107.712 285.12
L112.176 302.4
L116.64 267.84
L121.104 267.84
L125.568 250.56
L130.032 216
L134.496 233.28
L138.96 250.56
L143.424 250.56
L147.888 233.28
L152.352 233.28
L156.816 233.28
L161.28 233.28
L165.744 233.28
L170.208 233.28
L174.672 233.28
L179.136 233.28
L183.6 216
L188.064 216
L192.528 198.72
L196.992 198.72
L201.456 198.72
L205.92 198.72
L210.384 198.72
L214.848 233.28
L219.312 233.28
L223.776 216
L228.24 216
L232.704 164.16
L237.168 164.16
L241.632 164.16
L246.096 164.16
L250.56 181.44
L255.024 181.44
L259.488 233.28
L263.952 233.28
L268.416 233.28
L272.88 233.28
L277.344 250.56
L281.808 250.56
L286.272 250.56
L290.736 250.56
L295.2 250.56
L299.664 233.28
L304.128 233.28
L308.592 233.28
L313.056 233.28
L317.52 233.28
L321.984 233.28
L326.448 233.28
L330.912 216
L335.376 216
L339.84 198.72
L344.304 198.72
L348.768 198.72
L353.232 216
L357.696 216
L362.16 216
L366.624 233.28
L371.088 233.28
L375.552 216
L380.016 216
L384.48 250.56
L388.944 250.56
L393.408 250.56
L397.872 250.56
L402.336 250.56
L406.8 250.56
L411.264 250.56
L415.728 250.56
L420.192 250.56
L424.656 250.56
L429.12 250.56
L433.584 250.56
L438.048 250.56
L442.512 250.56
L446.976 250.56
L451.44 233.28
L455.904 216
L460.368 216
L464.832 216
L469.296 216
L473.76 216
L478.224 216" style="fill:none;stroke:#008000;stroke-linecap:square;"/>
   </g>
   <g id="line2d_17">
    <path clip-path="url(#p7ff5b81e1d)" d="
M72 60.48
L76.464 60.48
L80.928 60.48
L85.392 60.48
L89.856 60.48
L94.32 60.48
L98.784 60.48
L103.248 60.48
L107.712 60.48
L112.176 60.48
L116.64 60.48
L121.104 60.48
L125.568 60.48
L130.032 233.28
L134.496 216
L138.96 216
L143.424 233.28
L147.888 216
L152.352 216
L156.816 216
L161.28 216
L165.744 216
L170.208 216
L174.672 216
L179.136 216
L183.6 285.12
L188.064 285.12
L192.528 285.12
L196.992 285.12
L201.456 285.12
L205.92 285.12
L210.384 285.12
L214.848 285.12
L219.312 285.12
L223.776 285.12
L228.24 285.12
L232.704 285.12
L237.168 285.12
L241.632 285.12
L246.096 285.12
L250.56 285.12
L255.024 285.12
L259.488 285.12
L263.952 285.12
L268.416 285.12
L272.88 285.12
L277.344 285.12
L281.808 285.12
L286.272 285.12
L290.736 285.12
L295.2 285.12
L299.664 285.12
L304.128 302.4
L308.592 302.4
L313.056 302.4
L317.52 302.4
L321.984 302.4
L326.448 302.4
L330.912 285.12
L335.376 285.12
L339.84 285.12
L344.304 285.12
L348.768 285.12
L353.232 285.12
L357.696 285.12
L362.16 267.84
L366.624 267.84
L371.088 267.84
L375.552 267.84
L380.016 267.84
L384.48 267.84
L388.944 267.84
L393.408 267.84
L397.872 267.84
L402.336 267.84
L406.8 267.84
L411.264 267.84
L415.728 267.84
L420.192 267.84
L424.656 267.84
L429.12 267.84
L433.584 267.84
L438.048 267.84
L442.512 267.84
L446.976 267.84
L451.44 267.84
L455.904 267.84
L460.368 267.84
L464.832 267.84
L469.296 267.84
L473.76 267.84
L478.224 267.84" style="fill:none;stroke:#ff0000;stroke-linecap:square;"/>
   </g>
   <g id="line2d_18">
    <path clip-path="url(#p7ff5b81e1d)" d="
M72 60.48
L76.464 60.48
L80.928 60.48
L85.392 60.48
L89.856 60.48
L94.32 60.48
L98.784 60.48
L103.248 60.48
L107.712 60.48
L112.176 60.48
L116.64 60.48
L121.104 60.48
L125.568 60.48
L130.032 60.48
L134.496 60.48
L138.96 60.48
L143.424 60.48
L147.888 250.56
L152.352 250.56
L156.816 250.56
L161.28 250.56
L165.744 267.84
L170.208 267.84
L174.672 285.12
L179.136 285.12
L183.6 267.84
L188.064 267.84
L192.528 267.84
L196.992 267.84
L201.456 267.84
L205.92 267.84
L210.384 267.84
L214.848 267.84
L219.312 267.84
L223.776 267.84
L228.24 267.84
L232.704 267.84
L237.168 267.84
L241.632 250.56
L246.096 250.56
L250.56 250.56
L255.024 250.56
L259.488 250.56
L263.952 250.56
L268.416 250.56
L272.88 250.56
L277.344 233.28
L281.808 233.28
L286.272 233.28
L290.736 233.28
L295.2 233.28
L299.664 267.84
L304.128 267.84
L308.592 250.56
L313.056 250.56
L317.52 250.56
L321.984 250.56
L326.448 250.56
L330.912 233.28
L335.376 250.56
L339.84 233.28
L344.304 233.28
L348.768 233.28
L353.232 233.28
L357.696 198.72
L362.16 198.72
L366.624 216
L371.088 216
L375.552 198.72
L380.016 198.72
L384.48 216
L388.944 216
L393.408 216
L397.872 216
L402.336 216
L406.8 216
L411.264 216
L415.728 216
L420.192 198.72
L424.656 198.72
L429.12 198.72
L433.584 181.44
L438.048 181.44
L442.512 181.44
L446.976 164.16
L451.44 164.16
L455.904 250.56
L460.368 250.56
L464.832 250.56
L469.296 250.56
L473.76 250.56
L478.224 250.56" style="fill:none;stroke:#00bfbf;stroke-linecap:square;"/>
   </g>
   <g id="matplotlib.axis_1">
    <g id="xtick_1">
     <g id="line2d_19">
      <defs>
       <path d="
M0 0
L0 -4" id="m93b0483c22" style="stroke:#000000;stroke-width:0.5;"/>
      </defs>
      <g>
       <use style="stroke:#000000;stroke-width:0.5;" x="72.0" xlink:href="#m93b0483c22" y="388.8"/>
      </g>
     </g>
     <g id="line2d_20">
      <defs>
       <path d="
M0 0
L0 4" id="m741efc42ff" style="stroke:#000000;stroke-width:0.5;"/>
      </defs>
      <g>
       <use style="stroke:#000000;stroke-width:0.5;" x="72.0" xlink:href="#m741efc42ff" y="43.2"/>
      </g>
     </g>
     <g id="text_1">
      <!-- 0 -->
      <defs>
       <path d="
M31.7812 66.4062
Q24.1719 66.4062 20.3281 58.9062
Q16.5 51.4219 16.5 36.375
Q16.5 21.3906 20.3281 13.8906
Q24.1719 6.39062 31.7812 6.39062
Q39.4531 6.39062 43.2812 13.8906
Q47.125 21.3906 47.125 36.375
Q47.125 51.4219 43.2812 58.9062
Q39.4531 66.4062 31.7812 66.4062
M31.7812 74.2188
Q44.0469 74.2188 50.5156 64.5156
Q56.9844 54.8281 56.9844 36.375
Q56.9844 17.9688 50.5156 8.26562
Q44.0469 -1.42188 31.7812 -1.42188
Q19.5312 -1.42188 13.0625 8.26562
Q6.59375 17.9688 6.59375 36.375
Q6.59375 54.8281 13.0625 64.5156
Q19.5312 74.2188 31.7812 74.2188" id="DejaVuSans-30"/>
      </defs>
      <g transform="translate(68.9765625 401.918125)scale(0.12 -0.12)">
       <use xlink:href="#DejaVuSans-30"/>
      </g>
     </g>
    </g>
    <g id="xtick_2">
     <g id="line2d_21">
      <g>
       <use style="stroke:#000000;stroke-width:0.5;" x="161.28" xlink:href="#m93b0483c22" y="388.8"/>
      </g>
     </g>
     <g id="line2d_22">
      <g>
       <use style="stroke:#000000;stroke-width:0.5;" x="161.28" xlink:href="#m741efc42ff" y="43.2"/>
      </g>
     </g>
     <g id="text_2">
      <!-- 20 -->
      <defs>
       <path d="
M19.1875 8.29688
L53.6094 8.29688
L53.6094 0
L7.32812 0
L7.32812 8.29688
Q12.9375 14.1094 22.625 23.8906
Q32.3281 33.6875 34.8125 36.5312
Q39.5469 41.8438 41.4219 45.5312
Q43.3125 49.2188 43.3125 52.7812
Q43.3125 58.5938 39.2344 62.25
Q35.1562 65.9219 28.6094 65.9219
Q23.9688 65.9219 18.8125 64.3125
Q13.6719 62.7031 7.8125 59.4219
L7.8125 69.3906
Q13.7656 71.7812 18.9375 73
Q24.125 74.2188 28.4219 74.2188
Q39.75 74.2188 46.4844 68.5469
Q53.2188 62.8906 53.2188 53.4219
Q53.2188 48.9219 51.5312 44.8906
Q49.8594 40.875 45.4062 35.4062
Q44.1875 33.9844 37.6406 27.2188
Q31.1094 20.4531 19.1875 8.29688" id="DejaVuSans-32"/>
      </defs>
      <g transform="translate(154.483125 401.918125)scale(0.12 -0.12)">
       <use xlink:href="#DejaVuSans-32"/>
       <use x="63.623046875" xlink:href="#DejaVuSans-30"/>
      </g>
     </g>
    </g>
    <g id="xtick_3">
     <g id="line2d_23">
      <g>
       <use style="stroke:#000000;stroke-width:0.5;" x="250.56" xlink:href="#m93b0483c22" y="388.8"/>
      </g>
     </g>
     <g id="line2d_24">
      <g>
       <use style="stroke:#000000;stroke-width:0.5;" x="250.56" xlink:href="#m741efc42ff" y="43.2"/>
      </g>
     </g>
     <g id="text_3">
      <!-- 40 -->
      <defs>
       <path d="
M37.7969 64.3125
L12.8906 25.3906
L37.7969 25.3906
z

M35.2031 72.9062
L47.6094 72.9062
L47.6094 25.3906
L58.0156 25.3906
L58.0156 17.1875
L47.6094 17.1875
L47.6094 0
L37.7969 0
L37.7969 17.1875
L4.89062 17.1875
L4.89062 26.7031
z
" id="DejaVuSans-34"/>
      </defs>
      <g transform="translate(243.616875 401.918125)scale(0.12 -0.12)">
       <use xlink:href="#DejaVuSans-34"/>
       <use x="63.623046875" xlink:href="#DejaVuSans-30"/>
      </g>
     </g>
    </g>
    <g id="xtick_4">
     <g id="line2d_25">
      <g>
       <use style="stroke:#000000;stroke-width:0.5;" x="339.84" xlink:href="#m93b0483c22" y="388.8"/>
      </g>
     </g>
     <g id="line2d_26">
      <g>
       <use style="stroke:#000000;stroke-width:0.5;" x="339.84" xlink:href="#m741efc42ff" y="43.2"/>
      </g>
     </g>
     <g id="text_4">
      <!-- 60 -->
      <defs>
       <path d="
M33.0156 40.375
Q26.375 40.375 22.4844 35.8281
Q18.6094 31.2969 18.6094 23.3906
Q18.6094 15.5312 22.4844 10.9531
Q26.375 6.39062 33.0156 6.39062
Q39.6562 6.39062 43.5312 10.9531
Q47.4062 15.5312 47.4062 23.3906
Q47.4062 31.2969 43.5312 35.8281
Q39.6562 40.375 33.0156 40.375
M52.5938 71.2969
L52.5938 62.3125
Q48.875 64.0625 45.0938 64.9844
Q41.3125 65.9219 37.5938 65.9219
Q27.8281 65.9219 22.6719 59.3281
Q17.5312 52.7344 16.7969 39.4062
Q19.6719 43.6562 24.0156 45.9219
Q28.375 48.1875 33.5938 48.1875
Q44.5781 48.1875 50.9531 41.5156
Q57.3281 34.8594 57.3281 23.3906
Q57.3281 12.1562 50.6875 5.35938
Q44.0469 -1.42188 33.0156 -1.42188
Q20.3594 -1.42188 13.6719 8.26562
Q6.98438 17.9688 6.98438 36.375
Q6.98438 53.6562 15.1875 63.9375
Q23.3906 74.2188 37.2031 74.2188
Q40.9219 74.2188 44.7031 73.4844
Q48.4844 72.75 52.5938 71.2969" id="DejaVuSans-36"/>
      </defs>
      <g transform="translate(333.0225 401.918125)scale(0.12 -0.12)">
       <use xlink:href="#DejaVuSans-36"/>
       <use x="63.623046875" xlink:href="#DejaVuSans-30"/>
      </g>
     </g>
    </g>
    <g id="xtick_5">
     <g id="line2d_27">
      <g>
       <use style="stroke:#000000;stroke-width:0.5;" x="429.12" xlink:href="#m93b0483c22" y="388.8"/>
      </g>
     </g>
     <g id="line2d_28">
      <g>
       <use style="stroke:#000000;stroke-width:0.5;" x="429.12" xlink:href="#m741efc42ff" y="43.2"/>
      </g>
     </g>
     <g id="text_5">
      <!-- 80 -->
      <defs>
       <path d="
M31.7812 34.625
Q24.75 34.625 20.7188 30.8594
Q16.7031 27.0938 16.7031 20.5156
Q16.7031 13.9219 20.7188 10.1562
Q24.75 6.39062 31.7812 6.39062
Q38.8125 6.39062 42.8594 10.1719
Q46.9219 13.9688 46.9219 20.5156
Q46.9219 27.0938 42.8906 30.8594
Q38.875 34.625 31.7812 34.625
M21.9219 38.8125
Q15.5781 40.375 12.0312 44.7188
Q8.5 49.0781 8.5 55.3281
Q8.5 64.0625 14.7188 69.1406
Q20.9531 74.2188 31.7812 74.2188
Q42.6719 74.2188 48.875 69.1406
Q55.0781 64.0625 55.0781 55.3281
Q55.0781 49.0781 51.5312 44.7188
Q48 40.375 41.7031 38.8125
Q48.8281 37.1562 52.7969 32.3125
Q56.7812 27.4844 56.7812 20.5156
Q56.7812 9.90625 50.3125 4.23438
Q43.8438 -1.42188 31.7812 -1.42188
Q19.7344 -1.42188 13.25 4.23438
Q6.78125 9.90625 6.78125 20.5156
Q6.78125 27.4844 10.7812 32.3125
Q14.7969 37.1562 21.9219 38.8125
M18.3125 54.3906
Q18.3125 48.7344 21.8438 45.5625
Q25.3906 42.3906 31.7812 42.3906
Q38.1406 42.3906 41.7188 45.5625
Q45.3125 48.7344 45.3125 54.3906
Q45.3125 60.0625 41.7188 63.2344
Q38.1406 66.4062 31.7812 66.4062
Q25.3906 66.4062 21.8438 63.2344
Q18.3125 60.0625 18.3125 54.3906" id="DejaVuSans-38"/>
      </defs>
      <g transform="translate(422.2903125 401.918125)scale(0.12 -0.12)">
       <use xlink:href="#DejaVuSans-38"/>
       <use x="63.623046875" xlink:href="#DejaVuSans-30"/>
      </g>
     </g>
    </g>
    <g id="xtick_6">
     <g id="line2d_29">
      <g>
       <use style="stroke:#000000;stroke-width:0.5;" x="518.4" xlink:href="#m93b0483c22" y="388.8"/>
      </g>
     </g>
     <g id="line2d_30">
      <g>
       <use style="stroke:#000000;stroke-width:0.5;" x="518.4" xlink:href="#m741efc42ff" y="43.2"/>
      </g>
     </g>
     <g id="text_6">
      <!-- 100 -->
      <defs>
       <path d="
M12.4062 8.29688
L28.5156 8.29688
L28.5156 63.9219
L10.9844 60.4062
L10.9844 69.3906
L28.4219 72.9062
L38.2812 72.9062
L38.2812 8.29688
L54.3906 8.29688
L54.3906 0
L12.4062 0
z
" id="DejaVuSans-31"/>
      </defs>
      <g transform="translate(508.005 401.918125)scale(0.12 -0.12)">
       <use xlink:href="#DejaVuSans-31"/>
       <use x="63.623046875" xlink:href="#DejaVuSans-30"/>
       <use x="127.24609375" xlink:href="#DejaVuSans-30"/>
      </g>
     </g>
    </g>
   </g>
   <g id="matplotlib.axis_2">
    <g id="ytick_1">
     <g id="line2d_31">
      <defs>
       <path d="
M0 0
L4 0" id="m728421d6d4" style="stroke:#000000;stroke-width:0.5;"/>
      </defs>
      <g>
       <use style="stroke:#000000;stroke-width:0.5;" x="72.0" xlink:href="#m728421d6d4" y="388.8"/>
      </g>
     </g>
     <g id="line2d_32">
      <defs>
       <path d="
M0 0
L-4 0" id="mcb0005524f" style="stroke:#000000;stroke-width:0.5;"/>
      </defs>
      <g>
       <use style="stroke:#000000;stroke-width:0.5;" x="518.4" xlink:href="#mcb0005524f" y="388.8"/>
      </g>
     </g>
     <g id="text_7">
      <!-- 0 -->
      <g transform="translate(61.953125 392.11125)scale(0.12 -0.12)">
       <use xlink:href="#DejaVuSans-30"/>
      </g>
     </g>
    </g>
    <g id="ytick_2">
     <g id="line2d_33">
      <g>
       <use style="stroke:#000000;stroke-width:0.5;" x="72.0" xlink:href="#m728421d6d4" y="302.4"/>
      </g>
     </g>
     <g id="line2d_34">
      <g>
       <use style="stroke:#000000;stroke-width:0.5;" x="518.4" xlink:href="#mcb0005524f" y="302.4"/>
      </g>
     </g>
     <g id="text_8">
      <!-- 5 -->
      <defs>
       <path d="
M10.7969 72.9062
L49.5156 72.9062
L49.5156 64.5938
L19.8281 64.5938
L19.8281 46.7344
Q21.9688 47.4688 24.1094 47.8281
Q26.2656 48.1875 28.4219 48.1875
Q40.625 48.1875 47.75 41.5
Q54.8906 34.8125 54.8906 23.3906
Q54.8906 11.625 47.5625 5.09375
Q40.2344 -1.42188 26.9062 -1.42188
Q22.3125 -1.42188 17.5469 -0.640625
Q12.7969 0.140625 7.71875 1.70312
L7.71875 11.625
Q12.1094 9.23438 16.7969 8.0625
Q21.4844 6.89062 26.7031 6.89062
Q35.1562 6.89062 40.0781 11.3281
Q45.0156 15.7656 45.0156 23.3906
Q45.0156 31 40.0781 35.4375
Q35.1562 39.8906 26.7031 39.8906
Q22.75 39.8906 18.8125 39.0156
Q14.8906 38.1406 10.7969 36.2812
z
" id="DejaVuSans-35"/>
      </defs>
      <g transform="translate(62.339375 305.71125)scale(0.12 -0.12)">
       <use xlink:href="#DejaVuSans-35"/>
      </g>
     </g>
    </g>
    <g id="ytick_3">
     <g id="line2d_35">
      <g>
       <use style="stroke:#000000;stroke-width:0.5;" x="72.0" xlink:href="#m728421d6d4" y="216.0"/>
      </g>
     </g>
     <g id="line2d_36">
      <g>
       <use style="stroke:#000000;stroke-width:0.5;" x="518.4" xlink:href="#mcb0005524f" y="216.0"/>
      </g>
     </g>
     <g id="text_9">
      <!-- 10 -->
      <g transform="translate(54.845 219.31125)scale(0.12 -0.12)">
       <use xlink:href="#DejaVuSans-31"/>
       <use x="63.623046875" xlink:href="#DejaVuSans-30"/>
      </g>
     </g>
    </g>
    <g id="ytick_4">
     <g id="line2d_37">
      <g>
       <use style="stroke:#000000;stroke-width:0.5;" x="72.0" xlink:href="#m728421d6d4" y="129.6"/>
      </g>
     </g>
     <g id="line2d_38">
      <g>
       <use style="stroke:#000000;stroke-width:0.5;" x="518.4" xlink:href="#mcb0005524f" y="129.6"/>
      </g>
     </g>
     <g id="text_10">
      <!-- 15 -->
      <g transform="translate(55.09625 132.91125)scale(0.12 -0.12)">
       <use xlink:href="#DejaVuSans-31"/>
       <use x="63.623046875" xlink:href="#DejaVuSans-35"/>
      </g>
     </g>
    </g>
    <g id="ytick_5">
     <g id="line2d_39">
      <g>
       <use style="stroke:#000000;stroke-width:0.5;" x="72.0" xlink:href="#m728421d6d4" y="43.2"/>
      </g>
     </g>
     <g id="line2d_40">
      <g>
       <use style="stroke:#000000;stroke-width:0.5;" x="518.4" xlink:href="#mcb0005524f" y="43.2"/>
      </g>
     </g>
     <g id="text_11">
      <!-- 20 -->
      <g transform="translate(54.40625 46.51125)scale(0.12 -0.12)">
       <use xlink:href="#DejaVuSans-32"/>
       <use x="63.623046875" xlink:href="#DejaVuSans-30"/>
      </g>
     </g>
    </g>
   </g>
   <g id="patch_3">
    <path d="
M72 43.2
L518.4 43.2" style="fill:none;stroke:#000000;"/>
   </g>
   <g id="patch_4">
    <path d="
M518.4 388.8
L518.4 43.2" style="fill:none;stroke:#000000;"/>
   </g>
   <g id="patch_5">
    <path d="
M72 388.8
L518.4 388.8" style="fill:none;stroke:#000000;"/>
   </g>
   <g id="patch_6">
    <path d="
M72 388.8
L72 43.2" style="fill:none;stroke:#000000;"/>
   </g>
  </g>
 </g>
 <defs>
  <clipPath id="p7ff5b81e1d">
   <rect height="345.6" width="446.4" x="72.0" y="43.2"/>
  </clipPath>
 </defs>
</svg>
