<?xml version="1.0" encoding="utf-8" standalone="no"?>
<!DOCTYPE svg PUBLIC "-//W3C//DTD SVG 1.1//EN"
  "http://www.w3.org/Graphics/SVG/1.1/DTD/svg11.dtd">
<!-- Created with matplotlib (http://matplotlib.org/) -->
<svg height="432pt" version="1.1" viewBox="0 0 576 432" width="576pt" xmlns="http://www.w3.org/2000/svg" xmlns:xlink="http://www.w3.org/1999/xlink">
 <defs>
  <style type="text/css">
*{stroke-linecap:butt;stroke-linejoin:round;}
  </style>
 </defs>
 <g id="figure_1">
  <g id="patch_1">
   <path d="
M0 432
L576 432
L576 0
L0 0
z
" style="fill:#ffffff;"/>
  </g>
  <g id="axes_1">
   <g id="patch_2">
    <path d="
M72 388.8
L518.4 388.8
L518.4 43.2
L72 43.2
z
" style="fill:#ffffff;"/>
   </g>
   <g id="line2d_1">
    <path clip-path="url(#p7ff5b81e1d)" d="
M72 285.12
L76.464 241.92
L80.928 207.36
L85.392 224.64
L89.856 241.92
L94.32 207.36
L98.784 207.36
L103.248 181.44
L107.712 181.44
L112.176 155.52
L116.64 155.52
L121.104 155.52
L125.568 155.52
L130.032 155.52
L134.496 138.24
L138.96 155.52
L143.424 146.88
L147.888 146.88
L152.352 138.24
L156.816 138.24
L161.28 129.6
L165.744 129.6
L170.208 129.6
L174.672 120.96
L179.136 120.96
L183.6 129.6
L188.064 129.6
L192.528 120.96
L196.992 112.32
L201.456 120.96
L205.92 120.96
L210.384 120.96
L214.848 129.6
L219.312 129.6
L223.776 120.96
L228.24 120.96
L232.704 120.96
L237.168 112.32
L241.632 112.32
L246.096 112.32
L250.56 112.32
L255.024 103.68
L259.488 103.68
L263.952 103.68
L268.416 103.68
L272.88 95.04
L277.344 95.04
L281.808 95.04
L286.272 95.04
L290.736 95.04
L295.2 95.04
L299.664 95.04
L304.128 95.04
L308.592 86.4
L313.056 86.4
L317.52 86.4
L321.984 86.4
L326.448 86.4
L330.912 86.4
L335.376 86.4
L339.84 86.4
L344.304 86.4
L348.768 86.4
L353.232 95.04
L357.696 95.04
L362.16 86.4
L366.624 95.04
L371.088 95.04
L375.552 86.4
L380.016 86.4
L384.48 86.4
L388.944 86.4
L393.408 86.4
L397.872 86.4
L402.336 86.4
L406.8 77.76
L411.264 77.76
L415.728 77.76
L420.192 77.76
L424.656 77.76
L429.12 77.76
L433.584 77.76
L438.048 77.76
L442.512 77.76
L446.976 77.76
L451.44 77.76
L455.904 86.4
L460.368 86.4
L464.832 86.4
L469.296 86.4
L473.76 86.4
L478.224 86.4
L482.688 77.76
L487.152 77.76
L491.616 77.76
L496.08 77.76
L500.544 77.76
L505.008 77.76
L509.472 77.76" style="fill:none;stroke:#0000ff;stroke-linecap:square;"/>
   </g>
   <g id="line2d_2">
    <path clip-path="url(#p7ff5b81e1d)" d="
M72 285.12
L76.464 241.92
L80.928 259.2
L85.392 216
L89.856 181.44
L94.32 198.72
L98.784 198.72
L103.248 198.72
L107.712 172.8
L112.176 172.8
L116.64 172.8
L121.104 164.16
L125.568 164.16
L130.032 164.16
L134.496 155.52
L138.96 138.24
L143.424 138.24
L147.888 138.24
L152.352 138.24
L156.816 138.24
L161.28 138.24
L165.744 138.24
L170.208 129.6
L174.672 129.6
L179.136 120.96
L183.6 120.96
L188.064 112.32
L192.528 120.96
L196.992 120.96
L201.456 120.96
L205.92 120.96
L210.384 120.96
L214.848 120.96
L219.312 112.32
L223.776 112.32
L228.24 112.32
L232.704 112.32
L237.168 103.68
L241.632 103.68
L246.096 103.68
L250.56 95.04
L255.024 95.04
L259.488 103.68
L263.952 103.68
L268.416 103.68
L272.88 103.68
L277.344 103.68
L281.808 95.04
L286.272 95.04
L290.736 95.04
L295.2 95.04
L299.664 95.04
L304.128 86.4
L308.592 86.4
L313.056 86.4
L317.52 86.4
L321.984 77.76
L326.448 77.76
L330.912 86.4
L335.376 86.4
L339.84 86.4
L344.304 86.4
L348.768 77.76
L353.232 77.76
L357.696 69.12
L362.16 77.76
L366.624 69.12
L371.088 69.12
L375.552 69.12
L380.016 69.12
L384.48 77.76
L388.944 77.76
L393.408 77.76
L397.872 77.76
L402.336 86.4
L406.8 86.4
L411.264 86.4
L415.728 77.76
L420.192 77.76
L424.656 77.76
L429.12 77.76
L433.584 77.76
L438.048 77.76
L442.512 77.76
L446.976 77.76
L451.44 77.76
L455.904 77.76
L460.368 77.76
L464.832 77.76
L469.296 77.76
L473.76 77.76
L478.224 77.76
L482.688 77.76
L487.152 77.76
L491.616 77.76
L496.08 77.76
L500.544 77.76
L505.008 77.76
L509.472 77.76" style="fill:none;stroke:#008000;stroke-linecap:square;"/>
   </g>
   <g id="line2d_3">
    <path clip-path="url(#p7ff5b81e1d)" d="
M72 285.12
L76.464 302.4
L80.928 302.4
L85.392 311.04
L89.856 285.12
L94.32 250.56
L98.784 250.56
L103.248 224.64
L107.712 224.64
L112.176 224.64
L116.64 233.28
L121.104 233.28
L125.568 233.28
L130.032 241.92
L134.496 241.92
L138.96 224.64
L143.424 216
L147.888 207.36
L152.352 207.36
L156.816 198.72
L161.28 198.72
L165.744 198.72
L170.208 198.72
L174.672 198.72
L179.136 198.72
L183.6 207.36
L188.064 207.36
L192.528 207.36
L196.992 207.36
L201.456 198.72
L205.92 198.72
L210.384 198.72
L214.848 198.72
L219.312 190.08
L223.776 198.72
L228.24 198.72
L232.704 198.72
L237.168 198.72
L241.632 198.72
L246.096 198.72
L250.56 198.72
L255.024 190.08
L259.488 190.08
L263.952 190.08
L268.416 190.08
L272.88 190.08
L277.344 190.08
L281.808 198.72
L286.272 198.72
L290.736 198.72
L295.2 198.72
L299.664 198.72
L304.128 198.72
L308.592 198.72
L313.056 198.72
L317.52 198.72
L321.984 207.36
L326.448 207.36
L330.912 198.72
L335.376 198.72
L339.84 198.72
L344.304 198.72
L348.768 198.72
L353.232 198.72
L357.696 198.72
L362.16 190.08
L366.624 181.44
L371.088 181.44
L375.552 181.44
L380.016 181.44
L384.48 172.8
L388.944 172.8
L393.408 172.8
L397.872 172.8
L402.336 172.8
L406.8 172.8
L411.264 172.8
L415.728 172.8
L420.192 172.8
L424.656 172.8
L429.12 172.8
L433.584 172.8
L438.048 172.8
L442.512 172.8
L446.976 172.8
L451.44 164.16
L455.904 164.16
L460.368 164.16
L464.832 164.16
L469.296 164.16
L473.76 164.16
L478.224 164.16
L482.688 155.52
L487.152 155.52
L491.616 155.52
L496.08 155.52
L500.544 155.52
L505.008 155.52
L509.472 155.52" style="fill:none;stroke:#ff0000;stroke-linecap:square;"/>
   </g>
   <g id="line2d_4">
    <path clip-path="url(#p7ff5b81e1d)" d="
M72 285.12
L76.464 302.4
L80.928 302.4
L85.392 250.56
L89.856 250.56
L94.32 250.56
L98.784 224.64
L103.248 241.92
L107.712 241.92
L112.176 241.92
L116.64 241.92
L121.104 241.92
L125.568 241.92
L130.032 241.92
L134.496 241.92
L138.96 241.92
L143.424 241.92
L147.888 241.92
L152.352 241.92
L156.816 216
L161.28 216
L165.744 198.72
L170.208 190.08
L174.672 198.72
L179.136 198.72
L183.6 181.44
L188.064 181.44
L192.528 181.44
L196.992 181.44
L201.456 164.16
L205.92 164.16
L210.384 155.52
L214.848 138.24
L219.312 138.24
L223.776 138.24
L228.24 138.24
L232.704 138.24
L237.168 138.24
L241.632 129.6
L246.096 138.24
L250.56 138.24
L255.024 138.24
L259.488 129.6
L263.952 129.6
L268.416 129.6
L272.88 129.6
L277.344 129.6
L281.808 129.6
L286.272 129.6
L290.736 120.96
L295.2 120.96
L299.664 112.32
L304.128 112.32
L308.592 112.32
L313.056 112.32
L317.52 112.32
L321.984 112.32
L326.448 112.32
L330.912 112.32
L335.376 112.32
L339.84 112.32
L344.304 112.32
L348.768 112.32
L353.232 112.32
L357.696 112.32
L362.16 112.32
L366.624 112.32
L371.088 112.32
L375.552 112.32
L380.016 112.32
L384.48 112.32
L388.944 112.32
L393.408 103.68
L397.872 103.68
L402.336 103.68
L406.8 103.68
L411.264 95.04
L415.728 95.04
L420.192 95.04
L424.656 95.04
L429.12 95.04
L433.584 95.04
L438.048 103.68
L442.512 95.04
L446.976 95.04
L451.44 95.04
L455.904 77.76
L460.368 77.76
L464.832 77.76
L469.296 77.76
L473.76 77.76
L478.224 77.76
L482.688 77.76
L487.152 77.76
L491.616 77.76
L496.08 77.76
L500.544 77.76
L505.008 77.76
L509.472 77.76" style="fill:none;stroke:#00bfbf;stroke-linecap:square;"/>
   </g>
   <g id="line2d_5">
    <path clip-path="url(#p7ff5b81e1d)" d="
M72 302.4
L76.464 302.4
L80.928 302.4
L85.392 302.4
L89.856 302.4
L94.32 302.4
L98.784 302.4
L103.248 302.4
L107.712 302.4
L112.176 276.48
L116.64 276.48
L121.104 267.84
L125.568 276.48
L130.032 285.12
L134.496 276.48
L138.96 276.48
L143.424 276.48
L147.888 276.48
L152.352 276.48
L156.816 276.48
L161.28 276.48
L165.744 276.48
L170.208 267.84
L174.672 267.84
L179.136 259.2
L183.6 259.2
L188.064 259.2
L192.528 267.84
L196.992 267.84
L201.456 276.48
L205.92 259.2
L210.384 267.84
L214.848 250.56
L219.312 250.56
L223.776 250.56
L228.24 250.56
L232.704 259.2
L237.168 259.2
L241.632 259.2
L246.096 259.2
L250.56 250.56
L255.024 250.56
L259.488 233.28
L263.952 233.28
L268.416 233.28
L272.88 233.28
L277.344 233.28
L281.808 224.64
L286.272 224.64
L290.736 224.64
L295.2 224.64
L299.664 224.64
L304.128 224.64
L308.592 224.64
L313.056 224.64
L317.52 224.64
L321.984 224.64
L326.448 224.64
L330.912 224.64
L335.376 224.64
L339.84 224.64
L344.304 224.64
L348.768 224.64
L353.232 224.64
L357.696 224.64
L362.16 224.64
L366.624 224.64
L371.088 224.64
L375.552 224.64
L380.016 224.64
L384.48 207.36
L388.944 207.36
L393.408 207.36
L397.872 207.36
L402.336 207.36
L406.8 207.36
L411.264 207.36
L415.728 207.36
L420.192 207.36
L424.656 207.36
L429.12 207.36
L433.584 207.36
L438.048 207.36
L442.512 207.36
L446.976 207.36
L451.44 216
L455.904 216
L460.368 216
L464.832 216
L469.296 216
L473.76 216
L478.224 216
L482.688 216
L487.152 216
L491.616 216
L496.08 216
L500.544 207.36
L505.008 207.36
L509.472 216" style="fill:none;stroke:#bf00bf;stroke-linecap:square;"/>
   </g>
   <g id="line2d_6">
    <path clip-path="url(#p7ff5b81e1d)" d="
M72 302.4
L76.464 302.4
L80.928 302.4
L85.392 302.4
L89.856 302.4
L94.32 302.4
L98.784 302.4
L103.248 302.4
L107.712 302.4
L112.176 302.4
L116.64 250.56
L121.104 250.56
L125.568 250.56
L130.032 250.56
L134.496 250.56
L138.96 250.56
L143.424 250.56
L147.888 250.56
L152.352 250.56
L156.816 250.56
L161.28 250.56
L165.744 250.56
L170.208 250.56
L174.672 250.56
L179.136 250.56
L183.6 250.56
L188.064 250.56
L192.528 250.56
L196.992 250.56
L201.456 250.56
L205.92 250.56
L210.384 250.56
L214.848 250.56
L219.312 250.56
L223.776 250.56
L228.24 250.56
L232.704 250.56
L237.168 250.56
L241.632 250.56
L246.096 250.56
L250.56 250.56
L255.024 250.56
L259.488 250.56
L263.952 250.56
L268.416 250.56
L272.88 250.56
L277.344 250.56
L281.808 250.56
L286.272 250.56
L290.736 250.56
L295.2 250.56
L299.664 250.56
L304.128 250.56
L308.592 250.56
L313.056 250.56
L317.52 250.56
L321.984 250.56
L326.448 250.56
L330.912 250.56
L335.376 250.56
L339.84 250.56
L344.304 250.56
L348.768 250.56
L353.232 250.56
L357.696 250.56
L362.16 250.56
L366.624 250.56
L371.088 250.56
L375.552 250.56
L380.016 250.56
L384.48 250.56
L388.944 250.56
L393.408 250.56
L397.872 250.56
L402.336 250.56
L406.8 250.56
L411.264 250.56
L415.728 250.56
L420.192 216
L424.656 216
L429.12 207.36
L433.584 207.36
L438.048 207.36
L442.512 207.36
L446.976 207.36
L451.44 207.36
L455.904 207.36
L460.368 207.36
L464.832 207.36
L469.296 207.36
L473.76 207.36
L478.224 207.36
L482.688 207.36
L487.152 198.72
L491.616 198.72
L496.08 198.72
L500.544 198.72
L505.008 198.72
L509.472 198.72" style="fill:none;stroke:#bfbf00;stroke-linecap:square;"/>
   </g>
   <g id="line2d_7">
    <path clip-path="url(#p7ff5b81e1d)" d="
M72 302.4
L76.464 302.4
L80.928 302.4
L85.392 302.4
L89.856 302.4
L94.32 302.4
L98.784 302.4
L103.248 302.4
L107.712 302.4
L112.176 276.48
L116.64 276.48
L121.104 267.84
L125.568 276.48
L130.032 285.12
L134.496 276.48
L138.96 276.48
L143.424 276.48
L147.888 276.48
L152.352 276.48
L156.816 276.48
L161.28 276.48
L165.744 276.48
L170.208 267.84
L174.672 267.84
L179.136 259.2
L183.6 259.2
L188.064 259.2
L192.528 267.84
L196.992 267.84
L201.456 276.48
L205.92 259.2
L210.384 267.84
L214.848 250.56
L219.312 250.56
L223.776 250.56
L228.24 250.56
L232.704 259.2
L237.168 259.2
L241.632 259.2
L246.096 259.2
L250.56 250.56
L255.024 250.56
L259.488 233.28
L263.952 233.28
L268.416 233.28
L272.88 233.28
L277.344 233.28
L281.808 224.64
L286.272 224.64
L290.736 224.64
L295.2 224.64
L299.664 224.64
L304.128 224.64
L308.592 224.64
L313.056 224.64
L317.52 224.64
L321.984 224.64
L326.448 224.64
L330.912 224.64
L335.376 224.64
L339.84 224.64
L344.304 224.64
L348.768 224.64
L353.232 224.64
L357.696 224.64
L362.16 224.64
L366.624 224.64
L371.088 224.64
L375.552 224.64
L380.016 224.64
L384.48 207.36
L388.944 207.36
L393.408 207.36
L397.872 207.36
L402.336 207.36
L406.8 207.36
L411.264 207.36
L415.728 207.36
L420.192 207.36
L424.656 207.36
L429.12 207.36
L433.584 207.36
L438.048 207.36
L442.512 207.36
L446.976 207.36
L451.44 216
L455.904 216
L460.368 216
L464.832 216
L469.296 216
L473.76 216
L478.224 216
L482.688 216
L487.152 216
L491.616 216
L496.08 216
L500.544 207.36
L505.008 207.36
L509.472 216" style="fill:none;stroke:#000000;stroke-linecap:square;"/>
   </g>
   <g id="line2d_8">
    <path clip-path="url(#p7ff5b81e1d)" d="
M72 302.4
L76.464 302.4
L80.928 302.4
L85.392 302.4
L89.856 302.4
L94.32 302.4
L98.784 302.4
L103.248 302.4
L107.712 302.4
L112.176 276.48
L116.64 276.48
L121.104 267.84
L125.568 276.48
L130.032 285.12
L134.496 276.48
L138.96 276.48
L143.424 276.48
L147.888 276.48
L152.352 276.48
L156.816 276.48
L161.28 276.48
L165.744 276.48
L170.208 267.84
L174.672 267.84
L179.136 259.2
L183.6 259.2
L188.064 259.2
L192.528 267.84
L196.992 267.84
L201.456 276.48
L205.92 259.2
L210.384 267.84
L214.848 250.56
L219.312 250.56
L223.776 250.56
L228.24 250.56
L232.704 259.2
L237.168 259.2
L241.632 259.2
L246.096 259.2
L250.56 250.56
L255.024 250.56
L259.488 233.28
L263.952 233.28
L268.416 233.28
L272.88 233.28
L277.344 233.28
L281.808 224.64
L286.272 224.64
L290.736 224.64
L295.2 224.64
L299.664 224.64
L304.128 224.64
L308.592 224.64
L313.056 224.64
L317.52 224.64
L321.984 224.64
L326.448 224.64
L330.912 224.64
L335.376 224.64
L339.84 216
L344.304 216
L348.768 216
L353.232 216
L357.696 216
L362.16 216
L366.624 216
L371.088 216
L375.552 216
L380.016 216
L384.48 207.36
L388.944 207.36
L393.408 207.36
L397.872 207.36
L402.336 207.36
L406.8 207.36
L411.264 207.36
L415.728 207.36
L420.192 207.36
L424.656 207.36
L429.12 207.36
L433.584 207.36
L438.048 207.36
L442.512 207.36
L446.976 207.36
L451.44 216
L455.904 216
L460.368 216
L464.832 216
L469.296 216
L473.76 216
L478.224 216
L482.688 216
L487.152 216
L491.616 216
L496.08 216
L500.544 207.36
L505.008 207.36
L509.472 216" style="fill:none;stroke:#0000ff;stroke-linecap:square;"/>
   </g>
   <g id="line2d_9">
    <path clip-path="url(#p7ff5b81e1d)" d="
M72 302.4
L76.464 302.4
L80.928 302.4
L85.392 302.4
L89.856 302.4
L94.32 302.4
L98.784 302.4
L103.248 302.4
L107.712 302.4
L112.176 302.4
L116.64 302.4
L121.104 302.4
L125.568 302.4
L130.032 302.4
L134.496 302.4
L138.96 302.4
L143.424 302.4
L147.888 267.84
L152.352 267.84
L156.816 267.84
L161.28 267.84
L165.744 233.28
L170.208 233.28
L174.672 216
L179.136 216
L183.6 216
L188.064 216
L192.528 216
L196.992 216
L201.456 216
L205.92 216
L210.384 216
L214.848 216
L219.312 216
L223.776 224.64
L228.24 224.64
L232.704 224.64
L237.168 233.28
L241.632 233.28
L246.096 233.28
L250.56 233.28
L255.024 233.28
L259.488 233.28
L263.952 233.28
L268.416 233.28
L272.88 233.28
L277.344 233.28
L281.808 233.28
L286.272 233.28
L290.736 233.28
L295.2 233.28
L299.664 224.64
L304.128 224.64
L308.592 224.64
L313.056 224.64
L317.52 224.64
L321.984 224.64
L326.448 224.64
L330.912 224.64
L335.376 216
L339.84 216
L344.304 216
L348.768 224.64
L353.232 224.64
L357.696 233.28
L362.16 233.28
L366.624 233.28
L371.088 233.28
L375.552 233.28
L380.016 233.28
L384.48 233.28
L388.944 233.28
L393.408 233.28
L397.872 233.28
L402.336 233.28
L406.8 233.28
L411.264 233.28
L415.728 233.28
L420.192 233.28
L424.656 233.28
L429.12 233.28
L433.584 233.28
L438.048 233.28
L442.512 233.28
L446.976 233.28
L451.44 233.28
L455.904 207.36
L460.368 207.36
L464.832 207.36
L469.296 207.36
L473.76 207.36
L478.224 207.36
L482.688 216
L487.152 216
L491.616 216
L496.08 216
L500.544 216
L505.008 216
L509.472 216" style="fill:none;stroke:#008000;stroke-linecap:square;"/>
   </g>
   <g id="line2d_10">
    <path clip-path="url(#p7ff5b81e1d)" d="
M72 302.4
L76.464 302.4
L80.928 250.56
L85.392 250.56
L89.856 250.56
L94.32 250.56
L98.784 250.56
L103.248 276.48
L107.712 276.48
L112.176 276.48
L116.64 293.76
L121.104 293.76
L125.568 293.76
L130.032 259.2
L134.496 259.2
L138.96 259.2
L143.424 259.2
L147.888 259.2
L152.352 259.2
L156.816 250.56
L161.28 233.28
L165.744 233.28
L170.208 233.28
L174.672 241.92
L179.136 241.92
L183.6 241.92
L188.064 224.64
L192.528 224.64
L196.992 224.64
L201.456 224.64
L205.92 224.64
L210.384 224.64
L214.848 224.64
L219.312 224.64
L223.776 224.64
L228.24 224.64
L232.704 233.28
L237.168 233.28
L241.632 224.64
L246.096 224.64
L250.56 224.64
L255.024 233.28
L259.488 233.28
L263.952 233.28
L268.416 224.64
L272.88 224.64
L277.344 224.64
L281.808 224.64
L286.272 224.64
L290.736 224.64
L295.2 224.64
L299.664 224.64
L304.128 224.64
L308.592 224.64
L313.056 224.64
L317.52 224.64
L321.984 224.64
L326.448 224.64
L330.912 224.64
L335.376 224.64
L339.84 224.64
L344.304 224.64
L348.768 224.64
L353.232 233.28
L357.696 233.28
L362.16 241.92
L366.624 241.92
L371.088 241.92
L375.552 250.56
L380.016 250.56
L384.48 250.56
L388.944 250.56
L393.408 250.56
L397.872 250.56
L402.336 250.56
L406.8 250.56
L411.264 250.56
L415.728 250.56
L420.192 250.56
L424.656 250.56
L429.12 250.56
L433.584 250.56
L438.048 250.56
L442.512 250.56
L446.976 250.56
L451.44 250.56
L455.904 250.56
L460.368 250.56
L464.832 250.56
L469.296 250.56
L473.76 250.56
L478.224 241.92
L482.688 241.92
L487.152 241.92
L491.616 241.92
L496.08 241.92
L500.544 241.92
L505.008 241.92
L509.472 241.92" style="fill:none;stroke:#ff0000;stroke-linecap:square;"/>
   </g>
   <g id="line2d_11">
    <path clip-path="url(#p7ff5b81e1d)" d="
M72 302.4
L76.464 302.4
L80.928 302.4
L85.392 302.4
L89.856 302.4
L94.32 302.4
L98.784 302.4
L103.248 302.4
L107.712 311.04
L112.176 311.04
L116.64 311.04
L121.104 293.76
L125.568 267.84
L130.032 267.84
L134.496 267.84
L138.96 276.48
L143.424 285.12
L147.888 285.12
L152.352 285.12
L156.816 285.12
L161.28 285.12
L165.744 285.12
L170.208 285.12
L174.672 285.12
L179.136 285.12
L183.6 285.12
L188.064 293.76
L192.528 267.84
L196.992 250.56
L201.456 250.56
L205.92 241.92
L210.384 241.92
L214.848 250.56
L219.312 250.56
L223.776 250.56
L228.24 250.56
L232.704 241.92
L237.168 241.92
L241.632 241.92
L246.096 241.92
L250.56 250.56
L255.024 250.56
L259.488 259.2
L263.952 259.2
L268.416 250.56
L272.88 250.56
L277.344 250.56
L281.808 259.2
L286.272 259.2
L290.736 259.2
L295.2 259.2
L299.664 259.2
L304.128 259.2
L308.592 259.2
L313.056 259.2
L317.52 259.2
L321.984 259.2
L326.448 259.2
L330.912 259.2
L335.376 259.2
L339.84 259.2
L344.304 259.2
L348.768 259.2
L353.232 259.2
L357.696 259.2
L362.16 259.2
L366.624 259.2
L371.088 259.2
L375.552 259.2
L380.016 259.2
L384.48 259.2
L388.944 259.2
L393.408 241.92
L397.872 250.56
L402.336 250.56
L406.8 250.56
L411.264 250.56
L415.728 241.92
L420.192 241.92
L424.656 241.92
L429.12 241.92
L433.584 233.28
L438.048 233.28
L442.512 233.28
L446.976 233.28
L451.44 233.28
L455.904 233.28
L460.368 224.64
L464.832 224.64
L469.296 224.64
L473.76 224.64
L478.224 224.64
L482.688 224.64
L487.152 224.64
L491.616 216
L496.08 216
L500.544 216
L505.008 224.64
L509.472 216" style="fill:none;stroke:#00bfbf;stroke-linecap:square;"/>
   </g>
   <g id="line2d_12">
    <path clip-path="url(#p7ff5b81e1d)" d="
M72 302.4
L76.464 302.4
L80.928 302.4
L85.392 302.4
L89.856 302.4
L94.32 302.4
L98.784 302.4
L103.248 302.4
L107.712 302.4
L112.176 302.4
L116.64 302.4
L121.104 302.4
L125.568 302.4
L130.032 302.4
L134.496 302.4
L138.96 302.4
L143.424 302.4
L147.888 302.4
L152.352 302.4
L156.816 302.4
L161.28 302.4
L165.744 302.4
L170.208 302.4
L174.672 302.4
L179.136 302.4
L183.6 302.4
L188.064 302.4
L192.528 302.4
L196.992 302.4
L201.456 302.4
L205.92 302.4
L210.384 302.4
L214.848 302.4
L219.312 302.4
L223.776 302.4
L228.24 302.4
L232.704 302.4
L237.168 302.4
L241.632 302.4
L246.096 302.4
L250.56 302.4
L255.024 302.4
L259.488 302.4
L263.952 302.4
L268.416 302.4
L272.88 302.4
L277.344 302.4
L281.808 302.4
L286.272 302.4
L290.736 302.4
L295.2 302.4
L299.664 302.4
L304.128 302.4
L308.592 302.4
L313.056 302.4
L317.52 302.4
L321.984 302.4
L326.448 302.4
L330.912 302.4
L335.376 302.4
L339.84 302.4
L344.304 302.4
L348.768 302.4
L353.232 302.4
L357.696 302.4
L362.16 302.4
L366.624 302.4
L371.088 302.4
L375.552 302.4
L380.016 302.4
L384.48 302.4
L388.944 302.4
L393.408 302.4
L397.872 302.4
L402.336 302.4
L406.8 302.4
L411.264 302.4
L415.728 302.4
L420.192 302.4
L424.656 302.4
L429.12 302.4
L433.584 302.4
L438.048 302.4
L442.512 302.4
L446.976 302.4
L451.44 302.4
L455.904 302.4
L460.368 302.4
L464.832 302.4
L469.296 302.4
L473.76 302.4
L478.224 302.4
L482.688 302.4
L487.152 302.4
L491.616 302.4
L496.08 302.4
L500.544 302.4
L505.008 302.4
L509.472 302.4" style="fill:none;stroke:#bf00bf;stroke-linecap:square;"/>
   </g>
   <g id="line2d_13">
    <path clip-path="url(#p7ff5b81e1d)" d="
M72 302.4
L76.464 302.4
L80.928 302.4
L85.392 302.4
L89.856 302.4
L94.32 302.4
L98.784 302.4
L103.248 302.4
L107.712 302.4
L112.176 302.4
L116.64 250.56
L121.104 250.56
L125.568 207.36
L130.032 207.36
L134.496 207.36
L138.96 207.36
L143.424 207.36
L147.888 207.36
L152.352 190.08
L156.816 190.08
L161.28 190.08
L165.744 190.08
L170.208 190.08
L174.672 190.08
L179.136 190.08
L183.6 190.08
L188.064 190.08
L192.528 190.08
L196.992 190.08
L201.456 190.08
L205.92 190.08
L210.384 190.08
L214.848 190.08
L219.312 190.08
L223.776 190.08
L228.24 190.08
L232.704 190.08
L237.168 190.08
L241.632 190.08
L246.096 190.08
L250.56 190.08
L255.024 190.08
L259.488 190.08
L263.952 155.52
L268.416 155.52
L272.88 138.24
L277.344 138.24
L281.808 138.24
L286.272 138.24
L290.736 138.24
L295.2 138.24
L299.664 138.24
L304.128 138.24
L308.592 138.24
L313.056 138.24
L317.52 129.6
L321.984 138.24
L326.448 129.6
L330.912 129.6
L335.376 129.6
L339.84 129.6
L344.304 129.6
L348.768 129.6
L353.232 129.6
L357.696 129.6
L362.16 129.6
L366.624 129.6
L371.088 129.6
L375.552 129.6
L380.016 129.6
L384.48 129.6
L388.944 112.32
L393.408 112.32
L397.872 112.32
L402.336 112.32
L406.8 112.32
L411.264 112.32
L415.728 112.32
L420.192 103.68
L424.656 103.68
L429.12 95.04
L433.584 95.04
L438.048 95.04
L442.512 95.04
L446.976 69.12
L451.44 69.12
L455.904 103.68
L460.368 103.68
L464.832 103.68
L469.296 103.68
L473.76 86.4
L478.224 86.4
L482.688 95.04
L487.152 95.04
L491.616 95.04
L496.08 86.4
L500.544 95.04
L505.008 95.04
L509.472 95.04" style="fill:none;stroke:#bfbf00;stroke-linecap:square;"/>
   </g>
   <g id="line2d_14">
    <path clip-path="url(#p7ff5b81e1d)" d="
M72 302.4
L76.464 302.4
L80.928 302.4
L85.392 302.4
L89.856 302.4
L94.32 302.4
L98.784 302.4
L103.248 302.4
L107.712 302.4
L112.176 302.4
L116.64 302.4
L121.104 302.4
L125.568 302.4
L130.032 302.4
L134.496 302.4
L138.96 302.4
L143.424 302.4
L147.888 302.4
L152.352 302.4
L156.816 302.4
L161.28 302.4
L165.744 302.4
L170.208 302.4
L174.672 302.4
L179.136 302.4
L183.6 302.4
L188.064 302.4
L192.528 302.4
L196.992 302.4
L201.456 302.4
L205.92 302.4
L210.384 285.12
L214.848 285.12
L219.312 285.12
L223.776 250.56
L228.24 250.56
L232.704 250.56
L237.168 250.56
L241.632 250.56
L246.096 250.56
L250.56 250.56
L255.024 250.56
L259.488 250.56
L263.952 250.56
L268.416 250.56
L272.88 250.56
L277.344 241.92
L281.808 241.92
L286.272 241.92
L290.736 241.92
L295.2 241.92
L299.664 241.92
L304.128 241.92
L308.592 241.92
L313.056 241.92
L317.52 241.92
L321.984 241.92
L326.448 241.92
L330.912 259.2
L335.376 259.2
L339.84 259.2
L344.304 259.2
L348.768 250.56
L353.232 250.56
L357.696 224.64
L362.16 224.64
L366.624 233.28
L371.088 233.28
L375.552 216
L380.016 216
L384.48 233.28
L388.944 233.28
L393.408 233.28
L397.872 233.28
L402.336 241.92
L406.8 241.92
L411.264 241.92
L415.728 241.92
L420.192 241.92
L424.656 241.92
L429.12 241.92
L433.584 241.92
L438.048 241.92
L442.512 241.92
L446.976 233.28
L451.44 233.28
L455.904 233.28
L460.368 233.28
L464.832 233.28
L469.296 233.28
L473.76 233.28
L478.224 233.28
L482.688 233.28
L487.152 233.28
L491.616 233.28
L496.08 233.28
L500.544 233.28
L505.008 233.28
L509.472 224.64" style="fill:none;stroke:#000000;stroke-linecap:square;"/>
   </g>
   <g id="line2d_15">
    <path clip-path="url(#p7ff5b81e1d)" d="
M72 302.4
L76.464 302.4
L80.928 302.4
L85.392 302.4
L89.856 302.4
L94.32 302.4
L98.784 302.4
L103.248 302.4
L107.712 302.4
L112.176 302.4
L116.64 302.4
L121.104 302.4
L125.568 302.4
L130.032 302.4
L134.496 302.4
L138.96 302.4
L143.424 302.4
L147.888 302.4
L152.352 302.4
L156.816 302.4
L161.28 302.4
L165.744 302.4
L170.208 302.4
L174.672 302.4
L179.136 302.4
L183.6 302.4
L188.064 302.4
L192.528 302.4
L196.992 302.4
L201.456 302.4
L205.92 302.4
L210.384 302.4
L214.848 302.4
L219.312 302.4
L223.776 302.4
L228.24 302.4
L232.704 241.92
L237.168 241.92
L241.632 241.92
L246.096 241.92
L250.56 241.92
L255.024 241.92
L259.488 241.92
L263.952 241.92
L268.416 241.92
L272.88 241.92
L277.344 241.92
L281.808 241.92
L286.272 241.92
L290.736 241.92
L295.2 241.92
L299.664 241.92
L304.128 241.92
L308.592 241.92
L313.056 241.92
L317.52 241.92
L321.984 241.92
L326.448 241.92
L330.912 155.52
L335.376 155.52
L339.84 155.52
L344.304 155.52
L348.768 155.52
L353.232 155.52
L357.696 155.52
L362.16 155.52
L366.624 155.52
L371.088 155.52
L375.552 155.52
L380.016 155.52
L384.48 155.52
L388.944 155.52
L393.408 155.52
L397.872 155.52
L402.336 155.52
L406.8 155.52
L411.264 155.52
L415.728 155.52
L420.192 164.16
L424.656 164.16
L429.12 164.16
L433.584 164.16
L438.048 164.16
L442.512 164.16
L446.976 164.16
L451.44 164.16
L455.904 164.16
L460.368 164.16
L464.832 164.16
L469.296 164.16
L473.76 181.44
L478.224 181.44
L482.688 181.44
L487.152 181.44
L491.616 181.44
L496.08 181.44
L500.544 181.44
L505.008 181.44
L509.472 181.44" style="fill:none;stroke:#0000ff;stroke-linecap:square;"/>
   </g>
   <g id="line2d_16">
    <path clip-path="url(#p7ff5b81e1d)" d="
M72 302.4
L76.464 302.4
L80.928 302.4
L85.392 302.4
L89.856 302.4
L94.32 302.4
L98.784 302.4
L103.248 302.4
L107.712 302.4
L112.176 302.4
L116.64 302.4
L121.104 302.4
L125.568 302.4
L130.032 302.4
L134.496 302.4
L138.96 302.4
L143.424 302.4
L147.888 302.4
L152.352 302.4
L156.816 302.4
L161.28 302.4
L165.744 302.4
L170.208 302.4
L174.672 302.4
L179.136 302.4
L183.6 302.4
L188.064 302.4
L192.528 302.4
L196.992 302.4
L201.456 302.4
L205.92 302.4
L210.384 302.4
L214.848 302.4
L219.312 302.4
L223.776 302.4
L228.24 302.4
L232.704 302.4
L237.168 302.4
L241.632 302.4
L246.096 302.4
L250.56 302.4
L255.024 302.4
L259.488 302.4
L263.952 302.4
L268.416 302.4
L272.88 302.4
L277.344 302.4
L281.808 302.4
L286.272 302.4
L290.736 302.4
L295.2 302.4
L299.664 302.4
L304.128 302.4
L308.592 302.4
L313.056 302.4
L317.52 302.4
L321.984 302.4
L326.448 302.4
L330.912 302.4
L335.376 302.4
L339.84 302.4
L344.304 302.4
L348.768 302.4
L353.232 302.4
L357.696 302.4
L362.16 302.4
L366.624 302.4
L371.088 302.4
L375.552 302.4
L380.016 302.4
L384.48 302.4
L388.944 302.4
L393.408 302.4
L397.872 302.4
L402.336 302.4
L406.8 302.4
L411.264 302.4
L415.728 302.4
L420.192 302.4
L424.656 302.4
L429.12 302.4
L433.584 302.4
L438.048 302.4
L442.512 302.4
L446.976 302.4
L451.44 302.4
L455.904 302.4
L460.368 302.4
L464.832 302.4
L469.296 302.4
L473.76 302.4
L478.224 302.4
L482.688 302.4
L487.152 302.4
L491.616 302.4
L496.08 302.4
L500.544 302.4
L505.008 302.4
L509.472 302.4" style="fill:none;stroke:#008000;stroke-linecap:square;"/>
   </g>
   <g id="line2d_17">
    <path clip-path="url(#p7ff5b81e1d)" d="
M72 302.4
L76.464 302.4
L80.928 311.04
L85.392 311.04
L89.856 336.96
L94.32 354.24
L98.784 328.32
L103.248 328.32
L107.712 302.4
L112.176 276.48
L116.64 276.48
L121.104 267.84
L125.568 276.48
L130.032 285.12
L134.496 276.48
L138.96 276.48
L143.424 276.48
L147.888 276.48
L152.352 276.48
L156.816 276.48
L161.28 276.48
L165.744 276.48
L170.208 267.84
L174.672 267.84
L179.136 259.2
L183.6 259.2
L188.064 259.2
L192.528 267.84
L196.992 267.84
L201.456 276.48
L205.92 259.2
L210.384 267.84
L214.848 250.56
L219.312 250.56
L223.776 250.56
L228.24 250.56
L232.704 259.2
L237.168 259.2
L241.632 259.2
L246.096 259.2
L250.56 250.56
L255.024 250.56
L259.488 233.28
L263.952 233.28
L268.416 233.28
L272.88 233.28
L277.344 233.28
L281.808 224.64
L286.272 224.64
L290.736 224.64
L295.2 224.64
L299.664 224.64
L304.128 224.64
L308.592 224.64
L313.056 224.64
L317.52 224.64
L321.984 224.64
L326.448 224.64
L330.912 224.64
L335.376 224.64
L339.84 224.64
L344.304 224.64
L348.768 224.64
L353.232 224.64
L357.696 224.64
L362.16 224.64
L366.624 224.64
L371.088 224.64
L375.552 224.64
L380.016 224.64
L384.48 207.36
L388.944 207.36
L393.408 207.36
L397.872 207.36
L402.336 207.36
L406.8 207.36
L411.264 207.36
L415.728 207.36
L420.192 207.36
L424.656 207.36
L429.12 207.36
L433.584 207.36
L438.048 207.36
L442.512 207.36
L446.976 207.36
L451.44 216
L455.904 216
L460.368 216
L464.832 216
L469.296 216
L473.76 216
L478.224 216
L482.688 216
L487.152 216
L491.616 216
L496.08 216
L500.544 207.36
L505.008 207.36
L509.472 216" style="fill:none;stroke:#ff0000;stroke-linecap:square;"/>
   </g>
   <g id="line2d_18">
    <path clip-path="url(#p7ff5b81e1d)" d="
M72 302.4
L76.464 302.4
L80.928 302.4
L85.392 302.4
L89.856 302.4
L94.32 302.4
L98.784 302.4
L103.248 302.4
L107.712 319.68
L112.176 319.68
L116.64 319.68
L121.104 319.68
L125.568 319.68
L130.032 276.48
L134.496 276.48
L138.96 276.48
L143.424 276.48
L147.888 276.48
L152.352 276.48
L156.816 276.48
L161.28 276.48
L165.744 276.48
L170.208 276.48
L174.672 276.48
L179.136 276.48
L183.6 207.36
L188.064 207.36
L192.528 207.36
L196.992 207.36
L201.456 207.36
L205.92 207.36
L210.384 207.36
L214.848 207.36
L219.312 207.36
L223.776 207.36
L228.24 216
L232.704 216
L237.168 216
L241.632 216
L246.096 216
L250.56 216
L255.024 216
L259.488 216
L263.952 216
L268.416 216
L272.88 216
L277.344 216
L281.808 216
L286.272 216
L290.736 216
L295.2 216
L299.664 216
L304.128 190.08
L308.592 190.08
L313.056 190.08
L317.52 190.08
L321.984 190.08
L326.448 190.08
L330.912 190.08
L335.376 190.08
L339.84 190.08
L344.304 190.08
L348.768 190.08
L353.232 190.08
L357.696 190.08
L362.16 190.08
L366.624 190.08
L371.088 190.08
L375.552 190.08
L380.016 190.08
L384.48 190.08
L388.944 190.08
L393.408 190.08
L397.872 190.08
L402.336 190.08
L406.8 190.08
L411.264 190.08
L415.728 190.08
L420.192 190.08
L424.656 190.08
L429.12 190.08
L433.584 198.72
L438.048 198.72
L442.512 198.72
L446.976 198.72
L451.44 198.72
L455.904 198.72
L460.368 198.72
L464.832 181.44
L469.296 181.44
L473.76 181.44
L478.224 181.44
L482.688 181.44
L487.152 181.44
L491.616 198.72
L496.08 198.72
L500.544 198.72
L505.008 198.72
L509.472 198.72" style="fill:none;stroke:#00bfbf;stroke-linecap:square;"/>
   </g>
   <g id="line2d_19">
    <path clip-path="url(#p7ff5b81e1d)" d="
M72 302.4
L76.464 302.4
L80.928 302.4
L85.392 302.4
L89.856 302.4
L94.32 302.4
L98.784 302.4
L103.248 302.4
L107.712 302.4
L112.176 302.4
L116.64 302.4
L121.104 302.4
L125.568 302.4
L130.032 302.4
L134.496 302.4
L138.96 302.4
L143.424 302.4
L147.888 302.4
L152.352 302.4
L156.816 302.4
L161.28 302.4
L165.744 302.4
L170.208 302.4
L174.672 302.4
L179.136 302.4
L183.6 302.4
L188.064 302.4
L192.528 302.4
L196.992 302.4
L201.456 302.4
L205.92 302.4
L210.384 302.4
L214.848 302.4
L219.312 302.4
L223.776 302.4
L228.24 302.4
L232.704 302.4
L237.168 302.4
L241.632 302.4
L246.096 302.4
L250.56 302.4
L255.024 302.4
L259.488 302.4
L263.952 302.4
L268.416 302.4
L272.88 302.4
L277.344 302.4
L281.808 302.4
L286.272 302.4
L290.736 302.4
L295.2 302.4
L299.664 302.4
L304.128 302.4
L308.592 302.4
L313.056 302.4
L317.52 302.4
L321.984 302.4
L326.448 302.4
L330.912 302.4
L335.376 302.4
L339.84 302.4
L344.304 302.4
L348.768 302.4
L353.232 302.4
L357.696 302.4
L362.16 302.4
L366.624 302.4
L371.088 302.4
L375.552 302.4
L380.016 302.4
L384.48 302.4
L388.944 302.4
L393.408 302.4
L397.872 302.4
L402.336 302.4
L406.8 302.4
L411.264 302.4
L415.728 302.4
L420.192 311.04
L424.656 311.04
L429.12 285.12
L433.584 285.12
L438.048 285.12
L442.512 285.12
L446.976 285.12
L451.44 285.12
L455.904 285.12
L460.368 285.12
L464.832 285.12
L469.296 285.12
L473.76 302.4
L478.224 302.4
L482.688 302.4
L487.152 302.4
L491.616 302.4
L496.08 302.4
L500.544 302.4
L505.008 302.4
L509.472 302.4" style="fill:none;stroke:#bf00bf;stroke-linecap:square;"/>
   </g>
   <g id="line2d_20">
    <path clip-path="url(#p7ff5b81e1d)" d="
M72 302.4
L76.464 302.4
L80.928 302.4
L85.392 302.4
L89.856 302.4
L94.32 302.4
L98.784 302.4
L103.248 302.4
L107.712 302.4
L112.176 302.4
L116.64 302.4
L121.104 302.4
L125.568 302.4
L130.032 302.4
L134.496 302.4
L138.96 302.4
L143.424 302.4
L147.888 302.4
L152.352 302.4
L156.816 302.4
L161.28 302.4
L165.744 302.4
L170.208 302.4
L174.672 302.4
L179.136 302.4
L183.6 302.4
L188.064 302.4
L192.528 302.4
L196.992 302.4
L201.456 302.4
L205.92 302.4
L210.384 302.4
L214.848 302.4
L219.312 302.4
L223.776 302.4
L228.24 302.4
L232.704 302.4
L237.168 302.4
L241.632 302.4
L246.096 302.4
L250.56 302.4
L255.024 302.4
L259.488 302.4
L263.952 302.4
L268.416 302.4
L272.88 302.4
L277.344 302.4
L281.808 302.4
L286.272 302.4
L290.736 302.4
L295.2 302.4
L299.664 302.4
L304.128 302.4
L308.592 302.4
L313.056 302.4
L317.52 302.4
L321.984 302.4
L326.448 302.4
L330.912 302.4
L335.376 302.4
L339.84 302.4
L344.304 302.4
L348.768 302.4
L353.232 302.4
L357.696 302.4
L362.16 302.4
L366.624 302.4
L371.088 302.4
L375.552 302.4
L380.016 302.4
L384.48 302.4
L388.944 302.4
L393.408 302.4
L397.872 302.4
L402.336 302.4
L406.8 302.4
L411.264 302.4
L415.728 302.4
L420.192 302.4
L424.656 302.4
L429.12 302.4
L433.584 302.4
L438.048 302.4
L442.512 302.4
L446.976 302.4
L451.44 302.4
L455.904 302.4
L460.368 302.4
L464.832 302.4
L469.296 302.4
L473.76 302.4
L478.224 302.4
L482.688 302.4
L487.152 302.4
L491.616 302.4
L496.08 302.4
L500.544 302.4
L505.008 302.4
L509.472 302.4" style="fill:none;stroke:#bfbf00;stroke-linecap:square;"/>
   </g>
   <g id="matplotlib.axis_1">
    <g id="xtick_1">
     <g id="line2d_21">
      <defs>
       <path d="
M0 0
L0 -4" id="m93b0483c22" style="stroke:#000000;stroke-width:0.5;"/>
      </defs>
      <g>
       <use style="stroke:#000000;stroke-width:0.5;" x="72.0" xlink:href="#m93b0483c22" y="388.8"/>
      </g>
     </g>
     <g id="line2d_22">
      <defs>
       <path d="
M0 0
L0 4" id="m741efc42ff" style="stroke:#000000;stroke-width:0.5;"/>
      </defs>
      <g>
       <use style="stroke:#000000;stroke-width:0.5;" x="72.0" xlink:href="#m741efc42ff" y="43.2"/>
      </g>
     </g>
     <g id="text_1">
      <!-- 0 -->
      <defs>
       <path d="
M31.7812 66.4062
Q24.1719 66.4062 20.3281 58.9062
Q16.5 51.4219 16.5 36.375
Q16.5 21.3906 20.3281 13.8906
Q24.1719 6.39062 31.7812 6.39062
Q39.4531 6.39062 43.2812 13.8906
Q47.125 21.3906 47.125 36.375
Q47.125 51.4219 43.2812 58.9062
Q39.4531 66.4062 31.7812 66.4062
M31.7812 74.2188
Q44.0469 74.2188 50.5156 64.5156
Q56.9844 54.8281 56.9844 36.375
Q56.9844 17.9688 50.5156 8.26562
Q44.0469 -1.42188 31.7812 -1.42188
Q19.5312 -1.42188 13.0625 8.26562
Q6.59375 17.9688 6.59375 36.375
Q6.59375 54.8281 13.0625 64.5156
Q19.5312 74.2188 31.7812 74.2188" id="DejaVuSans-30"/>
      </defs>
      <g transform="translate(68.9765625 401.918125)scale(0.12 -0.12)">
       <use xlink:href="#DejaVuSans-30"/>
      </g>
     </g>
    </g>
    <g id="xtick_2">
     <g id="line2d_23">
      <g>
       <use style="stroke:#000000;stroke-width:0.5;" x="161.28" xlink:href="#m93b0483c22" y="388.8"/>
      </g>
     </g>
     <g id="line2d_24">
      <g>
       <use style="stroke:#000000;stroke-width:0.5;" x="161.28" xlink:href="#m741efc42ff" y="43.2"/>
      </g>
     </g>
     <g id="text_2">
      <!-- 20 -->
      <defs>
       <path d="
M19.1875 8.29688
L53.6094 8.29688
L53.6094 0
L7.32812 0
L7.32812 8.29688
Q12.9375 14.1094 22.625 23.8906
Q32.3281 33.6875 34.8125 36.5312
Q39.5469 41.8438 41.4219 45.5312
Q43.3125 49.2188 43.3125 52.7812
Q43.3125 58.5938 39.2344 62.25
Q35.1562 65.9219 28.6094 65.9219
Q23.9688 65.9219 18.8125 64.3125
Q13.6719 62.7031 7.8125 59.4219
L7.8125 69.3906
Q13.7656 71.7812 18.9375 73
Q24.125 74.2188 28.4219 74.2188
Q39.75 74.2188 46.4844 68.5469
Q53.2188 62.8906 53.2188 53.4219
Q53.2188 48.9219 51.5312 44.8906
Q49.8594 40.875 45.4062 35.4062
Q44.1875 33.9844 37.6406 27.2188
Q31.1094 20.4531 19.1875 8.29688" id="DejaVuSans-32"/>
      </defs>
      <g transform="translate(154.483125 401.918125)scale(0.12 -0.12)">
       <use xlink:href="#DejaVuSans-32"/>
       <use x="63.623046875" xlink:href="#DejaVuSans-30"/>
      </g>
     </g>
    </g>
    <g id="xtick_3">
     <g id="line2d_25">
      <g>
       <use style="stroke:#000000;stroke-width:0.5;" x="250.56" xlink:href="#m93b0483c22" y="388.8"/>
      </g>
     </g>
     <g id="line2d_26">
      <g>
       <use style="stroke:#000000;stroke-width:0.5;" x="250.56" xlink:href="#m741efc42ff" y="43.2"/>
      </g>
     </g>
     <g id="text_3">
      <!-- 40 -->
      <defs>
       <path d="
M37.7969 64.3125
L12.8906 25.3906
L37.7969 25.3906
z

M35.2031 72.9062
L47.6094 72.9062
L47.6094 25.3906
L58.0156 25.3906
L58.0156 17.1875
L47.6094 17.1875
L47.6094 0
L37.7969 0
L37.7969 17.1875
L4.89062 17.1875
L4.89062 26.7031
z
" id="DejaVuSans-34"/>
      </defs>
      <g transform="translate(243.616875 401.918125)scale(0.12 -0.12)">
       <use xlink:href="#DejaVuSans-34"/>
       <use x="63.623046875" xlink:href="#DejaVuSans-30"/>
      </g>
     </g>
    </g>
    <g id="xtick_4">
     <g id="line2d_27">
      <g>
       <use style="stroke:#000000;stroke-width:0.5;" x="339.84" xlink:href="#m93b0483c22" y="388.8"/>
      </g>
     </g>
     <g id="line2d_28">
      <g>
       <use style="stroke:#000000;stroke-width:0.5;" x="339.84" xlink:href="#m741efc42ff" y="43.2"/>
      </g>
     </g>
     <g id="text_4">
      <!-- 60 -->
      <defs>
       <path d="
M33.0156 40.375
Q26.375 40.375 22.4844 35.8281
Q18.6094 31.2969 18.6094 23.3906
Q18.6094 15.5312 22.4844 10.9531
Q26.375 6.39062 33.0156 6.39062
Q39.6562 6.39062 43.5312 10.9531
Q47.4062 15.5312 47.4062 23.3906
Q47.4062 31.2969 43.5312 35.8281
Q39.6562 40.375 33.0156 40.375
M52.5938 71.2969
L52.5938 62.3125
Q48.875 64.0625 45.0938 64.9844
Q41.3125 65.9219 37.5938 65.9219
Q27.8281 65.9219 22.6719 59.3281
Q17.5312 52.7344 16.7969 39.4062
Q19.6719 43.6562 24.0156 45.9219
Q28.375 48.1875 33.5938 48.1875
Q44.5781 48.1875 50.9531 41.5156
Q57.3281 34.8594 57.3281 23.3906
Q57.3281 12.1562 50.6875 5.35938
Q44.0469 -1.42188 33.0156 -1.42188
Q20.3594 -1.42188 13.6719 8.26562
Q6.98438 17.9688 6.98438 36.375
Q6.98438 53.6562 15.1875 63.9375
Q23.3906 74.2188 37.2031 74.2188
Q40.9219 74.2188 44.7031 73.4844
Q48.4844 72.75 52.5938 71.2969" id="DejaVuSans-36"/>
      </defs>
      <g transform="translate(333.0225 401.918125)scale(0.12 -0.12)">
       <use xlink:href="#DejaVuSans-36"/>
       <use x="63.623046875" xlink:href="#DejaVuSans-30"/>
      </g>
     </g>
    </g>
    <g id="xtick_5">
     <g id="line2d_29">
      <g>
       <use style="stroke:#000000;stroke-width:0.5;" x="429.12" xlink:href="#m93b0483c22" y="388.8"/>
      </g>
     </g>
     <g id="line2d_30">
      <g>
       <use style="stroke:#000000;stroke-width:0.5;" x="429.12" xlink:href="#m741efc42ff" y="43.2"/>
      </g>
     </g>
     <g id="text_5">
      <!-- 80 -->
      <defs>
       <path d="
M31.7812 34.625
Q24.75 34.625 20.7188 30.8594
Q16.7031 27.0938 16.7031 20.5156
Q16.7031 13.9219 20.7188 10.1562
Q24.75 6.39062 31.7812 6.39062
Q38.8125 6.39062 42.8594 10.1719
Q46.9219 13.9688 46.9219 20.5156
Q46.9219 27.0938 42.8906 30.8594
Q38.875 34.625 31.7812 34.625
M21.9219 38.8125
Q15.5781 40.375 12.0312 44.7188
Q8.5 49.0781 8.5 55.3281
Q8.5 64.0625 14.7188 69.1406
Q20.9531 74.2188 31.7812 74.2188
Q42.6719 74.2188 48.875 69.1406
Q55.0781 64.0625 55.0781 55.3281
Q55.0781 49.0781 51.5312 44.7188
Q48 40.375 41.7031 38.8125
Q48.8281 37.1562 52.7969 32.3125
Q56.7812 27.4844 56.7812 20.5156
Q56.7812 9.90625 50.3125 4.23438
Q43.8438 -1.42188 31.7812 -1.42188
Q19.7344 -1.42188 13.25 4.23438
Q6.78125 9.90625 6.78125 20.5156
Q6.78125 27.4844 10.7812 32.3125
Q14.7969 37.1562 21.9219 38.8125
M18.3125 54.3906
Q18.3125 48.7344 21.8438 45.5625
Q25.3906 42.3906 31.7812 42.3906
Q38.1406 42.3906 41.7188 45.5625
Q45.3125 48.7344 45.3125 54.3906
Q45.3125 60.0625 41.7188 63.2344
Q38.1406 66.4062 31.7812 66.4062
Q25.3906 66.4062 21.8438 63.2344
Q18.3125 60.0625 18.3125 54.3906" id="DejaVuSans-38"/>
      </defs>
      <g transform="translate(422.2903125 401.918125)scale(0.12 -0.12)">
       <use xlink:href="#DejaVuSans-38"/>
       <use x="63.623046875" xlink:href="#DejaVuSans-30"/>
      </g>
     </g>
    </g>
    <g id="xtick_6">
     <g id="line2d_31">
      <g>
       <use style="stroke:#000000;stroke-width:0.5;" x="518.4" xlink:href="#m93b0483c22" y="388.8"/>
      </g>
     </g>
     <g id="line2d_32">
      <g>
       <use style="stroke:#000000;stroke-width:0.5;" x="518.4" xlink:href="#m741efc42ff" y="43.2"/>
      </g>
     </g>
     <g id="text_6">
      <!-- 100 -->
      <defs>
       <path d="
M12.4062 8.29688
L28.5156 8.29688
L28.5156 63.9219
L10.9844 60.4062
L10.9844 69.3906
L28.4219 72.9062
L38.2812 72.9062
L38.2812 8.29688
L54.3906 8.29688
L54.3906 0
L12.4062 0
z
" id="DejaVuSans-31"/>
      </defs>
      <g transform="translate(508.005 401.918125)scale(0.12 -0.12)">
       <use xlink:href="#DejaVuSans-31"/>
       <use x="63.623046875" xlink:href="#DejaVuSans-30"/>
       <use x="127.24609375" xlink:href="#DejaVuSans-30"/>
      </g>
     </g>
    </g>
   </g>
   <g id="matplotlib.axis_2">
    <g id="ytick_1">
     <g id="line2d_33">
      <defs>
       <path d="
M0 0
L4 0" id="m728421d6d4" style="stroke:#000000;stroke-width:0.5;"/>
      </defs>
      <g>
       <use style="stroke:#000000;stroke-width:0.5;" x="72.0" xlink:href="#m728421d6d4" y="388.8"/>
      </g>
     </g>
     <g id="line2d_34">
      <defs>
       <path d="
M0 0
L-4 0" id="mcb0005524f" style="stroke:#000000;stroke-width:0.5;"/>
      </defs>
      <g>
       <use style="stroke:#000000;stroke-width:0.5;" x="518.4" xlink:href="#mcb0005524f" y="388.8"/>
      </g>
     </g>
     <g id="text_7">
      <!-- −10 -->
      <defs>
       <path d="
M10.5938 35.5
L73.1875 35.5
L73.1875 27.2031
L10.5938 27.2031
z
" id="DejaVuSans-2212"/>
      </defs>
      <g transform="translate(44.7425 392.11125)scale(0.12 -0.12)">
       <use xlink:href="#DejaVuSans-2212"/>
       <use x="83.7890625" xlink:href="#DejaVuSans-31"/>
       <use x="147.412109375" xlink:href="#DejaVuSans-30"/>
      </g>
     </g>
    </g>
    <g id="ytick_2">
     <g id="line2d_35">
      <g>
       <use style="stroke:#000000;stroke-width:0.5;" x="72.0" xlink:href="#m728421d6d4" y="345.6"/>
      </g>
     </g>
     <g id="line2d_36">
      <g>
       <use style="stroke:#000000;stroke-width:0.5;" x="518.4" xlink:href="#mcb0005524f" y="345.6"/>
      </g>
     </g>
     <g id="text_8">
      <!-- −5 -->
      <defs>
       <path d="
M10.7969 72.9062
L49.5156 72.9062
L49.5156 64.5938
L19.8281 64.5938
L19.8281 46.7344
Q21.9688 47.4688 24.1094 47.8281
Q26.2656 48.1875 28.4219 48.1875
Q40.625 48.1875 47.75 41.5
Q54.8906 34.8125 54.8906 23.3906
Q54.8906 11.625 47.5625 5.09375
Q40.2344 -1.42188 26.9062 -1.42188
Q22.3125 -1.42188 17.5469 -0.640625
Q12.7969 0.140625 7.71875 1.70312
L7.71875 11.625
Q12.1094 9.23438 16.7969 8.0625
Q21.4844 6.89062 26.7031 6.89062
Q35.1562 6.89062 40.0781 11.3281
Q45.0156 15.7656 45.0156 23.3906
Q45.0156 31 40.0781 35.4375
Q35.1562 39.8906 26.7031 39.8906
Q22.75 39.8906 18.8125 39.0156
Q14.8906 38.1406 10.7969 36.2812
z
" id="DejaVuSans-35"/>
      </defs>
      <g transform="translate(52.62875 348.91125)scale(0.12 -0.12)">
       <use xlink:href="#DejaVuSans-2212"/>
       <use x="83.7890625" xlink:href="#DejaVuSans-35"/>
      </g>
     </g>
    </g>
    <g id="ytick_3">
     <g id="line2d_37">
      <g>
       <use style="stroke:#000000;stroke-width:0.5;" x="72.0" xlink:href="#m728421d6d4" y="302.4"/>
      </g>
     </g>
     <g id="line2d_38">
      <g>
       <use style="stroke:#000000;stroke-width:0.5;" x="518.4" xlink:href="#mcb0005524f" y="302.4"/>
      </g>
     </g>
     <g id="text_9">
      <!-- 0 -->
      <g transform="translate(61.953125 305.71125)scale(0.12 -0.12)">
       <use xlink:href="#DejaVuSans-30"/>
      </g>
     </g>
    </g>
    <g id="ytick_4">
     <g id="line2d_39">
      <g>
       <use style="stroke:#000000;stroke-width:0.5;" x="72.0" xlink:href="#m728421d6d4" y="259.2"/>
      </g>
     </g>
     <g id="line2d_40">
      <g>
       <use style="stroke:#000000;stroke-width:0.5;" x="518.4" xlink:href="#mcb0005524f" y="259.2"/>
      </g>
     </g>
     <g id="text_10">
      <!-- 5 -->
      <g transform="translate(62.339375 262.51125)scale(0.12 -0.12)">
       <use xlink:href="#DejaVuSans-35"/>
      </g>
     </g>
    </g>
    <g id="ytick_5">
     <g id="line2d_41">
      <g>
       <use style="stroke:#000000;stroke-width:0.5;" x="72.0" xlink:href="#m728421d6d4" y="216.0"/>
      </g>
     </g>
     <g id="line2d_42">
      <g>
       <use style="stroke:#000000;stroke-width:0.5;" x="518.4" xlink:href="#mcb0005524f" y="216.0"/>
      </g>
     </g>
     <g id="text_11">
      <!-- 10 -->
      <g transform="translate(54.845 219.31125)scale(0.12 -0.12)">
       <use xlink:href="#DejaVuSans-31"/>
       <use x="63.623046875" xlink:href="#DejaVuSans-30"/>
      </g>
     </g>
    </g>
    <g id="ytick_6">
     <g id="line2d_43">
      <g>
       <use style="stroke:#000000;stroke-width:0.5;" x="72.0" xlink:href="#m728421d6d4" y="172.8"/>
      </g>
     </g>
     <g id="line2d_44">
      <g>
       <use style="stroke:#000000;stroke-width:0.5;" x="518.4" xlink:href="#mcb0005524f" y="172.8"/>
      </g>
     </g>
     <g id="text_12">
      <!-- 15 -->
      <g transform="translate(55.09625 176.11125)scale(0.12 -0.12)">
       <use xlink:href="#DejaVuSans-31"/>
       <use x="63.623046875" xlink:href="#DejaVuSans-35"/>
      </g>
     </g>
    </g>
    <g id="ytick_7">
     <g id="line2d_45">
      <g>
       <use style="stroke:#000000;stroke-width:0.5;" x="72.0" xlink:href="#m728421d6d4" y="129.6"/>
      </g>
     </g>
     <g id="line2d_46">
      <g>
       <use style="stroke:#000000;stroke-width:0.5;" x="518.4" xlink:href="#mcb0005524f" y="129.6"/>
      </g>
     </g>
     <g id="text_13">
      <!-- 20 -->
      <g transform="translate(54.40625 132.91125)scale(0.12 -0.12)">
       <use xlink:href="#DejaVuSans-32"/>
       <use x="63.623046875" xlink:href="#DejaVuSans-30"/>
      </g>
     </g>
    </g>
    <g id="ytick_8">
     <g id="line2d_47">
      <g>
       <use style="stroke:#000000;stroke-width:0.5;" x="72.0" xlink:href="#m728421d6d4" y="86.4"/>
      </g>
     </g>
     <g id="line2d_48">
      <g>
       <use style="stroke:#000000;stroke-width:0.5;" x="518.4" xlink:href="#mcb0005524f" y="86.4"/>
      </g>
     </g>
     <g id="text_14">
      <!-- 25 -->
      <g transform="translate(54.6575 89.71125)scale(0.12 -0.12)">
       <use xlink:href="#DejaVuSans-32"/>
       <use x="63.623046875" xlink:href="#DejaVuSans-35"/>
      </g>
     </g>
    </g>
    <g id="ytick_9">
     <g id="line2d_49">
      <g>
       <use style="stroke:#000000;stroke-width:0.5;" x="72.0" xlink:href="#m728421d6d4" y="43.2"/>
      </g>
     </g>
     <g id="line2d_50">
      <g>
       <use style="stroke:#000000;stroke-width:0.5;" x="518.4" xlink:href="#mcb0005524f" y="43.2"/>
      </g>
     </g>
     <g id="text_15">
      <!-- 30 -->
      <defs>
       <path d="
M40.5781 39.3125
Q47.6562 37.7969 51.625 33
Q55.6094 28.2188 55.6094 21.1875
Q55.6094 10.4062 48.1875 4.48438
Q40.7656 -1.42188 27.0938 -1.42188
Q22.5156 -1.42188 17.6562 -0.515625
Q12.7969 0.390625 7.625 2.20312
L7.625 11.7188
Q11.7188 9.32812 16.5938 8.10938
Q21.4844 6.89062 26.8125 6.89062
Q36.0781 6.89062 40.9375 10.5469
Q45.7969 14.2031 45.7969 21.1875
Q45.7969 27.6406 41.2812 31.2656
Q36.7656 34.9062 28.7188 34.9062
L20.2188 34.9062
L20.2188 43.0156
L29.1094 43.0156
Q36.375 43.0156 40.2344 45.9219
Q44.0938 48.8281 44.0938 54.2969
Q44.0938 59.9062 40.1094 62.9062
Q36.1406 65.9219 28.7188 65.9219
Q24.6562 65.9219 20.0156 65.0312
Q15.375 64.1562 9.8125 62.3125
L9.8125 71.0938
Q15.4375 72.6562 20.3438 73.4375
Q25.25 74.2188 29.5938 74.2188
Q40.8281 74.2188 47.3594 69.1094
Q53.9062 64.0156 53.9062 55.3281
Q53.9062 49.2656 50.4375 45.0938
Q46.9688 40.9219 40.5781 39.3125" id="DejaVuSans-33"/>
      </defs>
      <g transform="translate(54.441875 46.51125)scale(0.12 -0.12)">
       <use xlink:href="#DejaVuSans-33"/>
       <use x="63.623046875" xlink:href="#DejaVuSans-30"/>
      </g>
     </g>
    </g>
   </g>
   <g id="patch_3">
    <path d="
M72 43.2
L518.4 43.2" style="fill:none;stroke:#000000;"/>
   </g>
   <g id="patch_4">
    <path d="
M518.4 388.8
L518.4 43.2" style="fill:none;stroke:#000000;"/>
   </g>
   <g id="patch_5">
    <path d="
M72 388.8
L518.4 388.8" style="fill:none;stroke:#000000;"/>
   </g>
   <g id="patch_6">
    <path d="
M72 388.8
L72 43.2" style="fill:none;stroke:#000000;"/>
   </g>
  </g>
 </g>
 <defs>
  <clipPath id="p7ff5b81e1d">
   <rect height="345.6" width="446.4" x="72.0" y="43.2"/>
  </clipPath>
 </defs>
</svg>
