<?xml version="1.0" encoding="utf-8" standalone="no"?>
<!DOCTYPE svg PUBLIC "-//W3C//DTD SVG 1.1//EN"
  "http://www.w3.org/Graphics/SVG/1.1/DTD/svg11.dtd">
<!-- Created with matplotlib (http://matplotlib.org/) -->
<svg height="432pt" version="1.1" viewBox="0 0 576 432" width="576pt" xmlns="http://www.w3.org/2000/svg" xmlns:xlink="http://www.w3.org/1999/xlink">
 <defs>
  <style type="text/css">
*{stroke-linecap:butt;stroke-linejoin:round;}
  </style>
 </defs>
 <g id="figure_1">
  <g id="patch_1">
   <path d="
M0 432
L576 432
L576 0
L0 0
z
" style="fill:#ffffff;"/>
  </g>
  <g id="axes_1">
   <g id="patch_2">
    <path d="
M72 388.8
L518.4 388.8
L518.4 43.2
L72 43.2
z
" style="fill:#ffffff;"/>
   </g>
   <g id="line2d_1">
    <path clip-path="url(#p7ff5b81e1d)" d="
M72 388.8
L76.464 144.288
L80.928 120.096
L85.392 150.336
L89.856 173.664
L94.32 150.336
L98.784 150.336
L103.248 127.008
L107.712 127.008
L112.176 115.776
L116.64 115.776
L121.104 117.504
L125.568 117.504
L130.032 117.504
L134.496 114.048
L138.96 129.6
L143.424 122.688
L147.888 122.688
L152.352 119.232
L156.816 124.416
L161.28 122.688
L165.744 127.008
L170.208 127.008
L174.672 120.96
L179.136 120.96
L183.6 132.192
L188.064 132.192
L192.528 120.096
L196.992 116.64
L201.456 124.416
L205.92 124.416
L210.384 124.416
L214.848 135.648
L219.312 140.832
L223.776 135.648
L228.24 133.056
L232.704 133.056
L237.168 128.736
L241.632 129.6
L246.096 127.008
L250.56 127.008
L255.024 120.96
L259.488 120.96
L263.952 118.368
L268.416 118.368
L272.88 117.504
L277.344 117.504
L281.808 117.504
L286.272 115.776
L290.736 112.32
L295.2 114.912
L299.664 114.912
L304.128 115.776
L308.592 114.048
L313.056 113.184
L317.52 113.184
L321.984 113.184
L326.448 113.184
L330.912 113.184
L335.376 113.184
L339.84 113.184
L344.304 113.184
L348.768 113.184
L353.232 118.368
L357.696 122.688
L362.16 117.504
L366.624 121.824
L371.088 121.824
L375.552 116.64
L380.016 117.504
L384.48 117.504
L388.944 117.504
L393.408 117.504
L397.872 117.504
L402.336 114.048
L406.8 113.184
L411.264 113.184
L415.728 113.184
L420.192 113.184
L424.656 110.592
L429.12 110.592
L433.584 110.592
L438.048 108
L442.512 108
L446.976 110.592
L451.44 114.048
L455.904 122.688
L460.368 122.688
L464.832 122.688
L469.296 122.688
L473.76 122.688
L478.224 120.96
L482.688 116.64
L487.152 116.64
L491.616 116.64
L496.08 116.64
L500.544 116.64
L505.008 116.64
L509.472 116.64" style="fill:none;stroke:#0000ff;stroke-linecap:square;"/>
   </g>
   <g id="line2d_2">
    <path clip-path="url(#p7ff5b81e1d)" d="
M72 388.8
L76.464 144.288
L80.928 168.48
L85.392 138.24
L89.856 114.912
L94.32 137.376
L98.784 137.376
L103.248 137.376
L107.712 118.368
L112.176 129.6
L116.64 129.6
L121.104 127.872
L125.568 127.872
L130.032 127.872
L134.496 131.328
L138.96 115.776
L143.424 115.776
L147.888 118.368
L152.352 121.824
L156.816 121.824
L161.28 124.416
L165.744 124.416
L170.208 122.688
L174.672 122.688
L179.136 115.776
L183.6 115.776
L188.064 111.456
L192.528 124.416
L196.992 127.872
L201.456 127.872
L205.92 127.872
L210.384 127.872
L214.848 127.872
L219.312 121.824
L223.776 121.824
L228.24 118.368
L232.704 118.368
L237.168 113.184
L241.632 113.184
L246.096 109.728
L250.56 106.272
L255.024 106.272
L259.488 116.64
L263.952 119.232
L268.416 119.232
L272.88 119.232
L277.344 116.64
L281.808 114.048
L286.272 112.32
L290.736 115.776
L295.2 113.184
L299.664 113.184
L304.128 112.32
L308.592 109.728
L313.056 108.864
L317.52 108.864
L321.984 105.408
L326.448 104.544
L330.912 109.728
L335.376 108.864
L339.84 109.728
L344.304 109.728
L348.768 107.136
L353.232 101.952
L357.696 97.632
L362.16 102.816
L366.624 99.36
L371.088 99.36
L375.552 103.68
L380.016 102.816
L384.48 111.456
L388.944 111.456
L393.408 114.048
L397.872 114.048
L402.336 116.64
L406.8 118.368
L411.264 118.368
L415.728 116.64
L420.192 116.64
L424.656 116.64
L429.12 116.64
L433.584 116.64
L438.048 116.64
L442.512 116.64
L446.976 116.64
L451.44 116.64
L455.904 116.64
L460.368 116.64
L464.832 116.64
L469.296 116.64
L473.76 116.64
L478.224 116.64
L482.688 116.64
L487.152 116.64
L491.616 116.64
L496.08 116.64
L500.544 116.64
L505.008 116.64
L509.472 116.64" style="fill:none;stroke:#008000;stroke-linecap:square;"/>
   </g>
   <g id="line2d_3">
    <path clip-path="url(#p7ff5b81e1d)" d="
M72 388.8
L76.464 201.312
L80.928 201.312
L85.392 235.872
L89.856 209.952
L94.32 184.896
L98.784 195.264
L103.248 172.8
L107.712 172.8
L112.176 183.168
L116.64 193.536
L121.104 193.536
L125.568 203.04
L130.032 214.272
L134.496 214.272
L138.96 198.72
L143.424 191.808
L147.888 190.08
L152.352 190.08
L156.816 184.032
L161.28 184.032
L165.744 189.216
L170.208 190.944
L174.672 190.944
L179.136 196.992
L183.6 208.224
L188.064 208.224
L192.528 208.224
L196.992 208.224
L201.456 198.72
L205.92 205.632
L210.384 205.632
L214.848 205.632
L219.312 200.448
L223.776 206.496
L228.24 209.952
L232.704 209.952
L237.168 209.952
L241.632 209.952
L246.096 209.952
L250.56 214.272
L255.024 207.36
L259.488 207.36
L263.952 207.36
L268.416 209.088
L272.88 210.816
L277.344 210.816
L281.808 213.408
L286.272 215.136
L290.736 218.592
L295.2 221.184
L299.664 223.776
L304.128 223.776
L308.592 223.776
L313.056 225.504
L317.52 225.504
L321.984 228.96
L326.448 229.824
L330.912 224.64
L335.376 225.504
L339.84 224.64
L344.304 224.64
L348.768 227.232
L353.232 222.048
L357.696 222.048
L362.16 216.864
L366.624 212.544
L371.088 212.544
L375.552 212.544
L380.016 213.408
L384.48 204.768
L388.944 203.04
L393.408 206.496
L397.872 206.496
L402.336 203.04
L406.8 203.04
L411.264 204.768
L415.728 204.768
L420.192 204.768
L424.656 206.496
L429.12 206.496
L433.584 206.496
L438.048 203.904
L442.512 205.632
L446.976 205.632
L451.44 202.176
L455.904 202.176
L460.368 199.584
L464.832 198.72
L469.296 199.584
L473.76 199.584
L478.224 199.584
L482.688 196.128
L487.152 196.128
L491.616 196.128
L496.08 196.128
L500.544 193.536
L505.008 190.944
L509.472 190.944" style="fill:none;stroke:#ff0000;stroke-linecap:square;"/>
   </g>
   <g id="line2d_4">
    <path clip-path="url(#p7ff5b81e1d)" d="
M72 388.8
L76.464 201.312
L80.928 201.312
L85.392 167.616
L89.856 167.616
L94.32 167.616
L98.784 153.792
L103.248 181.44
L107.712 181.44
L112.176 181.44
L116.64 181.44
L121.104 181.44
L125.568 181.44
L130.032 181.44
L134.496 181.44
L138.96 181.44
L143.424 181.44
L147.888 181.44
L152.352 181.44
L156.816 169.344
L161.28 173.664
L165.744 166.752
L170.208 170.208
L174.672 177.984
L179.136 177.984
L183.6 163.296
L188.064 163.296
L192.528 163.296
L196.992 163.296
L201.456 150.336
L205.92 150.336
L210.384 146.88
L214.848 130.464
L219.312 130.464
L223.776 130.464
L228.24 130.464
L232.704 130.464
L237.168 136.512
L241.632 135.648
L246.096 139.968
L250.56 139.968
L255.024 147.744
L259.488 135.648
L263.952 135.648
L268.416 135.648
L272.88 138.24
L277.344 140.832
L281.808 140.832
L286.272 142.56
L290.736 138.24
L295.2 134.784
L299.664 131.328
L304.128 132.192
L308.592 134.784
L313.056 136.512
L317.52 136.512
L321.984 132.192
L326.448 133.056
L330.912 133.056
L335.376 133.056
L339.84 133.056
L344.304 133.056
L348.768 133.056
L353.232 133.056
L357.696 133.056
L362.16 133.056
L366.624 133.056
L371.088 133.056
L375.552 133.056
L380.016 133.056
L384.48 133.056
L388.944 133.056
L393.408 128.736
L397.872 127.008
L402.336 127.008
L406.8 125.28
L411.264 123.552
L415.728 123.552
L420.192 123.552
L424.656 123.552
L429.12 123.552
L433.584 123.552
L438.048 127.008
L442.512 124.416
L446.976 124.416
L451.44 120.096
L455.904 108.864
L460.368 108.864
L464.832 108.864
L469.296 108.864
L473.76 108.864
L478.224 110.592
L482.688 110.592
L487.152 110.592
L491.616 110.592
L496.08 110.592
L500.544 110.592
L505.008 110.592
L509.472 110.592" style="fill:none;stroke:#00bfbf;stroke-linecap:square;"/>
   </g>
   <g id="line2d_5">
    <path clip-path="url(#p7ff5b81e1d)" d="
M72 388.8
L76.464 388.8
L80.928 388.8
L85.392 388.8
L89.856 388.8
L94.32 388.8
L98.784 388.8
L103.248 388.8
L107.712 241.92
L112.176 228.96
L116.64 228.96
L121.104 230.688
L125.568 241.056
L130.032 253.152
L134.496 249.696
L138.96 249.696
L143.424 249.696
L147.888 251.424
L152.352 255.744
L156.816 255.744
L161.28 255.744
L165.744 255.744
L170.208 253.152
L174.672 253.152
L179.136 246.24
L183.6 246.24
L188.064 246.24
L192.528 260.064
L196.992 260.064
L201.456 270.432
L205.92 262.656
L210.384 266.112
L214.848 253.152
L219.312 258.336
L223.776 258.336
L228.24 258.336
L232.704 263.52
L237.168 263.52
L241.632 263.52
L246.096 263.52
L250.56 259.2
L255.024 259.2
L259.488 247.968
L263.952 247.968
L268.416 249.696
L272.88 249.696
L277.344 247.968
L281.808 245.376
L286.272 245.376
L290.736 245.376
L295.2 245.376
L299.664 245.376
L304.128 245.376
L308.592 245.376
L313.056 245.376
L317.52 245.376
L321.984 245.376
L326.448 245.376
L330.912 245.376
L335.376 245.376
L339.84 245.376
L344.304 245.376
L348.768 245.376
L353.232 245.376
L357.696 245.376
L362.16 245.376
L366.624 245.376
L371.088 245.376
L375.552 245.376
L380.016 243.648
L384.48 229.824
L388.944 231.552
L393.408 231.552
L397.872 229.824
L402.336 229.824
L406.8 232.416
L411.264 229.824
L415.728 232.416
L420.192 232.416
L424.656 235.008
L429.12 235.008
L433.584 231.552
L438.048 231.552
L442.512 231.552
L446.976 235.872
L451.44 240.192
L455.904 240.192
L460.368 243.648
L464.832 243.648
L469.296 242.784
L473.76 242.784
L478.224 242.784
L482.688 242.784
L487.152 242.784
L491.616 242.784
L496.08 242.784
L500.544 238.464
L505.008 241.92
L509.472 244.512" style="fill:none;stroke:#bf00bf;stroke-linecap:square;"/>
   </g>
   <g id="line2d_6">
    <path clip-path="url(#p7ff5b81e1d)" d="
M72 388.8
L76.464 388.8
L80.928 388.8
L85.392 388.8
L89.856 388.8
L94.32 388.8
L98.784 388.8
L103.248 388.8
L107.712 388.8
L112.176 388.8
L116.64 388.8
L121.104 388.8
L125.568 388.8
L130.032 388.8
L134.496 388.8
L138.96 388.8
L143.424 388.8
L147.888 388.8
L152.352 388.8
L156.816 388.8
L161.28 388.8
L165.744 388.8
L170.208 388.8
L174.672 388.8
L179.136 388.8
L183.6 388.8
L188.064 388.8
L192.528 388.8
L196.992 388.8
L201.456 388.8
L205.92 388.8
L210.384 388.8
L214.848 388.8
L219.312 388.8
L223.776 388.8
L228.24 388.8
L232.704 388.8
L237.168 388.8
L241.632 388.8
L246.096 388.8
L250.56 388.8
L255.024 388.8
L259.488 388.8
L263.952 388.8
L268.416 388.8
L272.88 388.8
L277.344 388.8
L281.808 388.8
L286.272 388.8
L290.736 388.8
L295.2 388.8
L299.664 388.8
L304.128 388.8
L308.592 388.8
L313.056 388.8
L317.52 388.8
L321.984 388.8
L326.448 388.8
L330.912 388.8
L335.376 388.8
L339.84 388.8
L344.304 388.8
L348.768 388.8
L353.232 388.8
L357.696 388.8
L362.16 388.8
L366.624 388.8
L371.088 388.8
L375.552 388.8
L380.016 388.8
L384.48 388.8
L388.944 388.8
L393.408 388.8
L397.872 388.8
L402.336 388.8
L406.8 388.8
L411.264 388.8
L415.728 388.8
L420.192 388.8
L424.656 388.8
L429.12 131.328
L433.584 131.328
L438.048 131.328
L442.512 131.328
L446.976 131.328
L451.44 131.328
L455.904 131.328
L460.368 131.328
L464.832 131.328
L469.296 131.328
L473.76 131.328
L478.224 131.328
L482.688 131.328
L487.152 122.688
L491.616 122.688
L496.08 122.688
L500.544 122.688
L505.008 122.688
L509.472 122.688" style="fill:none;stroke:#bfbf00;stroke-linecap:square;"/>
   </g>
   <g id="line2d_7">
    <path clip-path="url(#p7ff5b81e1d)" d="
M72 388.8
L76.464 388.8
L80.928 388.8
L85.392 388.8
L89.856 388.8
L94.32 388.8
L98.784 388.8
L103.248 388.8
L107.712 241.92
L112.176 228.96
L116.64 228.96
L121.104 230.688
L125.568 241.056
L130.032 253.152
L134.496 249.696
L138.96 249.696
L143.424 249.696
L147.888 251.424
L152.352 255.744
L156.816 255.744
L161.28 255.744
L165.744 255.744
L170.208 253.152
L174.672 253.152
L179.136 246.24
L183.6 246.24
L188.064 246.24
L192.528 260.064
L196.992 260.064
L201.456 270.432
L205.92 262.656
L210.384 266.112
L214.848 253.152
L219.312 258.336
L223.776 258.336
L228.24 258.336
L232.704 263.52
L237.168 263.52
L241.632 263.52
L246.096 263.52
L250.56 259.2
L255.024 259.2
L259.488 247.968
L263.952 247.968
L268.416 249.696
L272.88 249.696
L277.344 247.968
L281.808 245.376
L286.272 245.376
L290.736 245.376
L295.2 245.376
L299.664 245.376
L304.128 245.376
L308.592 245.376
L313.056 245.376
L317.52 245.376
L321.984 245.376
L326.448 245.376
L330.912 245.376
L335.376 245.376
L339.84 245.376
L344.304 245.376
L348.768 245.376
L353.232 245.376
L357.696 245.376
L362.16 245.376
L366.624 245.376
L371.088 245.376
L375.552 245.376
L380.016 243.648
L384.48 229.824
L388.944 231.552
L393.408 231.552
L397.872 229.824
L402.336 229.824
L406.8 232.416
L411.264 229.824
L415.728 232.416
L420.192 232.416
L424.656 235.008
L429.12 235.008
L433.584 231.552
L438.048 231.552
L442.512 231.552
L446.976 235.872
L451.44 240.192
L455.904 240.192
L460.368 243.648
L464.832 243.648
L469.296 242.784
L473.76 242.784
L478.224 242.784
L482.688 242.784
L487.152 242.784
L491.616 242.784
L496.08 242.784
L500.544 238.464
L505.008 241.92
L509.472 244.512" style="fill:none;stroke:#000000;stroke-linecap:square;"/>
   </g>
   <g id="line2d_8">
    <path clip-path="url(#p7ff5b81e1d)" d="
M72 388.8
L76.464 388.8
L80.928 388.8
L85.392 388.8
L89.856 388.8
L94.32 388.8
L98.784 388.8
L103.248 388.8
L107.712 241.92
L112.176 228.96
L116.64 228.96
L121.104 230.688
L125.568 241.056
L130.032 253.152
L134.496 249.696
L138.96 249.696
L143.424 249.696
L147.888 251.424
L152.352 255.744
L156.816 255.744
L161.28 255.744
L165.744 255.744
L170.208 253.152
L174.672 253.152
L179.136 246.24
L183.6 246.24
L188.064 246.24
L192.528 260.064
L196.992 260.064
L201.456 270.432
L205.92 262.656
L210.384 266.112
L214.848 253.152
L219.312 258.336
L223.776 258.336
L228.24 258.336
L232.704 263.52
L237.168 263.52
L241.632 263.52
L246.096 263.52
L250.56 259.2
L255.024 259.2
L259.488 247.968
L263.952 247.968
L268.416 249.696
L272.88 249.696
L277.344 247.968
L281.808 245.376
L286.272 245.376
L290.736 245.376
L295.2 245.376
L299.664 245.376
L304.128 245.376
L308.592 245.376
L313.056 245.376
L317.52 245.376
L321.984 245.376
L326.448 245.376
L330.912 245.376
L335.376 245.376
L339.84 139.968
L344.304 139.968
L348.768 139.968
L353.232 139.968
L357.696 139.968
L362.16 139.968
L366.624 139.968
L371.088 139.968
L375.552 139.968
L380.016 139.968
L384.48 229.824
L388.944 231.552
L393.408 231.552
L397.872 229.824
L402.336 229.824
L406.8 232.416
L411.264 229.824
L415.728 232.416
L420.192 232.416
L424.656 235.008
L429.12 235.008
L433.584 231.552
L438.048 231.552
L442.512 231.552
L446.976 235.872
L451.44 240.192
L455.904 240.192
L460.368 243.648
L464.832 243.648
L469.296 242.784
L473.76 242.784
L478.224 242.784
L482.688 242.784
L487.152 242.784
L491.616 242.784
L496.08 242.784
L500.544 238.464
L505.008 241.92
L509.472 244.512" style="fill:none;stroke:#0000ff;stroke-linecap:square;"/>
   </g>
   <g id="line2d_9">
    <path clip-path="url(#p7ff5b81e1d)" d="
M72 388.8
L76.464 388.8
L80.928 388.8
L85.392 388.8
L89.856 388.8
L94.32 388.8
L98.784 388.8
L103.248 388.8
L107.712 388.8
L112.176 388.8
L116.64 388.8
L121.104 388.8
L125.568 388.8
L130.032 388.8
L134.496 388.8
L138.96 388.8
L143.424 388.8
L147.888 191.808
L152.352 191.808
L156.816 191.808
L161.28 191.808
L165.744 177.984
L170.208 177.984
L174.672 162.432
L179.136 162.432
L183.6 162.432
L188.064 171.936
L192.528 171.936
L196.992 171.936
L201.456 171.936
L205.92 171.936
L210.384 171.936
L214.848 171.936
L219.312 171.936
L223.776 188.352
L228.24 188.352
L232.704 188.352
L237.168 199.584
L241.632 199.584
L246.096 207.36
L250.56 207.36
L255.024 207.36
L259.488 207.36
L263.952 214.272
L268.416 214.272
L272.88 214.272
L277.344 214.272
L281.808 214.272
L286.272 214.272
L290.736 214.272
L295.2 214.272
L299.664 205.632
L304.128 205.632
L308.592 210.816
L313.056 210.816
L317.52 210.816
L321.984 210.816
L326.448 210.816
L330.912 210.816
L335.376 207.36
L339.84 207.36
L344.304 207.36
L348.768 213.408
L353.232 213.408
L357.696 225.504
L362.16 225.504
L366.624 225.504
L371.088 225.504
L375.552 225.504
L380.016 225.504
L384.48 225.504
L388.944 225.504
L393.408 225.504
L397.872 228.96
L402.336 228.96
L406.8 228.96
L411.264 228.96
L415.728 228.96
L420.192 228.96
L424.656 228.96
L429.12 228.96
L433.584 228.96
L438.048 237.6
L442.512 237.6
L446.976 237.6
L451.44 237.6
L455.904 211.68
L460.368 211.68
L464.832 215.136
L469.296 215.136
L473.76 215.136
L478.224 215.136
L482.688 226.368
L487.152 226.368
L491.616 226.368
L496.08 226.368
L500.544 226.368
L505.008 226.368
L509.472 226.368" style="fill:none;stroke:#008000;stroke-linecap:square;"/>
   </g>
   <g id="line2d_10">
    <path clip-path="url(#p7ff5b81e1d)" d="
M72 388.8
L76.464 388.8
L80.928 388.8
L85.392 388.8
L89.856 388.8
L94.32 388.8
L98.784 388.8
L103.248 184.032
L107.712 184.032
L112.176 184.032
L116.64 206.496
L121.104 206.496
L125.568 206.496
L130.032 183.168
L134.496 183.168
L138.96 183.168
L143.424 183.168
L147.888 183.168
L152.352 183.168
L156.816 196.992
L161.28 191.808
L165.744 191.808
L170.208 191.808
L174.672 203.904
L179.136 203.904
L183.6 203.904
L188.064 196.128
L192.528 196.128
L196.992 203.04
L201.456 203.04
L205.92 203.04
L210.384 203.04
L214.848 203.04
L219.312 203.04
L223.776 203.04
L228.24 203.04
L232.704 211.68
L237.168 211.68
L241.632 210.816
L246.096 210.816
L250.56 210.816
L255.024 222.912
L259.488 222.912
L263.952 222.912
L268.416 220.32
L272.88 220.32
L277.344 220.32
L281.808 220.32
L286.272 220.32
L290.736 220.32
L295.2 220.32
L299.664 220.32
L304.128 220.32
L308.592 220.32
L313.056 220.32
L317.52 220.32
L321.984 220.32
L326.448 220.32
L330.912 220.32
L335.376 220.32
L339.84 220.32
L344.304 220.32
L348.768 220.32
L353.232 232.416
L357.696 232.416
L362.16 244.512
L366.624 244.512
L371.088 244.512
L375.552 254.88
L380.016 254.88
L384.48 254.88
L388.944 254.88
L393.408 254.88
L397.872 254.88
L402.336 254.88
L406.8 254.88
L411.264 254.88
L415.728 254.88
L420.192 254.88
L424.656 254.88
L429.12 254.88
L433.584 254.88
L438.048 254.88
L442.512 254.88
L446.976 254.88
L451.44 254.88
L455.904 254.88
L460.368 254.88
L464.832 254.88
L469.296 254.88
L473.76 254.88
L478.224 249.696
L482.688 249.696
L487.152 249.696
L491.616 249.696
L496.08 249.696
L500.544 249.696
L505.008 249.696
L509.472 249.696" style="fill:none;stroke:#ff0000;stroke-linecap:square;"/>
   </g>
   <g id="line2d_11">
    <path clip-path="url(#p7ff5b81e1d)" d="
M72 388.8
L76.464 388.8
L80.928 388.8
L85.392 388.8
L89.856 388.8
L94.32 388.8
L98.784 388.8
L103.248 388.8
L107.712 228.96
L112.176 228.96
L116.64 228.96
L121.104 226.368
L125.568 210.816
L130.032 210.816
L134.496 216.864
L138.96 238.464
L143.424 247.104
L147.888 247.104
L152.352 247.104
L156.816 247.104
L161.28 247.104
L165.744 247.104
L170.208 247.104
L174.672 247.104
L179.136 258.336
L183.6 258.336
L188.064 264.384
L192.528 244.512
L196.992 240.192
L201.456 240.192
L205.92 229.824
L210.384 233.28
L214.848 249.696
L219.312 249.696
L223.776 249.696
L228.24 249.696
L232.704 243.648
L237.168 243.648
L241.632 243.648
L246.096 243.648
L250.56 248.832
L255.024 248.832
L259.488 262.656
L263.952 262.656
L268.416 260.064
L272.88 260.064
L277.344 260.064
L281.808 263.52
L286.272 263.52
L290.736 263.52
L295.2 263.52
L299.664 263.52
L304.128 263.52
L308.592 263.52
L313.056 263.52
L317.52 263.52
L321.984 263.52
L326.448 263.52
L330.912 263.52
L335.376 263.52
L339.84 263.52
L344.304 263.52
L348.768 263.52
L353.232 263.52
L357.696 263.52
L362.16 263.52
L366.624 263.52
L371.088 263.52
L375.552 263.52
L380.016 263.52
L384.48 263.52
L388.944 263.52
L393.408 256.608
L397.872 259.2
L402.336 259.2
L406.8 259.2
L411.264 261.792
L415.728 259.2
L420.192 259.2
L424.656 254.88
L429.12 254.88
L433.584 249.696
L438.048 249.696
L442.512 253.152
L446.976 253.152
L451.44 253.152
L455.904 253.152
L460.368 248.832
L464.832 248.832
L469.296 246.24
L473.76 246.24
L478.224 246.24
L482.688 246.24
L487.152 246.24
L491.616 240.192
L496.08 242.784
L500.544 242.784
L505.008 247.104
L509.472 244.512" style="fill:none;stroke:#00bfbf;stroke-linecap:square;"/>
   </g>
   <g id="line2d_12">
    <path clip-path="url(#p7ff5b81e1d)" d="
M72 388.8
L76.464 388.8
L80.928 388.8
L85.392 388.8
L89.856 388.8
L94.32 388.8
L98.784 388.8
L103.248 388.8
L107.712 388.8
L112.176 388.8
L116.64 388.8
L121.104 388.8
L125.568 388.8
L130.032 388.8
L134.496 388.8
L138.96 388.8
L143.424 388.8
L147.888 388.8
L152.352 388.8
L156.816 388.8
L161.28 388.8
L165.744 388.8
L170.208 388.8
L174.672 388.8
L179.136 388.8
L183.6 388.8
L188.064 388.8
L192.528 388.8
L196.992 388.8
L201.456 388.8
L205.92 388.8
L210.384 388.8
L214.848 388.8
L219.312 388.8
L223.776 388.8
L228.24 388.8
L232.704 388.8
L237.168 388.8
L241.632 388.8
L246.096 388.8
L250.56 388.8
L255.024 388.8
L259.488 388.8
L263.952 388.8
L268.416 388.8
L272.88 388.8
L277.344 388.8
L281.808 388.8
L286.272 388.8
L290.736 388.8
L295.2 388.8
L299.664 388.8
L304.128 388.8
L308.592 388.8
L313.056 388.8
L317.52 388.8
L321.984 388.8
L326.448 388.8
L330.912 388.8
L335.376 388.8
L339.84 388.8
L344.304 388.8
L348.768 388.8
L353.232 388.8
L357.696 388.8
L362.16 388.8
L366.624 388.8
L371.088 388.8
L375.552 388.8
L380.016 388.8
L384.48 388.8
L388.944 388.8
L393.408 388.8
L397.872 388.8
L402.336 388.8
L406.8 388.8
L411.264 388.8
L415.728 388.8
L420.192 388.8
L424.656 388.8
L429.12 388.8
L433.584 388.8
L438.048 388.8
L442.512 388.8
L446.976 388.8
L451.44 388.8
L455.904 388.8
L460.368 388.8
L464.832 388.8
L469.296 388.8
L473.76 388.8
L478.224 388.8
L482.688 388.8
L487.152 388.8
L491.616 388.8
L496.08 388.8
L500.544 388.8
L505.008 388.8
L509.472 388.8" style="fill:none;stroke:#bf00bf;stroke-linecap:square;"/>
   </g>
   <g id="line2d_13">
    <path clip-path="url(#p7ff5b81e1d)" d="
M72 388.8
L76.464 388.8
L80.928 388.8
L85.392 388.8
L89.856 388.8
L94.32 388.8
L98.784 388.8
L103.248 388.8
L107.712 388.8
L112.176 388.8
L116.64 388.8
L121.104 388.8
L125.568 113.184
L130.032 113.184
L134.496 113.184
L138.96 113.184
L143.424 113.184
L147.888 113.184
L152.352 101.088
L156.816 101.088
L161.28 101.088
L165.744 101.088
L170.208 101.088
L174.672 101.088
L179.136 101.088
L183.6 101.088
L188.064 101.088
L192.528 101.088
L196.992 101.088
L201.456 101.088
L205.92 101.088
L210.384 101.088
L214.848 101.088
L219.312 101.088
L223.776 101.088
L228.24 101.088
L232.704 101.088
L237.168 101.088
L241.632 101.088
L246.096 101.088
L250.56 101.088
L255.024 101.088
L259.488 101.088
L263.952 86.4
L268.416 86.4
L272.88 77.76
L277.344 77.76
L281.808 77.76
L286.272 77.76
L290.736 77.76
L295.2 77.76
L299.664 77.76
L304.128 77.76
L308.592 77.76
L313.056 77.76
L317.52 68.256
L321.984 87.264
L326.448 83.808
L330.912 83.808
L335.376 83.808
L339.84 83.808
L344.304 83.808
L348.768 83.808
L353.232 83.808
L357.696 83.808
L362.16 83.808
L366.624 83.808
L371.088 83.808
L375.552 83.808
L380.016 83.808
L384.48 83.808
L388.944 76.896
L393.408 76.896
L397.872 76.896
L402.336 76.896
L406.8 76.896
L411.264 76.896
L415.728 76.896
L420.192 67.392
L424.656 67.392
L429.12 60.48
L433.584 60.48
L438.048 60.48
L442.512 60.48
L446.976 45.792
L451.44 45.792
L455.904 88.992
L460.368 88.992
L464.832 88.992
L469.296 88.992
L473.76 76.032
L478.224 76.032
L482.688 92.448
L487.152 89.856
L491.616 89.856
L496.08 84.672
L500.544 95.04
L505.008 95.04
L509.472 95.04" style="fill:none;stroke:#bfbf00;stroke-linecap:square;"/>
   </g>
   <g id="line2d_14">
    <path clip-path="url(#p7ff5b81e1d)" d="
M72 388.8
L76.464 388.8
L80.928 388.8
L85.392 388.8
L89.856 388.8
L94.32 388.8
L98.784 388.8
L103.248 388.8
L107.712 388.8
L112.176 388.8
L116.64 388.8
L121.104 388.8
L125.568 388.8
L130.032 388.8
L134.496 388.8
L138.96 388.8
L143.424 388.8
L147.888 388.8
L152.352 388.8
L156.816 388.8
L161.28 388.8
L165.744 388.8
L170.208 388.8
L174.672 388.8
L179.136 388.8
L183.6 388.8
L188.064 388.8
L192.528 388.8
L196.992 388.8
L201.456 388.8
L205.92 225.504
L210.384 211.68
L214.848 211.68
L219.312 211.68
L223.776 185.76
L228.24 185.76
L232.704 185.76
L237.168 185.76
L241.632 185.76
L246.096 185.76
L250.56 185.76
L255.024 185.76
L259.488 185.76
L263.952 185.76
L268.416 185.76
L272.88 185.76
L277.344 196.128
L281.808 196.128
L286.272 196.128
L290.736 196.128
L295.2 196.128
L299.664 209.088
L304.128 209.088
L308.592 209.088
L313.056 209.088
L317.52 209.088
L321.984 209.088
L326.448 209.088
L330.912 229.824
L335.376 235.008
L339.84 238.464
L344.304 238.464
L348.768 231.552
L353.232 231.552
L357.696 216.864
L362.16 216.864
L366.624 228.96
L371.088 229.824
L375.552 218.592
L380.016 218.592
L384.48 240.192
L388.944 240.192
L393.408 240.192
L397.872 240.192
L402.336 247.968
L406.8 247.968
L411.264 247.968
L415.728 251.424
L420.192 251.424
L424.656 251.424
L429.12 251.424
L433.584 256.608
L438.048 256.608
L442.512 252.288
L446.976 247.104
L451.44 247.104
L455.904 247.104
L460.368 252.288
L464.832 254.88
L469.296 257.472
L473.76 252.288
L478.224 252.288
L482.688 252.288
L487.152 252.288
L491.616 258.336
L496.08 255.744
L500.544 260.928
L505.008 255.744
L509.472 253.152" style="fill:none;stroke:#000000;stroke-linecap:square;"/>
   </g>
   <g id="line2d_15">
    <path clip-path="url(#p7ff5b81e1d)" d="
M72 388.8
L76.464 388.8
L80.928 388.8
L85.392 388.8
L89.856 388.8
L94.32 388.8
L98.784 388.8
L103.248 388.8
L107.712 388.8
L112.176 388.8
L116.64 388.8
L121.104 388.8
L125.568 388.8
L130.032 388.8
L134.496 388.8
L138.96 388.8
L143.424 388.8
L147.888 388.8
L152.352 388.8
L156.816 388.8
L161.28 388.8
L165.744 388.8
L170.208 388.8
L174.672 388.8
L179.136 388.8
L183.6 388.8
L188.064 388.8
L192.528 388.8
L196.992 388.8
L201.456 388.8
L205.92 388.8
L210.384 388.8
L214.848 388.8
L219.312 388.8
L223.776 388.8
L228.24 388.8
L232.704 388.8
L237.168 388.8
L241.632 388.8
L246.096 388.8
L250.56 388.8
L255.024 388.8
L259.488 388.8
L263.952 388.8
L268.416 388.8
L272.88 388.8
L277.344 388.8
L281.808 388.8
L286.272 388.8
L290.736 388.8
L295.2 388.8
L299.664 388.8
L304.128 388.8
L308.592 388.8
L313.056 388.8
L317.52 388.8
L321.984 388.8
L326.448 388.8
L330.912 81.216
L335.376 81.216
L339.84 81.216
L344.304 80.352
L348.768 80.352
L353.232 80.352
L357.696 80.352
L362.16 80.352
L366.624 80.352
L371.088 80.352
L375.552 80.352
L380.016 80.352
L384.48 80.352
L388.944 80.352
L393.408 80.352
L397.872 80.352
L402.336 80.352
L406.8 80.352
L411.264 80.352
L415.728 80.352
L420.192 95.904
L424.656 95.904
L429.12 106.272
L433.584 106.272
L438.048 106.272
L442.512 106.272
L446.976 106.272
L451.44 106.272
L455.904 106.272
L460.368 106.272
L464.832 106.272
L469.296 106.272
L473.76 133.056
L478.224 133.056
L482.688 133.056
L487.152 138.24
L491.616 138.24
L496.08 138.24
L500.544 138.24
L505.008 138.24
L509.472 138.24" style="fill:none;stroke:#0000ff;stroke-linecap:square;"/>
   </g>
   <g id="line2d_16">
    <path clip-path="url(#p7ff5b81e1d)" d="
M72 388.8
L76.464 388.8
L80.928 388.8
L85.392 388.8
L89.856 388.8
L94.32 388.8
L98.784 388.8
L103.248 388.8
L107.712 388.8
L112.176 388.8
L116.64 388.8
L121.104 388.8
L125.568 388.8
L130.032 388.8
L134.496 388.8
L138.96 388.8
L143.424 388.8
L147.888 388.8
L152.352 388.8
L156.816 388.8
L161.28 388.8
L165.744 388.8
L170.208 388.8
L174.672 388.8
L179.136 388.8
L183.6 388.8
L188.064 388.8
L192.528 388.8
L196.992 388.8
L201.456 388.8
L205.92 388.8
L210.384 388.8
L214.848 388.8
L219.312 388.8
L223.776 388.8
L228.24 388.8
L232.704 388.8
L237.168 388.8
L241.632 388.8
L246.096 388.8
L250.56 388.8
L255.024 388.8
L259.488 388.8
L263.952 388.8
L268.416 388.8
L272.88 388.8
L277.344 388.8
L281.808 388.8
L286.272 388.8
L290.736 388.8
L295.2 388.8
L299.664 388.8
L304.128 388.8
L308.592 388.8
L313.056 388.8
L317.52 388.8
L321.984 388.8
L326.448 388.8
L330.912 388.8
L335.376 388.8
L339.84 388.8
L344.304 388.8
L348.768 388.8
L353.232 388.8
L357.696 388.8
L362.16 388.8
L366.624 388.8
L371.088 388.8
L375.552 388.8
L380.016 388.8
L384.48 388.8
L388.944 388.8
L393.408 388.8
L397.872 388.8
L402.336 388.8
L406.8 388.8
L411.264 388.8
L415.728 388.8
L420.192 388.8
L424.656 388.8
L429.12 388.8
L433.584 388.8
L438.048 388.8
L442.512 388.8
L446.976 388.8
L451.44 388.8
L455.904 388.8
L460.368 388.8
L464.832 388.8
L469.296 388.8
L473.76 388.8
L478.224 388.8
L482.688 388.8
L487.152 388.8
L491.616 388.8
L496.08 388.8
L500.544 388.8
L505.008 388.8
L509.472 388.8" style="fill:none;stroke:#008000;stroke-linecap:square;"/>
   </g>
   <g id="line2d_17">
    <path clip-path="url(#p7ff5b81e1d)" d="
M72 388.8
L76.464 388.8
L80.928 388.8
L85.392 388.8
L89.856 243.648
L94.32 277.344
L98.784 264.384
L103.248 264.384
L107.712 241.92
L112.176 228.96
L116.64 228.96
L121.104 230.688
L125.568 241.056
L130.032 253.152
L134.496 249.696
L138.96 249.696
L143.424 249.696
L147.888 251.424
L152.352 255.744
L156.816 255.744
L161.28 255.744
L165.744 255.744
L170.208 253.152
L174.672 253.152
L179.136 246.24
L183.6 246.24
L188.064 246.24
L192.528 260.064
L196.992 260.064
L201.456 270.432
L205.92 262.656
L210.384 266.112
L214.848 253.152
L219.312 258.336
L223.776 258.336
L228.24 258.336
L232.704 263.52
L237.168 263.52
L241.632 263.52
L246.096 263.52
L250.56 259.2
L255.024 259.2
L259.488 247.968
L263.952 247.968
L268.416 249.696
L272.88 249.696
L277.344 247.968
L281.808 245.376
L286.272 245.376
L290.736 245.376
L295.2 245.376
L299.664 245.376
L304.128 245.376
L308.592 245.376
L313.056 245.376
L317.52 245.376
L321.984 245.376
L326.448 245.376
L330.912 245.376
L335.376 245.376
L339.84 245.376
L344.304 245.376
L348.768 245.376
L353.232 245.376
L357.696 245.376
L362.16 245.376
L366.624 245.376
L371.088 245.376
L375.552 245.376
L380.016 243.648
L384.48 229.824
L388.944 231.552
L393.408 231.552
L397.872 229.824
L402.336 229.824
L406.8 232.416
L411.264 229.824
L415.728 232.416
L420.192 232.416
L424.656 235.008
L429.12 235.008
L433.584 231.552
L438.048 231.552
L442.512 231.552
L446.976 235.872
L451.44 240.192
L455.904 240.192
L460.368 243.648
L464.832 243.648
L469.296 242.784
L473.76 242.784
L478.224 242.784
L482.688 242.784
L487.152 242.784
L491.616 242.784
L496.08 242.784
L500.544 238.464
L505.008 241.92
L509.472 244.512" style="fill:none;stroke:#ff0000;stroke-linecap:square;"/>
   </g>
   <g id="line2d_18">
    <path clip-path="url(#p7ff5b81e1d)" d="
M72 388.8
L76.464 388.8
L80.928 388.8
L85.392 388.8
L89.856 388.8
L94.32 388.8
L98.784 388.8
L103.248 388.8
L107.712 388.8
L112.176 388.8
L116.64 388.8
L121.104 388.8
L125.568 388.8
L130.032 186.624
L134.496 186.624
L138.96 186.624
L143.424 186.624
L147.888 186.624
L152.352 186.624
L156.816 186.624
L161.28 186.624
L165.744 186.624
L170.208 186.624
L174.672 186.624
L179.136 186.624
L183.6 140.832
L188.064 140.832
L192.528 140.832
L196.992 140.832
L201.456 140.832
L205.92 140.832
L210.384 140.832
L214.848 140.832
L219.312 140.832
L223.776 140.832
L228.24 155.52
L232.704 155.52
L237.168 155.52
L241.632 155.52
L246.096 155.52
L250.56 155.52
L255.024 155.52
L259.488 155.52
L263.952 155.52
L268.416 155.52
L272.88 155.52
L277.344 155.52
L281.808 155.52
L286.272 155.52
L290.736 155.52
L295.2 155.52
L299.664 155.52
L304.128 150.336
L308.592 150.336
L313.056 150.336
L317.52 150.336
L321.984 150.336
L326.448 150.336
L330.912 150.336
L335.376 150.336
L339.84 150.336
L344.304 150.336
L348.768 150.336
L353.232 150.336
L357.696 150.336
L362.16 150.336
L366.624 150.336
L371.088 150.336
L375.552 150.336
L380.016 150.336
L384.48 150.336
L388.944 150.336
L393.408 150.336
L397.872 150.336
L402.336 150.336
L406.8 150.336
L411.264 150.336
L415.728 150.336
L420.192 150.336
L424.656 150.336
L429.12 150.336
L433.584 166.752
L438.048 166.752
L442.512 166.752
L446.976 166.752
L451.44 166.752
L455.904 166.752
L460.368 166.752
L464.832 158.976
L469.296 158.976
L473.76 158.976
L478.224 158.976
L482.688 158.976
L487.152 158.976
L491.616 177.984
L496.08 177.984
L500.544 177.984
L505.008 177.984
L509.472 177.984" style="fill:none;stroke:#00bfbf;stroke-linecap:square;"/>
   </g>
   <g id="line2d_19">
    <path clip-path="url(#p7ff5b81e1d)" d="
M72 388.8
L76.464 388.8
L80.928 388.8
L85.392 388.8
L89.856 388.8
L94.32 388.8
L98.784 388.8
L103.248 388.8
L107.712 388.8
L112.176 388.8
L116.64 388.8
L121.104 388.8
L125.568 388.8
L130.032 388.8
L134.496 388.8
L138.96 388.8
L143.424 388.8
L147.888 388.8
L152.352 388.8
L156.816 388.8
L161.28 388.8
L165.744 388.8
L170.208 388.8
L174.672 388.8
L179.136 388.8
L183.6 388.8
L188.064 388.8
L192.528 388.8
L196.992 388.8
L201.456 388.8
L205.92 388.8
L210.384 388.8
L214.848 388.8
L219.312 388.8
L223.776 388.8
L228.24 388.8
L232.704 388.8
L237.168 388.8
L241.632 388.8
L246.096 388.8
L250.56 388.8
L255.024 388.8
L259.488 388.8
L263.952 388.8
L268.416 388.8
L272.88 388.8
L277.344 388.8
L281.808 388.8
L286.272 388.8
L290.736 388.8
L295.2 388.8
L299.664 388.8
L304.128 388.8
L308.592 388.8
L313.056 388.8
L317.52 388.8
L321.984 388.8
L326.448 388.8
L330.912 388.8
L335.376 388.8
L339.84 388.8
L344.304 388.8
L348.768 388.8
L353.232 388.8
L357.696 388.8
L362.16 388.8
L366.624 388.8
L371.088 388.8
L375.552 388.8
L380.016 388.8
L384.48 388.8
L388.944 388.8
L393.408 388.8
L397.872 388.8
L402.336 388.8
L406.8 388.8
L411.264 388.8
L415.728 388.8
L420.192 388.8
L424.656 388.8
L429.12 202.176
L433.584 202.176
L438.048 202.176
L442.512 202.176
L446.976 202.176
L451.44 202.176
L455.904 202.176
L460.368 202.176
L464.832 202.176
L469.296 202.176
L473.76 240.192
L478.224 240.192
L482.688 240.192
L487.152 247.104
L491.616 247.104
L496.08 247.104
L500.544 247.104
L505.008 247.104
L509.472 247.104" style="fill:none;stroke:#bf00bf;stroke-linecap:square;"/>
   </g>
   <g id="line2d_20">
    <path clip-path="url(#p7ff5b81e1d)" d="
M72 388.8
L76.464 388.8
L80.928 388.8
L85.392 388.8
L89.856 388.8
L94.32 388.8
L98.784 388.8
L103.248 388.8
L107.712 388.8
L112.176 388.8
L116.64 388.8
L121.104 388.8
L125.568 388.8
L130.032 388.8
L134.496 388.8
L138.96 388.8
L143.424 388.8
L147.888 388.8
L152.352 388.8
L156.816 388.8
L161.28 388.8
L165.744 388.8
L170.208 388.8
L174.672 388.8
L179.136 388.8
L183.6 388.8
L188.064 388.8
L192.528 388.8
L196.992 388.8
L201.456 388.8
L205.92 388.8
L210.384 388.8
L214.848 388.8
L219.312 388.8
L223.776 388.8
L228.24 388.8
L232.704 388.8
L237.168 388.8
L241.632 388.8
L246.096 388.8
L250.56 388.8
L255.024 388.8
L259.488 388.8
L263.952 388.8
L268.416 388.8
L272.88 388.8
L277.344 388.8
L281.808 388.8
L286.272 388.8
L290.736 388.8
L295.2 388.8
L299.664 388.8
L304.128 388.8
L308.592 388.8
L313.056 388.8
L317.52 388.8
L321.984 388.8
L326.448 388.8
L330.912 388.8
L335.376 388.8
L339.84 388.8
L344.304 388.8
L348.768 388.8
L353.232 388.8
L357.696 388.8
L362.16 388.8
L366.624 388.8
L371.088 388.8
L375.552 388.8
L380.016 388.8
L384.48 388.8
L388.944 388.8
L393.408 388.8
L397.872 388.8
L402.336 388.8
L406.8 388.8
L411.264 388.8
L415.728 388.8
L420.192 388.8
L424.656 388.8
L429.12 388.8
L433.584 388.8
L438.048 388.8
L442.512 388.8
L446.976 388.8
L451.44 388.8
L455.904 388.8
L460.368 388.8
L464.832 388.8
L469.296 388.8
L473.76 388.8
L478.224 388.8
L482.688 388.8
L487.152 388.8
L491.616 388.8
L496.08 388.8
L500.544 388.8
L505.008 388.8
L509.472 388.8" style="fill:none;stroke:#bfbf00;stroke-linecap:square;"/>
   </g>
   <g id="matplotlib.axis_1">
    <g id="xtick_1">
     <g id="line2d_21">
      <defs>
       <path d="
M0 0
L0 -4" id="m93b0483c22" style="stroke:#000000;stroke-width:0.5;"/>
      </defs>
      <g>
       <use style="stroke:#000000;stroke-width:0.5;" x="72.0" xlink:href="#m93b0483c22" y="388.8"/>
      </g>
     </g>
     <g id="line2d_22">
      <defs>
       <path d="
M0 0
L0 4" id="m741efc42ff" style="stroke:#000000;stroke-width:0.5;"/>
      </defs>
      <g>
       <use style="stroke:#000000;stroke-width:0.5;" x="72.0" xlink:href="#m741efc42ff" y="43.2"/>
      </g>
     </g>
     <g id="text_1">
      <!-- 0 -->
      <defs>
       <path d="
M31.7812 66.4062
Q24.1719 66.4062 20.3281 58.9062
Q16.5 51.4219 16.5 36.375
Q16.5 21.3906 20.3281 13.8906
Q24.1719 6.39062 31.7812 6.39062
Q39.4531 6.39062 43.2812 13.8906
Q47.125 21.3906 47.125 36.375
Q47.125 51.4219 43.2812 58.9062
Q39.4531 66.4062 31.7812 66.4062
M31.7812 74.2188
Q44.0469 74.2188 50.5156 64.5156
Q56.9844 54.8281 56.9844 36.375
Q56.9844 17.9688 50.5156 8.26562
Q44.0469 -1.42188 31.7812 -1.42188
Q19.5312 -1.42188 13.0625 8.26562
Q6.59375 17.9688 6.59375 36.375
Q6.59375 54.8281 13.0625 64.5156
Q19.5312 74.2188 31.7812 74.2188" id="DejaVuSans-30"/>
      </defs>
      <g transform="translate(68.9765625 401.918125)scale(0.12 -0.12)">
       <use xlink:href="#DejaVuSans-30"/>
      </g>
     </g>
    </g>
    <g id="xtick_2">
     <g id="line2d_23">
      <g>
       <use style="stroke:#000000;stroke-width:0.5;" x="161.28" xlink:href="#m93b0483c22" y="388.8"/>
      </g>
     </g>
     <g id="line2d_24">
      <g>
       <use style="stroke:#000000;stroke-width:0.5;" x="161.28" xlink:href="#m741efc42ff" y="43.2"/>
      </g>
     </g>
     <g id="text_2">
      <!-- 20 -->
      <defs>
       <path d="
M19.1875 8.29688
L53.6094 8.29688
L53.6094 0
L7.32812 0
L7.32812 8.29688
Q12.9375 14.1094 22.625 23.8906
Q32.3281 33.6875 34.8125 36.5312
Q39.5469 41.8438 41.4219 45.5312
Q43.3125 49.2188 43.3125 52.7812
Q43.3125 58.5938 39.2344 62.25
Q35.1562 65.9219 28.6094 65.9219
Q23.9688 65.9219 18.8125 64.3125
Q13.6719 62.7031 7.8125 59.4219
L7.8125 69.3906
Q13.7656 71.7812 18.9375 73
Q24.125 74.2188 28.4219 74.2188
Q39.75 74.2188 46.4844 68.5469
Q53.2188 62.8906 53.2188 53.4219
Q53.2188 48.9219 51.5312 44.8906
Q49.8594 40.875 45.4062 35.4062
Q44.1875 33.9844 37.6406 27.2188
Q31.1094 20.4531 19.1875 8.29688" id="DejaVuSans-32"/>
      </defs>
      <g transform="translate(154.483125 401.918125)scale(0.12 -0.12)">
       <use xlink:href="#DejaVuSans-32"/>
       <use x="63.623046875" xlink:href="#DejaVuSans-30"/>
      </g>
     </g>
    </g>
    <g id="xtick_3">
     <g id="line2d_25">
      <g>
       <use style="stroke:#000000;stroke-width:0.5;" x="250.56" xlink:href="#m93b0483c22" y="388.8"/>
      </g>
     </g>
     <g id="line2d_26">
      <g>
       <use style="stroke:#000000;stroke-width:0.5;" x="250.56" xlink:href="#m741efc42ff" y="43.2"/>
      </g>
     </g>
     <g id="text_3">
      <!-- 40 -->
      <defs>
       <path d="
M37.7969 64.3125
L12.8906 25.3906
L37.7969 25.3906
z

M35.2031 72.9062
L47.6094 72.9062
L47.6094 25.3906
L58.0156 25.3906
L58.0156 17.1875
L47.6094 17.1875
L47.6094 0
L37.7969 0
L37.7969 17.1875
L4.89062 17.1875
L4.89062 26.7031
z
" id="DejaVuSans-34"/>
      </defs>
      <g transform="translate(243.616875 401.918125)scale(0.12 -0.12)">
       <use xlink:href="#DejaVuSans-34"/>
       <use x="63.623046875" xlink:href="#DejaVuSans-30"/>
      </g>
     </g>
    </g>
    <g id="xtick_4">
     <g id="line2d_27">
      <g>
       <use style="stroke:#000000;stroke-width:0.5;" x="339.84" xlink:href="#m93b0483c22" y="388.8"/>
      </g>
     </g>
     <g id="line2d_28">
      <g>
       <use style="stroke:#000000;stroke-width:0.5;" x="339.84" xlink:href="#m741efc42ff" y="43.2"/>
      </g>
     </g>
     <g id="text_4">
      <!-- 60 -->
      <defs>
       <path d="
M33.0156 40.375
Q26.375 40.375 22.4844 35.8281
Q18.6094 31.2969 18.6094 23.3906
Q18.6094 15.5312 22.4844 10.9531
Q26.375 6.39062 33.0156 6.39062
Q39.6562 6.39062 43.5312 10.9531
Q47.4062 15.5312 47.4062 23.3906
Q47.4062 31.2969 43.5312 35.8281
Q39.6562 40.375 33.0156 40.375
M52.5938 71.2969
L52.5938 62.3125
Q48.875 64.0625 45.0938 64.9844
Q41.3125 65.9219 37.5938 65.9219
Q27.8281 65.9219 22.6719 59.3281
Q17.5312 52.7344 16.7969 39.4062
Q19.6719 43.6562 24.0156 45.9219
Q28.375 48.1875 33.5938 48.1875
Q44.5781 48.1875 50.9531 41.5156
Q57.3281 34.8594 57.3281 23.3906
Q57.3281 12.1562 50.6875 5.35938
Q44.0469 -1.42188 33.0156 -1.42188
Q20.3594 -1.42188 13.6719 8.26562
Q6.98438 17.9688 6.98438 36.375
Q6.98438 53.6562 15.1875 63.9375
Q23.3906 74.2188 37.2031 74.2188
Q40.9219 74.2188 44.7031 73.4844
Q48.4844 72.75 52.5938 71.2969" id="DejaVuSans-36"/>
      </defs>
      <g transform="translate(333.0225 401.918125)scale(0.12 -0.12)">
       <use xlink:href="#DejaVuSans-36"/>
       <use x="63.623046875" xlink:href="#DejaVuSans-30"/>
      </g>
     </g>
    </g>
    <g id="xtick_5">
     <g id="line2d_29">
      <g>
       <use style="stroke:#000000;stroke-width:0.5;" x="429.12" xlink:href="#m93b0483c22" y="388.8"/>
      </g>
     </g>
     <g id="line2d_30">
      <g>
       <use style="stroke:#000000;stroke-width:0.5;" x="429.12" xlink:href="#m741efc42ff" y="43.2"/>
      </g>
     </g>
     <g id="text_5">
      <!-- 80 -->
      <defs>
       <path d="
M31.7812 34.625
Q24.75 34.625 20.7188 30.8594
Q16.7031 27.0938 16.7031 20.5156
Q16.7031 13.9219 20.7188 10.1562
Q24.75 6.39062 31.7812 6.39062
Q38.8125 6.39062 42.8594 10.1719
Q46.9219 13.9688 46.9219 20.5156
Q46.9219 27.0938 42.8906 30.8594
Q38.875 34.625 31.7812 34.625
M21.9219 38.8125
Q15.5781 40.375 12.0312 44.7188
Q8.5 49.0781 8.5 55.3281
Q8.5 64.0625 14.7188 69.1406
Q20.9531 74.2188 31.7812 74.2188
Q42.6719 74.2188 48.875 69.1406
Q55.0781 64.0625 55.0781 55.3281
Q55.0781 49.0781 51.5312 44.7188
Q48 40.375 41.7031 38.8125
Q48.8281 37.1562 52.7969 32.3125
Q56.7812 27.4844 56.7812 20.5156
Q56.7812 9.90625 50.3125 4.23438
Q43.8438 -1.42188 31.7812 -1.42188
Q19.7344 -1.42188 13.25 4.23438
Q6.78125 9.90625 6.78125 20.5156
Q6.78125 27.4844 10.7812 32.3125
Q14.7969 37.1562 21.9219 38.8125
M18.3125 54.3906
Q18.3125 48.7344 21.8438 45.5625
Q25.3906 42.3906 31.7812 42.3906
Q38.1406 42.3906 41.7188 45.5625
Q45.3125 48.7344 45.3125 54.3906
Q45.3125 60.0625 41.7188 63.2344
Q38.1406 66.4062 31.7812 66.4062
Q25.3906 66.4062 21.8438 63.2344
Q18.3125 60.0625 18.3125 54.3906" id="DejaVuSans-38"/>
      </defs>
      <g transform="translate(422.2903125 401.918125)scale(0.12 -0.12)">
       <use xlink:href="#DejaVuSans-38"/>
       <use x="63.623046875" xlink:href="#DejaVuSans-30"/>
      </g>
     </g>
    </g>
    <g id="xtick_6">
     <g id="line2d_31">
      <g>
       <use style="stroke:#000000;stroke-width:0.5;" x="518.4" xlink:href="#m93b0483c22" y="388.8"/>
      </g>
     </g>
     <g id="line2d_32">
      <g>
       <use style="stroke:#000000;stroke-width:0.5;" x="518.4" xlink:href="#m741efc42ff" y="43.2"/>
      </g>
     </g>
     <g id="text_6">
      <!-- 100 -->
      <defs>
       <path d="
M12.4062 8.29688
L28.5156 8.29688
L28.5156 63.9219
L10.9844 60.4062
L10.9844 69.3906
L28.4219 72.9062
L38.2812 72.9062
L38.2812 8.29688
L54.3906 8.29688
L54.3906 0
L12.4062 0
z
" id="DejaVuSans-31"/>
      </defs>
      <g transform="translate(508.005 401.918125)scale(0.12 -0.12)">
       <use xlink:href="#DejaVuSans-31"/>
       <use x="63.623046875" xlink:href="#DejaVuSans-30"/>
       <use x="127.24609375" xlink:href="#DejaVuSans-30"/>
      </g>
     </g>
    </g>
   </g>
   <g id="matplotlib.axis_2">
    <g id="ytick_1">
     <g id="line2d_33">
      <defs>
       <path d="
M0 0
L4 0" id="m728421d6d4" style="stroke:#000000;stroke-width:0.5;"/>
      </defs>
      <g>
       <use style="stroke:#000000;stroke-width:0.5;" x="72.0" xlink:href="#m728421d6d4" y="388.8"/>
      </g>
     </g>
     <g id="line2d_34">
      <defs>
       <path d="
M0 0
L-4 0" id="mcb0005524f" style="stroke:#000000;stroke-width:0.5;"/>
      </defs>
      <g>
       <use style="stroke:#000000;stroke-width:0.5;" x="518.4" xlink:href="#mcb0005524f" y="388.8"/>
      </g>
     </g>
     <g id="text_7">
      <!-- 0 -->
      <g transform="translate(61.953125 392.11125)scale(0.12 -0.12)">
       <use xlink:href="#DejaVuSans-30"/>
      </g>
     </g>
    </g>
    <g id="ytick_2">
     <g id="line2d_35">
      <g>
       <use style="stroke:#000000;stroke-width:0.5;" x="72.0" xlink:href="#m728421d6d4" y="345.6"/>
      </g>
     </g>
     <g id="line2d_36">
      <g>
       <use style="stroke:#000000;stroke-width:0.5;" x="518.4" xlink:href="#mcb0005524f" y="345.6"/>
      </g>
     </g>
     <g id="text_8">
      <!-- 5 -->
      <defs>
       <path d="
M10.7969 72.9062
L49.5156 72.9062
L49.5156 64.5938
L19.8281 64.5938
L19.8281 46.7344
Q21.9688 47.4688 24.1094 47.8281
Q26.2656 48.1875 28.4219 48.1875
Q40.625 48.1875 47.75 41.5
Q54.8906 34.8125 54.8906 23.3906
Q54.8906 11.625 47.5625 5.09375
Q40.2344 -1.42188 26.9062 -1.42188
Q22.3125 -1.42188 17.5469 -0.640625
Q12.7969 0.140625 7.71875 1.70312
L7.71875 11.625
Q12.1094 9.23438 16.7969 8.0625
Q21.4844 6.89062 26.7031 6.89062
Q35.1562 6.89062 40.0781 11.3281
Q45.0156 15.7656 45.0156 23.3906
Q45.0156 31 40.0781 35.4375
Q35.1562 39.8906 26.7031 39.8906
Q22.75 39.8906 18.8125 39.0156
Q14.8906 38.1406 10.7969 36.2812
z
" id="DejaVuSans-35"/>
      </defs>
      <g transform="translate(62.339375 348.91125)scale(0.12 -0.12)">
       <use xlink:href="#DejaVuSans-35"/>
      </g>
     </g>
    </g>
    <g id="ytick_3">
     <g id="line2d_37">
      <g>
       <use style="stroke:#000000;stroke-width:0.5;" x="72.0" xlink:href="#m728421d6d4" y="302.4"/>
      </g>
     </g>
     <g id="line2d_38">
      <g>
       <use style="stroke:#000000;stroke-width:0.5;" x="518.4" xlink:href="#mcb0005524f" y="302.4"/>
      </g>
     </g>
     <g id="text_9">
      <!-- 10 -->
      <g transform="translate(54.845 305.71125)scale(0.12 -0.12)">
       <use xlink:href="#DejaVuSans-31"/>
       <use x="63.623046875" xlink:href="#DejaVuSans-30"/>
      </g>
     </g>
    </g>
    <g id="ytick_4">
     <g id="line2d_39">
      <g>
       <use style="stroke:#000000;stroke-width:0.5;" x="72.0" xlink:href="#m728421d6d4" y="259.2"/>
      </g>
     </g>
     <g id="line2d_40">
      <g>
       <use style="stroke:#000000;stroke-width:0.5;" x="518.4" xlink:href="#mcb0005524f" y="259.2"/>
      </g>
     </g>
     <g id="text_10">
      <!-- 15 -->
      <g transform="translate(55.09625 262.51125)scale(0.12 -0.12)">
       <use xlink:href="#DejaVuSans-31"/>
       <use x="63.623046875" xlink:href="#DejaVuSans-35"/>
      </g>
     </g>
    </g>
    <g id="ytick_5">
     <g id="line2d_41">
      <g>
       <use style="stroke:#000000;stroke-width:0.5;" x="72.0" xlink:href="#m728421d6d4" y="216.0"/>
      </g>
     </g>
     <g id="line2d_42">
      <g>
       <use style="stroke:#000000;stroke-width:0.5;" x="518.4" xlink:href="#mcb0005524f" y="216.0"/>
      </g>
     </g>
     <g id="text_11">
      <!-- 20 -->
      <g transform="translate(54.40625 219.31125)scale(0.12 -0.12)">
       <use xlink:href="#DejaVuSans-32"/>
       <use x="63.623046875" xlink:href="#DejaVuSans-30"/>
      </g>
     </g>
    </g>
    <g id="ytick_6">
     <g id="line2d_43">
      <g>
       <use style="stroke:#000000;stroke-width:0.5;" x="72.0" xlink:href="#m728421d6d4" y="172.8"/>
      </g>
     </g>
     <g id="line2d_44">
      <g>
       <use style="stroke:#000000;stroke-width:0.5;" x="518.4" xlink:href="#mcb0005524f" y="172.8"/>
      </g>
     </g>
     <g id="text_12">
      <!-- 25 -->
      <g transform="translate(54.6575 176.11125)scale(0.12 -0.12)">
       <use xlink:href="#DejaVuSans-32"/>
       <use x="63.623046875" xlink:href="#DejaVuSans-35"/>
      </g>
     </g>
    </g>
    <g id="ytick_7">
     <g id="line2d_45">
      <g>
       <use style="stroke:#000000;stroke-width:0.5;" x="72.0" xlink:href="#m728421d6d4" y="129.6"/>
      </g>
     </g>
     <g id="line2d_46">
      <g>
       <use style="stroke:#000000;stroke-width:0.5;" x="518.4" xlink:href="#mcb0005524f" y="129.6"/>
      </g>
     </g>
     <g id="text_13">
      <!-- 30 -->
      <defs>
       <path d="
M40.5781 39.3125
Q47.6562 37.7969 51.625 33
Q55.6094 28.2188 55.6094 21.1875
Q55.6094 10.4062 48.1875 4.48438
Q40.7656 -1.42188 27.0938 -1.42188
Q22.5156 -1.42188 17.6562 -0.515625
Q12.7969 0.390625 7.625 2.20312
L7.625 11.7188
Q11.7188 9.32812 16.5938 8.10938
Q21.4844 6.89062 26.8125 6.89062
Q36.0781 6.89062 40.9375 10.5469
Q45.7969 14.2031 45.7969 21.1875
Q45.7969 27.6406 41.2812 31.2656
Q36.7656 34.9062 28.7188 34.9062
L20.2188 34.9062
L20.2188 43.0156
L29.1094 43.0156
Q36.375 43.0156 40.2344 45.9219
Q44.0938 48.8281 44.0938 54.2969
Q44.0938 59.9062 40.1094 62.9062
Q36.1406 65.9219 28.7188 65.9219
Q24.6562 65.9219 20.0156 65.0312
Q15.375 64.1562 9.8125 62.3125
L9.8125 71.0938
Q15.4375 72.6562 20.3438 73.4375
Q25.25 74.2188 29.5938 74.2188
Q40.8281 74.2188 47.3594 69.1094
Q53.9062 64.0156 53.9062 55.3281
Q53.9062 49.2656 50.4375 45.0938
Q46.9688 40.9219 40.5781 39.3125" id="DejaVuSans-33"/>
      </defs>
      <g transform="translate(54.441875 132.91125)scale(0.12 -0.12)">
       <use xlink:href="#DejaVuSans-33"/>
       <use x="63.623046875" xlink:href="#DejaVuSans-30"/>
      </g>
     </g>
    </g>
    <g id="ytick_8">
     <g id="line2d_47">
      <g>
       <use style="stroke:#000000;stroke-width:0.5;" x="72.0" xlink:href="#m728421d6d4" y="86.4"/>
      </g>
     </g>
     <g id="line2d_48">
      <g>
       <use style="stroke:#000000;stroke-width:0.5;" x="518.4" xlink:href="#mcb0005524f" y="86.4"/>
      </g>
     </g>
     <g id="text_14">
      <!-- 35 -->
      <g transform="translate(54.693125 89.71125)scale(0.12 -0.12)">
       <use xlink:href="#DejaVuSans-33"/>
       <use x="63.623046875" xlink:href="#DejaVuSans-35"/>
      </g>
     </g>
    </g>
    <g id="ytick_9">
     <g id="line2d_49">
      <g>
       <use style="stroke:#000000;stroke-width:0.5;" x="72.0" xlink:href="#m728421d6d4" y="43.2"/>
      </g>
     </g>
     <g id="line2d_50">
      <g>
       <use style="stroke:#000000;stroke-width:0.5;" x="518.4" xlink:href="#mcb0005524f" y="43.2"/>
      </g>
     </g>
     <g id="text_15">
      <!-- 40 -->
      <g transform="translate(54.11375 46.51125)scale(0.12 -0.12)">
       <use xlink:href="#DejaVuSans-34"/>
       <use x="63.623046875" xlink:href="#DejaVuSans-30"/>
      </g>
     </g>
    </g>
   </g>
   <g id="patch_3">
    <path d="
M72 43.2
L518.4 43.2" style="fill:none;stroke:#000000;"/>
   </g>
   <g id="patch_4">
    <path d="
M518.4 388.8
L518.4 43.2" style="fill:none;stroke:#000000;"/>
   </g>
   <g id="patch_5">
    <path d="
M72 388.8
L518.4 388.8" style="fill:none;stroke:#000000;"/>
   </g>
   <g id="patch_6">
    <path d="
M72 388.8
L72 43.2" style="fill:none;stroke:#000000;"/>
   </g>
  </g>
 </g>
 <defs>
  <clipPath id="p7ff5b81e1d">
   <rect height="345.6" width="446.4" x="72.0" y="43.2"/>
  </clipPath>
 </defs>
</svg>
