<?xml version="1.0" encoding="utf-8" standalone="no"?>
<!DOCTYPE svg PUBLIC "-//W3C//DTD SVG 1.1//EN"
  "http://www.w3.org/Graphics/SVG/1.1/DTD/svg11.dtd">
<!-- Created with matplotlib (http://matplotlib.org/) -->
<svg height="432pt" version="1.1" viewBox="0 0 576 432" width="576pt" xmlns="http://www.w3.org/2000/svg" xmlns:xlink="http://www.w3.org/1999/xlink">
 <defs>
  <style type="text/css">
*{stroke-linecap:butt;stroke-linejoin:round;}
  </style>
 </defs>
 <g id="figure_1">
  <g id="patch_1">
   <path d="
M0 432
L576 432
L576 0
L0 0
z
" style="fill:#ffffff;"/>
  </g>
  <g id="axes_1">
   <g id="patch_2">
    <path d="
M72 388.8
L518.4 388.8
L518.4 43.2
L72 43.2
z
" style="fill:#ffffff;"/>
   </g>
   <g id="line2d_1">
    <path clip-path="url(#p7ff5b81e1d)" d="
M72 98.496
L76.464 374.976
L80.928 374.976
L85.392 361.152
L89.856 361.152
L94.32 361.152
L98.784 361.152
L103.248 374.976
L107.712 361.152
L112.176 374.976
L116.64 374.976
L121.104 374.976
L125.568 374.976
L130.032 374.976
L134.496 374.976
L138.96 361.152
L143.424 361.152
L147.888 361.152
L152.352 374.976
L156.816 374.976
L161.28 374.976
L165.744 374.976
L170.208 361.152
L174.672 374.976
L179.136 361.152
L183.6 361.152
L188.064 361.152
L192.528 374.976
L196.992 374.976
L201.456 374.976
L205.92 374.976
L210.384 374.976
L214.848 361.152
L219.312 361.152
L223.776 361.152
L228.24 361.152
L232.704 361.152
L237.168 361.152
L241.632 361.152
L246.096 361.152
L250.56 361.152
L255.024 361.152
L259.488 374.976
L263.952 374.976
L268.416 374.976
L272.88 374.976
L277.344 374.976
L281.808 361.152
L286.272 361.152
L290.736 374.976
L295.2 374.976
L299.664 374.976
L304.128 361.152
L308.592 361.152
L313.056 361.152
L317.52 361.152
L321.984 361.152
L326.448 361.152
L330.912 361.152
L335.376 361.152
L339.84 361.152
L344.304 361.152
L348.768 361.152
L353.232 361.152
L357.696 361.152
L362.16 361.152
L366.624 361.152
L371.088 361.152
L375.552 361.152
L380.016 361.152
L384.48 361.152
L388.944 361.152
L393.408 361.152
L397.872 361.152
L402.336 361.152
L406.8 374.976
L411.264 374.976
L415.728 374.976
L420.192 374.976
L424.656 374.976
L429.12 374.976
L433.584 374.976
L438.048 374.976
L442.512 374.976
L446.976 361.152
L451.44 361.152
L455.904 347.328
L460.368 347.328
L464.832 347.328
L469.296 347.328
L473.76 333.504
L478.224 347.328
L482.688 374.976
L487.152 374.976
L491.616 374.976
L496.08 374.976
L500.544 374.976
L505.008 374.976
L509.472 374.976" style="fill:none;stroke:#0000ff;stroke-linecap:square;"/>
   </g>
   <g id="line2d_2">
    <path clip-path="url(#p7ff5b81e1d)" d="
M72 98.496
L76.464 361.152
L80.928 347.328
L85.392 374.976
L89.856 374.976
L94.32 374.976
L98.784 374.976
L103.248 361.152
L107.712 374.976
L112.176 361.152
L116.64 361.152
L121.104 361.152
L125.568 361.152
L130.032 361.152
L134.496 361.152
L138.96 374.976
L143.424 374.976
L147.888 374.976
L152.352 361.152
L156.816 361.152
L161.28 361.152
L165.744 361.152
L170.208 374.976
L174.672 361.152
L179.136 374.976
L183.6 374.976
L188.064 374.976
L192.528 361.152
L196.992 361.152
L201.456 361.152
L205.92 361.152
L210.384 361.152
L214.848 374.976
L219.312 374.976
L223.776 374.976
L228.24 374.976
L232.704 374.976
L237.168 374.976
L241.632 374.976
L246.096 374.976
L250.56 374.976
L255.024 374.976
L259.488 361.152
L263.952 361.152
L268.416 361.152
L272.88 361.152
L277.344 361.152
L281.808 374.976
L286.272 374.976
L290.736 361.152
L295.2 361.152
L299.664 361.152
L304.128 374.976
L308.592 374.976
L313.056 374.976
L317.52 374.976
L321.984 374.976
L326.448 374.976
L330.912 374.976
L335.376 374.976
L339.84 374.976
L344.304 374.976
L348.768 374.976
L353.232 374.976
L357.696 374.976
L362.16 374.976
L366.624 374.976
L371.088 374.976
L375.552 374.976
L380.016 374.976
L384.48 374.976
L388.944 374.976
L393.408 374.976
L397.872 374.976
L402.336 374.976
L406.8 361.152
L411.264 361.152
L415.728 361.152
L420.192 361.152
L424.656 361.152
L429.12 361.152
L433.584 361.152
L438.048 361.152
L442.512 361.152
L446.976 347.328
L451.44 347.328
L455.904 361.152
L460.368 361.152
L464.832 361.152
L469.296 361.152
L473.76 361.152
L478.224 374.976
L482.688 361.152
L487.152 361.152
L491.616 361.152
L496.08 361.152
L500.544 361.152
L505.008 361.152
L509.472 361.152" style="fill:none;stroke:#008000;stroke-linecap:square;"/>
   </g>
   <g id="line2d_3">
    <path clip-path="url(#p7ff5b81e1d)" d="
M72 98.496
L76.464 347.328
L80.928 333.504
L85.392 126.144
L89.856 319.68
L94.32 347.328
L98.784 333.504
L103.248 347.328
L107.712 347.328
L112.176 347.328
L116.64 347.328
L121.104 347.328
L125.568 333.504
L130.032 333.504
L134.496 333.504
L138.96 333.504
L143.424 333.504
L147.888 347.328
L152.352 333.504
L156.816 333.504
L161.28 333.504
L165.744 319.68
L170.208 319.68
L174.672 333.504
L179.136 319.68
L183.6 319.68
L188.064 319.68
L192.528 319.68
L196.992 319.68
L201.456 319.68
L205.92 319.68
L210.384 319.68
L214.848 319.68
L219.312 319.68
L223.776 319.68
L228.24 319.68
L232.704 319.68
L237.168 319.68
L241.632 319.68
L246.096 319.68
L250.56 319.68
L255.024 319.68
L259.488 319.68
L263.952 319.68
L268.416 319.68
L272.88 319.68
L277.344 319.68
L281.808 319.68
L286.272 319.68
L290.736 319.68
L295.2 319.68
L299.664 319.68
L304.128 305.856
L308.592 305.856
L313.056 305.856
L317.52 305.856
L321.984 305.856
L326.448 305.856
L330.912 292.032
L335.376 292.032
L339.84 292.032
L344.304 292.032
L348.768 292.032
L353.232 292.032
L357.696 292.032
L362.16 305.856
L366.624 305.856
L371.088 305.856
L375.552 305.856
L380.016 305.856
L384.48 305.856
L388.944 305.856
L393.408 305.856
L397.872 305.856
L402.336 305.856
L406.8 305.856
L411.264 305.856
L415.728 305.856
L420.192 305.856
L424.656 305.856
L429.12 305.856
L433.584 305.856
L438.048 305.856
L442.512 305.856
L446.976 305.856
L451.44 305.856
L455.904 305.856
L460.368 305.856
L464.832 319.68
L469.296 319.68
L473.76 319.68
L478.224 319.68
L482.688 319.68
L487.152 319.68
L491.616 319.68
L496.08 319.68
L500.544 319.68
L505.008 319.68
L509.472 319.68" style="fill:none;stroke:#ff0000;stroke-linecap:square;"/>
   </g>
   <g id="line2d_4">
    <path clip-path="url(#p7ff5b81e1d)" d="
M72 98.496
L76.464 333.504
L80.928 319.68
L85.392 347.328
L89.856 347.328
L94.32 333.504
L98.784 347.328
L103.248 333.504
L107.712 333.504
L112.176 333.504
L116.64 333.504
L121.104 333.504
L125.568 319.68
L130.032 319.68
L134.496 319.68
L138.96 319.68
L143.424 319.68
L147.888 319.68
L152.352 319.68
L156.816 319.68
L161.28 319.68
L165.744 333.504
L170.208 333.504
L174.672 319.68
L179.136 333.504
L183.6 347.328
L188.064 347.328
L192.528 347.328
L196.992 347.328
L201.456 347.328
L205.92 347.328
L210.384 347.328
L214.848 347.328
L219.312 347.328
L223.776 347.328
L228.24 347.328
L232.704 347.328
L237.168 347.328
L241.632 347.328
L246.096 347.328
L250.56 347.328
L255.024 347.328
L259.488 347.328
L263.952 347.328
L268.416 347.328
L272.88 347.328
L277.344 347.328
L281.808 347.328
L286.272 347.328
L290.736 347.328
L295.2 347.328
L299.664 347.328
L304.128 347.328
L308.592 347.328
L313.056 347.328
L317.52 347.328
L321.984 347.328
L326.448 347.328
L330.912 347.328
L335.376 347.328
L339.84 347.328
L344.304 347.328
L348.768 347.328
L353.232 347.328
L357.696 347.328
L362.16 347.328
L366.624 347.328
L371.088 347.328
L375.552 347.328
L380.016 347.328
L384.48 347.328
L388.944 347.328
L393.408 347.328
L397.872 347.328
L402.336 347.328
L406.8 347.328
L411.264 347.328
L415.728 347.328
L420.192 347.328
L424.656 347.328
L429.12 333.504
L433.584 333.504
L438.048 333.504
L442.512 333.504
L446.976 333.504
L451.44 333.504
L455.904 374.976
L460.368 374.976
L464.832 374.976
L469.296 374.976
L473.76 374.976
L478.224 361.152
L482.688 347.328
L487.152 347.328
L491.616 347.328
L496.08 347.328
L500.544 347.328
L505.008 347.328
L509.472 347.328" style="fill:none;stroke:#00bfbf;stroke-linecap:square;"/>
   </g>
   <g id="line2d_5">
    <path clip-path="url(#p7ff5b81e1d)" d="
M72 98.496
L76.464 98.496
L80.928 98.496
L85.392 98.496
L89.856 98.496
L94.32 98.496
L98.784 98.496
L103.248 98.496
L107.712 305.856
L112.176 319.68
L116.64 292.032
L121.104 292.032
L125.568 278.208
L130.032 250.56
L134.496 264.384
L138.96 278.208
L143.424 278.208
L147.888 264.384
L152.352 264.384
L156.816 264.384
L161.28 264.384
L165.744 264.384
L170.208 264.384
L174.672 264.384
L179.136 264.384
L183.6 250.56
L188.064 250.56
L192.528 236.736
L196.992 236.736
L201.456 236.736
L205.92 236.736
L210.384 236.736
L214.848 264.384
L219.312 264.384
L223.776 250.56
L228.24 250.56
L232.704 209.088
L237.168 209.088
L241.632 209.088
L246.096 209.088
L250.56 222.912
L255.024 222.912
L259.488 264.384
L263.952 264.384
L268.416 264.384
L272.88 264.384
L277.344 278.208
L281.808 278.208
L286.272 278.208
L290.736 278.208
L295.2 278.208
L299.664 264.384
L304.128 264.384
L308.592 264.384
L313.056 264.384
L317.52 264.384
L321.984 264.384
L326.448 264.384
L330.912 250.56
L335.376 250.56
L339.84 236.736
L344.304 236.736
L348.768 236.736
L353.232 250.56
L357.696 250.56
L362.16 250.56
L366.624 264.384
L371.088 264.384
L375.552 250.56
L380.016 250.56
L384.48 278.208
L388.944 278.208
L393.408 278.208
L397.872 278.208
L402.336 278.208
L406.8 278.208
L411.264 278.208
L415.728 278.208
L420.192 278.208
L424.656 278.208
L429.12 278.208
L433.584 278.208
L438.048 278.208
L442.512 278.208
L446.976 278.208
L451.44 264.384
L455.904 250.56
L460.368 250.56
L464.832 250.56
L469.296 250.56
L473.76 250.56
L478.224 250.56
L482.688 264.384
L487.152 264.384
L491.616 264.384
L496.08 264.384
L500.544 264.384
L505.008 264.384
L509.472 264.384" style="fill:none;stroke:#bf00bf;stroke-linecap:square;"/>
   </g>
   <g id="line2d_6">
    <path clip-path="url(#p7ff5b81e1d)" d="
M72 98.496
L76.464 98.496
L80.928 98.496
L85.392 98.496
L89.856 98.496
L94.32 98.496
L98.784 98.496
L103.248 98.496
L107.712 98.496
L112.176 98.496
L116.64 98.496
L121.104 98.496
L125.568 98.496
L130.032 98.496
L134.496 98.496
L138.96 98.496
L143.424 98.496
L147.888 98.496
L152.352 98.496
L156.816 98.496
L161.28 98.496
L165.744 98.496
L170.208 98.496
L174.672 98.496
L179.136 98.496
L183.6 98.496
L188.064 98.496
L192.528 98.496
L196.992 98.496
L201.456 98.496
L205.92 98.496
L210.384 98.496
L214.848 98.496
L219.312 98.496
L223.776 98.496
L228.24 98.496
L232.704 98.496
L237.168 98.496
L241.632 98.496
L246.096 98.496
L250.56 98.496
L255.024 98.496
L259.488 98.496
L263.952 98.496
L268.416 98.496
L272.88 98.496
L277.344 98.496
L281.808 98.496
L286.272 98.496
L290.736 98.496
L295.2 98.496
L299.664 98.496
L304.128 98.496
L308.592 98.496
L313.056 98.496
L317.52 98.496
L321.984 98.496
L326.448 98.496
L330.912 98.496
L335.376 98.496
L339.84 98.496
L344.304 98.496
L348.768 98.496
L353.232 98.496
L357.696 98.496
L362.16 98.496
L366.624 98.496
L371.088 98.496
L375.552 98.496
L380.016 98.496
L384.48 98.496
L388.944 98.496
L393.408 98.496
L397.872 98.496
L402.336 98.496
L406.8 98.496
L411.264 98.496
L415.728 98.496
L420.192 98.496
L424.656 98.496
L429.12 264.384
L433.584 264.384
L438.048 264.384
L442.512 264.384
L446.976 264.384
L451.44 278.208
L455.904 264.384
L460.368 264.384
L464.832 264.384
L469.296 264.384
L473.76 264.384
L478.224 264.384
L482.688 278.208
L487.152 278.208
L491.616 292.032
L496.08 292.032
L500.544 292.032
L505.008 292.032
L509.472 292.032" style="fill:none;stroke:#bfbf00;stroke-linecap:square;"/>
   </g>
   <g id="line2d_7">
    <path clip-path="url(#p7ff5b81e1d)" d="
M72 98.496
L76.464 98.496
L80.928 98.496
L85.392 98.496
L89.856 98.496
L94.32 98.496
L98.784 98.496
L103.248 98.496
L107.712 305.856
L112.176 319.68
L116.64 292.032
L121.104 292.032
L125.568 278.208
L130.032 250.56
L134.496 264.384
L138.96 278.208
L143.424 278.208
L147.888 264.384
L152.352 264.384
L156.816 264.384
L161.28 264.384
L165.744 264.384
L170.208 264.384
L174.672 264.384
L179.136 264.384
L183.6 250.56
L188.064 250.56
L192.528 236.736
L196.992 236.736
L201.456 236.736
L205.92 236.736
L210.384 236.736
L214.848 264.384
L219.312 264.384
L223.776 250.56
L228.24 250.56
L232.704 209.088
L237.168 209.088
L241.632 209.088
L246.096 209.088
L250.56 222.912
L255.024 222.912
L259.488 264.384
L263.952 264.384
L268.416 264.384
L272.88 264.384
L277.344 278.208
L281.808 278.208
L286.272 278.208
L290.736 278.208
L295.2 278.208
L299.664 264.384
L304.128 264.384
L308.592 264.384
L313.056 264.384
L317.52 264.384
L321.984 264.384
L326.448 264.384
L330.912 250.56
L335.376 250.56
L339.84 236.736
L344.304 236.736
L348.768 236.736
L353.232 250.56
L357.696 250.56
L362.16 250.56
L366.624 264.384
L371.088 264.384
L375.552 250.56
L380.016 250.56
L384.48 278.208
L388.944 278.208
L393.408 278.208
L397.872 278.208
L402.336 278.208
L406.8 278.208
L411.264 278.208
L415.728 278.208
L420.192 278.208
L424.656 278.208
L429.12 278.208
L433.584 278.208
L438.048 278.208
L442.512 278.208
L446.976 278.208
L451.44 264.384
L455.904 250.56
L460.368 250.56
L464.832 250.56
L469.296 250.56
L473.76 250.56
L478.224 250.56
L482.688 264.384
L487.152 264.384
L491.616 264.384
L496.08 264.384
L500.544 264.384
L505.008 264.384
L509.472 264.384" style="fill:none;stroke:#000000;stroke-linecap:square;"/>
   </g>
   <g id="line2d_8">
    <path clip-path="url(#p7ff5b81e1d)" d="
M72 98.496
L76.464 98.496
L80.928 98.496
L85.392 98.496
L89.856 98.496
L94.32 98.496
L98.784 98.496
L103.248 98.496
L107.712 305.856
L112.176 319.68
L116.64 292.032
L121.104 292.032
L125.568 278.208
L130.032 250.56
L134.496 264.384
L138.96 278.208
L143.424 278.208
L147.888 264.384
L152.352 264.384
L156.816 264.384
L161.28 264.384
L165.744 264.384
L170.208 264.384
L174.672 264.384
L179.136 264.384
L183.6 250.56
L188.064 250.56
L192.528 236.736
L196.992 236.736
L201.456 236.736
L205.92 236.736
L210.384 236.736
L214.848 264.384
L219.312 264.384
L223.776 250.56
L228.24 250.56
L232.704 209.088
L237.168 209.088
L241.632 209.088
L246.096 209.088
L250.56 222.912
L255.024 222.912
L259.488 264.384
L263.952 264.384
L268.416 264.384
L272.88 264.384
L277.344 278.208
L281.808 278.208
L286.272 278.208
L290.736 278.208
L295.2 278.208
L299.664 264.384
L304.128 264.384
L308.592 264.384
L313.056 264.384
L317.52 264.384
L321.984 264.384
L326.448 264.384
L330.912 250.56
L335.376 250.56
L339.84 278.208
L344.304 278.208
L348.768 278.208
L353.232 278.208
L357.696 278.208
L362.16 278.208
L366.624 278.208
L371.088 278.208
L375.552 264.384
L380.016 264.384
L384.48 278.208
L388.944 278.208
L393.408 278.208
L397.872 278.208
L402.336 278.208
L406.8 278.208
L411.264 278.208
L415.728 278.208
L420.192 278.208
L424.656 278.208
L429.12 278.208
L433.584 278.208
L438.048 278.208
L442.512 278.208
L446.976 278.208
L451.44 264.384
L455.904 250.56
L460.368 250.56
L464.832 250.56
L469.296 250.56
L473.76 250.56
L478.224 250.56
L482.688 264.384
L487.152 264.384
L491.616 264.384
L496.08 264.384
L500.544 264.384
L505.008 264.384
L509.472 264.384" style="fill:none;stroke:#0000ff;stroke-linecap:square;"/>
   </g>
   <g id="line2d_9">
    <path clip-path="url(#p7ff5b81e1d)" d="
M72 98.496
L76.464 98.496
L80.928 98.496
L85.392 98.496
L89.856 98.496
L94.32 98.496
L98.784 98.496
L103.248 98.496
L107.712 98.496
L112.176 98.496
L116.64 98.496
L121.104 98.496
L125.568 98.496
L130.032 98.496
L134.496 98.496
L138.96 98.496
L143.424 98.496
L147.888 278.208
L152.352 278.208
L156.816 278.208
L161.28 278.208
L165.744 292.032
L170.208 292.032
L174.672 305.856
L179.136 305.856
L183.6 292.032
L188.064 292.032
L192.528 292.032
L196.992 292.032
L201.456 292.032
L205.92 292.032
L210.384 292.032
L214.848 292.032
L219.312 292.032
L223.776 292.032
L228.24 292.032
L232.704 292.032
L237.168 292.032
L241.632 278.208
L246.096 278.208
L250.56 278.208
L255.024 278.208
L259.488 278.208
L263.952 278.208
L268.416 278.208
L272.88 278.208
L277.344 264.384
L281.808 264.384
L286.272 264.384
L290.736 264.384
L295.2 264.384
L299.664 292.032
L304.128 292.032
L308.592 278.208
L313.056 278.208
L317.52 278.208
L321.984 278.208
L326.448 278.208
L330.912 264.384
L335.376 278.208
L339.84 264.384
L344.304 264.384
L348.768 264.384
L353.232 264.384
L357.696 236.736
L362.16 236.736
L366.624 250.56
L371.088 250.56
L375.552 236.736
L380.016 236.736
L384.48 250.56
L388.944 250.56
L393.408 250.56
L397.872 250.56
L402.336 250.56
L406.8 250.56
L411.264 250.56
L415.728 250.56
L420.192 236.736
L424.656 236.736
L429.12 236.736
L433.584 222.912
L438.048 222.912
L442.512 222.912
L446.976 209.088
L451.44 209.088
L455.904 278.208
L460.368 278.208
L464.832 278.208
L469.296 278.208
L473.76 278.208
L478.224 278.208
L482.688 250.56
L487.152 250.56
L491.616 236.736
L496.08 250.56
L500.544 250.56
L505.008 250.56
L509.472 250.56" style="fill:none;stroke:#008000;stroke-linecap:square;"/>
   </g>
   <g id="line2d_10">
    <path clip-path="url(#p7ff5b81e1d)" d="
M72 98.496
L76.464 98.496
L80.928 98.496
L85.392 98.496
L89.856 98.496
L94.32 98.496
L98.784 98.496
L103.248 319.68
L107.712 319.68
L112.176 305.856
L116.64 278.208
L121.104 278.208
L125.568 264.384
L130.032 292.032
L134.496 292.032
L138.96 292.032
L143.424 292.032
L147.888 292.032
L152.352 292.032
L156.816 305.856
L161.28 305.856
L165.744 305.856
L170.208 305.856
L174.672 292.032
L179.136 292.032
L183.6 278.208
L188.064 278.208
L192.528 278.208
L196.992 278.208
L201.456 278.208
L205.92 278.208
L210.384 278.208
L214.848 278.208
L219.312 278.208
L223.776 278.208
L228.24 278.208
L232.704 278.208
L237.168 278.208
L241.632 292.032
L246.096 292.032
L250.56 292.032
L255.024 292.032
L259.488 292.032
L263.952 292.032
L268.416 292.032
L272.88 292.032
L277.344 292.032
L281.808 292.032
L286.272 292.032
L290.736 292.032
L295.2 292.032
L299.664 278.208
L304.128 278.208
L308.592 292.032
L313.056 292.032
L317.52 292.032
L321.984 292.032
L326.448 292.032
L330.912 278.208
L335.376 264.384
L339.84 250.56
L344.304 250.56
L348.768 250.56
L353.232 236.736
L357.696 222.912
L362.16 222.912
L366.624 222.912
L371.088 222.912
L375.552 222.912
L380.016 222.912
L384.48 222.912
L388.944 222.912
L393.408 209.088
L397.872 209.088
L402.336 209.088
L406.8 209.088
L411.264 209.088
L415.728 209.088
L420.192 195.264
L424.656 195.264
L429.12 195.264
L433.584 195.264
L438.048 195.264
L442.512 195.264
L446.976 195.264
L451.44 195.264
L455.904 195.264
L460.368 195.264
L464.832 195.264
L469.296 195.264
L473.76 195.264
L478.224 195.264
L482.688 195.264
L487.152 195.264
L491.616 181.44
L496.08 181.44
L500.544 181.44
L505.008 181.44
L509.472 181.44" style="fill:none;stroke:#ff0000;stroke-linecap:square;"/>
   </g>
   <g id="line2d_11">
    <path clip-path="url(#p7ff5b81e1d)" d="
M72 98.496
L76.464 98.496
L80.928 98.496
L85.392 98.496
L89.856 98.496
L94.32 98.496
L98.784 98.496
L103.248 98.496
L107.712 126.144
L112.176 126.144
L116.64 126.144
L121.104 264.384
L125.568 292.032
L130.032 278.208
L134.496 278.208
L138.96 264.384
L143.424 250.56
L147.888 236.736
L152.352 236.736
L156.816 236.736
L161.28 236.736
L165.744 236.736
L170.208 236.736
L174.672 236.736
L179.136 236.736
L183.6 236.736
L188.064 236.736
L192.528 250.56
L196.992 264.384
L201.456 264.384
L205.92 264.384
L210.384 264.384
L214.848 250.56
L219.312 250.56
L223.776 236.736
L228.24 236.736
L232.704 250.56
L237.168 250.56
L241.632 250.56
L246.096 250.56
L250.56 236.736
L255.024 236.736
L259.488 209.088
L263.952 209.088
L268.416 222.912
L272.88 222.912
L277.344 222.912
L281.808 209.088
L286.272 209.088
L290.736 209.088
L295.2 209.088
L299.664 209.088
L304.128 209.088
L308.592 209.088
L313.056 209.088
L317.52 209.088
L321.984 209.088
L326.448 209.088
L330.912 222.912
L335.376 222.912
L339.84 209.088
L344.304 209.088
L348.768 195.264
L353.232 195.264
L357.696 195.264
L362.16 195.264
L366.624 195.264
L371.088 195.264
L375.552 195.264
L380.016 195.264
L384.48 195.264
L388.944 195.264
L393.408 222.912
L397.872 222.912
L402.336 222.912
L406.8 222.912
L411.264 222.912
L415.728 222.912
L420.192 209.088
L424.656 222.912
L429.12 222.912
L433.584 236.736
L438.048 236.736
L442.512 236.736
L446.976 222.912
L451.44 222.912
L455.904 209.088
L460.368 222.912
L464.832 222.912
L469.296 222.912
L473.76 222.912
L478.224 222.912
L482.688 222.912
L487.152 222.912
L491.616 250.56
L496.08 222.912
L500.544 222.912
L505.008 222.912
L509.472 222.912" style="fill:none;stroke:#00bfbf;stroke-linecap:square;"/>
   </g>
   <g id="line2d_12">
    <path clip-path="url(#p7ff5b81e1d)" d="
M72 98.496
L76.464 98.496
L80.928 98.496
L85.392 98.496
L89.856 98.496
L94.32 98.496
L98.784 98.496
L103.248 98.496
L107.712 98.496
L112.176 98.496
L116.64 98.496
L121.104 98.496
L125.568 98.496
L130.032 98.496
L134.496 98.496
L138.96 98.496
L143.424 98.496
L147.888 98.496
L152.352 98.496
L156.816 98.496
L161.28 98.496
L165.744 98.496
L170.208 98.496
L174.672 98.496
L179.136 98.496
L183.6 98.496
L188.064 98.496
L192.528 98.496
L196.992 98.496
L201.456 98.496
L205.92 98.496
L210.384 98.496
L214.848 98.496
L219.312 98.496
L223.776 98.496
L228.24 98.496
L232.704 98.496
L237.168 98.496
L241.632 98.496
L246.096 98.496
L250.56 98.496
L255.024 98.496
L259.488 98.496
L263.952 98.496
L268.416 98.496
L272.88 98.496
L277.344 98.496
L281.808 98.496
L286.272 98.496
L290.736 98.496
L295.2 98.496
L299.664 98.496
L304.128 98.496
L308.592 98.496
L313.056 98.496
L317.52 98.496
L321.984 98.496
L326.448 98.496
L330.912 98.496
L335.376 98.496
L339.84 98.496
L344.304 98.496
L348.768 98.496
L353.232 98.496
L357.696 98.496
L362.16 98.496
L366.624 98.496
L371.088 98.496
L375.552 98.496
L380.016 98.496
L384.48 98.496
L388.944 98.496
L393.408 98.496
L397.872 98.496
L402.336 98.496
L406.8 98.496
L411.264 98.496
L415.728 98.496
L420.192 98.496
L424.656 98.496
L429.12 98.496
L433.584 98.496
L438.048 98.496
L442.512 98.496
L446.976 98.496
L451.44 98.496
L455.904 98.496
L460.368 98.496
L464.832 98.496
L469.296 98.496
L473.76 98.496
L478.224 98.496
L482.688 98.496
L487.152 98.496
L491.616 98.496
L496.08 98.496
L500.544 98.496
L505.008 98.496
L509.472 98.496" style="fill:none;stroke:#bf00bf;stroke-linecap:square;"/>
   </g>
   <g id="line2d_13">
    <path clip-path="url(#p7ff5b81e1d)" d="
M72 98.496
L76.464 98.496
L80.928 98.496
L85.392 98.496
L89.856 98.496
L94.32 98.496
L98.784 98.496
L103.248 98.496
L107.712 98.496
L112.176 98.496
L116.64 98.496
L121.104 98.496
L125.568 347.328
L130.032 347.328
L134.496 347.328
L138.96 347.328
L143.424 347.328
L147.888 333.504
L152.352 347.328
L156.816 347.328
L161.28 347.328
L165.744 347.328
L170.208 347.328
L174.672 347.328
L179.136 347.328
L183.6 333.504
L188.064 333.504
L192.528 333.504
L196.992 333.504
L201.456 333.504
L205.92 333.504
L210.384 333.504
L214.848 333.504
L219.312 333.504
L223.776 333.504
L228.24 333.504
L232.704 333.504
L237.168 333.504
L241.632 333.504
L246.096 333.504
L250.56 333.504
L255.024 333.504
L259.488 333.504
L263.952 333.504
L268.416 333.504
L272.88 333.504
L277.344 333.504
L281.808 333.504
L286.272 333.504
L290.736 333.504
L295.2 333.504
L299.664 333.504
L304.128 333.504
L308.592 333.504
L313.056 333.504
L317.52 333.504
L321.984 333.504
L326.448 333.504
L330.912 333.504
L335.376 333.504
L339.84 333.504
L344.304 333.504
L348.768 333.504
L353.232 333.504
L357.696 333.504
L362.16 333.504
L366.624 333.504
L371.088 333.504
L375.552 333.504
L380.016 333.504
L384.48 333.504
L388.944 333.504
L393.408 333.504
L397.872 333.504
L402.336 333.504
L406.8 333.504
L411.264 333.504
L415.728 333.504
L420.192 333.504
L424.656 333.504
L429.12 347.328
L433.584 347.328
L438.048 347.328
L442.512 347.328
L446.976 374.976
L451.44 374.976
L455.904 333.504
L460.368 333.504
L464.832 333.504
L469.296 333.504
L473.76 347.328
L478.224 333.504
L482.688 333.504
L487.152 333.504
L491.616 333.504
L496.08 333.504
L500.544 333.504
L505.008 333.504
L509.472 333.504" style="fill:none;stroke:#bfbf00;stroke-linecap:square;"/>
   </g>
   <g id="line2d_14">
    <path clip-path="url(#p7ff5b81e1d)" d="
M72 98.496
L76.464 98.496
L80.928 98.496
L85.392 98.496
L89.856 98.496
L94.32 98.496
L98.784 98.496
L103.248 98.496
L107.712 98.496
L112.176 98.496
L116.64 98.496
L121.104 98.496
L125.568 98.496
L130.032 98.496
L134.496 98.496
L138.96 98.496
L143.424 98.496
L147.888 98.496
L152.352 98.496
L156.816 98.496
L161.28 98.496
L165.744 98.496
L170.208 98.496
L174.672 98.496
L179.136 98.496
L183.6 98.496
L188.064 98.496
L192.528 98.496
L196.992 98.496
L201.456 98.496
L205.92 112.32
L210.384 222.912
L214.848 222.912
L219.312 222.912
L223.776 264.384
L228.24 264.384
L232.704 236.736
L237.168 236.736
L241.632 236.736
L246.096 236.736
L250.56 250.56
L255.024 250.56
L259.488 236.736
L263.952 236.736
L268.416 236.736
L272.88 236.736
L277.344 236.736
L281.808 236.736
L286.272 236.736
L290.736 236.736
L295.2 236.736
L299.664 236.736
L304.128 236.736
L308.592 236.736
L313.056 236.736
L317.52 236.736
L321.984 236.736
L326.448 236.736
L330.912 209.088
L335.376 209.088
L339.84 195.264
L344.304 195.264
L348.768 222.912
L353.232 222.912
L357.696 264.384
L362.16 264.384
L366.624 236.736
L371.088 236.736
L375.552 278.208
L380.016 278.208
L384.48 236.736
L388.944 236.736
L393.408 236.736
L397.872 236.736
L402.336 236.736
L406.8 236.736
L411.264 236.736
L415.728 236.736
L420.192 222.912
L424.656 209.088
L429.12 209.088
L433.584 209.088
L438.048 209.088
L442.512 209.088
L446.976 236.736
L451.44 236.736
L455.904 222.912
L460.368 209.088
L464.832 209.088
L469.296 209.088
L473.76 209.088
L478.224 209.088
L482.688 209.088
L487.152 209.088
L491.616 195.264
L496.08 195.264
L500.544 195.264
L505.008 195.264
L509.472 209.088" style="fill:none;stroke:#000000;stroke-linecap:square;"/>
   </g>
   <g id="line2d_15">
    <path clip-path="url(#p7ff5b81e1d)" d="
M72 98.496
L76.464 98.496
L80.928 98.496
L85.392 98.496
L89.856 98.496
L94.32 98.496
L98.784 98.496
L103.248 98.496
L107.712 98.496
L112.176 98.496
L116.64 98.496
L121.104 98.496
L125.568 98.496
L130.032 98.496
L134.496 98.496
L138.96 98.496
L143.424 98.496
L147.888 98.496
L152.352 98.496
L156.816 98.496
L161.28 98.496
L165.744 98.496
L170.208 98.496
L174.672 98.496
L179.136 98.496
L183.6 98.496
L188.064 98.496
L192.528 98.496
L196.992 98.496
L201.456 98.496
L205.92 98.496
L210.384 98.496
L214.848 98.496
L219.312 98.496
L223.776 98.496
L228.24 98.496
L232.704 98.496
L237.168 98.496
L241.632 98.496
L246.096 98.496
L250.56 98.496
L255.024 98.496
L259.488 98.496
L263.952 98.496
L268.416 98.496
L272.88 98.496
L277.344 98.496
L281.808 98.496
L286.272 98.496
L290.736 98.496
L295.2 98.496
L299.664 98.496
L304.128 98.496
L308.592 98.496
L313.056 98.496
L317.52 98.496
L321.984 98.496
L326.448 98.496
L330.912 319.68
L335.376 319.68
L339.84 319.68
L344.304 319.68
L348.768 319.68
L353.232 319.68
L357.696 319.68
L362.16 319.68
L366.624 319.68
L371.088 319.68
L375.552 319.68
L380.016 319.68
L384.48 319.68
L388.944 319.68
L393.408 319.68
L397.872 319.68
L402.336 319.68
L406.8 319.68
L411.264 319.68
L415.728 319.68
L420.192 319.68
L424.656 319.68
L429.12 319.68
L433.584 319.68
L438.048 319.68
L442.512 319.68
L446.976 319.68
L451.44 319.68
L455.904 319.68
L460.368 319.68
L464.832 305.856
L469.296 305.856
L473.76 305.856
L478.224 305.856
L482.688 305.856
L487.152 305.856
L491.616 305.856
L496.08 305.856
L500.544 305.856
L505.008 305.856
L509.472 305.856" style="fill:none;stroke:#0000ff;stroke-linecap:square;"/>
   </g>
   <g id="line2d_16">
    <path clip-path="url(#p7ff5b81e1d)" d="
M72 98.496
L76.464 98.496
L80.928 98.496
L85.392 98.496
L89.856 98.496
L94.32 98.496
L98.784 98.496
L103.248 98.496
L107.712 98.496
L112.176 98.496
L116.64 98.496
L121.104 98.496
L125.568 98.496
L130.032 98.496
L134.496 98.496
L138.96 98.496
L143.424 98.496
L147.888 98.496
L152.352 98.496
L156.816 98.496
L161.28 98.496
L165.744 98.496
L170.208 98.496
L174.672 98.496
L179.136 98.496
L183.6 98.496
L188.064 98.496
L192.528 98.496
L196.992 98.496
L201.456 98.496
L205.92 98.496
L210.384 98.496
L214.848 98.496
L219.312 98.496
L223.776 98.496
L228.24 98.496
L232.704 98.496
L237.168 98.496
L241.632 98.496
L246.096 98.496
L250.56 98.496
L255.024 98.496
L259.488 98.496
L263.952 98.496
L268.416 98.496
L272.88 98.496
L277.344 98.496
L281.808 98.496
L286.272 98.496
L290.736 98.496
L295.2 98.496
L299.664 98.496
L304.128 98.496
L308.592 98.496
L313.056 98.496
L317.52 98.496
L321.984 98.496
L326.448 98.496
L330.912 98.496
L335.376 98.496
L339.84 98.496
L344.304 98.496
L348.768 98.496
L353.232 98.496
L357.696 98.496
L362.16 98.496
L366.624 98.496
L371.088 98.496
L375.552 98.496
L380.016 98.496
L384.48 98.496
L388.944 98.496
L393.408 98.496
L397.872 98.496
L402.336 98.496
L406.8 98.496
L411.264 98.496
L415.728 98.496
L420.192 98.496
L424.656 98.496
L429.12 98.496
L433.584 98.496
L438.048 98.496
L442.512 98.496
L446.976 98.496
L451.44 98.496
L455.904 98.496
L460.368 98.496
L464.832 98.496
L469.296 98.496
L473.76 98.496
L478.224 98.496
L482.688 98.496
L487.152 98.496
L491.616 98.496
L496.08 98.496
L500.544 98.496
L505.008 98.496
L509.472 98.496" style="fill:none;stroke:#008000;stroke-linecap:square;"/>
   </g>
   <g id="line2d_17">
    <path clip-path="url(#p7ff5b81e1d)" d="
M72 98.496
L76.464 98.496
L80.928 98.496
L85.392 98.496
L89.856 112.32
L94.32 112.32
L98.784 112.32
L103.248 112.32
L107.712 305.856
L112.176 319.68
L116.64 292.032
L121.104 292.032
L125.568 278.208
L130.032 250.56
L134.496 264.384
L138.96 278.208
L143.424 278.208
L147.888 264.384
L152.352 264.384
L156.816 264.384
L161.28 264.384
L165.744 264.384
L170.208 264.384
L174.672 264.384
L179.136 264.384
L183.6 250.56
L188.064 250.56
L192.528 236.736
L196.992 236.736
L201.456 236.736
L205.92 236.736
L210.384 236.736
L214.848 264.384
L219.312 264.384
L223.776 250.56
L228.24 250.56
L232.704 209.088
L237.168 209.088
L241.632 209.088
L246.096 209.088
L250.56 222.912
L255.024 222.912
L259.488 264.384
L263.952 264.384
L268.416 264.384
L272.88 264.384
L277.344 278.208
L281.808 278.208
L286.272 278.208
L290.736 278.208
L295.2 278.208
L299.664 264.384
L304.128 264.384
L308.592 264.384
L313.056 264.384
L317.52 264.384
L321.984 264.384
L326.448 264.384
L330.912 250.56
L335.376 250.56
L339.84 236.736
L344.304 236.736
L348.768 236.736
L353.232 250.56
L357.696 250.56
L362.16 250.56
L366.624 264.384
L371.088 264.384
L375.552 250.56
L380.016 250.56
L384.48 278.208
L388.944 278.208
L393.408 278.208
L397.872 278.208
L402.336 278.208
L406.8 278.208
L411.264 278.208
L415.728 278.208
L420.192 278.208
L424.656 278.208
L429.12 278.208
L433.584 278.208
L438.048 278.208
L442.512 278.208
L446.976 278.208
L451.44 264.384
L455.904 250.56
L460.368 250.56
L464.832 250.56
L469.296 250.56
L473.76 250.56
L478.224 250.56
L482.688 264.384
L487.152 264.384
L491.616 264.384
L496.08 264.384
L500.544 264.384
L505.008 264.384
L509.472 264.384" style="fill:none;stroke:#ff0000;stroke-linecap:square;"/>
   </g>
   <g id="line2d_18">
    <path clip-path="url(#p7ff5b81e1d)" d="
M72 98.496
L76.464 98.496
L80.928 98.496
L85.392 98.496
L89.856 98.496
L94.32 98.496
L98.784 98.496
L103.248 98.496
L107.712 98.496
L112.176 98.496
L116.64 98.496
L121.104 98.496
L125.568 98.496
L130.032 264.384
L134.496 250.56
L138.96 250.56
L143.424 264.384
L147.888 250.56
L152.352 250.56
L156.816 250.56
L161.28 250.56
L165.744 250.56
L170.208 250.56
L174.672 250.56
L179.136 250.56
L183.6 305.856
L188.064 305.856
L192.528 305.856
L196.992 305.856
L201.456 305.856
L205.92 305.856
L210.384 305.856
L214.848 305.856
L219.312 305.856
L223.776 305.856
L228.24 305.856
L232.704 305.856
L237.168 305.856
L241.632 305.856
L246.096 305.856
L250.56 305.856
L255.024 305.856
L259.488 305.856
L263.952 305.856
L268.416 305.856
L272.88 305.856
L277.344 305.856
L281.808 305.856
L286.272 305.856
L290.736 305.856
L295.2 305.856
L299.664 305.856
L304.128 319.68
L308.592 319.68
L313.056 319.68
L317.52 319.68
L321.984 319.68
L326.448 319.68
L330.912 305.856
L335.376 305.856
L339.84 305.856
L344.304 305.856
L348.768 305.856
L353.232 305.856
L357.696 305.856
L362.16 292.032
L366.624 292.032
L371.088 292.032
L375.552 292.032
L380.016 292.032
L384.48 292.032
L388.944 292.032
L393.408 292.032
L397.872 292.032
L402.336 292.032
L406.8 292.032
L411.264 292.032
L415.728 292.032
L420.192 292.032
L424.656 292.032
L429.12 292.032
L433.584 292.032
L438.048 292.032
L442.512 292.032
L446.976 292.032
L451.44 292.032
L455.904 292.032
L460.368 292.032
L464.832 292.032
L469.296 292.032
L473.76 292.032
L478.224 292.032
L482.688 292.032
L487.152 292.032
L491.616 278.208
L496.08 278.208
L500.544 278.208
L505.008 278.208
L509.472 278.208" style="fill:none;stroke:#00bfbf;stroke-linecap:square;"/>
   </g>
   <g id="line2d_19">
    <path clip-path="url(#p7ff5b81e1d)" d="
M72 98.496
L76.464 98.496
L80.928 98.496
L85.392 98.496
L89.856 98.496
L94.32 98.496
L98.784 98.496
L103.248 98.496
L107.712 98.496
L112.176 98.496
L116.64 98.496
L121.104 98.496
L125.568 98.496
L130.032 98.496
L134.496 98.496
L138.96 98.496
L143.424 98.496
L147.888 98.496
L152.352 98.496
L156.816 98.496
L161.28 98.496
L165.744 98.496
L170.208 98.496
L174.672 98.496
L179.136 98.496
L183.6 98.496
L188.064 98.496
L192.528 98.496
L196.992 98.496
L201.456 98.496
L205.92 98.496
L210.384 98.496
L214.848 98.496
L219.312 98.496
L223.776 98.496
L228.24 98.496
L232.704 98.496
L237.168 98.496
L241.632 98.496
L246.096 98.496
L250.56 98.496
L255.024 98.496
L259.488 98.496
L263.952 98.496
L268.416 98.496
L272.88 98.496
L277.344 98.496
L281.808 98.496
L286.272 98.496
L290.736 98.496
L295.2 98.496
L299.664 98.496
L304.128 98.496
L308.592 98.496
L313.056 98.496
L317.52 98.496
L321.984 98.496
L326.448 98.496
L330.912 98.496
L335.376 98.496
L339.84 98.496
L344.304 98.496
L348.768 98.496
L353.232 98.496
L357.696 98.496
L362.16 98.496
L366.624 98.496
L371.088 98.496
L375.552 98.496
L380.016 98.496
L384.48 98.496
L388.944 98.496
L393.408 98.496
L397.872 98.496
L402.336 98.496
L406.8 98.496
L411.264 98.496
L415.728 98.496
L420.192 98.496
L424.656 98.496
L429.12 181.44
L433.584 181.44
L438.048 181.44
L442.512 181.44
L446.976 181.44
L451.44 181.44
L455.904 181.44
L460.368 181.44
L464.832 181.44
L469.296 181.44
L473.76 181.44
L478.224 167.616
L482.688 167.616
L487.152 153.792
L491.616 153.792
L496.08 153.792
L500.544 153.792
L505.008 153.792
L509.472 139.968" style="fill:none;stroke:#bf00bf;stroke-linecap:square;"/>
   </g>
   <g id="line2d_20">
    <path clip-path="url(#p7ff5b81e1d)" d="
M72 98.496
L76.464 98.496
L80.928 98.496
L85.392 98.496
L89.856 98.496
L94.32 98.496
L98.784 98.496
L103.248 98.496
L107.712 98.496
L112.176 98.496
L116.64 98.496
L121.104 98.496
L125.568 98.496
L130.032 98.496
L134.496 98.496
L138.96 98.496
L143.424 98.496
L147.888 98.496
L152.352 98.496
L156.816 98.496
L161.28 98.496
L165.744 98.496
L170.208 98.496
L174.672 98.496
L179.136 98.496
L183.6 98.496
L188.064 98.496
L192.528 98.496
L196.992 98.496
L201.456 98.496
L205.92 98.496
L210.384 98.496
L214.848 98.496
L219.312 98.496
L223.776 98.496
L228.24 98.496
L232.704 98.496
L237.168 98.496
L241.632 98.496
L246.096 98.496
L250.56 98.496
L255.024 98.496
L259.488 98.496
L263.952 98.496
L268.416 98.496
L272.88 98.496
L277.344 98.496
L281.808 98.496
L286.272 98.496
L290.736 98.496
L295.2 98.496
L299.664 98.496
L304.128 98.496
L308.592 98.496
L313.056 98.496
L317.52 98.496
L321.984 98.496
L326.448 98.496
L330.912 98.496
L335.376 98.496
L339.84 98.496
L344.304 98.496
L348.768 98.496
L353.232 98.496
L357.696 98.496
L362.16 98.496
L366.624 98.496
L371.088 98.496
L375.552 98.496
L380.016 98.496
L384.48 98.496
L388.944 98.496
L393.408 98.496
L397.872 98.496
L402.336 98.496
L406.8 98.496
L411.264 98.496
L415.728 98.496
L420.192 98.496
L424.656 98.496
L429.12 98.496
L433.584 98.496
L438.048 98.496
L442.512 98.496
L446.976 98.496
L451.44 98.496
L455.904 98.496
L460.368 98.496
L464.832 98.496
L469.296 98.496
L473.76 98.496
L478.224 98.496
L482.688 98.496
L487.152 98.496
L491.616 98.496
L496.08 98.496
L500.544 98.496
L505.008 98.496
L509.472 98.496" style="fill:none;stroke:#bfbf00;stroke-linecap:square;"/>
   </g>
   <g id="matplotlib.axis_1">
    <g id="xtick_1">
     <g id="line2d_21">
      <defs>
       <path d="
M0 0
L0 -4" id="m93b0483c22" style="stroke:#000000;stroke-width:0.5;"/>
      </defs>
      <g>
       <use style="stroke:#000000;stroke-width:0.5;" x="72.0" xlink:href="#m93b0483c22" y="388.8"/>
      </g>
     </g>
     <g id="line2d_22">
      <defs>
       <path d="
M0 0
L0 4" id="m741efc42ff" style="stroke:#000000;stroke-width:0.5;"/>
      </defs>
      <g>
       <use style="stroke:#000000;stroke-width:0.5;" x="72.0" xlink:href="#m741efc42ff" y="43.2"/>
      </g>
     </g>
     <g id="text_1">
      <!-- 0 -->
      <defs>
       <path d="
M31.7812 66.4062
Q24.1719 66.4062 20.3281 58.9062
Q16.5 51.4219 16.5 36.375
Q16.5 21.3906 20.3281 13.8906
Q24.1719 6.39062 31.7812 6.39062
Q39.4531 6.39062 43.2812 13.8906
Q47.125 21.3906 47.125 36.375
Q47.125 51.4219 43.2812 58.9062
Q39.4531 66.4062 31.7812 66.4062
M31.7812 74.2188
Q44.0469 74.2188 50.5156 64.5156
Q56.9844 54.8281 56.9844 36.375
Q56.9844 17.9688 50.5156 8.26562
Q44.0469 -1.42188 31.7812 -1.42188
Q19.5312 -1.42188 13.0625 8.26562
Q6.59375 17.9688 6.59375 36.375
Q6.59375 54.8281 13.0625 64.5156
Q19.5312 74.2188 31.7812 74.2188" id="DejaVuSans-30"/>
      </defs>
      <g transform="translate(68.9765625 401.918125)scale(0.12 -0.12)">
       <use xlink:href="#DejaVuSans-30"/>
      </g>
     </g>
    </g>
    <g id="xtick_2">
     <g id="line2d_23">
      <g>
       <use style="stroke:#000000;stroke-width:0.5;" x="161.28" xlink:href="#m93b0483c22" y="388.8"/>
      </g>
     </g>
     <g id="line2d_24">
      <g>
       <use style="stroke:#000000;stroke-width:0.5;" x="161.28" xlink:href="#m741efc42ff" y="43.2"/>
      </g>
     </g>
     <g id="text_2">
      <!-- 20 -->
      <defs>
       <path d="
M19.1875 8.29688
L53.6094 8.29688
L53.6094 0
L7.32812 0
L7.32812 8.29688
Q12.9375 14.1094 22.625 23.8906
Q32.3281 33.6875 34.8125 36.5312
Q39.5469 41.8438 41.4219 45.5312
Q43.3125 49.2188 43.3125 52.7812
Q43.3125 58.5938 39.2344 62.25
Q35.1562 65.9219 28.6094 65.9219
Q23.9688 65.9219 18.8125 64.3125
Q13.6719 62.7031 7.8125 59.4219
L7.8125 69.3906
Q13.7656 71.7812 18.9375 73
Q24.125 74.2188 28.4219 74.2188
Q39.75 74.2188 46.4844 68.5469
Q53.2188 62.8906 53.2188 53.4219
Q53.2188 48.9219 51.5312 44.8906
Q49.8594 40.875 45.4062 35.4062
Q44.1875 33.9844 37.6406 27.2188
Q31.1094 20.4531 19.1875 8.29688" id="DejaVuSans-32"/>
      </defs>
      <g transform="translate(154.483125 401.918125)scale(0.12 -0.12)">
       <use xlink:href="#DejaVuSans-32"/>
       <use x="63.623046875" xlink:href="#DejaVuSans-30"/>
      </g>
     </g>
    </g>
    <g id="xtick_3">
     <g id="line2d_25">
      <g>
       <use style="stroke:#000000;stroke-width:0.5;" x="250.56" xlink:href="#m93b0483c22" y="388.8"/>
      </g>
     </g>
     <g id="line2d_26">
      <g>
       <use style="stroke:#000000;stroke-width:0.5;" x="250.56" xlink:href="#m741efc42ff" y="43.2"/>
      </g>
     </g>
     <g id="text_3">
      <!-- 40 -->
      <defs>
       <path d="
M37.7969 64.3125
L12.8906 25.3906
L37.7969 25.3906
z

M35.2031 72.9062
L47.6094 72.9062
L47.6094 25.3906
L58.0156 25.3906
L58.0156 17.1875
L47.6094 17.1875
L47.6094 0
L37.7969 0
L37.7969 17.1875
L4.89062 17.1875
L4.89062 26.7031
z
" id="DejaVuSans-34"/>
      </defs>
      <g transform="translate(243.616875 401.918125)scale(0.12 -0.12)">
       <use xlink:href="#DejaVuSans-34"/>
       <use x="63.623046875" xlink:href="#DejaVuSans-30"/>
      </g>
     </g>
    </g>
    <g id="xtick_4">
     <g id="line2d_27">
      <g>
       <use style="stroke:#000000;stroke-width:0.5;" x="339.84" xlink:href="#m93b0483c22" y="388.8"/>
      </g>
     </g>
     <g id="line2d_28">
      <g>
       <use style="stroke:#000000;stroke-width:0.5;" x="339.84" xlink:href="#m741efc42ff" y="43.2"/>
      </g>
     </g>
     <g id="text_4">
      <!-- 60 -->
      <defs>
       <path d="
M33.0156 40.375
Q26.375 40.375 22.4844 35.8281
Q18.6094 31.2969 18.6094 23.3906
Q18.6094 15.5312 22.4844 10.9531
Q26.375 6.39062 33.0156 6.39062
Q39.6562 6.39062 43.5312 10.9531
Q47.4062 15.5312 47.4062 23.3906
Q47.4062 31.2969 43.5312 35.8281
Q39.6562 40.375 33.0156 40.375
M52.5938 71.2969
L52.5938 62.3125
Q48.875 64.0625 45.0938 64.9844
Q41.3125 65.9219 37.5938 65.9219
Q27.8281 65.9219 22.6719 59.3281
Q17.5312 52.7344 16.7969 39.4062
Q19.6719 43.6562 24.0156 45.9219
Q28.375 48.1875 33.5938 48.1875
Q44.5781 48.1875 50.9531 41.5156
Q57.3281 34.8594 57.3281 23.3906
Q57.3281 12.1562 50.6875 5.35938
Q44.0469 -1.42188 33.0156 -1.42188
Q20.3594 -1.42188 13.6719 8.26562
Q6.98438 17.9688 6.98438 36.375
Q6.98438 53.6562 15.1875 63.9375
Q23.3906 74.2188 37.2031 74.2188
Q40.9219 74.2188 44.7031 73.4844
Q48.4844 72.75 52.5938 71.2969" id="DejaVuSans-36"/>
      </defs>
      <g transform="translate(333.0225 401.918125)scale(0.12 -0.12)">
       <use xlink:href="#DejaVuSans-36"/>
       <use x="63.623046875" xlink:href="#DejaVuSans-30"/>
      </g>
     </g>
    </g>
    <g id="xtick_5">
     <g id="line2d_29">
      <g>
       <use style="stroke:#000000;stroke-width:0.5;" x="429.12" xlink:href="#m93b0483c22" y="388.8"/>
      </g>
     </g>
     <g id="line2d_30">
      <g>
       <use style="stroke:#000000;stroke-width:0.5;" x="429.12" xlink:href="#m741efc42ff" y="43.2"/>
      </g>
     </g>
     <g id="text_5">
      <!-- 80 -->
      <defs>
       <path d="
M31.7812 34.625
Q24.75 34.625 20.7188 30.8594
Q16.7031 27.0938 16.7031 20.5156
Q16.7031 13.9219 20.7188 10.1562
Q24.75 6.39062 31.7812 6.39062
Q38.8125 6.39062 42.8594 10.1719
Q46.9219 13.9688 46.9219 20.5156
Q46.9219 27.0938 42.8906 30.8594
Q38.875 34.625 31.7812 34.625
M21.9219 38.8125
Q15.5781 40.375 12.0312 44.7188
Q8.5 49.0781 8.5 55.3281
Q8.5 64.0625 14.7188 69.1406
Q20.9531 74.2188 31.7812 74.2188
Q42.6719 74.2188 48.875 69.1406
Q55.0781 64.0625 55.0781 55.3281
Q55.0781 49.0781 51.5312 44.7188
Q48 40.375 41.7031 38.8125
Q48.8281 37.1562 52.7969 32.3125
Q56.7812 27.4844 56.7812 20.5156
Q56.7812 9.90625 50.3125 4.23438
Q43.8438 -1.42188 31.7812 -1.42188
Q19.7344 -1.42188 13.25 4.23438
Q6.78125 9.90625 6.78125 20.5156
Q6.78125 27.4844 10.7812 32.3125
Q14.7969 37.1562 21.9219 38.8125
M18.3125 54.3906
Q18.3125 48.7344 21.8438 45.5625
Q25.3906 42.3906 31.7812 42.3906
Q38.1406 42.3906 41.7188 45.5625
Q45.3125 48.7344 45.3125 54.3906
Q45.3125 60.0625 41.7188 63.2344
Q38.1406 66.4062 31.7812 66.4062
Q25.3906 66.4062 21.8438 63.2344
Q18.3125 60.0625 18.3125 54.3906" id="DejaVuSans-38"/>
      </defs>
      <g transform="translate(422.2903125 401.918125)scale(0.12 -0.12)">
       <use xlink:href="#DejaVuSans-38"/>
       <use x="63.623046875" xlink:href="#DejaVuSans-30"/>
      </g>
     </g>
    </g>
    <g id="xtick_6">
     <g id="line2d_31">
      <g>
       <use style="stroke:#000000;stroke-width:0.5;" x="518.4" xlink:href="#m93b0483c22" y="388.8"/>
      </g>
     </g>
     <g id="line2d_32">
      <g>
       <use style="stroke:#000000;stroke-width:0.5;" x="518.4" xlink:href="#m741efc42ff" y="43.2"/>
      </g>
     </g>
     <g id="text_6">
      <!-- 100 -->
      <defs>
       <path d="
M12.4062 8.29688
L28.5156 8.29688
L28.5156 63.9219
L10.9844 60.4062
L10.9844 69.3906
L28.4219 72.9062
L38.2812 72.9062
L38.2812 8.29688
L54.3906 8.29688
L54.3906 0
L12.4062 0
z
" id="DejaVuSans-31"/>
      </defs>
      <g transform="translate(508.005 401.918125)scale(0.12 -0.12)">
       <use xlink:href="#DejaVuSans-31"/>
       <use x="63.623046875" xlink:href="#DejaVuSans-30"/>
       <use x="127.24609375" xlink:href="#DejaVuSans-30"/>
      </g>
     </g>
    </g>
   </g>
   <g id="matplotlib.axis_2">
    <g id="ytick_1">
     <g id="line2d_33">
      <defs>
       <path d="
M0 0
L4 0" id="m728421d6d4" style="stroke:#000000;stroke-width:0.5;"/>
      </defs>
      <g>
       <use style="stroke:#000000;stroke-width:0.5;" x="72.0" xlink:href="#m728421d6d4" y="388.8"/>
      </g>
     </g>
     <g id="line2d_34">
      <defs>
       <path d="
M0 0
L-4 0" id="mcb0005524f" style="stroke:#000000;stroke-width:0.5;"/>
      </defs>
      <g>
       <use style="stroke:#000000;stroke-width:0.5;" x="518.4" xlink:href="#mcb0005524f" y="388.8"/>
      </g>
     </g>
     <g id="text_7">
      <!-- 0 -->
      <g transform="translate(61.953125 392.11125)scale(0.12 -0.12)">
       <use xlink:href="#DejaVuSans-30"/>
      </g>
     </g>
    </g>
    <g id="ytick_2">
     <g id="line2d_35">
      <g>
       <use style="stroke:#000000;stroke-width:0.5;" x="72.0" xlink:href="#m728421d6d4" y="319.68"/>
      </g>
     </g>
     <g id="line2d_36">
      <g>
       <use style="stroke:#000000;stroke-width:0.5;" x="518.4" xlink:href="#mcb0005524f" y="319.68"/>
      </g>
     </g>
     <g id="text_8">
      <!-- 5 -->
      <defs>
       <path d="
M10.7969 72.9062
L49.5156 72.9062
L49.5156 64.5938
L19.8281 64.5938
L19.8281 46.7344
Q21.9688 47.4688 24.1094 47.8281
Q26.2656 48.1875 28.4219 48.1875
Q40.625 48.1875 47.75 41.5
Q54.8906 34.8125 54.8906 23.3906
Q54.8906 11.625 47.5625 5.09375
Q40.2344 -1.42188 26.9062 -1.42188
Q22.3125 -1.42188 17.5469 -0.640625
Q12.7969 0.140625 7.71875 1.70312
L7.71875 11.625
Q12.1094 9.23438 16.7969 8.0625
Q21.4844 6.89062 26.7031 6.89062
Q35.1562 6.89062 40.0781 11.3281
Q45.0156 15.7656 45.0156 23.3906
Q45.0156 31 40.0781 35.4375
Q35.1562 39.8906 26.7031 39.8906
Q22.75 39.8906 18.8125 39.0156
Q14.8906 38.1406 10.7969 36.2812
z
" id="DejaVuSans-35"/>
      </defs>
      <g transform="translate(62.339375 322.99125)scale(0.12 -0.12)">
       <use xlink:href="#DejaVuSans-35"/>
      </g>
     </g>
    </g>
    <g id="ytick_3">
     <g id="line2d_37">
      <g>
       <use style="stroke:#000000;stroke-width:0.5;" x="72.0" xlink:href="#m728421d6d4" y="250.56"/>
      </g>
     </g>
     <g id="line2d_38">
      <g>
       <use style="stroke:#000000;stroke-width:0.5;" x="518.4" xlink:href="#mcb0005524f" y="250.56"/>
      </g>
     </g>
     <g id="text_9">
      <!-- 10 -->
      <g transform="translate(54.845 253.87125)scale(0.12 -0.12)">
       <use xlink:href="#DejaVuSans-31"/>
       <use x="63.623046875" xlink:href="#DejaVuSans-30"/>
      </g>
     </g>
    </g>
    <g id="ytick_4">
     <g id="line2d_39">
      <g>
       <use style="stroke:#000000;stroke-width:0.5;" x="72.0" xlink:href="#m728421d6d4" y="181.44"/>
      </g>
     </g>
     <g id="line2d_40">
      <g>
       <use style="stroke:#000000;stroke-width:0.5;" x="518.4" xlink:href="#mcb0005524f" y="181.44"/>
      </g>
     </g>
     <g id="text_10">
      <!-- 15 -->
      <g transform="translate(55.09625 184.75125)scale(0.12 -0.12)">
       <use xlink:href="#DejaVuSans-31"/>
       <use x="63.623046875" xlink:href="#DejaVuSans-35"/>
      </g>
     </g>
    </g>
    <g id="ytick_5">
     <g id="line2d_41">
      <g>
       <use style="stroke:#000000;stroke-width:0.5;" x="72.0" xlink:href="#m728421d6d4" y="112.32"/>
      </g>
     </g>
     <g id="line2d_42">
      <g>
       <use style="stroke:#000000;stroke-width:0.5;" x="518.4" xlink:href="#mcb0005524f" y="112.32"/>
      </g>
     </g>
     <g id="text_11">
      <!-- 20 -->
      <g transform="translate(54.40625 115.63125)scale(0.12 -0.12)">
       <use xlink:href="#DejaVuSans-32"/>
       <use x="63.623046875" xlink:href="#DejaVuSans-30"/>
      </g>
     </g>
    </g>
    <g id="ytick_6">
     <g id="line2d_43">
      <g>
       <use style="stroke:#000000;stroke-width:0.5;" x="72.0" xlink:href="#m728421d6d4" y="43.2"/>
      </g>
     </g>
     <g id="line2d_44">
      <g>
       <use style="stroke:#000000;stroke-width:0.5;" x="518.4" xlink:href="#mcb0005524f" y="43.2"/>
      </g>
     </g>
     <g id="text_12">
      <!-- 25 -->
      <g transform="translate(54.6575 46.51125)scale(0.12 -0.12)">
       <use xlink:href="#DejaVuSans-32"/>
       <use x="63.623046875" xlink:href="#DejaVuSans-35"/>
      </g>
     </g>
    </g>
   </g>
   <g id="patch_3">
    <path d="
M72 43.2
L518.4 43.2" style="fill:none;stroke:#000000;"/>
   </g>
   <g id="patch_4">
    <path d="
M518.4 388.8
L518.4 43.2" style="fill:none;stroke:#000000;"/>
   </g>
   <g id="patch_5">
    <path d="
M72 388.8
L518.4 388.8" style="fill:none;stroke:#000000;"/>
   </g>
   <g id="patch_6">
    <path d="
M72 388.8
L72 43.2" style="fill:none;stroke:#000000;"/>
   </g>
  </g>
 </g>
 <defs>
  <clipPath id="p7ff5b81e1d">
   <rect height="345.6" width="446.4" x="72.0" y="43.2"/>
  </clipPath>
 </defs>
</svg>
