<?xml version="1.0" encoding="utf-8" standalone="no"?>
<!DOCTYPE svg PUBLIC "-//W3C//DTD SVG 1.1//EN"
  "http://www.w3.org/Graphics/SVG/1.1/DTD/svg11.dtd">
<!-- Created with matplotlib (http://matplotlib.org/) -->
<svg height="432pt" version="1.1" viewBox="0 0 576 432" width="576pt" xmlns="http://www.w3.org/2000/svg" xmlns:xlink="http://www.w3.org/1999/xlink">
 <defs>
  <style type="text/css">
*{stroke-linecap:butt;stroke-linejoin:round;}
  </style>
 </defs>
 <g id="figure_1">
  <g id="patch_1">
   <path d="
M0 432
L576 432
L576 0
L0 0
z
" style="fill:#ffffff;"/>
  </g>
  <g id="axes_1">
   <g id="patch_2">
    <path d="
M72 388.8
L518.4 388.8
L518.4 43.2
L72 43.2
z
" style="fill:#ffffff;"/>
   </g>
   <g id="line2d_1">
    <path clip-path="url(#p7ff5b81e1d)" d="
M72 84.672
L75.72 374.976
L79.44 374.976
L83.16 361.152
L86.88 361.152
L90.6 361.152
L94.32 361.152
L98.04 374.976
L101.76 361.152
L105.48 374.976
L109.2 374.976
L112.92 374.976
L116.64 374.976
L120.36 374.976
L124.08 374.976
L127.8 361.152
L131.52 361.152
L135.24 361.152
L138.96 374.976
L142.68 374.976
L146.4 374.976
L150.12 374.976
L153.84 361.152
L157.56 374.976
L161.28 361.152
L165 361.152
L168.72 361.152
L172.44 374.976
L176.16 374.976
L179.88 374.976
L183.6 374.976
L187.32 374.976
L191.04 361.152
L194.76 361.152
L198.48 361.152
L202.2 361.152
L205.92 361.152
L209.64 361.152
L213.36 361.152
L217.08 361.152
L220.8 361.152
L224.52 361.152
L228.24 374.976
L231.96 374.976
L235.68 374.976
L239.4 374.976
L243.12 374.976
L246.84 361.152
L250.56 361.152
L254.28 374.976
L258 374.976
L261.72 374.976
L265.44 361.152
L269.16 361.152
L272.88 361.152
L276.6 361.152
L280.32 361.152
L284.04 361.152
L287.76 361.152
L291.48 361.152
L295.2 361.152
L298.92 361.152
L302.64 361.152
L306.36 361.152
L310.08 361.152
L313.8 361.152
L317.52 361.152
L321.24 361.152
L324.96 361.152
L328.68 361.152
L332.4 361.152
L336.12 361.152
L339.84 361.152
L343.56 361.152
L347.28 361.152
L351 374.976
L354.72 374.976
L358.44 374.976
L362.16 374.976
L365.88 374.976
L369.6 374.976
L373.32 374.976
L377.04 374.976
L380.76 374.976
L384.48 361.152
L388.2 361.152
L391.92 347.328
L395.64 347.328
L399.36 347.328
L403.08 347.328
L406.8 333.504
L410.52 347.328
L414.24 374.976
L417.96 374.976
L421.68 374.976
L425.4 374.976
L429.12 374.976
L432.84 374.976
L436.56 374.976
L440.28 374.976
L444 361.152
L447.72 361.152
L451.44 361.152
L455.16 361.152
L458.88 361.152
L462.6 347.328
L466.32 347.328
L470.04 347.328
L473.76 347.328
L477.48 347.328
L481.2 347.328" style="fill:none;stroke:#0000ff;stroke-linecap:square;"/>
   </g>
   <g id="line2d_2">
    <path clip-path="url(#p7ff5b81e1d)" d="
M72 84.672
L75.72 361.152
L79.44 347.328
L83.16 374.976
L86.88 374.976
L90.6 374.976
L94.32 374.976
L98.04 361.152
L101.76 374.976
L105.48 361.152
L109.2 361.152
L112.92 361.152
L116.64 361.152
L120.36 361.152
L124.08 361.152
L127.8 374.976
L131.52 374.976
L135.24 374.976
L138.96 361.152
L142.68 361.152
L146.4 361.152
L150.12 361.152
L153.84 374.976
L157.56 361.152
L161.28 374.976
L165 374.976
L168.72 374.976
L172.44 361.152
L176.16 361.152
L179.88 361.152
L183.6 361.152
L187.32 361.152
L191.04 374.976
L194.76 374.976
L198.48 374.976
L202.2 374.976
L205.92 374.976
L209.64 374.976
L213.36 374.976
L217.08 374.976
L220.8 374.976
L224.52 374.976
L228.24 361.152
L231.96 361.152
L235.68 361.152
L239.4 361.152
L243.12 361.152
L246.84 374.976
L250.56 374.976
L254.28 361.152
L258 361.152
L261.72 361.152
L265.44 374.976
L269.16 374.976
L272.88 374.976
L276.6 374.976
L280.32 374.976
L284.04 374.976
L287.76 374.976
L291.48 374.976
L295.2 374.976
L298.92 374.976
L302.64 374.976
L306.36 374.976
L310.08 374.976
L313.8 374.976
L317.52 374.976
L321.24 374.976
L324.96 374.976
L328.68 374.976
L332.4 374.976
L336.12 374.976
L339.84 374.976
L343.56 374.976
L347.28 374.976
L351 361.152
L354.72 361.152
L358.44 361.152
L362.16 361.152
L365.88 361.152
L369.6 361.152
L373.32 361.152
L377.04 361.152
L380.76 361.152
L384.48 347.328
L388.2 347.328
L391.92 361.152
L395.64 361.152
L399.36 361.152
L403.08 361.152
L406.8 361.152
L410.52 374.976
L414.24 361.152
L417.96 361.152
L421.68 361.152
L425.4 361.152
L429.12 361.152
L432.84 361.152
L436.56 361.152
L440.28 361.152
L444 347.328
L447.72 347.328
L451.44 347.328
L455.16 347.328
L458.88 347.328
L462.6 333.504
L466.32 333.504
L470.04 333.504
L473.76 333.504
L477.48 333.504
L481.2 333.504" style="fill:none;stroke:#008000;stroke-linecap:square;"/>
   </g>
   <g id="line2d_3">
    <path clip-path="url(#p7ff5b81e1d)" d="
M72 84.672
L75.72 347.328
L79.44 333.504
L83.16 112.32
L86.88 319.68
L90.6 347.328
L94.32 333.504
L98.04 347.328
L101.76 347.328
L105.48 347.328
L109.2 347.328
L112.92 347.328
L116.64 333.504
L120.36 333.504
L124.08 333.504
L127.8 333.504
L131.52 333.504
L135.24 347.328
L138.96 333.504
L142.68 333.504
L146.4 333.504
L150.12 319.68
L153.84 319.68
L157.56 333.504
L161.28 319.68
L165 319.68
L168.72 319.68
L172.44 319.68
L176.16 319.68
L179.88 319.68
L183.6 319.68
L187.32 319.68
L191.04 319.68
L194.76 319.68
L198.48 319.68
L202.2 319.68
L205.92 319.68
L209.64 319.68
L213.36 319.68
L217.08 319.68
L220.8 319.68
L224.52 319.68
L228.24 319.68
L231.96 319.68
L235.68 319.68
L239.4 319.68
L243.12 319.68
L246.84 319.68
L250.56 319.68
L254.28 319.68
L258 319.68
L261.72 319.68
L265.44 305.856
L269.16 305.856
L272.88 305.856
L276.6 305.856
L280.32 305.856
L284.04 305.856
L287.76 292.032
L291.48 292.032
L295.2 292.032
L298.92 292.032
L302.64 292.032
L306.36 292.032
L310.08 292.032
L313.8 305.856
L317.52 305.856
L321.24 305.856
L324.96 305.856
L328.68 305.856
L332.4 305.856
L336.12 305.856
L339.84 305.856
L343.56 305.856
L347.28 305.856
L351 305.856
L354.72 305.856
L358.44 305.856
L362.16 305.856
L365.88 305.856
L369.6 305.856
L373.32 305.856
L377.04 305.856
L380.76 305.856
L384.48 305.856
L388.2 305.856
L391.92 305.856
L395.64 305.856
L399.36 319.68
L403.08 319.68
L406.8 319.68
L410.52 319.68
L414.24 319.68
L417.96 319.68
L421.68 319.68
L425.4 319.68
L429.12 319.68
L432.84 319.68
L436.56 319.68
L440.28 319.68
L444 319.68
L447.72 319.68
L451.44 319.68
L455.16 319.68
L458.88 319.68
L462.6 319.68
L466.32 319.68
L470.04 319.68
L473.76 319.68
L477.48 319.68
L481.2 319.68" style="fill:none;stroke:#ff0000;stroke-linecap:square;"/>
   </g>
   <g id="line2d_4">
    <path clip-path="url(#p7ff5b81e1d)" d="
M72 84.672
L75.72 333.504
L79.44 319.68
L83.16 347.328
L86.88 347.328
L90.6 333.504
L94.32 347.328
L98.04 333.504
L101.76 333.504
L105.48 333.504
L109.2 333.504
L112.92 333.504
L116.64 319.68
L120.36 319.68
L124.08 319.68
L127.8 319.68
L131.52 319.68
L135.24 319.68
L138.96 319.68
L142.68 319.68
L146.4 319.68
L150.12 333.504
L153.84 333.504
L157.56 319.68
L161.28 333.504
L165 347.328
L168.72 347.328
L172.44 347.328
L176.16 347.328
L179.88 347.328
L183.6 347.328
L187.32 347.328
L191.04 347.328
L194.76 347.328
L198.48 347.328
L202.2 347.328
L205.92 347.328
L209.64 347.328
L213.36 347.328
L217.08 347.328
L220.8 347.328
L224.52 347.328
L228.24 347.328
L231.96 347.328
L235.68 347.328
L239.4 347.328
L243.12 347.328
L246.84 347.328
L250.56 347.328
L254.28 347.328
L258 347.328
L261.72 347.328
L265.44 347.328
L269.16 347.328
L272.88 347.328
L276.6 347.328
L280.32 347.328
L284.04 347.328
L287.76 347.328
L291.48 347.328
L295.2 347.328
L298.92 347.328
L302.64 347.328
L306.36 347.328
L310.08 347.328
L313.8 347.328
L317.52 347.328
L321.24 347.328
L324.96 347.328
L328.68 347.328
L332.4 347.328
L336.12 347.328
L339.84 347.328
L343.56 347.328
L347.28 347.328
L351 347.328
L354.72 347.328
L358.44 347.328
L362.16 347.328
L365.88 347.328
L369.6 333.504
L373.32 333.504
L377.04 333.504
L380.76 333.504
L384.48 333.504
L388.2 333.504
L391.92 374.976
L395.64 374.976
L399.36 374.976
L403.08 374.976
L406.8 374.976
L410.52 361.152
L414.24 347.328
L417.96 347.328
L421.68 347.328
L425.4 347.328
L429.12 347.328
L432.84 347.328
L436.56 347.328
L440.28 347.328
L444 374.976
L447.72 374.976
L451.44 374.976
L455.16 374.976
L458.88 374.976
L462.6 374.976
L466.32 374.976
L470.04 374.976
L473.76 374.976
L477.48 361.152
L481.2 361.152" style="fill:none;stroke:#00bfbf;stroke-linecap:square;"/>
   </g>
   <g id="line2d_5">
    <path clip-path="url(#p7ff5b81e1d)" d="
M72 84.672
L75.72 84.672
L79.44 84.672
L83.16 84.672
L86.88 84.672
L90.6 84.672
L94.32 84.672
L98.04 84.672
L101.76 305.856
L105.48 319.68
L109.2 292.032
L112.92 292.032
L116.64 278.208
L120.36 250.56
L124.08 264.384
L127.8 278.208
L131.52 278.208
L135.24 264.384
L138.96 264.384
L142.68 264.384
L146.4 264.384
L150.12 264.384
L153.84 264.384
L157.56 264.384
L161.28 264.384
L165 250.56
L168.72 250.56
L172.44 236.736
L176.16 236.736
L179.88 236.736
L183.6 236.736
L187.32 236.736
L191.04 264.384
L194.76 264.384
L198.48 250.56
L202.2 250.56
L205.92 209.088
L209.64 209.088
L213.36 209.088
L217.08 209.088
L220.8 222.912
L224.52 222.912
L228.24 264.384
L231.96 264.384
L235.68 264.384
L239.4 264.384
L243.12 278.208
L246.84 278.208
L250.56 278.208
L254.28 278.208
L258 278.208
L261.72 264.384
L265.44 264.384
L269.16 264.384
L272.88 264.384
L276.6 264.384
L280.32 264.384
L284.04 264.384
L287.76 250.56
L291.48 250.56
L295.2 236.736
L298.92 236.736
L302.64 236.736
L306.36 250.56
L310.08 250.56
L313.8 250.56
L317.52 264.384
L321.24 264.384
L324.96 250.56
L328.68 250.56
L332.4 278.208
L336.12 278.208
L339.84 278.208
L343.56 278.208
L347.28 278.208
L351 278.208
L354.72 278.208
L358.44 278.208
L362.16 278.208
L365.88 278.208
L369.6 278.208
L373.32 278.208
L377.04 278.208
L380.76 278.208
L384.48 278.208
L388.2 264.384
L391.92 250.56
L395.64 250.56
L399.36 250.56
L403.08 250.56
L406.8 250.56
L410.52 250.56
L414.24 264.384
L417.96 264.384
L421.68 264.384
L425.4 264.384
L429.12 264.384
L432.84 264.384
L436.56 264.384
L440.28 264.384
L444 264.384
L447.72 264.384
L451.44 250.56
L455.16 250.56
L458.88 250.56
L462.6 250.56
L466.32 236.736
L470.04 236.736
L473.76 236.736
L477.48 250.56
L481.2 264.384" style="fill:none;stroke:#bf00bf;stroke-linecap:square;"/>
   </g>
   <g id="line2d_6">
    <path clip-path="url(#p7ff5b81e1d)" d="
M72 84.672
L75.72 84.672
L79.44 84.672
L83.16 84.672
L86.88 84.672
L90.6 84.672
L94.32 84.672
L98.04 84.672
L101.76 84.672
L105.48 84.672
L109.2 84.672
L112.92 84.672
L116.64 84.672
L120.36 84.672
L124.08 84.672
L127.8 84.672
L131.52 84.672
L135.24 84.672
L138.96 84.672
L142.68 84.672
L146.4 84.672
L150.12 84.672
L153.84 84.672
L157.56 84.672
L161.28 84.672
L165 84.672
L168.72 84.672
L172.44 84.672
L176.16 84.672
L179.88 84.672
L183.6 84.672
L187.32 84.672
L191.04 84.672
L194.76 84.672
L198.48 84.672
L202.2 84.672
L205.92 84.672
L209.64 84.672
L213.36 84.672
L217.08 84.672
L220.8 84.672
L224.52 84.672
L228.24 84.672
L231.96 84.672
L235.68 84.672
L239.4 84.672
L243.12 84.672
L246.84 84.672
L250.56 84.672
L254.28 84.672
L258 84.672
L261.72 84.672
L265.44 84.672
L269.16 84.672
L272.88 84.672
L276.6 84.672
L280.32 84.672
L284.04 84.672
L287.76 84.672
L291.48 84.672
L295.2 84.672
L298.92 84.672
L302.64 84.672
L306.36 84.672
L310.08 84.672
L313.8 84.672
L317.52 84.672
L321.24 84.672
L324.96 84.672
L328.68 84.672
L332.4 84.672
L336.12 84.672
L339.84 84.672
L343.56 84.672
L347.28 84.672
L351 84.672
L354.72 84.672
L358.44 84.672
L362.16 84.672
L365.88 84.672
L369.6 264.384
L373.32 264.384
L377.04 264.384
L380.76 264.384
L384.48 264.384
L388.2 278.208
L391.92 264.384
L395.64 264.384
L399.36 264.384
L403.08 264.384
L406.8 264.384
L410.52 264.384
L414.24 278.208
L417.96 278.208
L421.68 292.032
L425.4 292.032
L429.12 292.032
L432.84 292.032
L436.56 292.032
L440.28 292.032
L444 292.032
L447.72 278.208
L451.44 278.208
L455.16 278.208
L458.88 278.208
L462.6 278.208
L466.32 278.208
L470.04 278.208
L473.76 264.384
L477.48 209.088
L481.2 209.088" style="fill:none;stroke:#bfbf00;stroke-linecap:square;"/>
   </g>
   <g id="line2d_7">
    <path clip-path="url(#p7ff5b81e1d)" d="
M72 84.672
L75.72 84.672
L79.44 84.672
L83.16 84.672
L86.88 84.672
L90.6 84.672
L94.32 84.672
L98.04 84.672
L101.76 305.856
L105.48 319.68
L109.2 292.032
L112.92 292.032
L116.64 278.208
L120.36 250.56
L124.08 264.384
L127.8 278.208
L131.52 278.208
L135.24 264.384
L138.96 264.384
L142.68 264.384
L146.4 264.384
L150.12 264.384
L153.84 264.384
L157.56 264.384
L161.28 264.384
L165 250.56
L168.72 250.56
L172.44 236.736
L176.16 236.736
L179.88 236.736
L183.6 236.736
L187.32 236.736
L191.04 264.384
L194.76 264.384
L198.48 250.56
L202.2 250.56
L205.92 209.088
L209.64 209.088
L213.36 209.088
L217.08 209.088
L220.8 222.912
L224.52 222.912
L228.24 264.384
L231.96 264.384
L235.68 264.384
L239.4 264.384
L243.12 278.208
L246.84 278.208
L250.56 278.208
L254.28 278.208
L258 278.208
L261.72 264.384
L265.44 264.384
L269.16 264.384
L272.88 264.384
L276.6 264.384
L280.32 264.384
L284.04 264.384
L287.76 250.56
L291.48 250.56
L295.2 236.736
L298.92 236.736
L302.64 236.736
L306.36 250.56
L310.08 250.56
L313.8 250.56
L317.52 264.384
L321.24 264.384
L324.96 250.56
L328.68 250.56
L332.4 278.208
L336.12 278.208
L339.84 278.208
L343.56 278.208
L347.28 278.208
L351 278.208
L354.72 278.208
L358.44 278.208
L362.16 278.208
L365.88 278.208
L369.6 278.208
L373.32 278.208
L377.04 278.208
L380.76 278.208
L384.48 278.208
L388.2 264.384
L391.92 250.56
L395.64 250.56
L399.36 250.56
L403.08 250.56
L406.8 250.56
L410.52 250.56
L414.24 264.384
L417.96 264.384
L421.68 264.384
L425.4 264.384
L429.12 264.384
L432.84 264.384
L436.56 264.384
L440.28 264.384
L444 264.384
L447.72 264.384
L451.44 250.56
L455.16 250.56
L458.88 250.56
L462.6 250.56
L466.32 236.736
L470.04 236.736
L473.76 236.736
L477.48 250.56
L481.2 264.384" style="fill:none;stroke:#000000;stroke-linecap:square;"/>
   </g>
   <g id="line2d_8">
    <path clip-path="url(#p7ff5b81e1d)" d="
M72 84.672
L75.72 84.672
L79.44 84.672
L83.16 84.672
L86.88 84.672
L90.6 84.672
L94.32 84.672
L98.04 84.672
L101.76 305.856
L105.48 319.68
L109.2 292.032
L112.92 292.032
L116.64 278.208
L120.36 250.56
L124.08 264.384
L127.8 278.208
L131.52 278.208
L135.24 264.384
L138.96 264.384
L142.68 264.384
L146.4 264.384
L150.12 264.384
L153.84 264.384
L157.56 264.384
L161.28 264.384
L165 250.56
L168.72 250.56
L172.44 236.736
L176.16 236.736
L179.88 236.736
L183.6 236.736
L187.32 236.736
L191.04 264.384
L194.76 264.384
L198.48 250.56
L202.2 250.56
L205.92 209.088
L209.64 209.088
L213.36 209.088
L217.08 209.088
L220.8 222.912
L224.52 222.912
L228.24 264.384
L231.96 264.384
L235.68 264.384
L239.4 264.384
L243.12 278.208
L246.84 278.208
L250.56 278.208
L254.28 278.208
L258 278.208
L261.72 264.384
L265.44 264.384
L269.16 264.384
L272.88 264.384
L276.6 264.384
L280.32 264.384
L284.04 264.384
L287.76 250.56
L291.48 250.56
L295.2 278.208
L298.92 278.208
L302.64 278.208
L306.36 278.208
L310.08 278.208
L313.8 278.208
L317.52 278.208
L321.24 278.208
L324.96 264.384
L328.68 264.384
L332.4 278.208
L336.12 278.208
L339.84 278.208
L343.56 278.208
L347.28 278.208
L351 278.208
L354.72 278.208
L358.44 278.208
L362.16 278.208
L365.88 278.208
L369.6 278.208
L373.32 278.208
L377.04 278.208
L380.76 278.208
L384.48 278.208
L388.2 264.384
L391.92 250.56
L395.64 250.56
L399.36 250.56
L403.08 250.56
L406.8 250.56
L410.52 250.56
L414.24 264.384
L417.96 264.384
L421.68 264.384
L425.4 264.384
L429.12 264.384
L432.84 264.384
L436.56 264.384
L440.28 264.384
L444 264.384
L447.72 264.384
L451.44 250.56
L455.16 250.56
L458.88 250.56
L462.6 250.56
L466.32 236.736
L470.04 236.736
L473.76 236.736
L477.48 250.56
L481.2 264.384" style="fill:none;stroke:#0000ff;stroke-linecap:square;"/>
   </g>
   <g id="line2d_9">
    <path clip-path="url(#p7ff5b81e1d)" d="
M72 84.672
L75.72 84.672
L79.44 84.672
L83.16 84.672
L86.88 84.672
L90.6 84.672
L94.32 84.672
L98.04 84.672
L101.76 84.672
L105.48 84.672
L109.2 84.672
L112.92 84.672
L116.64 84.672
L120.36 84.672
L124.08 84.672
L127.8 84.672
L131.52 84.672
L135.24 278.208
L138.96 278.208
L142.68 278.208
L146.4 278.208
L150.12 292.032
L153.84 292.032
L157.56 305.856
L161.28 305.856
L165 292.032
L168.72 292.032
L172.44 292.032
L176.16 292.032
L179.88 292.032
L183.6 292.032
L187.32 292.032
L191.04 292.032
L194.76 292.032
L198.48 292.032
L202.2 292.032
L205.92 292.032
L209.64 292.032
L213.36 278.208
L217.08 278.208
L220.8 278.208
L224.52 278.208
L228.24 278.208
L231.96 278.208
L235.68 278.208
L239.4 278.208
L243.12 264.384
L246.84 264.384
L250.56 264.384
L254.28 264.384
L258 264.384
L261.72 292.032
L265.44 292.032
L269.16 278.208
L272.88 278.208
L276.6 278.208
L280.32 278.208
L284.04 278.208
L287.76 264.384
L291.48 278.208
L295.2 264.384
L298.92 264.384
L302.64 264.384
L306.36 264.384
L310.08 236.736
L313.8 236.736
L317.52 250.56
L321.24 250.56
L324.96 236.736
L328.68 236.736
L332.4 250.56
L336.12 250.56
L339.84 250.56
L343.56 250.56
L347.28 250.56
L351 250.56
L354.72 250.56
L358.44 250.56
L362.16 236.736
L365.88 236.736
L369.6 236.736
L373.32 222.912
L377.04 222.912
L380.76 222.912
L384.48 209.088
L388.2 209.088
L391.92 278.208
L395.64 278.208
L399.36 278.208
L403.08 278.208
L406.8 278.208
L410.52 278.208
L414.24 250.56
L417.96 250.56
L421.68 236.736
L425.4 250.56
L429.12 250.56
L432.84 250.56
L436.56 250.56
L440.28 236.736
L444 250.56
L447.72 250.56
L451.44 264.384
L455.16 264.384
L458.88 264.384
L462.6 264.384
L466.32 264.384
L470.04 264.384
L473.76 278.208
L477.48 278.208
L481.2 278.208" style="fill:none;stroke:#008000;stroke-linecap:square;"/>
   </g>
   <g id="line2d_10">
    <path clip-path="url(#p7ff5b81e1d)" d="
M72 84.672
L75.72 84.672
L79.44 84.672
L83.16 84.672
L86.88 84.672
L90.6 84.672
L94.32 84.672
L98.04 319.68
L101.76 319.68
L105.48 305.856
L109.2 278.208
L112.92 278.208
L116.64 264.384
L120.36 292.032
L124.08 292.032
L127.8 292.032
L131.52 292.032
L135.24 292.032
L138.96 292.032
L142.68 305.856
L146.4 305.856
L150.12 305.856
L153.84 305.856
L157.56 292.032
L161.28 292.032
L165 278.208
L168.72 278.208
L172.44 278.208
L176.16 278.208
L179.88 278.208
L183.6 278.208
L187.32 278.208
L191.04 278.208
L194.76 278.208
L198.48 278.208
L202.2 278.208
L205.92 278.208
L209.64 278.208
L213.36 292.032
L217.08 292.032
L220.8 292.032
L224.52 292.032
L228.24 292.032
L231.96 292.032
L235.68 292.032
L239.4 292.032
L243.12 292.032
L246.84 292.032
L250.56 292.032
L254.28 292.032
L258 292.032
L261.72 278.208
L265.44 278.208
L269.16 292.032
L272.88 292.032
L276.6 292.032
L280.32 292.032
L284.04 292.032
L287.76 278.208
L291.48 264.384
L295.2 250.56
L298.92 250.56
L302.64 250.56
L306.36 236.736
L310.08 222.912
L313.8 222.912
L317.52 222.912
L321.24 222.912
L324.96 222.912
L328.68 222.912
L332.4 222.912
L336.12 222.912
L339.84 209.088
L343.56 209.088
L347.28 209.088
L351 209.088
L354.72 209.088
L358.44 209.088
L362.16 195.264
L365.88 195.264
L369.6 195.264
L373.32 195.264
L377.04 195.264
L380.76 195.264
L384.48 195.264
L388.2 195.264
L391.92 195.264
L395.64 195.264
L399.36 195.264
L403.08 195.264
L406.8 195.264
L410.52 195.264
L414.24 195.264
L417.96 195.264
L421.68 181.44
L425.4 181.44
L429.12 181.44
L432.84 181.44
L436.56 181.44
L440.28 181.44
L444 181.44
L447.72 195.264
L451.44 195.264
L455.16 195.264
L458.88 195.264
L462.6 195.264
L466.32 195.264
L470.04 181.44
L473.76 181.44
L477.48 181.44
L481.2 181.44" style="fill:none;stroke:#ff0000;stroke-linecap:square;"/>
   </g>
   <g id="line2d_11">
    <path clip-path="url(#p7ff5b81e1d)" d="
M72 84.672
L75.72 84.672
L79.44 84.672
L83.16 84.672
L86.88 84.672
L90.6 84.672
L94.32 84.672
L98.04 84.672
L101.76 112.32
L105.48 112.32
L109.2 112.32
L112.92 264.384
L116.64 292.032
L120.36 278.208
L124.08 278.208
L127.8 264.384
L131.52 250.56
L135.24 236.736
L138.96 236.736
L142.68 236.736
L146.4 236.736
L150.12 236.736
L153.84 236.736
L157.56 236.736
L161.28 236.736
L165 236.736
L168.72 236.736
L172.44 250.56
L176.16 264.384
L179.88 264.384
L183.6 264.384
L187.32 264.384
L191.04 250.56
L194.76 250.56
L198.48 236.736
L202.2 236.736
L205.92 250.56
L209.64 250.56
L213.36 250.56
L217.08 250.56
L220.8 236.736
L224.52 236.736
L228.24 209.088
L231.96 209.088
L235.68 222.912
L239.4 222.912
L243.12 222.912
L246.84 209.088
L250.56 209.088
L254.28 209.088
L258 209.088
L261.72 209.088
L265.44 209.088
L269.16 209.088
L272.88 209.088
L276.6 209.088
L280.32 209.088
L284.04 209.088
L287.76 222.912
L291.48 222.912
L295.2 209.088
L298.92 209.088
L302.64 195.264
L306.36 195.264
L310.08 195.264
L313.8 195.264
L317.52 195.264
L321.24 195.264
L324.96 195.264
L328.68 195.264
L332.4 195.264
L336.12 195.264
L339.84 222.912
L343.56 222.912
L347.28 222.912
L351 222.912
L354.72 222.912
L358.44 222.912
L362.16 209.088
L365.88 222.912
L369.6 222.912
L373.32 236.736
L377.04 236.736
L380.76 236.736
L384.48 222.912
L388.2 222.912
L391.92 209.088
L395.64 222.912
L399.36 222.912
L403.08 222.912
L406.8 222.912
L410.52 222.912
L414.24 222.912
L417.96 222.912
L421.68 250.56
L425.4 222.912
L429.12 222.912
L432.84 222.912
L436.56 222.912
L440.28 250.56
L444 236.736
L447.72 236.736
L451.44 236.736
L455.16 236.736
L458.88 222.912
L462.6 236.736
L466.32 250.56
L470.04 250.56
L473.76 250.56
L477.48 264.384
L481.2 250.56" style="fill:none;stroke:#00bfbf;stroke-linecap:square;"/>
   </g>
   <g id="line2d_12">
    <path clip-path="url(#p7ff5b81e1d)" d="
M72 84.672
L75.72 84.672
L79.44 84.672
L83.16 84.672
L86.88 84.672
L90.6 84.672
L94.32 84.672
L98.04 84.672
L101.76 84.672
L105.48 84.672
L109.2 84.672
L112.92 84.672
L116.64 84.672
L120.36 84.672
L124.08 84.672
L127.8 84.672
L131.52 84.672
L135.24 84.672
L138.96 84.672
L142.68 84.672
L146.4 84.672
L150.12 84.672
L153.84 84.672
L157.56 84.672
L161.28 84.672
L165 84.672
L168.72 84.672
L172.44 84.672
L176.16 84.672
L179.88 84.672
L183.6 84.672
L187.32 84.672
L191.04 84.672
L194.76 84.672
L198.48 84.672
L202.2 84.672
L205.92 84.672
L209.64 84.672
L213.36 84.672
L217.08 84.672
L220.8 84.672
L224.52 84.672
L228.24 84.672
L231.96 84.672
L235.68 84.672
L239.4 84.672
L243.12 84.672
L246.84 84.672
L250.56 84.672
L254.28 84.672
L258 84.672
L261.72 84.672
L265.44 84.672
L269.16 84.672
L272.88 84.672
L276.6 84.672
L280.32 84.672
L284.04 84.672
L287.76 84.672
L291.48 84.672
L295.2 84.672
L298.92 84.672
L302.64 84.672
L306.36 84.672
L310.08 84.672
L313.8 84.672
L317.52 84.672
L321.24 84.672
L324.96 84.672
L328.68 84.672
L332.4 84.672
L336.12 84.672
L339.84 84.672
L343.56 84.672
L347.28 84.672
L351 84.672
L354.72 84.672
L358.44 84.672
L362.16 84.672
L365.88 84.672
L369.6 84.672
L373.32 84.672
L377.04 84.672
L380.76 84.672
L384.48 84.672
L388.2 84.672
L391.92 84.672
L395.64 84.672
L399.36 84.672
L403.08 84.672
L406.8 84.672
L410.52 84.672
L414.24 84.672
L417.96 84.672
L421.68 84.672
L425.4 84.672
L429.12 84.672
L432.84 84.672
L436.56 84.672
L440.28 84.672
L444 84.672
L447.72 84.672
L451.44 84.672
L455.16 84.672
L458.88 84.672
L462.6 84.672
L466.32 84.672
L470.04 84.672
L473.76 84.672
L477.48 84.672
L481.2 84.672" style="fill:none;stroke:#bf00bf;stroke-linecap:square;"/>
   </g>
   <g id="line2d_13">
    <path clip-path="url(#p7ff5b81e1d)" d="
M72 84.672
L75.72 84.672
L79.44 84.672
L83.16 84.672
L86.88 84.672
L90.6 84.672
L94.32 84.672
L98.04 84.672
L101.76 84.672
L105.48 84.672
L109.2 84.672
L112.92 84.672
L116.64 347.328
L120.36 347.328
L124.08 347.328
L127.8 347.328
L131.52 347.328
L135.24 333.504
L138.96 347.328
L142.68 347.328
L146.4 347.328
L150.12 347.328
L153.84 347.328
L157.56 347.328
L161.28 347.328
L165 333.504
L168.72 333.504
L172.44 333.504
L176.16 333.504
L179.88 333.504
L183.6 333.504
L187.32 333.504
L191.04 333.504
L194.76 333.504
L198.48 333.504
L202.2 333.504
L205.92 333.504
L209.64 333.504
L213.36 333.504
L217.08 333.504
L220.8 333.504
L224.52 333.504
L228.24 333.504
L231.96 333.504
L235.68 333.504
L239.4 333.504
L243.12 333.504
L246.84 333.504
L250.56 333.504
L254.28 333.504
L258 333.504
L261.72 333.504
L265.44 333.504
L269.16 333.504
L272.88 333.504
L276.6 333.504
L280.32 333.504
L284.04 333.504
L287.76 333.504
L291.48 333.504
L295.2 333.504
L298.92 333.504
L302.64 333.504
L306.36 333.504
L310.08 333.504
L313.8 333.504
L317.52 333.504
L321.24 333.504
L324.96 333.504
L328.68 333.504
L332.4 333.504
L336.12 333.504
L339.84 333.504
L343.56 333.504
L347.28 333.504
L351 333.504
L354.72 333.504
L358.44 333.504
L362.16 333.504
L365.88 333.504
L369.6 347.328
L373.32 347.328
L377.04 347.328
L380.76 347.328
L384.48 374.976
L388.2 374.976
L391.92 333.504
L395.64 333.504
L399.36 333.504
L403.08 333.504
L406.8 347.328
L410.52 333.504
L414.24 333.504
L417.96 333.504
L421.68 333.504
L425.4 333.504
L429.12 333.504
L432.84 333.504
L436.56 333.504
L440.28 333.504
L444 333.504
L447.72 333.504
L451.44 333.504
L455.16 333.504
L458.88 333.504
L462.6 361.152
L466.32 361.152
L470.04 361.152
L473.76 361.152
L477.48 374.976
L481.2 374.976" style="fill:none;stroke:#bfbf00;stroke-linecap:square;"/>
   </g>
   <g id="line2d_14">
    <path clip-path="url(#p7ff5b81e1d)" d="
M72 84.672
L75.72 84.672
L79.44 84.672
L83.16 84.672
L86.88 84.672
L90.6 84.672
L94.32 84.672
L98.04 84.672
L101.76 84.672
L105.48 84.672
L109.2 84.672
L112.92 84.672
L116.64 84.672
L120.36 84.672
L124.08 84.672
L127.8 84.672
L131.52 84.672
L135.24 84.672
L138.96 84.672
L142.68 84.672
L146.4 84.672
L150.12 84.672
L153.84 84.672
L157.56 84.672
L161.28 84.672
L165 84.672
L168.72 84.672
L172.44 84.672
L176.16 84.672
L179.88 84.672
L183.6 98.496
L187.32 222.912
L191.04 222.912
L194.76 222.912
L198.48 264.384
L202.2 264.384
L205.92 236.736
L209.64 236.736
L213.36 236.736
L217.08 236.736
L220.8 250.56
L224.52 250.56
L228.24 236.736
L231.96 236.736
L235.68 236.736
L239.4 236.736
L243.12 236.736
L246.84 236.736
L250.56 236.736
L254.28 236.736
L258 236.736
L261.72 236.736
L265.44 236.736
L269.16 236.736
L272.88 236.736
L276.6 236.736
L280.32 236.736
L284.04 236.736
L287.76 209.088
L291.48 209.088
L295.2 195.264
L298.92 195.264
L302.64 222.912
L306.36 222.912
L310.08 264.384
L313.8 264.384
L317.52 236.736
L321.24 236.736
L324.96 278.208
L328.68 278.208
L332.4 236.736
L336.12 236.736
L339.84 236.736
L343.56 236.736
L347.28 236.736
L351 236.736
L354.72 236.736
L358.44 236.736
L362.16 222.912
L365.88 209.088
L369.6 209.088
L373.32 209.088
L377.04 209.088
L380.76 209.088
L384.48 236.736
L388.2 236.736
L391.92 222.912
L395.64 209.088
L399.36 209.088
L403.08 209.088
L406.8 209.088
L410.52 209.088
L414.24 209.088
L417.96 209.088
L421.68 195.264
L425.4 195.264
L429.12 195.264
L432.84 195.264
L436.56 209.088
L440.28 209.088
L444 209.088
L447.72 209.088
L451.44 209.088
L455.16 209.088
L458.88 209.088
L462.6 209.088
L466.32 209.088
L470.04 209.088
L473.76 209.088
L477.48 222.912
L481.2 222.912" style="fill:none;stroke:#000000;stroke-linecap:square;"/>
   </g>
   <g id="line2d_15">
    <path clip-path="url(#p7ff5b81e1d)" d="
M72 84.672
L75.72 84.672
L79.44 84.672
L83.16 84.672
L86.88 84.672
L90.6 84.672
L94.32 84.672
L98.04 84.672
L101.76 84.672
L105.48 84.672
L109.2 84.672
L112.92 84.672
L116.64 84.672
L120.36 84.672
L124.08 84.672
L127.8 84.672
L131.52 84.672
L135.24 84.672
L138.96 84.672
L142.68 84.672
L146.4 84.672
L150.12 84.672
L153.84 84.672
L157.56 84.672
L161.28 84.672
L165 84.672
L168.72 84.672
L172.44 84.672
L176.16 84.672
L179.88 84.672
L183.6 84.672
L187.32 84.672
L191.04 84.672
L194.76 84.672
L198.48 84.672
L202.2 84.672
L205.92 84.672
L209.64 84.672
L213.36 84.672
L217.08 84.672
L220.8 84.672
L224.52 84.672
L228.24 84.672
L231.96 84.672
L235.68 84.672
L239.4 84.672
L243.12 84.672
L246.84 84.672
L250.56 84.672
L254.28 84.672
L258 84.672
L261.72 84.672
L265.44 84.672
L269.16 84.672
L272.88 84.672
L276.6 84.672
L280.32 84.672
L284.04 84.672
L287.76 319.68
L291.48 319.68
L295.2 319.68
L298.92 319.68
L302.64 319.68
L306.36 319.68
L310.08 319.68
L313.8 319.68
L317.52 319.68
L321.24 319.68
L324.96 319.68
L328.68 319.68
L332.4 319.68
L336.12 319.68
L339.84 319.68
L343.56 319.68
L347.28 319.68
L351 319.68
L354.72 319.68
L358.44 319.68
L362.16 319.68
L365.88 319.68
L369.6 319.68
L373.32 319.68
L377.04 319.68
L380.76 319.68
L384.48 319.68
L388.2 319.68
L391.92 319.68
L395.64 319.68
L399.36 305.856
L403.08 305.856
L406.8 305.856
L410.52 305.856
L414.24 305.856
L417.96 305.856
L421.68 305.856
L425.4 305.856
L429.12 305.856
L432.84 305.856
L436.56 305.856
L440.28 305.856
L444 305.856
L447.72 305.856
L451.44 305.856
L455.16 305.856
L458.88 305.856
L462.6 305.856
L466.32 305.856
L470.04 305.856
L473.76 305.856
L477.48 292.032
L481.2 292.032" style="fill:none;stroke:#0000ff;stroke-linecap:square;"/>
   </g>
   <g id="line2d_16">
    <path clip-path="url(#p7ff5b81e1d)" d="
M72 84.672
L75.72 84.672
L79.44 84.672
L83.16 84.672
L86.88 84.672
L90.6 84.672
L94.32 84.672
L98.04 84.672
L101.76 84.672
L105.48 84.672
L109.2 84.672
L112.92 84.672
L116.64 84.672
L120.36 84.672
L124.08 84.672
L127.8 84.672
L131.52 84.672
L135.24 84.672
L138.96 84.672
L142.68 84.672
L146.4 84.672
L150.12 84.672
L153.84 84.672
L157.56 84.672
L161.28 84.672
L165 84.672
L168.72 84.672
L172.44 84.672
L176.16 84.672
L179.88 84.672
L183.6 84.672
L187.32 84.672
L191.04 84.672
L194.76 84.672
L198.48 84.672
L202.2 84.672
L205.92 84.672
L209.64 84.672
L213.36 84.672
L217.08 84.672
L220.8 84.672
L224.52 84.672
L228.24 84.672
L231.96 84.672
L235.68 84.672
L239.4 84.672
L243.12 84.672
L246.84 84.672
L250.56 84.672
L254.28 84.672
L258 84.672
L261.72 84.672
L265.44 84.672
L269.16 84.672
L272.88 84.672
L276.6 84.672
L280.32 84.672
L284.04 84.672
L287.76 84.672
L291.48 84.672
L295.2 84.672
L298.92 84.672
L302.64 84.672
L306.36 84.672
L310.08 84.672
L313.8 84.672
L317.52 84.672
L321.24 84.672
L324.96 84.672
L328.68 84.672
L332.4 84.672
L336.12 84.672
L339.84 84.672
L343.56 84.672
L347.28 84.672
L351 84.672
L354.72 84.672
L358.44 84.672
L362.16 84.672
L365.88 84.672
L369.6 84.672
L373.32 84.672
L377.04 84.672
L380.76 84.672
L384.48 84.672
L388.2 84.672
L391.92 84.672
L395.64 84.672
L399.36 84.672
L403.08 84.672
L406.8 84.672
L410.52 84.672
L414.24 84.672
L417.96 84.672
L421.68 84.672
L425.4 84.672
L429.12 84.672
L432.84 84.672
L436.56 84.672
L440.28 84.672
L444 84.672
L447.72 84.672
L451.44 84.672
L455.16 84.672
L458.88 84.672
L462.6 84.672
L466.32 84.672
L470.04 84.672
L473.76 84.672
L477.48 84.672
L481.2 84.672" style="fill:none;stroke:#008000;stroke-linecap:square;"/>
   </g>
   <g id="line2d_17">
    <path clip-path="url(#p7ff5b81e1d)" d="
M72 84.672
L75.72 84.672
L79.44 84.672
L83.16 84.672
L86.88 98.496
L90.6 98.496
L94.32 98.496
L98.04 98.496
L101.76 305.856
L105.48 319.68
L109.2 292.032
L112.92 292.032
L116.64 278.208
L120.36 250.56
L124.08 264.384
L127.8 278.208
L131.52 278.208
L135.24 264.384
L138.96 264.384
L142.68 264.384
L146.4 264.384
L150.12 264.384
L153.84 264.384
L157.56 264.384
L161.28 264.384
L165 250.56
L168.72 250.56
L172.44 236.736
L176.16 236.736
L179.88 236.736
L183.6 236.736
L187.32 236.736
L191.04 264.384
L194.76 264.384
L198.48 250.56
L202.2 250.56
L205.92 209.088
L209.64 209.088
L213.36 209.088
L217.08 209.088
L220.8 222.912
L224.52 222.912
L228.24 264.384
L231.96 264.384
L235.68 264.384
L239.4 264.384
L243.12 278.208
L246.84 278.208
L250.56 278.208
L254.28 278.208
L258 278.208
L261.72 264.384
L265.44 264.384
L269.16 264.384
L272.88 264.384
L276.6 264.384
L280.32 264.384
L284.04 264.384
L287.76 250.56
L291.48 250.56
L295.2 236.736
L298.92 236.736
L302.64 236.736
L306.36 250.56
L310.08 250.56
L313.8 250.56
L317.52 264.384
L321.24 264.384
L324.96 250.56
L328.68 250.56
L332.4 278.208
L336.12 278.208
L339.84 278.208
L343.56 278.208
L347.28 278.208
L351 278.208
L354.72 278.208
L358.44 278.208
L362.16 278.208
L365.88 278.208
L369.6 278.208
L373.32 278.208
L377.04 278.208
L380.76 278.208
L384.48 278.208
L388.2 264.384
L391.92 250.56
L395.64 250.56
L399.36 250.56
L403.08 250.56
L406.8 250.56
L410.52 250.56
L414.24 264.384
L417.96 264.384
L421.68 264.384
L425.4 264.384
L429.12 264.384
L432.84 264.384
L436.56 264.384
L440.28 264.384
L444 264.384
L447.72 264.384
L451.44 250.56
L455.16 250.56
L458.88 250.56
L462.6 250.56
L466.32 236.736
L470.04 236.736
L473.76 236.736
L477.48 250.56
L481.2 264.384" style="fill:none;stroke:#ff0000;stroke-linecap:square;"/>
   </g>
   <g id="line2d_18">
    <path clip-path="url(#p7ff5b81e1d)" d="
M72 84.672
L75.72 84.672
L79.44 84.672
L83.16 84.672
L86.88 84.672
L90.6 84.672
L94.32 84.672
L98.04 84.672
L101.76 84.672
L105.48 84.672
L109.2 84.672
L112.92 84.672
L116.64 84.672
L120.36 264.384
L124.08 250.56
L127.8 250.56
L131.52 264.384
L135.24 250.56
L138.96 250.56
L142.68 250.56
L146.4 250.56
L150.12 250.56
L153.84 250.56
L157.56 250.56
L161.28 250.56
L165 305.856
L168.72 305.856
L172.44 305.856
L176.16 305.856
L179.88 305.856
L183.6 305.856
L187.32 305.856
L191.04 305.856
L194.76 305.856
L198.48 305.856
L202.2 305.856
L205.92 305.856
L209.64 305.856
L213.36 305.856
L217.08 305.856
L220.8 305.856
L224.52 305.856
L228.24 305.856
L231.96 305.856
L235.68 305.856
L239.4 305.856
L243.12 305.856
L246.84 305.856
L250.56 305.856
L254.28 305.856
L258 305.856
L261.72 305.856
L265.44 319.68
L269.16 319.68
L272.88 319.68
L276.6 319.68
L280.32 319.68
L284.04 319.68
L287.76 305.856
L291.48 305.856
L295.2 305.856
L298.92 305.856
L302.64 305.856
L306.36 305.856
L310.08 305.856
L313.8 292.032
L317.52 292.032
L321.24 292.032
L324.96 292.032
L328.68 292.032
L332.4 292.032
L336.12 292.032
L339.84 292.032
L343.56 292.032
L347.28 292.032
L351 292.032
L354.72 292.032
L358.44 292.032
L362.16 292.032
L365.88 292.032
L369.6 292.032
L373.32 292.032
L377.04 292.032
L380.76 292.032
L384.48 292.032
L388.2 292.032
L391.92 292.032
L395.64 292.032
L399.36 292.032
L403.08 292.032
L406.8 292.032
L410.52 292.032
L414.24 292.032
L417.96 292.032
L421.68 278.208
L425.4 278.208
L429.12 278.208
L432.84 278.208
L436.56 278.208
L440.28 278.208
L444 278.208
L447.72 292.032
L451.44 292.032
L455.16 292.032
L458.88 292.032
L462.6 292.032
L466.32 292.032
L470.04 292.032
L473.76 292.032
L477.48 305.856
L481.2 305.856" style="fill:none;stroke:#00bfbf;stroke-linecap:square;"/>
   </g>
   <g id="line2d_19">
    <path clip-path="url(#p7ff5b81e1d)" d="
M72 84.672
L75.72 84.672
L79.44 84.672
L83.16 84.672
L86.88 84.672
L90.6 84.672
L94.32 84.672
L98.04 84.672
L101.76 84.672
L105.48 84.672
L109.2 84.672
L112.92 84.672
L116.64 84.672
L120.36 84.672
L124.08 84.672
L127.8 84.672
L131.52 84.672
L135.24 84.672
L138.96 84.672
L142.68 84.672
L146.4 84.672
L150.12 84.672
L153.84 84.672
L157.56 84.672
L161.28 84.672
L165 84.672
L168.72 84.672
L172.44 84.672
L176.16 84.672
L179.88 84.672
L183.6 84.672
L187.32 84.672
L191.04 84.672
L194.76 84.672
L198.48 84.672
L202.2 84.672
L205.92 84.672
L209.64 84.672
L213.36 84.672
L217.08 84.672
L220.8 84.672
L224.52 84.672
L228.24 84.672
L231.96 84.672
L235.68 84.672
L239.4 84.672
L243.12 84.672
L246.84 84.672
L250.56 84.672
L254.28 84.672
L258 84.672
L261.72 84.672
L265.44 84.672
L269.16 84.672
L272.88 84.672
L276.6 84.672
L280.32 84.672
L284.04 84.672
L287.76 84.672
L291.48 84.672
L295.2 84.672
L298.92 84.672
L302.64 84.672
L306.36 84.672
L310.08 84.672
L313.8 84.672
L317.52 84.672
L321.24 84.672
L324.96 84.672
L328.68 84.672
L332.4 84.672
L336.12 84.672
L339.84 84.672
L343.56 84.672
L347.28 84.672
L351 84.672
L354.72 84.672
L358.44 84.672
L362.16 84.672
L365.88 84.672
L369.6 84.672
L373.32 84.672
L377.04 84.672
L380.76 84.672
L384.48 84.672
L388.2 84.672
L391.92 84.672
L395.64 84.672
L399.36 84.672
L403.08 84.672
L406.8 84.672
L410.52 84.672
L414.24 84.672
L417.96 84.672
L421.68 84.672
L425.4 84.672
L429.12 84.672
L432.84 84.672
L436.56 84.672
L440.28 84.672
L444 84.672
L447.72 84.672
L451.44 84.672
L455.16 84.672
L458.88 84.672
L462.6 84.672
L466.32 84.672
L470.04 84.672
L473.76 84.672
L477.48 84.672
L481.2 84.672" style="fill:none;stroke:#bf00bf;stroke-linecap:square;"/>
   </g>
   <g id="line2d_20">
    <path clip-path="url(#p7ff5b81e1d)" d="
M72 84.672
L75.72 84.672
L79.44 84.672
L83.16 84.672
L86.88 84.672
L90.6 84.672
L94.32 84.672
L98.04 84.672
L101.76 84.672
L105.48 84.672
L109.2 84.672
L112.92 84.672
L116.64 84.672
L120.36 84.672
L124.08 84.672
L127.8 84.672
L131.52 84.672
L135.24 84.672
L138.96 84.672
L142.68 84.672
L146.4 84.672
L150.12 84.672
L153.84 84.672
L157.56 84.672
L161.28 84.672
L165 84.672
L168.72 84.672
L172.44 84.672
L176.16 84.672
L179.88 84.672
L183.6 84.672
L187.32 84.672
L191.04 84.672
L194.76 84.672
L198.48 84.672
L202.2 84.672
L205.92 84.672
L209.64 84.672
L213.36 84.672
L217.08 84.672
L220.8 84.672
L224.52 84.672
L228.24 84.672
L231.96 84.672
L235.68 84.672
L239.4 84.672
L243.12 84.672
L246.84 84.672
L250.56 84.672
L254.28 84.672
L258 84.672
L261.72 84.672
L265.44 84.672
L269.16 84.672
L272.88 84.672
L276.6 84.672
L280.32 84.672
L284.04 84.672
L287.76 84.672
L291.48 84.672
L295.2 84.672
L298.92 84.672
L302.64 84.672
L306.36 84.672
L310.08 84.672
L313.8 84.672
L317.52 84.672
L321.24 84.672
L324.96 84.672
L328.68 84.672
L332.4 84.672
L336.12 84.672
L339.84 84.672
L343.56 84.672
L347.28 84.672
L351 84.672
L354.72 84.672
L358.44 84.672
L362.16 84.672
L365.88 84.672
L369.6 181.44
L373.32 181.44
L377.04 181.44
L380.76 181.44
L384.48 181.44
L388.2 181.44
L391.92 181.44
L395.64 181.44
L399.36 181.44
L403.08 181.44
L406.8 181.44
L410.52 167.616
L414.24 167.616
L417.96 153.792
L421.68 153.792
L425.4 153.792
L429.12 153.792
L432.84 153.792
L436.56 139.968
L440.28 139.968
L444 139.968
L447.72 139.968
L451.44 139.968
L455.16 139.968
L458.88 139.968
L462.6 139.968
L466.32 139.968
L470.04 139.968
L473.76 139.968
L477.48 139.968
L481.2 139.968" style="fill:none;stroke:#bfbf00;stroke-linecap:square;"/>
   </g>
   <g id="line2d_21">
    <path clip-path="url(#p7ff5b81e1d)" d="
M72 84.672
L75.72 84.672
L79.44 84.672
L83.16 84.672
L86.88 84.672
L90.6 84.672
L94.32 84.672
L98.04 84.672
L101.76 84.672
L105.48 84.672
L109.2 84.672
L112.92 84.672
L116.64 84.672
L120.36 84.672
L124.08 84.672
L127.8 84.672
L131.52 84.672
L135.24 84.672
L138.96 84.672
L142.68 84.672
L146.4 84.672
L150.12 84.672
L153.84 84.672
L157.56 84.672
L161.28 84.672
L165 84.672
L168.72 84.672
L172.44 84.672
L176.16 84.672
L179.88 84.672
L183.6 84.672
L187.32 84.672
L191.04 84.672
L194.76 84.672
L198.48 84.672
L202.2 84.672
L205.92 84.672
L209.64 84.672
L213.36 84.672
L217.08 84.672
L220.8 84.672
L224.52 84.672
L228.24 84.672
L231.96 84.672
L235.68 84.672
L239.4 84.672
L243.12 84.672
L246.84 84.672
L250.56 84.672
L254.28 84.672
L258 84.672
L261.72 84.672
L265.44 84.672
L269.16 84.672
L272.88 84.672
L276.6 84.672
L280.32 84.672
L284.04 84.672
L287.76 84.672
L291.48 84.672
L295.2 84.672
L298.92 84.672
L302.64 84.672
L306.36 84.672
L310.08 84.672
L313.8 84.672
L317.52 84.672
L321.24 84.672
L324.96 84.672
L328.68 84.672
L332.4 84.672
L336.12 84.672
L339.84 84.672
L343.56 84.672
L347.28 84.672
L351 84.672
L354.72 84.672
L358.44 84.672
L362.16 84.672
L365.88 84.672
L369.6 84.672
L373.32 84.672
L377.04 84.672
L380.76 84.672
L384.48 84.672
L388.2 84.672
L391.92 84.672
L395.64 84.672
L399.36 84.672
L403.08 84.672
L406.8 84.672
L410.52 84.672
L414.24 84.672
L417.96 84.672
L421.68 84.672
L425.4 84.672
L429.12 84.672
L432.84 84.672
L436.56 84.672
L440.28 84.672
L444 84.672
L447.72 84.672
L451.44 84.672
L455.16 84.672
L458.88 84.672
L462.6 84.672
L466.32 84.672
L470.04 84.672
L473.76 84.672
L477.48 84.672
L481.2 84.672" style="fill:none;stroke:#000000;stroke-linecap:square;"/>
   </g>
   <g id="matplotlib.axis_1">
    <g id="xtick_1">
     <g id="line2d_22">
      <defs>
       <path d="
M0 0
L0 -4" id="m93b0483c22" style="stroke:#000000;stroke-width:0.5;"/>
      </defs>
      <g>
       <use style="stroke:#000000;stroke-width:0.5;" x="72.0" xlink:href="#m93b0483c22" y="388.8"/>
      </g>
     </g>
     <g id="line2d_23">
      <defs>
       <path d="
M0 0
L0 4" id="m741efc42ff" style="stroke:#000000;stroke-width:0.5;"/>
      </defs>
      <g>
       <use style="stroke:#000000;stroke-width:0.5;" x="72.0" xlink:href="#m741efc42ff" y="43.2"/>
      </g>
     </g>
     <g id="text_1">
      <!-- 0 -->
      <defs>
       <path d="
M31.7812 66.4062
Q24.1719 66.4062 20.3281 58.9062
Q16.5 51.4219 16.5 36.375
Q16.5 21.3906 20.3281 13.8906
Q24.1719 6.39062 31.7812 6.39062
Q39.4531 6.39062 43.2812 13.8906
Q47.125 21.3906 47.125 36.375
Q47.125 51.4219 43.2812 58.9062
Q39.4531 66.4062 31.7812 66.4062
M31.7812 74.2188
Q44.0469 74.2188 50.5156 64.5156
Q56.9844 54.8281 56.9844 36.375
Q56.9844 17.9688 50.5156 8.26562
Q44.0469 -1.42188 31.7812 -1.42188
Q19.5312 -1.42188 13.0625 8.26562
Q6.59375 17.9688 6.59375 36.375
Q6.59375 54.8281 13.0625 64.5156
Q19.5312 74.2188 31.7812 74.2188" id="DejaVuSans-30"/>
      </defs>
      <g transform="translate(68.9765625 401.918125)scale(0.12 -0.12)">
       <use xlink:href="#DejaVuSans-30"/>
      </g>
     </g>
    </g>
    <g id="xtick_2">
     <g id="line2d_24">
      <g>
       <use style="stroke:#000000;stroke-width:0.5;" x="146.4" xlink:href="#m93b0483c22" y="388.8"/>
      </g>
     </g>
     <g id="line2d_25">
      <g>
       <use style="stroke:#000000;stroke-width:0.5;" x="146.4" xlink:href="#m741efc42ff" y="43.2"/>
      </g>
     </g>
     <g id="text_2">
      <!-- 20 -->
      <defs>
       <path d="
M19.1875 8.29688
L53.6094 8.29688
L53.6094 0
L7.32812 0
L7.32812 8.29688
Q12.9375 14.1094 22.625 23.8906
Q32.3281 33.6875 34.8125 36.5312
Q39.5469 41.8438 41.4219 45.5312
Q43.3125 49.2188 43.3125 52.7812
Q43.3125 58.5938 39.2344 62.25
Q35.1562 65.9219 28.6094 65.9219
Q23.9688 65.9219 18.8125 64.3125
Q13.6719 62.7031 7.8125 59.4219
L7.8125 69.3906
Q13.7656 71.7812 18.9375 73
Q24.125 74.2188 28.4219 74.2188
Q39.75 74.2188 46.4844 68.5469
Q53.2188 62.8906 53.2188 53.4219
Q53.2188 48.9219 51.5312 44.8906
Q49.8594 40.875 45.4062 35.4062
Q44.1875 33.9844 37.6406 27.2188
Q31.1094 20.4531 19.1875 8.29688" id="DejaVuSans-32"/>
      </defs>
      <g transform="translate(139.603125 401.918125)scale(0.12 -0.12)">
       <use xlink:href="#DejaVuSans-32"/>
       <use x="63.623046875" xlink:href="#DejaVuSans-30"/>
      </g>
     </g>
    </g>
    <g id="xtick_3">
     <g id="line2d_26">
      <g>
       <use style="stroke:#000000;stroke-width:0.5;" x="220.8" xlink:href="#m93b0483c22" y="388.8"/>
      </g>
     </g>
     <g id="line2d_27">
      <g>
       <use style="stroke:#000000;stroke-width:0.5;" x="220.8" xlink:href="#m741efc42ff" y="43.2"/>
      </g>
     </g>
     <g id="text_3">
      <!-- 40 -->
      <defs>
       <path d="
M37.7969 64.3125
L12.8906 25.3906
L37.7969 25.3906
z

M35.2031 72.9062
L47.6094 72.9062
L47.6094 25.3906
L58.0156 25.3906
L58.0156 17.1875
L47.6094 17.1875
L47.6094 0
L37.7969 0
L37.7969 17.1875
L4.89062 17.1875
L4.89062 26.7031
z
" id="DejaVuSans-34"/>
      </defs>
      <g transform="translate(213.856875 401.918125)scale(0.12 -0.12)">
       <use xlink:href="#DejaVuSans-34"/>
       <use x="63.623046875" xlink:href="#DejaVuSans-30"/>
      </g>
     </g>
    </g>
    <g id="xtick_4">
     <g id="line2d_28">
      <g>
       <use style="stroke:#000000;stroke-width:0.5;" x="295.2" xlink:href="#m93b0483c22" y="388.8"/>
      </g>
     </g>
     <g id="line2d_29">
      <g>
       <use style="stroke:#000000;stroke-width:0.5;" x="295.2" xlink:href="#m741efc42ff" y="43.2"/>
      </g>
     </g>
     <g id="text_4">
      <!-- 60 -->
      <defs>
       <path d="
M33.0156 40.375
Q26.375 40.375 22.4844 35.8281
Q18.6094 31.2969 18.6094 23.3906
Q18.6094 15.5312 22.4844 10.9531
Q26.375 6.39062 33.0156 6.39062
Q39.6562 6.39062 43.5312 10.9531
Q47.4062 15.5312 47.4062 23.3906
Q47.4062 31.2969 43.5312 35.8281
Q39.6562 40.375 33.0156 40.375
M52.5938 71.2969
L52.5938 62.3125
Q48.875 64.0625 45.0938 64.9844
Q41.3125 65.9219 37.5938 65.9219
Q27.8281 65.9219 22.6719 59.3281
Q17.5312 52.7344 16.7969 39.4062
Q19.6719 43.6562 24.0156 45.9219
Q28.375 48.1875 33.5938 48.1875
Q44.5781 48.1875 50.9531 41.5156
Q57.3281 34.8594 57.3281 23.3906
Q57.3281 12.1562 50.6875 5.35938
Q44.0469 -1.42188 33.0156 -1.42188
Q20.3594 -1.42188 13.6719 8.26562
Q6.98438 17.9688 6.98438 36.375
Q6.98438 53.6562 15.1875 63.9375
Q23.3906 74.2188 37.2031 74.2188
Q40.9219 74.2188 44.7031 73.4844
Q48.4844 72.75 52.5938 71.2969" id="DejaVuSans-36"/>
      </defs>
      <g transform="translate(288.3825 401.918125)scale(0.12 -0.12)">
       <use xlink:href="#DejaVuSans-36"/>
       <use x="63.623046875" xlink:href="#DejaVuSans-30"/>
      </g>
     </g>
    </g>
    <g id="xtick_5">
     <g id="line2d_30">
      <g>
       <use style="stroke:#000000;stroke-width:0.5;" x="369.6" xlink:href="#m93b0483c22" y="388.8"/>
      </g>
     </g>
     <g id="line2d_31">
      <g>
       <use style="stroke:#000000;stroke-width:0.5;" x="369.6" xlink:href="#m741efc42ff" y="43.2"/>
      </g>
     </g>
     <g id="text_5">
      <!-- 80 -->
      <defs>
       <path d="
M31.7812 34.625
Q24.75 34.625 20.7188 30.8594
Q16.7031 27.0938 16.7031 20.5156
Q16.7031 13.9219 20.7188 10.1562
Q24.75 6.39062 31.7812 6.39062
Q38.8125 6.39062 42.8594 10.1719
Q46.9219 13.9688 46.9219 20.5156
Q46.9219 27.0938 42.8906 30.8594
Q38.875 34.625 31.7812 34.625
M21.9219 38.8125
Q15.5781 40.375 12.0312 44.7188
Q8.5 49.0781 8.5 55.3281
Q8.5 64.0625 14.7188 69.1406
Q20.9531 74.2188 31.7812 74.2188
Q42.6719 74.2188 48.875 69.1406
Q55.0781 64.0625 55.0781 55.3281
Q55.0781 49.0781 51.5312 44.7188
Q48 40.375 41.7031 38.8125
Q48.8281 37.1562 52.7969 32.3125
Q56.7812 27.4844 56.7812 20.5156
Q56.7812 9.90625 50.3125 4.23438
Q43.8438 -1.42188 31.7812 -1.42188
Q19.7344 -1.42188 13.25 4.23438
Q6.78125 9.90625 6.78125 20.5156
Q6.78125 27.4844 10.7812 32.3125
Q14.7969 37.1562 21.9219 38.8125
M18.3125 54.3906
Q18.3125 48.7344 21.8438 45.5625
Q25.3906 42.3906 31.7812 42.3906
Q38.1406 42.3906 41.7188 45.5625
Q45.3125 48.7344 45.3125 54.3906
Q45.3125 60.0625 41.7188 63.2344
Q38.1406 66.4062 31.7812 66.4062
Q25.3906 66.4062 21.8438 63.2344
Q18.3125 60.0625 18.3125 54.3906" id="DejaVuSans-38"/>
      </defs>
      <g transform="translate(362.7703125 401.918125)scale(0.12 -0.12)">
       <use xlink:href="#DejaVuSans-38"/>
       <use x="63.623046875" xlink:href="#DejaVuSans-30"/>
      </g>
     </g>
    </g>
    <g id="xtick_6">
     <g id="line2d_32">
      <g>
       <use style="stroke:#000000;stroke-width:0.5;" x="444.0" xlink:href="#m93b0483c22" y="388.8"/>
      </g>
     </g>
     <g id="line2d_33">
      <g>
       <use style="stroke:#000000;stroke-width:0.5;" x="444.0" xlink:href="#m741efc42ff" y="43.2"/>
      </g>
     </g>
     <g id="text_6">
      <!-- 100 -->
      <defs>
       <path d="
M12.4062 8.29688
L28.5156 8.29688
L28.5156 63.9219
L10.9844 60.4062
L10.9844 69.3906
L28.4219 72.9062
L38.2812 72.9062
L38.2812 8.29688
L54.3906 8.29688
L54.3906 0
L12.4062 0
z
" id="DejaVuSans-31"/>
      </defs>
      <g transform="translate(433.605 401.918125)scale(0.12 -0.12)">
       <use xlink:href="#DejaVuSans-31"/>
       <use x="63.623046875" xlink:href="#DejaVuSans-30"/>
       <use x="127.24609375" xlink:href="#DejaVuSans-30"/>
      </g>
     </g>
    </g>
    <g id="xtick_7">
     <g id="line2d_34">
      <g>
       <use style="stroke:#000000;stroke-width:0.5;" x="518.4" xlink:href="#m93b0483c22" y="388.8"/>
      </g>
     </g>
     <g id="line2d_35">
      <g>
       <use style="stroke:#000000;stroke-width:0.5;" x="518.4" xlink:href="#m741efc42ff" y="43.2"/>
      </g>
     </g>
     <g id="text_7">
      <!-- 120 -->
      <g transform="translate(508.005 401.918125)scale(0.12 -0.12)">
       <use xlink:href="#DejaVuSans-31"/>
       <use x="63.623046875" xlink:href="#DejaVuSans-32"/>
       <use x="127.24609375" xlink:href="#DejaVuSans-30"/>
      </g>
     </g>
    </g>
   </g>
   <g id="matplotlib.axis_2">
    <g id="ytick_1">
     <g id="line2d_36">
      <defs>
       <path d="
M0 0
L4 0" id="m728421d6d4" style="stroke:#000000;stroke-width:0.5;"/>
      </defs>
      <g>
       <use style="stroke:#000000;stroke-width:0.5;" x="72.0" xlink:href="#m728421d6d4" y="388.8"/>
      </g>
     </g>
     <g id="line2d_37">
      <defs>
       <path d="
M0 0
L-4 0" id="mcb0005524f" style="stroke:#000000;stroke-width:0.5;"/>
      </defs>
      <g>
       <use style="stroke:#000000;stroke-width:0.5;" x="518.4" xlink:href="#mcb0005524f" y="388.8"/>
      </g>
     </g>
     <g id="text_8">
      <!-- 0 -->
      <g transform="translate(61.953125 392.11125)scale(0.12 -0.12)">
       <use xlink:href="#DejaVuSans-30"/>
      </g>
     </g>
    </g>
    <g id="ytick_2">
     <g id="line2d_38">
      <g>
       <use style="stroke:#000000;stroke-width:0.5;" x="72.0" xlink:href="#m728421d6d4" y="319.68"/>
      </g>
     </g>
     <g id="line2d_39">
      <g>
       <use style="stroke:#000000;stroke-width:0.5;" x="518.4" xlink:href="#mcb0005524f" y="319.68"/>
      </g>
     </g>
     <g id="text_9">
      <!-- 5 -->
      <defs>
       <path d="
M10.7969 72.9062
L49.5156 72.9062
L49.5156 64.5938
L19.8281 64.5938
L19.8281 46.7344
Q21.9688 47.4688 24.1094 47.8281
Q26.2656 48.1875 28.4219 48.1875
Q40.625 48.1875 47.75 41.5
Q54.8906 34.8125 54.8906 23.3906
Q54.8906 11.625 47.5625 5.09375
Q40.2344 -1.42188 26.9062 -1.42188
Q22.3125 -1.42188 17.5469 -0.640625
Q12.7969 0.140625 7.71875 1.70312
L7.71875 11.625
Q12.1094 9.23438 16.7969 8.0625
Q21.4844 6.89062 26.7031 6.89062
Q35.1562 6.89062 40.0781 11.3281
Q45.0156 15.7656 45.0156 23.3906
Q45.0156 31 40.0781 35.4375
Q35.1562 39.8906 26.7031 39.8906
Q22.75 39.8906 18.8125 39.0156
Q14.8906 38.1406 10.7969 36.2812
z
" id="DejaVuSans-35"/>
      </defs>
      <g transform="translate(62.339375 322.99125)scale(0.12 -0.12)">
       <use xlink:href="#DejaVuSans-35"/>
      </g>
     </g>
    </g>
    <g id="ytick_3">
     <g id="line2d_40">
      <g>
       <use style="stroke:#000000;stroke-width:0.5;" x="72.0" xlink:href="#m728421d6d4" y="250.56"/>
      </g>
     </g>
     <g id="line2d_41">
      <g>
       <use style="stroke:#000000;stroke-width:0.5;" x="518.4" xlink:href="#mcb0005524f" y="250.56"/>
      </g>
     </g>
     <g id="text_10">
      <!-- 10 -->
      <g transform="translate(54.845 253.87125)scale(0.12 -0.12)">
       <use xlink:href="#DejaVuSans-31"/>
       <use x="63.623046875" xlink:href="#DejaVuSans-30"/>
      </g>
     </g>
    </g>
    <g id="ytick_4">
     <g id="line2d_42">
      <g>
       <use style="stroke:#000000;stroke-width:0.5;" x="72.0" xlink:href="#m728421d6d4" y="181.44"/>
      </g>
     </g>
     <g id="line2d_43">
      <g>
       <use style="stroke:#000000;stroke-width:0.5;" x="518.4" xlink:href="#mcb0005524f" y="181.44"/>
      </g>
     </g>
     <g id="text_11">
      <!-- 15 -->
      <g transform="translate(55.09625 184.75125)scale(0.12 -0.12)">
       <use xlink:href="#DejaVuSans-31"/>
       <use x="63.623046875" xlink:href="#DejaVuSans-35"/>
      </g>
     </g>
    </g>
    <g id="ytick_5">
     <g id="line2d_44">
      <g>
       <use style="stroke:#000000;stroke-width:0.5;" x="72.0" xlink:href="#m728421d6d4" y="112.32"/>
      </g>
     </g>
     <g id="line2d_45">
      <g>
       <use style="stroke:#000000;stroke-width:0.5;" x="518.4" xlink:href="#mcb0005524f" y="112.32"/>
      </g>
     </g>
     <g id="text_12">
      <!-- 20 -->
      <g transform="translate(54.40625 115.63125)scale(0.12 -0.12)">
       <use xlink:href="#DejaVuSans-32"/>
       <use x="63.623046875" xlink:href="#DejaVuSans-30"/>
      </g>
     </g>
    </g>
    <g id="ytick_6">
     <g id="line2d_46">
      <g>
       <use style="stroke:#000000;stroke-width:0.5;" x="72.0" xlink:href="#m728421d6d4" y="43.2"/>
      </g>
     </g>
     <g id="line2d_47">
      <g>
       <use style="stroke:#000000;stroke-width:0.5;" x="518.4" xlink:href="#mcb0005524f" y="43.2"/>
      </g>
     </g>
     <g id="text_13">
      <!-- 25 -->
      <g transform="translate(54.6575 46.51125)scale(0.12 -0.12)">
       <use xlink:href="#DejaVuSans-32"/>
       <use x="63.623046875" xlink:href="#DejaVuSans-35"/>
      </g>
     </g>
    </g>
   </g>
   <g id="patch_3">
    <path d="
M72 43.2
L518.4 43.2" style="fill:none;stroke:#000000;"/>
   </g>
   <g id="patch_4">
    <path d="
M518.4 388.8
L518.4 43.2" style="fill:none;stroke:#000000;"/>
   </g>
   <g id="patch_5">
    <path d="
M72 388.8
L518.4 388.8" style="fill:none;stroke:#000000;"/>
   </g>
   <g id="patch_6">
    <path d="
M72 388.8
L72 43.2" style="fill:none;stroke:#000000;"/>
   </g>
  </g>
 </g>
 <defs>
  <clipPath id="p7ff5b81e1d">
   <rect height="345.6" width="446.4" x="72.0" y="43.2"/>
  </clipPath>
 </defs>
</svg>
