<?xml version="1.0" encoding="utf-8" standalone="no"?>
<!DOCTYPE svg PUBLIC "-//W3C//DTD SVG 1.1//EN"
  "http://www.w3.org/Graphics/SVG/1.1/DTD/svg11.dtd">
<!-- Created with matplotlib (http://matplotlib.org/) -->
<svg height="432pt" version="1.1" viewBox="0 0 576 432" width="576pt" xmlns="http://www.w3.org/2000/svg" xmlns:xlink="http://www.w3.org/1999/xlink">
 <defs>
  <style type="text/css">
*{stroke-linecap:butt;stroke-linejoin:round;}
  </style>
 </defs>
 <g id="figure_1">
  <g id="patch_1">
   <path d="
M0 432
L576 432
L576 0
L0 0
z
" style="fill:#ffffff;"/>
  </g>
  <g id="axes_1">
   <g id="patch_2">
    <path d="
M72 388.8
L518.4 388.8
L518.4 43.2
L72 43.2
z
" style="fill:#ffffff;"/>
   </g>
   <g id="line2d_1">
    <path clip-path="url(#p7ff5b81e1d)" d="
M72 285.12
L75.72 241.92
L79.44 207.36
L83.16 224.64
L86.88 241.92
L90.6 207.36
L94.32 207.36
L98.04 181.44
L101.76 181.44
L105.48 155.52
L109.2 155.52
L112.92 155.52
L116.64 155.52
L120.36 155.52
L124.08 138.24
L127.8 155.52
L131.52 146.88
L135.24 146.88
L138.96 138.24
L142.68 138.24
L146.4 129.6
L150.12 129.6
L153.84 129.6
L157.56 120.96
L161.28 120.96
L165 129.6
L168.72 129.6
L172.44 120.96
L176.16 112.32
L179.88 120.96
L183.6 120.96
L187.32 120.96
L191.04 129.6
L194.76 129.6
L198.48 120.96
L202.2 120.96
L205.92 120.96
L209.64 112.32
L213.36 112.32
L217.08 112.32
L220.8 112.32
L224.52 103.68
L228.24 103.68
L231.96 103.68
L235.68 103.68
L239.4 95.04
L243.12 95.04
L246.84 95.04
L250.56 95.04
L254.28 95.04
L258 95.04
L261.72 95.04
L265.44 95.04
L269.16 86.4
L272.88 86.4
L276.6 86.4
L280.32 86.4
L284.04 86.4
L287.76 86.4
L291.48 86.4
L295.2 86.4
L298.92 86.4
L302.64 86.4
L306.36 95.04
L310.08 95.04
L313.8 86.4
L317.52 95.04
L321.24 95.04
L324.96 86.4
L328.68 86.4
L332.4 86.4
L336.12 86.4
L339.84 86.4
L343.56 86.4
L347.28 86.4
L351 77.76
L354.72 77.76
L358.44 77.76
L362.16 77.76
L365.88 77.76
L369.6 77.76
L373.32 77.76
L377.04 77.76
L380.76 77.76
L384.48 77.76
L388.2 77.76
L391.92 86.4
L395.64 86.4
L399.36 86.4
L403.08 86.4
L406.8 86.4
L410.52 86.4
L414.24 77.76
L417.96 77.76
L421.68 77.76
L425.4 77.76
L429.12 77.76
L432.84 77.76
L436.56 77.76
L440.28 77.76
L444 77.76
L447.72 77.76
L451.44 77.76
L455.16 77.76
L458.88 77.76
L462.6 77.76
L466.32 77.76
L470.04 77.76
L473.76 77.76
L477.48 77.76
L481.2 77.76" style="fill:none;stroke:#0000ff;stroke-linecap:square;"/>
   </g>
   <g id="line2d_2">
    <path clip-path="url(#p7ff5b81e1d)" d="
M72 285.12
L75.72 241.92
L79.44 259.2
L83.16 216
L86.88 181.44
L90.6 198.72
L94.32 198.72
L98.04 198.72
L101.76 172.8
L105.48 172.8
L109.2 172.8
L112.92 164.16
L116.64 164.16
L120.36 164.16
L124.08 155.52
L127.8 138.24
L131.52 138.24
L135.24 138.24
L138.96 138.24
L142.68 138.24
L146.4 138.24
L150.12 138.24
L153.84 129.6
L157.56 129.6
L161.28 120.96
L165 120.96
L168.72 112.32
L172.44 120.96
L176.16 120.96
L179.88 120.96
L183.6 120.96
L187.32 120.96
L191.04 120.96
L194.76 112.32
L198.48 112.32
L202.2 112.32
L205.92 112.32
L209.64 103.68
L213.36 103.68
L217.08 103.68
L220.8 95.04
L224.52 95.04
L228.24 103.68
L231.96 103.68
L235.68 103.68
L239.4 103.68
L243.12 103.68
L246.84 95.04
L250.56 95.04
L254.28 95.04
L258 95.04
L261.72 95.04
L265.44 86.4
L269.16 86.4
L272.88 86.4
L276.6 86.4
L280.32 77.76
L284.04 77.76
L287.76 86.4
L291.48 86.4
L295.2 86.4
L298.92 86.4
L302.64 77.76
L306.36 77.76
L310.08 69.12
L313.8 77.76
L317.52 69.12
L321.24 69.12
L324.96 69.12
L328.68 69.12
L332.4 77.76
L336.12 77.76
L339.84 77.76
L343.56 77.76
L347.28 86.4
L351 86.4
L354.72 86.4
L358.44 77.76
L362.16 77.76
L365.88 77.76
L369.6 77.76
L373.32 77.76
L377.04 77.76
L380.76 77.76
L384.48 77.76
L388.2 77.76
L391.92 77.76
L395.64 77.76
L399.36 77.76
L403.08 77.76
L406.8 77.76
L410.52 77.76
L414.24 77.76
L417.96 77.76
L421.68 77.76
L425.4 77.76
L429.12 77.76
L432.84 77.76
L436.56 77.76
L440.28 77.76
L444 77.76
L447.72 77.76
L451.44 77.76
L455.16 77.76
L458.88 77.76
L462.6 77.76
L466.32 77.76
L470.04 77.76
L473.76 77.76
L477.48 77.76
L481.2 77.76" style="fill:none;stroke:#008000;stroke-linecap:square;"/>
   </g>
   <g id="line2d_3">
    <path clip-path="url(#p7ff5b81e1d)" d="
M72 285.12
L75.72 302.4
L79.44 302.4
L83.16 311.04
L86.88 285.12
L90.6 250.56
L94.32 250.56
L98.04 224.64
L101.76 224.64
L105.48 224.64
L109.2 233.28
L112.92 233.28
L116.64 233.28
L120.36 241.92
L124.08 241.92
L127.8 224.64
L131.52 216
L135.24 207.36
L138.96 207.36
L142.68 198.72
L146.4 198.72
L150.12 198.72
L153.84 198.72
L157.56 198.72
L161.28 198.72
L165 207.36
L168.72 207.36
L172.44 207.36
L176.16 207.36
L179.88 198.72
L183.6 198.72
L187.32 198.72
L191.04 198.72
L194.76 190.08
L198.48 198.72
L202.2 198.72
L205.92 198.72
L209.64 198.72
L213.36 198.72
L217.08 198.72
L220.8 198.72
L224.52 190.08
L228.24 190.08
L231.96 190.08
L235.68 190.08
L239.4 190.08
L243.12 190.08
L246.84 198.72
L250.56 198.72
L254.28 198.72
L258 198.72
L261.72 198.72
L265.44 198.72
L269.16 198.72
L272.88 198.72
L276.6 198.72
L280.32 207.36
L284.04 207.36
L287.76 198.72
L291.48 198.72
L295.2 198.72
L298.92 198.72
L302.64 198.72
L306.36 198.72
L310.08 198.72
L313.8 190.08
L317.52 181.44
L321.24 181.44
L324.96 181.44
L328.68 181.44
L332.4 172.8
L336.12 172.8
L339.84 172.8
L343.56 172.8
L347.28 172.8
L351 172.8
L354.72 172.8
L358.44 172.8
L362.16 172.8
L365.88 172.8
L369.6 172.8
L373.32 172.8
L377.04 172.8
L380.76 172.8
L384.48 172.8
L388.2 164.16
L391.92 164.16
L395.64 164.16
L399.36 164.16
L403.08 164.16
L406.8 164.16
L410.52 164.16
L414.24 155.52
L417.96 155.52
L421.68 155.52
L425.4 155.52
L429.12 155.52
L432.84 155.52
L436.56 155.52
L440.28 146.88
L444 146.88
L447.72 146.88
L451.44 146.88
L455.16 146.88
L458.88 146.88
L462.6 146.88
L466.32 146.88
L470.04 146.88
L473.76 146.88
L477.48 146.88
L481.2 146.88" style="fill:none;stroke:#ff0000;stroke-linecap:square;"/>
   </g>
   <g id="line2d_4">
    <path clip-path="url(#p7ff5b81e1d)" d="
M72 285.12
L75.72 302.4
L79.44 302.4
L83.16 250.56
L86.88 250.56
L90.6 250.56
L94.32 224.64
L98.04 241.92
L101.76 241.92
L105.48 241.92
L109.2 241.92
L112.92 241.92
L116.64 241.92
L120.36 241.92
L124.08 241.92
L127.8 241.92
L131.52 241.92
L135.24 241.92
L138.96 241.92
L142.68 216
L146.4 216
L150.12 198.72
L153.84 190.08
L157.56 198.72
L161.28 198.72
L165 181.44
L168.72 181.44
L172.44 181.44
L176.16 181.44
L179.88 164.16
L183.6 164.16
L187.32 155.52
L191.04 138.24
L194.76 138.24
L198.48 138.24
L202.2 138.24
L205.92 138.24
L209.64 138.24
L213.36 129.6
L217.08 138.24
L220.8 138.24
L224.52 138.24
L228.24 129.6
L231.96 129.6
L235.68 129.6
L239.4 129.6
L243.12 129.6
L246.84 129.6
L250.56 129.6
L254.28 120.96
L258 120.96
L261.72 112.32
L265.44 112.32
L269.16 112.32
L272.88 112.32
L276.6 112.32
L280.32 112.32
L284.04 112.32
L287.76 112.32
L291.48 112.32
L295.2 112.32
L298.92 112.32
L302.64 112.32
L306.36 112.32
L310.08 112.32
L313.8 112.32
L317.52 112.32
L321.24 112.32
L324.96 112.32
L328.68 112.32
L332.4 112.32
L336.12 112.32
L339.84 103.68
L343.56 103.68
L347.28 103.68
L351 103.68
L354.72 95.04
L358.44 95.04
L362.16 95.04
L365.88 95.04
L369.6 95.04
L373.32 95.04
L377.04 103.68
L380.76 95.04
L384.48 95.04
L388.2 95.04
L391.92 77.76
L395.64 77.76
L399.36 77.76
L403.08 77.76
L406.8 77.76
L410.52 77.76
L414.24 77.76
L417.96 77.76
L421.68 77.76
L425.4 77.76
L429.12 77.76
L432.84 77.76
L436.56 77.76
L440.28 77.76
L444 77.76
L447.72 77.76
L451.44 77.76
L455.16 77.76
L458.88 77.76
L462.6 77.76
L466.32 77.76
L470.04 77.76
L473.76 77.76
L477.48 77.76
L481.2 77.76" style="fill:none;stroke:#00bfbf;stroke-linecap:square;"/>
   </g>
   <g id="line2d_5">
    <path clip-path="url(#p7ff5b81e1d)" d="
M72 302.4
L75.72 302.4
L79.44 302.4
L83.16 302.4
L86.88 302.4
L90.6 302.4
L94.32 302.4
L98.04 302.4
L101.76 302.4
L105.48 276.48
L109.2 276.48
L112.92 267.84
L116.64 276.48
L120.36 285.12
L124.08 276.48
L127.8 276.48
L131.52 276.48
L135.24 276.48
L138.96 276.48
L142.68 276.48
L146.4 276.48
L150.12 276.48
L153.84 267.84
L157.56 267.84
L161.28 259.2
L165 259.2
L168.72 259.2
L172.44 267.84
L176.16 267.84
L179.88 276.48
L183.6 259.2
L187.32 267.84
L191.04 250.56
L194.76 250.56
L198.48 250.56
L202.2 250.56
L205.92 259.2
L209.64 259.2
L213.36 259.2
L217.08 259.2
L220.8 250.56
L224.52 250.56
L228.24 233.28
L231.96 233.28
L235.68 233.28
L239.4 233.28
L243.12 233.28
L246.84 224.64
L250.56 224.64
L254.28 224.64
L258 224.64
L261.72 224.64
L265.44 224.64
L269.16 224.64
L272.88 224.64
L276.6 224.64
L280.32 224.64
L284.04 224.64
L287.76 224.64
L291.48 224.64
L295.2 224.64
L298.92 224.64
L302.64 224.64
L306.36 224.64
L310.08 224.64
L313.8 224.64
L317.52 224.64
L321.24 224.64
L324.96 224.64
L328.68 224.64
L332.4 207.36
L336.12 207.36
L339.84 207.36
L343.56 207.36
L347.28 207.36
L351 207.36
L354.72 207.36
L358.44 207.36
L362.16 207.36
L365.88 207.36
L369.6 207.36
L373.32 207.36
L377.04 207.36
L380.76 207.36
L384.48 207.36
L388.2 216
L391.92 216
L395.64 216
L399.36 216
L403.08 216
L406.8 216
L410.52 216
L414.24 216
L417.96 216
L421.68 216
L425.4 216
L429.12 207.36
L432.84 207.36
L436.56 216
L440.28 216
L444 216
L447.72 216
L451.44 216
L455.16 216
L458.88 216
L462.6 216
L466.32 216
L470.04 216
L473.76 216
L477.48 216
L481.2 216" style="fill:none;stroke:#bf00bf;stroke-linecap:square;"/>
   </g>
   <g id="line2d_6">
    <path clip-path="url(#p7ff5b81e1d)" d="
M72 302.4
L75.72 302.4
L79.44 302.4
L83.16 302.4
L86.88 302.4
L90.6 302.4
L94.32 302.4
L98.04 302.4
L101.76 302.4
L105.48 302.4
L109.2 250.56
L112.92 250.56
L116.64 250.56
L120.36 250.56
L124.08 250.56
L127.8 250.56
L131.52 250.56
L135.24 250.56
L138.96 250.56
L142.68 250.56
L146.4 250.56
L150.12 250.56
L153.84 250.56
L157.56 250.56
L161.28 250.56
L165 250.56
L168.72 250.56
L172.44 250.56
L176.16 250.56
L179.88 250.56
L183.6 250.56
L187.32 250.56
L191.04 250.56
L194.76 250.56
L198.48 250.56
L202.2 250.56
L205.92 250.56
L209.64 250.56
L213.36 250.56
L217.08 250.56
L220.8 250.56
L224.52 250.56
L228.24 250.56
L231.96 250.56
L235.68 250.56
L239.4 250.56
L243.12 250.56
L246.84 250.56
L250.56 250.56
L254.28 250.56
L258 250.56
L261.72 250.56
L265.44 250.56
L269.16 250.56
L272.88 250.56
L276.6 250.56
L280.32 250.56
L284.04 250.56
L287.76 250.56
L291.48 250.56
L295.2 250.56
L298.92 250.56
L302.64 250.56
L306.36 250.56
L310.08 250.56
L313.8 250.56
L317.52 250.56
L321.24 250.56
L324.96 250.56
L328.68 250.56
L332.4 250.56
L336.12 250.56
L339.84 250.56
L343.56 250.56
L347.28 250.56
L351 250.56
L354.72 250.56
L358.44 250.56
L362.16 216
L365.88 216
L369.6 207.36
L373.32 207.36
L377.04 207.36
L380.76 207.36
L384.48 207.36
L388.2 207.36
L391.92 207.36
L395.64 207.36
L399.36 207.36
L403.08 207.36
L406.8 207.36
L410.52 207.36
L414.24 207.36
L417.96 198.72
L421.68 198.72
L425.4 198.72
L429.12 198.72
L432.84 198.72
L436.56 198.72
L440.28 198.72
L444 198.72
L447.72 207.36
L451.44 207.36
L455.16 207.36
L458.88 207.36
L462.6 207.36
L466.32 207.36
L470.04 207.36
L473.76 207.36
L477.48 216
L481.2 216" style="fill:none;stroke:#bfbf00;stroke-linecap:square;"/>
   </g>
   <g id="line2d_7">
    <path clip-path="url(#p7ff5b81e1d)" d="
M72 302.4
L75.72 302.4
L79.44 302.4
L83.16 302.4
L86.88 302.4
L90.6 302.4
L94.32 302.4
L98.04 302.4
L101.76 302.4
L105.48 276.48
L109.2 276.48
L112.92 267.84
L116.64 276.48
L120.36 285.12
L124.08 276.48
L127.8 276.48
L131.52 276.48
L135.24 276.48
L138.96 276.48
L142.68 276.48
L146.4 276.48
L150.12 276.48
L153.84 267.84
L157.56 267.84
L161.28 259.2
L165 259.2
L168.72 259.2
L172.44 267.84
L176.16 267.84
L179.88 276.48
L183.6 259.2
L187.32 267.84
L191.04 250.56
L194.76 250.56
L198.48 250.56
L202.2 250.56
L205.92 259.2
L209.64 259.2
L213.36 259.2
L217.08 259.2
L220.8 250.56
L224.52 250.56
L228.24 233.28
L231.96 233.28
L235.68 233.28
L239.4 233.28
L243.12 233.28
L246.84 224.64
L250.56 224.64
L254.28 224.64
L258 224.64
L261.72 224.64
L265.44 224.64
L269.16 224.64
L272.88 224.64
L276.6 224.64
L280.32 224.64
L284.04 224.64
L287.76 224.64
L291.48 224.64
L295.2 224.64
L298.92 224.64
L302.64 224.64
L306.36 224.64
L310.08 224.64
L313.8 224.64
L317.52 224.64
L321.24 224.64
L324.96 224.64
L328.68 224.64
L332.4 207.36
L336.12 207.36
L339.84 207.36
L343.56 207.36
L347.28 207.36
L351 207.36
L354.72 207.36
L358.44 207.36
L362.16 207.36
L365.88 207.36
L369.6 207.36
L373.32 207.36
L377.04 207.36
L380.76 207.36
L384.48 207.36
L388.2 216
L391.92 216
L395.64 216
L399.36 216
L403.08 216
L406.8 216
L410.52 216
L414.24 216
L417.96 216
L421.68 216
L425.4 216
L429.12 207.36
L432.84 207.36
L436.56 216
L440.28 216
L444 216
L447.72 216
L451.44 216
L455.16 216
L458.88 216
L462.6 216
L466.32 216
L470.04 216
L473.76 216
L477.48 216
L481.2 216" style="fill:none;stroke:#000000;stroke-linecap:square;"/>
   </g>
   <g id="line2d_8">
    <path clip-path="url(#p7ff5b81e1d)" d="
M72 302.4
L75.72 302.4
L79.44 302.4
L83.16 302.4
L86.88 302.4
L90.6 302.4
L94.32 302.4
L98.04 302.4
L101.76 302.4
L105.48 276.48
L109.2 276.48
L112.92 267.84
L116.64 276.48
L120.36 285.12
L124.08 276.48
L127.8 276.48
L131.52 276.48
L135.24 276.48
L138.96 276.48
L142.68 276.48
L146.4 276.48
L150.12 276.48
L153.84 267.84
L157.56 267.84
L161.28 259.2
L165 259.2
L168.72 259.2
L172.44 267.84
L176.16 267.84
L179.88 276.48
L183.6 259.2
L187.32 267.84
L191.04 250.56
L194.76 250.56
L198.48 250.56
L202.2 250.56
L205.92 259.2
L209.64 259.2
L213.36 259.2
L217.08 259.2
L220.8 250.56
L224.52 250.56
L228.24 233.28
L231.96 233.28
L235.68 233.28
L239.4 233.28
L243.12 233.28
L246.84 224.64
L250.56 224.64
L254.28 224.64
L258 224.64
L261.72 224.64
L265.44 224.64
L269.16 224.64
L272.88 224.64
L276.6 224.64
L280.32 224.64
L284.04 224.64
L287.76 224.64
L291.48 224.64
L295.2 216
L298.92 216
L302.64 216
L306.36 216
L310.08 216
L313.8 216
L317.52 216
L321.24 216
L324.96 216
L328.68 216
L332.4 207.36
L336.12 207.36
L339.84 207.36
L343.56 207.36
L347.28 207.36
L351 207.36
L354.72 207.36
L358.44 207.36
L362.16 207.36
L365.88 207.36
L369.6 207.36
L373.32 207.36
L377.04 207.36
L380.76 207.36
L384.48 207.36
L388.2 216
L391.92 216
L395.64 216
L399.36 216
L403.08 216
L406.8 216
L410.52 216
L414.24 216
L417.96 216
L421.68 216
L425.4 216
L429.12 207.36
L432.84 207.36
L436.56 216
L440.28 216
L444 216
L447.72 216
L451.44 216
L455.16 216
L458.88 216
L462.6 216
L466.32 216
L470.04 216
L473.76 216
L477.48 216
L481.2 216" style="fill:none;stroke:#0000ff;stroke-linecap:square;"/>
   </g>
   <g id="line2d_9">
    <path clip-path="url(#p7ff5b81e1d)" d="
M72 302.4
L75.72 302.4
L79.44 302.4
L83.16 302.4
L86.88 302.4
L90.6 302.4
L94.32 302.4
L98.04 302.4
L101.76 302.4
L105.48 302.4
L109.2 302.4
L112.92 302.4
L116.64 302.4
L120.36 302.4
L124.08 302.4
L127.8 302.4
L131.52 302.4
L135.24 267.84
L138.96 267.84
L142.68 267.84
L146.4 267.84
L150.12 233.28
L153.84 233.28
L157.56 216
L161.28 216
L165 216
L168.72 216
L172.44 216
L176.16 216
L179.88 216
L183.6 216
L187.32 216
L191.04 216
L194.76 216
L198.48 224.64
L202.2 224.64
L205.92 224.64
L209.64 233.28
L213.36 233.28
L217.08 233.28
L220.8 233.28
L224.52 233.28
L228.24 233.28
L231.96 233.28
L235.68 233.28
L239.4 233.28
L243.12 233.28
L246.84 233.28
L250.56 233.28
L254.28 233.28
L258 233.28
L261.72 224.64
L265.44 224.64
L269.16 224.64
L272.88 224.64
L276.6 224.64
L280.32 224.64
L284.04 224.64
L287.76 224.64
L291.48 216
L295.2 216
L298.92 216
L302.64 224.64
L306.36 224.64
L310.08 233.28
L313.8 233.28
L317.52 233.28
L321.24 233.28
L324.96 233.28
L328.68 233.28
L332.4 233.28
L336.12 233.28
L339.84 233.28
L343.56 233.28
L347.28 233.28
L351 233.28
L354.72 233.28
L358.44 233.28
L362.16 233.28
L365.88 233.28
L369.6 233.28
L373.32 233.28
L377.04 233.28
L380.76 233.28
L384.48 233.28
L388.2 233.28
L391.92 207.36
L395.64 207.36
L399.36 207.36
L403.08 207.36
L406.8 207.36
L410.52 207.36
L414.24 216
L417.96 216
L421.68 216
L425.4 216
L429.12 216
L432.84 216
L436.56 216
L440.28 216
L444 216
L447.72 216
L451.44 216
L455.16 216
L458.88 216
L462.6 216
L466.32 216
L470.04 216
L473.76 207.36
L477.48 207.36
L481.2 207.36" style="fill:none;stroke:#008000;stroke-linecap:square;"/>
   </g>
   <g id="line2d_10">
    <path clip-path="url(#p7ff5b81e1d)" d="
M72 302.4
L75.72 302.4
L79.44 250.56
L83.16 250.56
L86.88 250.56
L90.6 250.56
L94.32 250.56
L98.04 276.48
L101.76 276.48
L105.48 276.48
L109.2 293.76
L112.92 293.76
L116.64 293.76
L120.36 259.2
L124.08 259.2
L127.8 259.2
L131.52 259.2
L135.24 259.2
L138.96 259.2
L142.68 250.56
L146.4 233.28
L150.12 233.28
L153.84 233.28
L157.56 241.92
L161.28 241.92
L165 241.92
L168.72 224.64
L172.44 224.64
L176.16 224.64
L179.88 224.64
L183.6 224.64
L187.32 224.64
L191.04 224.64
L194.76 224.64
L198.48 224.64
L202.2 224.64
L205.92 233.28
L209.64 233.28
L213.36 224.64
L217.08 224.64
L220.8 224.64
L224.52 233.28
L228.24 233.28
L231.96 233.28
L235.68 224.64
L239.4 224.64
L243.12 224.64
L246.84 224.64
L250.56 224.64
L254.28 224.64
L258 224.64
L261.72 224.64
L265.44 224.64
L269.16 224.64
L272.88 224.64
L276.6 224.64
L280.32 224.64
L284.04 224.64
L287.76 224.64
L291.48 224.64
L295.2 224.64
L298.92 224.64
L302.64 224.64
L306.36 233.28
L310.08 233.28
L313.8 241.92
L317.52 241.92
L321.24 241.92
L324.96 250.56
L328.68 250.56
L332.4 250.56
L336.12 250.56
L339.84 250.56
L343.56 250.56
L347.28 250.56
L351 250.56
L354.72 250.56
L358.44 250.56
L362.16 250.56
L365.88 250.56
L369.6 250.56
L373.32 250.56
L377.04 250.56
L380.76 250.56
L384.48 250.56
L388.2 250.56
L391.92 250.56
L395.64 250.56
L399.36 250.56
L403.08 250.56
L406.8 250.56
L410.52 241.92
L414.24 241.92
L417.96 241.92
L421.68 241.92
L425.4 241.92
L429.12 241.92
L432.84 241.92
L436.56 241.92
L440.28 241.92
L444 241.92
L447.72 241.92
L451.44 241.92
L455.16 241.92
L458.88 241.92
L462.6 241.92
L466.32 241.92
L470.04 241.92
L473.76 241.92
L477.48 241.92
L481.2 241.92" style="fill:none;stroke:#ff0000;stroke-linecap:square;"/>
   </g>
   <g id="line2d_11">
    <path clip-path="url(#p7ff5b81e1d)" d="
M72 302.4
L75.72 302.4
L79.44 302.4
L83.16 302.4
L86.88 302.4
L90.6 302.4
L94.32 302.4
L98.04 302.4
L101.76 311.04
L105.48 311.04
L109.2 311.04
L112.92 293.76
L116.64 267.84
L120.36 267.84
L124.08 267.84
L127.8 276.48
L131.52 285.12
L135.24 285.12
L138.96 285.12
L142.68 285.12
L146.4 285.12
L150.12 285.12
L153.84 285.12
L157.56 285.12
L161.28 285.12
L165 285.12
L168.72 293.76
L172.44 267.84
L176.16 250.56
L179.88 250.56
L183.6 241.92
L187.32 241.92
L191.04 250.56
L194.76 250.56
L198.48 250.56
L202.2 250.56
L205.92 241.92
L209.64 241.92
L213.36 241.92
L217.08 241.92
L220.8 250.56
L224.52 250.56
L228.24 259.2
L231.96 259.2
L235.68 250.56
L239.4 250.56
L243.12 250.56
L246.84 259.2
L250.56 259.2
L254.28 259.2
L258 259.2
L261.72 259.2
L265.44 259.2
L269.16 259.2
L272.88 259.2
L276.6 259.2
L280.32 259.2
L284.04 259.2
L287.76 259.2
L291.48 259.2
L295.2 259.2
L298.92 259.2
L302.64 259.2
L306.36 259.2
L310.08 259.2
L313.8 259.2
L317.52 259.2
L321.24 259.2
L324.96 259.2
L328.68 259.2
L332.4 259.2
L336.12 259.2
L339.84 241.92
L343.56 250.56
L347.28 250.56
L351 250.56
L354.72 250.56
L358.44 241.92
L362.16 241.92
L365.88 241.92
L369.6 241.92
L373.32 233.28
L377.04 233.28
L380.76 233.28
L384.48 233.28
L388.2 233.28
L391.92 233.28
L395.64 224.64
L399.36 224.64
L403.08 224.64
L406.8 224.64
L410.52 224.64
L414.24 224.64
L417.96 224.64
L421.68 216
L425.4 216
L429.12 216
L432.84 224.64
L436.56 216
L440.28 216
L444 216
L447.72 216
L451.44 216
L455.16 216
L458.88 216
L462.6 216
L466.32 216
L470.04 216
L473.76 216
L477.48 216
L481.2 216" style="fill:none;stroke:#00bfbf;stroke-linecap:square;"/>
   </g>
   <g id="line2d_12">
    <path clip-path="url(#p7ff5b81e1d)" d="
M72 302.4
L75.72 302.4
L79.44 302.4
L83.16 302.4
L86.88 302.4
L90.6 302.4
L94.32 302.4
L98.04 302.4
L101.76 302.4
L105.48 302.4
L109.2 302.4
L112.92 302.4
L116.64 302.4
L120.36 302.4
L124.08 302.4
L127.8 302.4
L131.52 302.4
L135.24 302.4
L138.96 302.4
L142.68 302.4
L146.4 302.4
L150.12 302.4
L153.84 302.4
L157.56 302.4
L161.28 302.4
L165 302.4
L168.72 302.4
L172.44 302.4
L176.16 302.4
L179.88 302.4
L183.6 302.4
L187.32 302.4
L191.04 302.4
L194.76 302.4
L198.48 302.4
L202.2 302.4
L205.92 302.4
L209.64 302.4
L213.36 302.4
L217.08 302.4
L220.8 302.4
L224.52 302.4
L228.24 302.4
L231.96 302.4
L235.68 302.4
L239.4 302.4
L243.12 302.4
L246.84 302.4
L250.56 302.4
L254.28 302.4
L258 302.4
L261.72 302.4
L265.44 302.4
L269.16 302.4
L272.88 302.4
L276.6 302.4
L280.32 302.4
L284.04 302.4
L287.76 302.4
L291.48 302.4
L295.2 302.4
L298.92 302.4
L302.64 302.4
L306.36 302.4
L310.08 302.4
L313.8 302.4
L317.52 302.4
L321.24 302.4
L324.96 302.4
L328.68 302.4
L332.4 302.4
L336.12 302.4
L339.84 302.4
L343.56 302.4
L347.28 302.4
L351 302.4
L354.72 302.4
L358.44 302.4
L362.16 302.4
L365.88 302.4
L369.6 302.4
L373.32 302.4
L377.04 302.4
L380.76 302.4
L384.48 302.4
L388.2 302.4
L391.92 302.4
L395.64 302.4
L399.36 302.4
L403.08 302.4
L406.8 302.4
L410.52 302.4
L414.24 302.4
L417.96 302.4
L421.68 302.4
L425.4 302.4
L429.12 302.4
L432.84 302.4
L436.56 302.4
L440.28 302.4
L444 302.4
L447.72 302.4
L451.44 302.4
L455.16 302.4
L458.88 302.4
L462.6 302.4
L466.32 302.4
L470.04 302.4
L473.76 302.4
L477.48 302.4
L481.2 302.4" style="fill:none;stroke:#bf00bf;stroke-linecap:square;"/>
   </g>
   <g id="line2d_13">
    <path clip-path="url(#p7ff5b81e1d)" d="
M72 302.4
L75.72 302.4
L79.44 302.4
L83.16 302.4
L86.88 302.4
L90.6 302.4
L94.32 302.4
L98.04 302.4
L101.76 302.4
L105.48 302.4
L109.2 250.56
L112.92 250.56
L116.64 207.36
L120.36 207.36
L124.08 207.36
L127.8 207.36
L131.52 207.36
L135.24 207.36
L138.96 190.08
L142.68 190.08
L146.4 190.08
L150.12 190.08
L153.84 190.08
L157.56 190.08
L161.28 190.08
L165 190.08
L168.72 190.08
L172.44 190.08
L176.16 190.08
L179.88 190.08
L183.6 190.08
L187.32 190.08
L191.04 190.08
L194.76 190.08
L198.48 190.08
L202.2 190.08
L205.92 190.08
L209.64 190.08
L213.36 190.08
L217.08 190.08
L220.8 190.08
L224.52 190.08
L228.24 190.08
L231.96 155.52
L235.68 155.52
L239.4 138.24
L243.12 138.24
L246.84 138.24
L250.56 138.24
L254.28 138.24
L258 138.24
L261.72 138.24
L265.44 138.24
L269.16 138.24
L272.88 138.24
L276.6 129.6
L280.32 138.24
L284.04 129.6
L287.76 129.6
L291.48 129.6
L295.2 129.6
L298.92 129.6
L302.64 129.6
L306.36 129.6
L310.08 129.6
L313.8 129.6
L317.52 129.6
L321.24 129.6
L324.96 129.6
L328.68 129.6
L332.4 129.6
L336.12 112.32
L339.84 112.32
L343.56 112.32
L347.28 112.32
L351 112.32
L354.72 112.32
L358.44 112.32
L362.16 103.68
L365.88 103.68
L369.6 95.04
L373.32 95.04
L377.04 95.04
L380.76 95.04
L384.48 69.12
L388.2 69.12
L391.92 103.68
L395.64 103.68
L399.36 103.68
L403.08 103.68
L406.8 86.4
L410.52 86.4
L414.24 95.04
L417.96 95.04
L421.68 95.04
L425.4 86.4
L429.12 95.04
L432.84 95.04
L436.56 95.04
L440.28 95.04
L444 95.04
L447.72 95.04
L451.44 86.4
L455.16 86.4
L458.88 86.4
L462.6 77.76
L466.32 77.76
L470.04 77.76
L473.76 77.76
L477.48 69.12
L481.2 69.12" style="fill:none;stroke:#bfbf00;stroke-linecap:square;"/>
   </g>
   <g id="line2d_14">
    <path clip-path="url(#p7ff5b81e1d)" d="
M72 302.4
L75.72 302.4
L79.44 302.4
L83.16 302.4
L86.88 302.4
L90.6 302.4
L94.32 302.4
L98.04 302.4
L101.76 302.4
L105.48 302.4
L109.2 302.4
L112.92 302.4
L116.64 302.4
L120.36 302.4
L124.08 302.4
L127.8 302.4
L131.52 302.4
L135.24 302.4
L138.96 302.4
L142.68 302.4
L146.4 302.4
L150.12 302.4
L153.84 302.4
L157.56 302.4
L161.28 302.4
L165 302.4
L168.72 302.4
L172.44 302.4
L176.16 302.4
L179.88 302.4
L183.6 302.4
L187.32 285.12
L191.04 285.12
L194.76 285.12
L198.48 250.56
L202.2 250.56
L205.92 250.56
L209.64 250.56
L213.36 250.56
L217.08 250.56
L220.8 250.56
L224.52 250.56
L228.24 250.56
L231.96 250.56
L235.68 250.56
L239.4 250.56
L243.12 241.92
L246.84 241.92
L250.56 241.92
L254.28 241.92
L258 241.92
L261.72 241.92
L265.44 241.92
L269.16 241.92
L272.88 241.92
L276.6 241.92
L280.32 241.92
L284.04 241.92
L287.76 259.2
L291.48 259.2
L295.2 259.2
L298.92 259.2
L302.64 250.56
L306.36 250.56
L310.08 224.64
L313.8 224.64
L317.52 233.28
L321.24 233.28
L324.96 216
L328.68 216
L332.4 233.28
L336.12 233.28
L339.84 233.28
L343.56 233.28
L347.28 241.92
L351 241.92
L354.72 241.92
L358.44 241.92
L362.16 241.92
L365.88 241.92
L369.6 241.92
L373.32 241.92
L377.04 241.92
L380.76 241.92
L384.48 233.28
L388.2 233.28
L391.92 233.28
L395.64 233.28
L399.36 233.28
L403.08 233.28
L406.8 233.28
L410.52 233.28
L414.24 233.28
L417.96 233.28
L421.68 233.28
L425.4 233.28
L429.12 233.28
L432.84 233.28
L436.56 224.64
L440.28 224.64
L444 224.64
L447.72 224.64
L451.44 224.64
L455.16 224.64
L458.88 224.64
L462.6 224.64
L466.32 216
L470.04 216
L473.76 216
L477.48 216
L481.2 216" style="fill:none;stroke:#000000;stroke-linecap:square;"/>
   </g>
   <g id="line2d_15">
    <path clip-path="url(#p7ff5b81e1d)" d="
M72 302.4
L75.72 302.4
L79.44 302.4
L83.16 302.4
L86.88 302.4
L90.6 302.4
L94.32 302.4
L98.04 302.4
L101.76 302.4
L105.48 302.4
L109.2 302.4
L112.92 302.4
L116.64 302.4
L120.36 302.4
L124.08 302.4
L127.8 302.4
L131.52 302.4
L135.24 302.4
L138.96 302.4
L142.68 302.4
L146.4 302.4
L150.12 302.4
L153.84 302.4
L157.56 302.4
L161.28 302.4
L165 302.4
L168.72 302.4
L172.44 302.4
L176.16 302.4
L179.88 302.4
L183.6 302.4
L187.32 302.4
L191.04 302.4
L194.76 302.4
L198.48 302.4
L202.2 302.4
L205.92 241.92
L209.64 241.92
L213.36 241.92
L217.08 241.92
L220.8 241.92
L224.52 241.92
L228.24 241.92
L231.96 241.92
L235.68 241.92
L239.4 241.92
L243.12 241.92
L246.84 241.92
L250.56 241.92
L254.28 241.92
L258 241.92
L261.72 241.92
L265.44 241.92
L269.16 241.92
L272.88 241.92
L276.6 241.92
L280.32 241.92
L284.04 241.92
L287.76 155.52
L291.48 155.52
L295.2 155.52
L298.92 155.52
L302.64 155.52
L306.36 155.52
L310.08 155.52
L313.8 155.52
L317.52 155.52
L321.24 155.52
L324.96 155.52
L328.68 155.52
L332.4 155.52
L336.12 155.52
L339.84 155.52
L343.56 155.52
L347.28 155.52
L351 155.52
L354.72 155.52
L358.44 155.52
L362.16 164.16
L365.88 164.16
L369.6 164.16
L373.32 164.16
L377.04 164.16
L380.76 164.16
L384.48 164.16
L388.2 164.16
L391.92 164.16
L395.64 164.16
L399.36 164.16
L403.08 164.16
L406.8 181.44
L410.52 181.44
L414.24 181.44
L417.96 181.44
L421.68 181.44
L425.4 181.44
L429.12 181.44
L432.84 181.44
L436.56 181.44
L440.28 172.8
L444 172.8
L447.72 172.8
L451.44 172.8
L455.16 172.8
L458.88 172.8
L462.6 172.8
L466.32 172.8
L470.04 172.8
L473.76 172.8
L477.48 181.44
L481.2 181.44" style="fill:none;stroke:#0000ff;stroke-linecap:square;"/>
   </g>
   <g id="line2d_16">
    <path clip-path="url(#p7ff5b81e1d)" d="
M72 302.4
L75.72 302.4
L79.44 302.4
L83.16 302.4
L86.88 302.4
L90.6 302.4
L94.32 302.4
L98.04 302.4
L101.76 302.4
L105.48 302.4
L109.2 302.4
L112.92 302.4
L116.64 302.4
L120.36 302.4
L124.08 302.4
L127.8 302.4
L131.52 302.4
L135.24 302.4
L138.96 302.4
L142.68 302.4
L146.4 302.4
L150.12 302.4
L153.84 302.4
L157.56 302.4
L161.28 302.4
L165 302.4
L168.72 302.4
L172.44 302.4
L176.16 302.4
L179.88 302.4
L183.6 302.4
L187.32 302.4
L191.04 302.4
L194.76 302.4
L198.48 302.4
L202.2 302.4
L205.92 302.4
L209.64 302.4
L213.36 302.4
L217.08 302.4
L220.8 302.4
L224.52 302.4
L228.24 302.4
L231.96 302.4
L235.68 302.4
L239.4 302.4
L243.12 302.4
L246.84 302.4
L250.56 302.4
L254.28 302.4
L258 302.4
L261.72 302.4
L265.44 302.4
L269.16 302.4
L272.88 302.4
L276.6 302.4
L280.32 302.4
L284.04 302.4
L287.76 302.4
L291.48 302.4
L295.2 302.4
L298.92 302.4
L302.64 302.4
L306.36 302.4
L310.08 302.4
L313.8 302.4
L317.52 302.4
L321.24 302.4
L324.96 302.4
L328.68 302.4
L332.4 302.4
L336.12 302.4
L339.84 302.4
L343.56 302.4
L347.28 302.4
L351 302.4
L354.72 302.4
L358.44 302.4
L362.16 302.4
L365.88 302.4
L369.6 302.4
L373.32 302.4
L377.04 302.4
L380.76 302.4
L384.48 302.4
L388.2 302.4
L391.92 302.4
L395.64 302.4
L399.36 302.4
L403.08 302.4
L406.8 302.4
L410.52 302.4
L414.24 302.4
L417.96 302.4
L421.68 302.4
L425.4 302.4
L429.12 302.4
L432.84 302.4
L436.56 302.4
L440.28 302.4
L444 302.4
L447.72 302.4
L451.44 302.4
L455.16 302.4
L458.88 302.4
L462.6 302.4
L466.32 302.4
L470.04 302.4
L473.76 302.4
L477.48 302.4
L481.2 302.4" style="fill:none;stroke:#008000;stroke-linecap:square;"/>
   </g>
   <g id="line2d_17">
    <path clip-path="url(#p7ff5b81e1d)" d="
M72 302.4
L75.72 302.4
L79.44 311.04
L83.16 311.04
L86.88 336.96
L90.6 354.24
L94.32 328.32
L98.04 328.32
L101.76 302.4
L105.48 276.48
L109.2 276.48
L112.92 267.84
L116.64 276.48
L120.36 285.12
L124.08 276.48
L127.8 276.48
L131.52 276.48
L135.24 276.48
L138.96 276.48
L142.68 276.48
L146.4 276.48
L150.12 276.48
L153.84 267.84
L157.56 267.84
L161.28 259.2
L165 259.2
L168.72 259.2
L172.44 267.84
L176.16 267.84
L179.88 276.48
L183.6 259.2
L187.32 267.84
L191.04 250.56
L194.76 250.56
L198.48 250.56
L202.2 250.56
L205.92 259.2
L209.64 259.2
L213.36 259.2
L217.08 259.2
L220.8 250.56
L224.52 250.56
L228.24 233.28
L231.96 233.28
L235.68 233.28
L239.4 233.28
L243.12 233.28
L246.84 224.64
L250.56 224.64
L254.28 224.64
L258 224.64
L261.72 224.64
L265.44 224.64
L269.16 224.64
L272.88 224.64
L276.6 224.64
L280.32 224.64
L284.04 224.64
L287.76 224.64
L291.48 224.64
L295.2 224.64
L298.92 224.64
L302.64 224.64
L306.36 224.64
L310.08 224.64
L313.8 224.64
L317.52 224.64
L321.24 224.64
L324.96 224.64
L328.68 224.64
L332.4 207.36
L336.12 207.36
L339.84 207.36
L343.56 207.36
L347.28 207.36
L351 207.36
L354.72 207.36
L358.44 207.36
L362.16 207.36
L365.88 207.36
L369.6 207.36
L373.32 207.36
L377.04 207.36
L380.76 207.36
L384.48 207.36
L388.2 216
L391.92 216
L395.64 216
L399.36 216
L403.08 216
L406.8 216
L410.52 216
L414.24 216
L417.96 216
L421.68 216
L425.4 216
L429.12 207.36
L432.84 207.36
L436.56 216
L440.28 216
L444 216
L447.72 216
L451.44 216
L455.16 216
L458.88 216
L462.6 216
L466.32 216
L470.04 216
L473.76 216
L477.48 216
L481.2 216" style="fill:none;stroke:#ff0000;stroke-linecap:square;"/>
   </g>
   <g id="line2d_18">
    <path clip-path="url(#p7ff5b81e1d)" d="
M72 302.4
L75.72 302.4
L79.44 302.4
L83.16 302.4
L86.88 302.4
L90.6 302.4
L94.32 302.4
L98.04 302.4
L101.76 319.68
L105.48 319.68
L109.2 319.68
L112.92 319.68
L116.64 319.68
L120.36 276.48
L124.08 276.48
L127.8 276.48
L131.52 276.48
L135.24 276.48
L138.96 276.48
L142.68 276.48
L146.4 276.48
L150.12 276.48
L153.84 276.48
L157.56 276.48
L161.28 276.48
L165 207.36
L168.72 207.36
L172.44 207.36
L176.16 207.36
L179.88 207.36
L183.6 207.36
L187.32 207.36
L191.04 207.36
L194.76 207.36
L198.48 207.36
L202.2 216
L205.92 216
L209.64 216
L213.36 216
L217.08 216
L220.8 216
L224.52 216
L228.24 216
L231.96 216
L235.68 216
L239.4 216
L243.12 216
L246.84 216
L250.56 216
L254.28 216
L258 216
L261.72 216
L265.44 190.08
L269.16 190.08
L272.88 190.08
L276.6 190.08
L280.32 190.08
L284.04 190.08
L287.76 190.08
L291.48 190.08
L295.2 190.08
L298.92 190.08
L302.64 190.08
L306.36 190.08
L310.08 190.08
L313.8 190.08
L317.52 190.08
L321.24 190.08
L324.96 190.08
L328.68 190.08
L332.4 190.08
L336.12 190.08
L339.84 190.08
L343.56 190.08
L347.28 190.08
L351 190.08
L354.72 190.08
L358.44 190.08
L362.16 190.08
L365.88 190.08
L369.6 190.08
L373.32 198.72
L377.04 198.72
L380.76 198.72
L384.48 198.72
L388.2 198.72
L391.92 198.72
L395.64 198.72
L399.36 181.44
L403.08 181.44
L406.8 181.44
L410.52 181.44
L414.24 181.44
L417.96 181.44
L421.68 198.72
L425.4 198.72
L429.12 198.72
L432.84 198.72
L436.56 198.72
L440.28 198.72
L444 198.72
L447.72 198.72
L451.44 198.72
L455.16 198.72
L458.88 181.44
L462.6 181.44
L466.32 181.44
L470.04 181.44
L473.76 181.44
L477.48 181.44
L481.2 181.44" style="fill:none;stroke:#00bfbf;stroke-linecap:square;"/>
   </g>
   <g id="line2d_19">
    <path clip-path="url(#p7ff5b81e1d)" d="
M72 302.4
L75.72 302.4
L79.44 302.4
L83.16 302.4
L86.88 302.4
L90.6 302.4
L94.32 302.4
L98.04 302.4
L101.76 302.4
L105.48 302.4
L109.2 302.4
L112.92 302.4
L116.64 302.4
L120.36 302.4
L124.08 302.4
L127.8 302.4
L131.52 302.4
L135.24 302.4
L138.96 302.4
L142.68 302.4
L146.4 302.4
L150.12 302.4
L153.84 302.4
L157.56 302.4
L161.28 302.4
L165 302.4
L168.72 302.4
L172.44 302.4
L176.16 302.4
L179.88 302.4
L183.6 302.4
L187.32 302.4
L191.04 302.4
L194.76 302.4
L198.48 302.4
L202.2 302.4
L205.92 302.4
L209.64 302.4
L213.36 302.4
L217.08 302.4
L220.8 302.4
L224.52 302.4
L228.24 302.4
L231.96 302.4
L235.68 302.4
L239.4 302.4
L243.12 302.4
L246.84 302.4
L250.56 302.4
L254.28 302.4
L258 302.4
L261.72 302.4
L265.44 302.4
L269.16 302.4
L272.88 302.4
L276.6 302.4
L280.32 302.4
L284.04 302.4
L287.76 302.4
L291.48 302.4
L295.2 302.4
L298.92 302.4
L302.64 302.4
L306.36 302.4
L310.08 302.4
L313.8 302.4
L317.52 302.4
L321.24 302.4
L324.96 302.4
L328.68 302.4
L332.4 302.4
L336.12 302.4
L339.84 302.4
L343.56 302.4
L347.28 302.4
L351 302.4
L354.72 302.4
L358.44 302.4
L362.16 302.4
L365.88 302.4
L369.6 302.4
L373.32 302.4
L377.04 302.4
L380.76 302.4
L384.48 302.4
L388.2 302.4
L391.92 302.4
L395.64 302.4
L399.36 302.4
L403.08 302.4
L406.8 302.4
L410.52 302.4
L414.24 302.4
L417.96 302.4
L421.68 302.4
L425.4 302.4
L429.12 302.4
L432.84 302.4
L436.56 302.4
L440.28 302.4
L444 302.4
L447.72 302.4
L451.44 302.4
L455.16 302.4
L458.88 302.4
L462.6 302.4
L466.32 302.4
L470.04 302.4
L473.76 302.4
L477.48 302.4
L481.2 302.4" style="fill:none;stroke:#bf00bf;stroke-linecap:square;"/>
   </g>
   <g id="line2d_20">
    <path clip-path="url(#p7ff5b81e1d)" d="
M72 302.4
L75.72 302.4
L79.44 302.4
L83.16 302.4
L86.88 302.4
L90.6 302.4
L94.32 302.4
L98.04 302.4
L101.76 302.4
L105.48 302.4
L109.2 302.4
L112.92 302.4
L116.64 302.4
L120.36 302.4
L124.08 302.4
L127.8 302.4
L131.52 302.4
L135.24 302.4
L138.96 302.4
L142.68 302.4
L146.4 302.4
L150.12 302.4
L153.84 302.4
L157.56 302.4
L161.28 302.4
L165 302.4
L168.72 302.4
L172.44 302.4
L176.16 302.4
L179.88 302.4
L183.6 302.4
L187.32 302.4
L191.04 302.4
L194.76 302.4
L198.48 302.4
L202.2 302.4
L205.92 302.4
L209.64 302.4
L213.36 302.4
L217.08 302.4
L220.8 302.4
L224.52 302.4
L228.24 302.4
L231.96 302.4
L235.68 302.4
L239.4 302.4
L243.12 302.4
L246.84 302.4
L250.56 302.4
L254.28 302.4
L258 302.4
L261.72 302.4
L265.44 302.4
L269.16 302.4
L272.88 302.4
L276.6 302.4
L280.32 302.4
L284.04 302.4
L287.76 302.4
L291.48 302.4
L295.2 302.4
L298.92 302.4
L302.64 302.4
L306.36 302.4
L310.08 302.4
L313.8 302.4
L317.52 302.4
L321.24 302.4
L324.96 302.4
L328.68 302.4
L332.4 302.4
L336.12 302.4
L339.84 302.4
L343.56 302.4
L347.28 302.4
L351 302.4
L354.72 302.4
L358.44 302.4
L362.16 311.04
L365.88 311.04
L369.6 285.12
L373.32 285.12
L377.04 285.12
L380.76 285.12
L384.48 285.12
L388.2 285.12
L391.92 285.12
L395.64 285.12
L399.36 285.12
L403.08 285.12
L406.8 302.4
L410.52 302.4
L414.24 302.4
L417.96 302.4
L421.68 302.4
L425.4 302.4
L429.12 302.4
L432.84 302.4
L436.56 302.4
L440.28 302.4
L444 302.4
L447.72 302.4
L451.44 302.4
L455.16 302.4
L458.88 302.4
L462.6 302.4
L466.32 302.4
L470.04 302.4
L473.76 302.4
L477.48 302.4
L481.2 302.4" style="fill:none;stroke:#bfbf00;stroke-linecap:square;"/>
   </g>
   <g id="line2d_21">
    <path clip-path="url(#p7ff5b81e1d)" d="
M72 302.4
L75.72 302.4
L79.44 302.4
L83.16 302.4
L86.88 302.4
L90.6 302.4
L94.32 302.4
L98.04 302.4
L101.76 302.4
L105.48 302.4
L109.2 302.4
L112.92 302.4
L116.64 302.4
L120.36 302.4
L124.08 302.4
L127.8 302.4
L131.52 302.4
L135.24 302.4
L138.96 302.4
L142.68 302.4
L146.4 302.4
L150.12 302.4
L153.84 302.4
L157.56 302.4
L161.28 302.4
L165 302.4
L168.72 302.4
L172.44 302.4
L176.16 302.4
L179.88 302.4
L183.6 302.4
L187.32 302.4
L191.04 302.4
L194.76 302.4
L198.48 302.4
L202.2 302.4
L205.92 302.4
L209.64 302.4
L213.36 302.4
L217.08 302.4
L220.8 302.4
L224.52 302.4
L228.24 302.4
L231.96 302.4
L235.68 302.4
L239.4 302.4
L243.12 302.4
L246.84 302.4
L250.56 302.4
L254.28 302.4
L258 302.4
L261.72 302.4
L265.44 302.4
L269.16 302.4
L272.88 302.4
L276.6 302.4
L280.32 302.4
L284.04 302.4
L287.76 302.4
L291.48 302.4
L295.2 302.4
L298.92 302.4
L302.64 302.4
L306.36 302.4
L310.08 302.4
L313.8 302.4
L317.52 302.4
L321.24 302.4
L324.96 302.4
L328.68 302.4
L332.4 302.4
L336.12 302.4
L339.84 302.4
L343.56 302.4
L347.28 302.4
L351 302.4
L354.72 302.4
L358.44 302.4
L362.16 302.4
L365.88 302.4
L369.6 302.4
L373.32 302.4
L377.04 302.4
L380.76 302.4
L384.48 302.4
L388.2 302.4
L391.92 302.4
L395.64 302.4
L399.36 302.4
L403.08 302.4
L406.8 302.4
L410.52 302.4
L414.24 302.4
L417.96 302.4
L421.68 302.4
L425.4 302.4
L429.12 302.4
L432.84 302.4
L436.56 302.4
L440.28 302.4
L444 302.4
L447.72 302.4
L451.44 302.4
L455.16 302.4
L458.88 302.4
L462.6 302.4
L466.32 302.4
L470.04 302.4
L473.76 302.4
L477.48 302.4
L481.2 302.4" style="fill:none;stroke:#000000;stroke-linecap:square;"/>
   </g>
   <g id="matplotlib.axis_1">
    <g id="xtick_1">
     <g id="line2d_22">
      <defs>
       <path d="
M0 0
L0 -4" id="m93b0483c22" style="stroke:#000000;stroke-width:0.5;"/>
      </defs>
      <g>
       <use style="stroke:#000000;stroke-width:0.5;" x="72.0" xlink:href="#m93b0483c22" y="388.8"/>
      </g>
     </g>
     <g id="line2d_23">
      <defs>
       <path d="
M0 0
L0 4" id="m741efc42ff" style="stroke:#000000;stroke-width:0.5;"/>
      </defs>
      <g>
       <use style="stroke:#000000;stroke-width:0.5;" x="72.0" xlink:href="#m741efc42ff" y="43.2"/>
      </g>
     </g>
     <g id="text_1">
      <!-- 0 -->
      <defs>
       <path d="
M31.7812 66.4062
Q24.1719 66.4062 20.3281 58.9062
Q16.5 51.4219 16.5 36.375
Q16.5 21.3906 20.3281 13.8906
Q24.1719 6.39062 31.7812 6.39062
Q39.4531 6.39062 43.2812 13.8906
Q47.125 21.3906 47.125 36.375
Q47.125 51.4219 43.2812 58.9062
Q39.4531 66.4062 31.7812 66.4062
M31.7812 74.2188
Q44.0469 74.2188 50.5156 64.5156
Q56.9844 54.8281 56.9844 36.375
Q56.9844 17.9688 50.5156 8.26562
Q44.0469 -1.42188 31.7812 -1.42188
Q19.5312 -1.42188 13.0625 8.26562
Q6.59375 17.9688 6.59375 36.375
Q6.59375 54.8281 13.0625 64.5156
Q19.5312 74.2188 31.7812 74.2188" id="DejaVuSans-30"/>
      </defs>
      <g transform="translate(68.9765625 401.918125)scale(0.12 -0.12)">
       <use xlink:href="#DejaVuSans-30"/>
      </g>
     </g>
    </g>
    <g id="xtick_2">
     <g id="line2d_24">
      <g>
       <use style="stroke:#000000;stroke-width:0.5;" x="146.4" xlink:href="#m93b0483c22" y="388.8"/>
      </g>
     </g>
     <g id="line2d_25">
      <g>
       <use style="stroke:#000000;stroke-width:0.5;" x="146.4" xlink:href="#m741efc42ff" y="43.2"/>
      </g>
     </g>
     <g id="text_2">
      <!-- 20 -->
      <defs>
       <path d="
M19.1875 8.29688
L53.6094 8.29688
L53.6094 0
L7.32812 0
L7.32812 8.29688
Q12.9375 14.1094 22.625 23.8906
Q32.3281 33.6875 34.8125 36.5312
Q39.5469 41.8438 41.4219 45.5312
Q43.3125 49.2188 43.3125 52.7812
Q43.3125 58.5938 39.2344 62.25
Q35.1562 65.9219 28.6094 65.9219
Q23.9688 65.9219 18.8125 64.3125
Q13.6719 62.7031 7.8125 59.4219
L7.8125 69.3906
Q13.7656 71.7812 18.9375 73
Q24.125 74.2188 28.4219 74.2188
Q39.75 74.2188 46.4844 68.5469
Q53.2188 62.8906 53.2188 53.4219
Q53.2188 48.9219 51.5312 44.8906
Q49.8594 40.875 45.4062 35.4062
Q44.1875 33.9844 37.6406 27.2188
Q31.1094 20.4531 19.1875 8.29688" id="DejaVuSans-32"/>
      </defs>
      <g transform="translate(139.603125 401.918125)scale(0.12 -0.12)">
       <use xlink:href="#DejaVuSans-32"/>
       <use x="63.623046875" xlink:href="#DejaVuSans-30"/>
      </g>
     </g>
    </g>
    <g id="xtick_3">
     <g id="line2d_26">
      <g>
       <use style="stroke:#000000;stroke-width:0.5;" x="220.8" xlink:href="#m93b0483c22" y="388.8"/>
      </g>
     </g>
     <g id="line2d_27">
      <g>
       <use style="stroke:#000000;stroke-width:0.5;" x="220.8" xlink:href="#m741efc42ff" y="43.2"/>
      </g>
     </g>
     <g id="text_3">
      <!-- 40 -->
      <defs>
       <path d="
M37.7969 64.3125
L12.8906 25.3906
L37.7969 25.3906
z

M35.2031 72.9062
L47.6094 72.9062
L47.6094 25.3906
L58.0156 25.3906
L58.0156 17.1875
L47.6094 17.1875
L47.6094 0
L37.7969 0
L37.7969 17.1875
L4.89062 17.1875
L4.89062 26.7031
z
" id="DejaVuSans-34"/>
      </defs>
      <g transform="translate(213.856875 401.918125)scale(0.12 -0.12)">
       <use xlink:href="#DejaVuSans-34"/>
       <use x="63.623046875" xlink:href="#DejaVuSans-30"/>
      </g>
     </g>
    </g>
    <g id="xtick_4">
     <g id="line2d_28">
      <g>
       <use style="stroke:#000000;stroke-width:0.5;" x="295.2" xlink:href="#m93b0483c22" y="388.8"/>
      </g>
     </g>
     <g id="line2d_29">
      <g>
       <use style="stroke:#000000;stroke-width:0.5;" x="295.2" xlink:href="#m741efc42ff" y="43.2"/>
      </g>
     </g>
     <g id="text_4">
      <!-- 60 -->
      <defs>
       <path d="
M33.0156 40.375
Q26.375 40.375 22.4844 35.8281
Q18.6094 31.2969 18.6094 23.3906
Q18.6094 15.5312 22.4844 10.9531
Q26.375 6.39062 33.0156 6.39062
Q39.6562 6.39062 43.5312 10.9531
Q47.4062 15.5312 47.4062 23.3906
Q47.4062 31.2969 43.5312 35.8281
Q39.6562 40.375 33.0156 40.375
M52.5938 71.2969
L52.5938 62.3125
Q48.875 64.0625 45.0938 64.9844
Q41.3125 65.9219 37.5938 65.9219
Q27.8281 65.9219 22.6719 59.3281
Q17.5312 52.7344 16.7969 39.4062
Q19.6719 43.6562 24.0156 45.9219
Q28.375 48.1875 33.5938 48.1875
Q44.5781 48.1875 50.9531 41.5156
Q57.3281 34.8594 57.3281 23.3906
Q57.3281 12.1562 50.6875 5.35938
Q44.0469 -1.42188 33.0156 -1.42188
Q20.3594 -1.42188 13.6719 8.26562
Q6.98438 17.9688 6.98438 36.375
Q6.98438 53.6562 15.1875 63.9375
Q23.3906 74.2188 37.2031 74.2188
Q40.9219 74.2188 44.7031 73.4844
Q48.4844 72.75 52.5938 71.2969" id="DejaVuSans-36"/>
      </defs>
      <g transform="translate(288.3825 401.918125)scale(0.12 -0.12)">
       <use xlink:href="#DejaVuSans-36"/>
       <use x="63.623046875" xlink:href="#DejaVuSans-30"/>
      </g>
     </g>
    </g>
    <g id="xtick_5">
     <g id="line2d_30">
      <g>
       <use style="stroke:#000000;stroke-width:0.5;" x="369.6" xlink:href="#m93b0483c22" y="388.8"/>
      </g>
     </g>
     <g id="line2d_31">
      <g>
       <use style="stroke:#000000;stroke-width:0.5;" x="369.6" xlink:href="#m741efc42ff" y="43.2"/>
      </g>
     </g>
     <g id="text_5">
      <!-- 80 -->
      <defs>
       <path d="
M31.7812 34.625
Q24.75 34.625 20.7188 30.8594
Q16.7031 27.0938 16.7031 20.5156
Q16.7031 13.9219 20.7188 10.1562
Q24.75 6.39062 31.7812 6.39062
Q38.8125 6.39062 42.8594 10.1719
Q46.9219 13.9688 46.9219 20.5156
Q46.9219 27.0938 42.8906 30.8594
Q38.875 34.625 31.7812 34.625
M21.9219 38.8125
Q15.5781 40.375 12.0312 44.7188
Q8.5 49.0781 8.5 55.3281
Q8.5 64.0625 14.7188 69.1406
Q20.9531 74.2188 31.7812 74.2188
Q42.6719 74.2188 48.875 69.1406
Q55.0781 64.0625 55.0781 55.3281
Q55.0781 49.0781 51.5312 44.7188
Q48 40.375 41.7031 38.8125
Q48.8281 37.1562 52.7969 32.3125
Q56.7812 27.4844 56.7812 20.5156
Q56.7812 9.90625 50.3125 4.23438
Q43.8438 -1.42188 31.7812 -1.42188
Q19.7344 -1.42188 13.25 4.23438
Q6.78125 9.90625 6.78125 20.5156
Q6.78125 27.4844 10.7812 32.3125
Q14.7969 37.1562 21.9219 38.8125
M18.3125 54.3906
Q18.3125 48.7344 21.8438 45.5625
Q25.3906 42.3906 31.7812 42.3906
Q38.1406 42.3906 41.7188 45.5625
Q45.3125 48.7344 45.3125 54.3906
Q45.3125 60.0625 41.7188 63.2344
Q38.1406 66.4062 31.7812 66.4062
Q25.3906 66.4062 21.8438 63.2344
Q18.3125 60.0625 18.3125 54.3906" id="DejaVuSans-38"/>
      </defs>
      <g transform="translate(362.7703125 401.918125)scale(0.12 -0.12)">
       <use xlink:href="#DejaVuSans-38"/>
       <use x="63.623046875" xlink:href="#DejaVuSans-30"/>
      </g>
     </g>
    </g>
    <g id="xtick_6">
     <g id="line2d_32">
      <g>
       <use style="stroke:#000000;stroke-width:0.5;" x="444.0" xlink:href="#m93b0483c22" y="388.8"/>
      </g>
     </g>
     <g id="line2d_33">
      <g>
       <use style="stroke:#000000;stroke-width:0.5;" x="444.0" xlink:href="#m741efc42ff" y="43.2"/>
      </g>
     </g>
     <g id="text_6">
      <!-- 100 -->
      <defs>
       <path d="
M12.4062 8.29688
L28.5156 8.29688
L28.5156 63.9219
L10.9844 60.4062
L10.9844 69.3906
L28.4219 72.9062
L38.2812 72.9062
L38.2812 8.29688
L54.3906 8.29688
L54.3906 0
L12.4062 0
z
" id="DejaVuSans-31"/>
      </defs>
      <g transform="translate(433.605 401.918125)scale(0.12 -0.12)">
       <use xlink:href="#DejaVuSans-31"/>
       <use x="63.623046875" xlink:href="#DejaVuSans-30"/>
       <use x="127.24609375" xlink:href="#DejaVuSans-30"/>
      </g>
     </g>
    </g>
    <g id="xtick_7">
     <g id="line2d_34">
      <g>
       <use style="stroke:#000000;stroke-width:0.5;" x="518.4" xlink:href="#m93b0483c22" y="388.8"/>
      </g>
     </g>
     <g id="line2d_35">
      <g>
       <use style="stroke:#000000;stroke-width:0.5;" x="518.4" xlink:href="#m741efc42ff" y="43.2"/>
      </g>
     </g>
     <g id="text_7">
      <!-- 120 -->
      <g transform="translate(508.005 401.918125)scale(0.12 -0.12)">
       <use xlink:href="#DejaVuSans-31"/>
       <use x="63.623046875" xlink:href="#DejaVuSans-32"/>
       <use x="127.24609375" xlink:href="#DejaVuSans-30"/>
      </g>
     </g>
    </g>
   </g>
   <g id="matplotlib.axis_2">
    <g id="ytick_1">
     <g id="line2d_36">
      <defs>
       <path d="
M0 0
L4 0" id="m728421d6d4" style="stroke:#000000;stroke-width:0.5;"/>
      </defs>
      <g>
       <use style="stroke:#000000;stroke-width:0.5;" x="72.0" xlink:href="#m728421d6d4" y="388.8"/>
      </g>
     </g>
     <g id="line2d_37">
      <defs>
       <path d="
M0 0
L-4 0" id="mcb0005524f" style="stroke:#000000;stroke-width:0.5;"/>
      </defs>
      <g>
       <use style="stroke:#000000;stroke-width:0.5;" x="518.4" xlink:href="#mcb0005524f" y="388.8"/>
      </g>
     </g>
     <g id="text_8">
      <!-- −10 -->
      <defs>
       <path d="
M10.5938 35.5
L73.1875 35.5
L73.1875 27.2031
L10.5938 27.2031
z
" id="DejaVuSans-2212"/>
      </defs>
      <g transform="translate(44.7425 392.11125)scale(0.12 -0.12)">
       <use xlink:href="#DejaVuSans-2212"/>
       <use x="83.7890625" xlink:href="#DejaVuSans-31"/>
       <use x="147.412109375" xlink:href="#DejaVuSans-30"/>
      </g>
     </g>
    </g>
    <g id="ytick_2">
     <g id="line2d_38">
      <g>
       <use style="stroke:#000000;stroke-width:0.5;" x="72.0" xlink:href="#m728421d6d4" y="345.6"/>
      </g>
     </g>
     <g id="line2d_39">
      <g>
       <use style="stroke:#000000;stroke-width:0.5;" x="518.4" xlink:href="#mcb0005524f" y="345.6"/>
      </g>
     </g>
     <g id="text_9">
      <!-- −5 -->
      <defs>
       <path d="
M10.7969 72.9062
L49.5156 72.9062
L49.5156 64.5938
L19.8281 64.5938
L19.8281 46.7344
Q21.9688 47.4688 24.1094 47.8281
Q26.2656 48.1875 28.4219 48.1875
Q40.625 48.1875 47.75 41.5
Q54.8906 34.8125 54.8906 23.3906
Q54.8906 11.625 47.5625 5.09375
Q40.2344 -1.42188 26.9062 -1.42188
Q22.3125 -1.42188 17.5469 -0.640625
Q12.7969 0.140625 7.71875 1.70312
L7.71875 11.625
Q12.1094 9.23438 16.7969 8.0625
Q21.4844 6.89062 26.7031 6.89062
Q35.1562 6.89062 40.0781 11.3281
Q45.0156 15.7656 45.0156 23.3906
Q45.0156 31 40.0781 35.4375
Q35.1562 39.8906 26.7031 39.8906
Q22.75 39.8906 18.8125 39.0156
Q14.8906 38.1406 10.7969 36.2812
z
" id="DejaVuSans-35"/>
      </defs>
      <g transform="translate(52.62875 348.91125)scale(0.12 -0.12)">
       <use xlink:href="#DejaVuSans-2212"/>
       <use x="83.7890625" xlink:href="#DejaVuSans-35"/>
      </g>
     </g>
    </g>
    <g id="ytick_3">
     <g id="line2d_40">
      <g>
       <use style="stroke:#000000;stroke-width:0.5;" x="72.0" xlink:href="#m728421d6d4" y="302.4"/>
      </g>
     </g>
     <g id="line2d_41">
      <g>
       <use style="stroke:#000000;stroke-width:0.5;" x="518.4" xlink:href="#mcb0005524f" y="302.4"/>
      </g>
     </g>
     <g id="text_10">
      <!-- 0 -->
      <g transform="translate(61.953125 305.71125)scale(0.12 -0.12)">
       <use xlink:href="#DejaVuSans-30"/>
      </g>
     </g>
    </g>
    <g id="ytick_4">
     <g id="line2d_42">
      <g>
       <use style="stroke:#000000;stroke-width:0.5;" x="72.0" xlink:href="#m728421d6d4" y="259.2"/>
      </g>
     </g>
     <g id="line2d_43">
      <g>
       <use style="stroke:#000000;stroke-width:0.5;" x="518.4" xlink:href="#mcb0005524f" y="259.2"/>
      </g>
     </g>
     <g id="text_11">
      <!-- 5 -->
      <g transform="translate(62.339375 262.51125)scale(0.12 -0.12)">
       <use xlink:href="#DejaVuSans-35"/>
      </g>
     </g>
    </g>
    <g id="ytick_5">
     <g id="line2d_44">
      <g>
       <use style="stroke:#000000;stroke-width:0.5;" x="72.0" xlink:href="#m728421d6d4" y="216.0"/>
      </g>
     </g>
     <g id="line2d_45">
      <g>
       <use style="stroke:#000000;stroke-width:0.5;" x="518.4" xlink:href="#mcb0005524f" y="216.0"/>
      </g>
     </g>
     <g id="text_12">
      <!-- 10 -->
      <g transform="translate(54.845 219.31125)scale(0.12 -0.12)">
       <use xlink:href="#DejaVuSans-31"/>
       <use x="63.623046875" xlink:href="#DejaVuSans-30"/>
      </g>
     </g>
    </g>
    <g id="ytick_6">
     <g id="line2d_46">
      <g>
       <use style="stroke:#000000;stroke-width:0.5;" x="72.0" xlink:href="#m728421d6d4" y="172.8"/>
      </g>
     </g>
     <g id="line2d_47">
      <g>
       <use style="stroke:#000000;stroke-width:0.5;" x="518.4" xlink:href="#mcb0005524f" y="172.8"/>
      </g>
     </g>
     <g id="text_13">
      <!-- 15 -->
      <g transform="translate(55.09625 176.11125)scale(0.12 -0.12)">
       <use xlink:href="#DejaVuSans-31"/>
       <use x="63.623046875" xlink:href="#DejaVuSans-35"/>
      </g>
     </g>
    </g>
    <g id="ytick_7">
     <g id="line2d_48">
      <g>
       <use style="stroke:#000000;stroke-width:0.5;" x="72.0" xlink:href="#m728421d6d4" y="129.6"/>
      </g>
     </g>
     <g id="line2d_49">
      <g>
       <use style="stroke:#000000;stroke-width:0.5;" x="518.4" xlink:href="#mcb0005524f" y="129.6"/>
      </g>
     </g>
     <g id="text_14">
      <!-- 20 -->
      <g transform="translate(54.40625 132.91125)scale(0.12 -0.12)">
       <use xlink:href="#DejaVuSans-32"/>
       <use x="63.623046875" xlink:href="#DejaVuSans-30"/>
      </g>
     </g>
    </g>
    <g id="ytick_8">
     <g id="line2d_50">
      <g>
       <use style="stroke:#000000;stroke-width:0.5;" x="72.0" xlink:href="#m728421d6d4" y="86.4"/>
      </g>
     </g>
     <g id="line2d_51">
      <g>
       <use style="stroke:#000000;stroke-width:0.5;" x="518.4" xlink:href="#mcb0005524f" y="86.4"/>
      </g>
     </g>
     <g id="text_15">
      <!-- 25 -->
      <g transform="translate(54.6575 89.71125)scale(0.12 -0.12)">
       <use xlink:href="#DejaVuSans-32"/>
       <use x="63.623046875" xlink:href="#DejaVuSans-35"/>
      </g>
     </g>
    </g>
    <g id="ytick_9">
     <g id="line2d_52">
      <g>
       <use style="stroke:#000000;stroke-width:0.5;" x="72.0" xlink:href="#m728421d6d4" y="43.2"/>
      </g>
     </g>
     <g id="line2d_53">
      <g>
       <use style="stroke:#000000;stroke-width:0.5;" x="518.4" xlink:href="#mcb0005524f" y="43.2"/>
      </g>
     </g>
     <g id="text_16">
      <!-- 30 -->
      <defs>
       <path d="
M40.5781 39.3125
Q47.6562 37.7969 51.625 33
Q55.6094 28.2188 55.6094 21.1875
Q55.6094 10.4062 48.1875 4.48438
Q40.7656 -1.42188 27.0938 -1.42188
Q22.5156 -1.42188 17.6562 -0.515625
Q12.7969 0.390625 7.625 2.20312
L7.625 11.7188
Q11.7188 9.32812 16.5938 8.10938
Q21.4844 6.89062 26.8125 6.89062
Q36.0781 6.89062 40.9375 10.5469
Q45.7969 14.2031 45.7969 21.1875
Q45.7969 27.6406 41.2812 31.2656
Q36.7656 34.9062 28.7188 34.9062
L20.2188 34.9062
L20.2188 43.0156
L29.1094 43.0156
Q36.375 43.0156 40.2344 45.9219
Q44.0938 48.8281 44.0938 54.2969
Q44.0938 59.9062 40.1094 62.9062
Q36.1406 65.9219 28.7188 65.9219
Q24.6562 65.9219 20.0156 65.0312
Q15.375 64.1562 9.8125 62.3125
L9.8125 71.0938
Q15.4375 72.6562 20.3438 73.4375
Q25.25 74.2188 29.5938 74.2188
Q40.8281 74.2188 47.3594 69.1094
Q53.9062 64.0156 53.9062 55.3281
Q53.9062 49.2656 50.4375 45.0938
Q46.9688 40.9219 40.5781 39.3125" id="DejaVuSans-33"/>
      </defs>
      <g transform="translate(54.441875 46.51125)scale(0.12 -0.12)">
       <use xlink:href="#DejaVuSans-33"/>
       <use x="63.623046875" xlink:href="#DejaVuSans-30"/>
      </g>
     </g>
    </g>
   </g>
   <g id="patch_3">
    <path d="
M72 43.2
L518.4 43.2" style="fill:none;stroke:#000000;"/>
   </g>
   <g id="patch_4">
    <path d="
M518.4 388.8
L518.4 43.2" style="fill:none;stroke:#000000;"/>
   </g>
   <g id="patch_5">
    <path d="
M72 388.8
L518.4 388.8" style="fill:none;stroke:#000000;"/>
   </g>
   <g id="patch_6">
    <path d="
M72 388.8
L72 43.2" style="fill:none;stroke:#000000;"/>
   </g>
  </g>
 </g>
 <defs>
  <clipPath id="p7ff5b81e1d">
   <rect height="345.6" width="446.4" x="72.0" y="43.2"/>
  </clipPath>
 </defs>
</svg>
