<?xml version="1.0" encoding="utf-8" standalone="no"?>
<!DOCTYPE svg PUBLIC "-//W3C//DTD SVG 1.1//EN"
  "http://www.w3.org/Graphics/SVG/1.1/DTD/svg11.dtd">
<!-- Created with matplotlib (http://matplotlib.org/) -->
<svg height="432pt" version="1.1" viewBox="0 0 576 432" width="576pt" xmlns="http://www.w3.org/2000/svg" xmlns:xlink="http://www.w3.org/1999/xlink">
 <defs>
  <style type="text/css">
*{stroke-linecap:butt;stroke-linejoin:round;}
  </style>
 </defs>
 <g id="figure_1">
  <g id="patch_1">
   <path d="
M0 432
L576 432
L576 0
L0 0
z
" style="fill:#ffffff;"/>
  </g>
  <g id="axes_1">
   <g id="patch_2">
    <path d="
M72 388.8
L518.4 388.8
L518.4 43.2
L72 43.2
z
" style="fill:#ffffff;"/>
   </g>
   <g id="PolyCollection_1">
    <defs>
     <path d="
M72 -166.826
L72 -314.545
L75.72 -341.996
L79.44 -365.694
L83.16 -326.789
L86.88 -296.673
L90.6 -320.075
L94.32 -320.075
L98.04 -343.872
L101.76 -343.872
L105.48 -353.055
L109.2 -353.055
L112.92 -348.217
L116.64 -348.217
L120.36 -348.217
L124.08 -349.5
L127.8 -329.752
L131.52 -336.763
L135.24 -336.763
L138.96 -339.922
L142.68 -332.319
L146.4 -332.714
L150.12 -326.493
L153.84 -326.493
L157.56 -332.615
L161.28 -332.615
L165 -318.89
L168.72 -318.89
L172.44 -331.628
L176.16 -334.393
L179.88 -324.716
L183.6 -324.716
L187.32 -324.716
L191.04 -310.991
L194.76 -304.375
L198.48 -309.806
L202.2 -312.373
L205.92 -312.373
L209.64 -316.915
L213.36 -315.138
L217.08 -317.804
L220.8 -317.804
L224.52 -324.123
L228.24 -324.123
L231.96 -326.888
L235.68 -326.888
L239.4 -327.678
L243.12 -327.678
L246.84 -327.678
L250.56 -329.357
L254.28 -332.912
L258 -329.554
L261.72 -329.554
L265.44 -328.073
L269.16 -329.851
L272.88 -330.64
L276.6 -330.64
L280.32 -330.64
L284.04 -330.64
L287.76 -330.64
L291.48 -330.64
L295.2 -330.64
L298.92 -330.64
L302.64 -330.64
L306.36 -324.321
L310.08 -318.989
L313.8 -324.518
L317.52 -319.285
L321.24 -318.89
L324.96 -324.518
L328.68 -323.136
L332.4 -323.136
L336.12 -323.136
L339.84 -323.136
L343.56 -323.136
L347.28 -326.789
L351 -327.678
L354.72 -327.678
L358.44 -327.678
L362.16 -327.678
L365.88 -330.344
L369.6 -330.344
L373.32 -330.344
L377.04 -333.109
L380.76 -333.109
L384.48 -329.949
L388.2 -325.802
L391.92 -315.632
L395.64 -315.632
L399.36 -315.632
L403.08 -315.632
L406.8 -315.632
L410.52 -317.508
L414.24 -322.247
L417.96 -322.247
L421.68 -322.247
L425.4 -322.247
L429.12 -322.247
L432.84 -322.247
L436.56 -322.247
L440.28 -322.247
L444 -322.247
L447.72 -322.247
L451.44 -322.247
L455.16 -322.247
L458.88 -322.247
L462.6 -322.247
L466.32 -322.247
L470.04 -321.951
L473.76 -321.951
L477.48 -321.951
L481.2 -323.827
L481.2 -289.86
L481.2 -289.86
L477.48 -287.786
L473.76 -287.786
L470.04 -287.786
L466.32 -287.49
L462.6 -287.49
L458.88 -287.49
L455.16 -287.49
L451.44 -287.49
L447.72 -287.49
L444 -287.49
L440.28 -287.49
L436.56 -287.49
L432.84 -287.49
L429.12 -287.49
L425.4 -287.49
L421.68 -287.49
L417.96 -287.49
L414.24 -287.49
L410.52 -282.355
L406.8 -280.282
L403.08 -280.282
L399.36 -280.282
L395.64 -280.282
L391.92 -280.282
L388.2 -289.86
L384.48 -293.612
L380.76 -296.377
L377.04 -296.377
L373.32 -293.217
L369.6 -293.217
L365.88 -293.217
L362.16 -289.958
L358.44 -289.958
L354.72 -289.958
L351 -289.958
L347.28 -288.872
L343.56 -284.626
L339.84 -284.626
L336.12 -284.626
L332.4 -284.626
L328.68 -284.626
L324.96 -285.219
L321.24 -278.998
L317.52 -278.603
L313.8 -283.244
L310.08 -276.924
L306.36 -281.467
L302.64 -286.996
L298.92 -286.996
L295.2 -286.996
L291.48 -286.996
L287.76 -286.996
L284.04 -286.996
L280.32 -286.996
L276.6 -286.996
L272.88 -286.996
L269.16 -285.811
L265.44 -283.639
L261.72 -284.133
L258 -284.133
L254.28 -286.7
L250.56 -282.355
L246.84 -280.084
L243.12 -280.084
L239.4 -280.084
L235.68 -278.899
L231.96 -278.899
L228.24 -275.739
L224.52 -275.739
L220.8 -268.235
L217.08 -268.235
L213.36 -264.976
L209.64 -265.174
L205.92 -259.842
L202.2 -259.842
L198.48 -256.485
L194.76 -250.066
L191.04 -255.3
L187.32 -267.248
L183.6 -267.248
L179.88 -267.248
L176.16 -275.344
L172.44 -270.21
L168.72 -255.3
L165 -255.3
L161.28 -267.248
L157.56 -267.248
L153.84 -259.546
L150.12 -259.546
L146.4 -263.199
L142.68 -259.644
L138.96 -263.89
L135.24 -259.151
L131.52 -259.151
L127.8 -250.363
L124.08 -266.161
L120.36 -259.546
L116.64 -259.546
L112.92 -259.546
L109.2 -258.657
L105.48 -258.657
L101.76 -242.167
L98.04 -242.167
L94.32 -212.643
L90.6 -212.643
L86.88 -182.724
L83.16 -205.928
L79.44 -236.144
L75.72 -204.546
L72 -166.826
z
" id="C0_0_a96b343e50"/>
    </defs>
    <g clip-path="url(#p7ff5b81e1d)">
     <use style="fill:#0000ff;fill-opacity:0.25;stroke:#0000ff;stroke-opacity:0.25;" x="0.0" xlink:href="#C0_0_a96b343e50" y="432.0"/>
    </g>
   </g>
   <g id="PolyCollection_2">
    <defs>
     <path d="
M72 -166.826
L72 -314.545
L75.72 -341.996
L79.44 -310.398
L83.16 -340.613
L86.88 -363.818
L90.6 -334.886
L94.32 -334.886
L98.04 -334.886
L101.76 -354.24
L105.48 -337.552
L109.2 -337.552
L112.92 -336.664
L116.64 -336.664
L120.36 -336.664
L124.08 -329.949
L127.8 -345.748
L131.52 -345.748
L135.24 -341.008
L138.96 -336.368
L142.68 -336.368
L146.4 -331.628
L150.12 -331.628
L153.84 -331.924
L157.56 -331.924
L161.28 -338.836
L165 -338.836
L168.72 -343.181
L172.44 -327.184
L176.16 -322.05
L179.88 -322.05
L183.6 -322.05
L187.32 -322.05
L191.04 -322.05
L194.76 -328.172
L198.48 -328.172
L202.2 -331.628
L205.92 -331.628
L209.64 -336.861
L213.36 -336.861
L217.08 -340.317
L220.8 -343.675
L224.52 -343.675
L228.24 -331.035
L231.96 -327.777
L235.68 -327.777
L239.4 -327.777
L243.12 -330.048
L246.84 -332.615
L250.56 -334.294
L254.28 -329.949
L258 -332.418
L261.72 -332.418
L265.44 -332.912
L269.16 -335.578
L272.88 -336.368
L276.6 -336.368
L280.32 -340.021
L284.04 -340.811
L287.76 -334.689
L291.48 -335.479
L295.2 -334.195
L298.92 -334.195
L302.64 -336.861
L306.36 -342.49
L310.08 -347.032
L313.8 -340.811
L317.52 -344.464
L321.24 -344.069
L324.96 -338.836
L328.68 -339.527
L332.4 -329.258
L336.12 -329.258
L339.84 -326
L343.56 -326
L347.28 -322.84
L351 -320.766
L354.72 -320.766
L358.44 -322.544
L362.16 -322.544
L365.88 -322.544
L369.6 -322.544
L373.32 -322.544
L377.04 -322.544
L380.76 -322.544
L384.48 -322.544
L388.2 -322.544
L391.92 -322.544
L395.64 -322.544
L399.36 -322.544
L403.08 -322.544
L406.8 -322.544
L410.52 -322.544
L414.24 -322.544
L417.96 -322.544
L421.68 -322.544
L425.4 -322.544
L429.12 -322.544
L432.84 -322.544
L436.56 -322.544
L440.28 -322.544
L444 -322.544
L447.72 -322.544
L451.44 -322.544
L455.16 -322.544
L458.88 -322.544
L462.6 -322.544
L466.32 -322.544
L470.04 -322.544
L473.76 -322.544
L477.48 -322.544
L481.2 -322.544
L481.2 -287.194
L481.2 -287.194
L477.48 -287.194
L473.76 -287.194
L470.04 -287.194
L466.32 -287.194
L462.6 -287.194
L458.88 -287.194
L455.16 -287.194
L451.44 -287.194
L447.72 -287.194
L444 -287.194
L440.28 -287.194
L436.56 -287.194
L432.84 -287.194
L429.12 -287.194
L425.4 -287.194
L421.68 -287.194
L417.96 -287.194
L414.24 -287.194
L410.52 -287.194
L406.8 -287.194
L403.08 -287.194
L399.36 -287.194
L395.64 -287.194
L391.92 -287.194
L388.2 -287.194
L384.48 -287.194
L380.76 -287.194
L377.04 -287.194
L373.32 -287.194
L369.6 -287.194
L365.88 -287.194
L362.16 -287.194
L358.44 -287.194
L354.72 -285.021
L351 -285.021
L347.28 -286.897
L343.56 -289.662
L339.84 -289.662
L336.12 -292.328
L332.4 -292.328
L328.68 -301.808
L324.96 -300.524
L321.24 -305.165
L317.52 -304.77
L313.8 -300.524
L310.08 -306.152
L306.36 -300.82
L302.64 -294.599
L298.92 -291.341
L295.2 -291.341
L291.48 -292.032
L287.76 -290.847
L284.04 -296.574
L280.32 -295.389
L276.6 -291.143
L272.88 -291.143
L269.16 -289.958
L265.44 -286.7
L261.72 -285.219
L258 -285.219
L254.28 -281.763
L250.56 -285.317
L246.84 -283.046
L243.12 -279.689
L239.4 -276.036
L235.68 -276.036
L231.96 -276.036
L228.24 -278.702
L224.52 -289.761
L220.8 -289.761
L217.08 -285.219
L213.36 -280.775
L209.64 -280.775
L205.92 -274.16
L202.2 -274.16
L198.48 -269.716
L194.76 -269.716
L191.04 -262.014
L187.32 -262.014
L183.6 -262.014
L179.88 -262.014
L176.16 -262.014
L172.44 -264.779
L168.72 -278.405
L165 -272.876
L161.28 -272.876
L157.56 -263.989
L153.84 -263.989
L150.12 -260.336
L146.4 -260.336
L142.68 -261.52
L138.96 -261.52
L135.24 -264.779
L131.52 -265.964
L127.8 -265.964
L124.08 -246.215
L120.36 -247.4
L116.64 -247.4
L112.92 -247.4
L109.2 -242.562
L105.48 -242.562
L101.76 -251.547
L98.04 -227.454
L94.32 -227.454
L90.6 -227.454
L86.88 -249.869
L83.16 -219.752
L79.44 -180.848
L75.72 -204.546
L72 -166.826
z
" id="C1_0_f88cd7ef5d"/>
    </defs>
    <g clip-path="url(#p7ff5b81e1d)">
     <use style="fill:#008000;fill-opacity:0.25;stroke:#008000;stroke-opacity:0.25;" x="0.0" xlink:href="#C1_0_f88cd7ef5d" y="432.0"/>
    </g>
   </g>
   <g id="PolyCollection_3">
    <defs>
     <path d="
M72 -166.826
L72 -314.545
L75.72 -276.826
L79.44 -276.826
L83.16 -232.095
L86.88 -257.669
L90.6 -282.553
L94.32 -267.248
L98.04 -290.255
L101.76 -290.255
L105.48 -275.048
L109.2 -261.915
L112.92 -261.915
L116.64 -249.671
L120.36 -235.354
L124.08 -235.354
L127.8 -251.152
L131.52 -258.163
L135.24 -258.361
L138.96 -258.361
L142.68 -263.792
L146.4 -263.792
L150.12 -256.386
L153.84 -252.831
L157.56 -252.831
L161.28 -245.03
L165 -231.404
L168.72 -231.404
L172.44 -231.404
L176.16 -231.404
L179.88 -241.179
L183.6 -232.589
L187.32 -232.589
L191.04 -232.589
L194.76 -237.723
L198.48 -230.219
L202.2 -225.776
L205.92 -225.776
L209.64 -225.776
L213.36 -224.887
L217.08 -224.887
L220.8 -219.456
L224.52 -226.763
L228.24 -226.763
L231.96 -226.763
L235.68 -223.998
L239.4 -221.826
L243.12 -221.826
L246.84 -218.567
L250.56 -216.197
L254.28 -211.853
L258 -208.496
L261.72 -205.237
L265.44 -205.237
L269.16 -205.237
L272.88 -203.065
L276.6 -203.065
L280.32 -198.819
L284.04 -197.634
L287.76 -203.361
L291.48 -202.176
L295.2 -202.867
L298.92 -202.867
L302.64 -199.609
L306.36 -205.237
L310.08 -205.237
L313.8 -210.767
L317.52 -215.408
L321.24 -215.013
L324.96 -215.013
L328.68 -213.63
L332.4 -223.109
L336.12 -224.986
L339.84 -220.74
L343.56 -220.74
L347.28 -224.492
L351 -224.492
L354.72 -222.32
L358.44 -222.32
L362.16 -222.32
L365.88 -220.147
L369.6 -220.147
L373.32 -220.147
L377.04 -222.912
L380.76 -220.838
L384.48 -220.838
L388.2 -224.492
L391.92 -224.492
L395.64 -227.257
L399.36 -228.145
L403.08 -226.96
L406.8 -226.96
L410.52 -226.96
L414.24 -230.713
L417.96 -230.713
L421.68 -230.713
L425.4 -230.713
L429.12 -233.477
L432.84 -236.242
L436.56 -236.242
L440.28 -237.032
L444 -235.946
L447.72 -238.908
L451.44 -238.908
L455.16 -238.908
L458.88 -238.908
L462.6 -236.835
L466.32 -236.835
L470.04 -236.637
L473.76 -238.415
L477.48 -240.291
L481.2 -238.217
L481.2 -207.607
L481.2 -207.607
L477.48 -209.483
L473.76 -207.409
L470.04 -205.237
L466.32 -205.04
L462.6 -205.04
L458.88 -206.916
L455.16 -206.916
L451.44 -206.916
L447.72 -206.916
L444 -203.953
L440.28 -204.842
L436.56 -203.657
L432.84 -203.657
L429.12 -200.497
L425.4 -197.338
L421.68 -197.338
L417.96 -197.338
L414.24 -197.338
L410.52 -193.19
L406.8 -193.19
L403.08 -193.19
L399.36 -193.98
L395.64 -192.894
L391.92 -189.734
L388.2 -189.734
L384.48 -185.488
L380.76 -185.488
L377.04 -187.365
L373.32 -184.205
L369.6 -184.205
L365.88 -184.205
L362.16 -185.982
L358.44 -185.982
L354.72 -185.982
L351 -187.76
L347.28 -187.76
L343.56 -183.612
L339.84 -183.612
L336.12 -187.266
L332.4 -185.192
L328.68 -174.923
L324.96 -175.515
L321.24 -175.515
L317.52 -175.12
L313.8 -169.887
L310.08 -163.568
L306.36 -163.568
L302.64 -157.347
L298.92 -160.013
L295.2 -160.013
L291.48 -158.729
L287.76 -159.519
L284.04 -153.397
L280.32 -154.187
L276.6 -157.84
L272.88 -157.84
L269.16 -159.618
L265.44 -159.618
L261.72 -159.618
L258 -162.284
L254.28 -164.851
L250.56 -168.406
L246.84 -169.986
L243.12 -172.652
L239.4 -172.652
L235.68 -174.429
L231.96 -175.614
L228.24 -175.614
L224.52 -175.614
L220.8 -167.122
L217.08 -171.566
L213.36 -171.566
L209.64 -170.677
L205.92 -170.677
L202.2 -170.677
L198.48 -174.133
L194.76 -180.453
L191.04 -173.738
L187.32 -173.738
L183.6 -173.738
L179.88 -180.946
L176.16 -168.998
L172.44 -168.998
L168.72 -168.998
L165 -168.998
L161.28 -181.045
L157.56 -187.068
L153.84 -187.068
L150.12 -187.463
L146.4 -191.907
L142.68 -191.907
L138.96 -183.514
L135.24 -183.514
L131.52 -179.761
L127.8 -170.973
L124.08 -151.225
L120.36 -151.225
L116.64 -162.58
L112.92 -172.059
L109.2 -172.059
L105.48 -182.625
L101.76 -191.117
L98.04 -191.117
L94.32 -162.778
L90.6 -171.171
L86.88 -138.783
L83.16 -105.112
L79.44 -139.376
L75.72 -139.376
L72 -166.826
z
" id="C2_0_bde29735e0"/>
    </defs>
    <g clip-path="url(#p7ff5b81e1d)">
     <use style="fill:#ff0000;fill-opacity:0.25;stroke:#ff0000;stroke-opacity:0.25;" x="0.0" xlink:href="#C2_0_bde29735e0" y="432.0"/>
    </g>
   </g>
   <g id="PolyCollection_4">
    <defs>
     <path d="
M72 -166.826
L72 -314.545
L75.72 -276.826
L79.44 -276.826
L83.16 -310.102
L86.88 -310.102
L90.6 -310.102
L94.32 -320.766
L98.04 -285.416
L101.76 -285.416
L105.48 -285.416
L109.2 -285.416
L112.92 -285.416
L116.64 -285.416
L120.36 -285.416
L124.08 -285.416
L127.8 -285.416
L131.52 -285.416
L135.24 -285.416
L138.96 -285.416
L142.68 -294.303
L146.4 -285.317
L150.12 -290.156
L153.84 -283.244
L157.56 -273.073
L161.28 -273.073
L165 -288.28
L168.72 -288.28
L172.44 -288.28
L176.16 -288.28
L179.88 -301.511
L183.6 -301.511
L187.32 -304.77
L191.04 -321.951
L194.76 -321.951
L198.48 -321.951
L202.2 -321.951
L205.92 -321.951
L209.64 -314.15
L213.36 -313.657
L217.08 -308.127
L220.8 -308.127
L224.52 -298.253
L228.24 -311.089
L231.96 -311.089
L235.68 -311.089
L239.4 -307.831
L243.12 -303.98
L246.84 -303.98
L250.56 -301.61
L254.28 -305.955
L258 -309.411
L261.72 -312.965
L265.44 -311.386
L269.16 -308.127
L272.88 -305.856
L276.6 -305.856
L280.32 -310.398
L284.04 -309.312
L287.76 -309.312
L291.48 -309.312
L295.2 -309.312
L298.92 -309.312
L302.64 -309.312
L306.36 -309.312
L310.08 -309.312
L313.8 -309.312
L317.52 -309.312
L321.24 -309.312
L324.96 -309.312
L328.68 -309.312
L332.4 -309.312
L336.12 -309.312
L339.84 -313.558
L343.56 -315.335
L347.28 -315.335
L351 -317.014
L354.72 -318.693
L358.44 -318.693
L362.16 -318.693
L365.88 -318.693
L369.6 -318.693
L373.32 -318.693
L377.04 -314.447
L380.76 -317.014
L384.48 -317.014
L388.2 -321.556
L391.92 -334.096
L395.64 -334.096
L399.36 -334.096
L403.08 -334.096
L406.8 -334.096
L410.52 -331.825
L414.24 -331.825
L417.96 -331.825
L421.68 -331.825
L425.4 -331.825
L429.12 -331.825
L432.84 -331.825
L436.56 -331.825
L440.28 -331.825
L444 -333.603
L447.72 -337.355
L451.44 -337.355
L455.16 -337.355
L458.88 -337.355
L462.6 -337.355
L466.32 -337.355
L470.04 -336.071
L473.76 -332.714
L477.48 -332.714
L481.2 -332.714
L481.2 -294.797
L481.2 -294.797
L477.48 -294.797
L473.76 -294.797
L470.04 -297.364
L466.32 -298.055
L462.6 -298.055
L458.88 -298.055
L455.16 -298.055
L451.44 -298.055
L447.72 -298.055
L444 -293.908
L440.28 -291.736
L436.56 -291.736
L432.84 -291.736
L429.12 -291.736
L425.4 -291.736
L421.68 -291.736
L417.96 -291.736
L414.24 -291.736
L410.52 -291.736
L406.8 -293.414
L403.08 -293.414
L399.36 -293.414
L395.64 -293.414
L391.92 -293.414
L388.2 -280.282
L384.48 -274.949
L380.76 -274.949
L377.04 -271.592
L373.32 -275.246
L369.6 -275.246
L365.88 -275.246
L362.16 -275.246
L358.44 -275.246
L354.72 -275.246
L351 -272.975
L347.28 -270.704
L343.56 -270.704
L339.84 -268.531
L336.12 -262.903
L332.4 -262.903
L328.68 -262.903
L324.96 -262.903
L321.24 -262.903
L317.52 -262.903
L313.8 -262.903
L310.08 -262.903
L306.36 -262.903
L302.64 -262.903
L298.92 -262.903
L295.2 -262.903
L291.48 -262.903
L287.76 -262.903
L284.04 -262.903
L280.32 -263.792
L276.6 -258.459
L272.88 -258.459
L269.16 -260.138
L265.44 -262.804
L261.72 -263.199
L258 -258.854
L254.28 -254.411
L250.56 -248.881
L246.84 -250.461
L243.12 -250.461
L239.4 -252.535
L235.68 -255.201
L231.96 -255.201
L228.24 -255.201
L224.52 -240.389
L220.8 -248.289
L217.08 -248.289
L213.36 -252.634
L209.64 -250.165
L205.92 -256.188
L202.2 -256.188
L198.48 -256.188
L194.76 -256.188
L191.04 -256.188
L187.32 -235.847
L183.6 -231.206
L179.88 -231.206
L176.16 -214.815
L172.44 -214.815
L168.72 -214.815
L165 -214.815
L161.28 -196.449
L157.56 -196.449
L153.84 -204.052
L150.12 -205.04
L146.4 -194.079
L142.68 -194.968
L138.96 -176.207
L135.24 -176.207
L131.52 -176.207
L127.8 -176.207
L124.08 -176.207
L120.36 -176.207
L116.64 -176.207
L112.92 -176.207
L109.2 -176.207
L105.48 -176.207
L101.76 -176.207
L98.04 -176.207
L94.32 -204.052
L90.6 -183.119
L86.88 -183.119
L83.16 -183.119
L79.44 -139.376
L75.72 -139.376
L72 -166.826
z
" id="C3_0_5be32523d7"/>
    </defs>
    <g clip-path="url(#p7ff5b81e1d)">
     <use style="fill:#00bfbf;fill-opacity:0.25;stroke:#00bfbf;stroke-opacity:0.25;" x="0.0" xlink:href="#C3_0_5be32523d7" y="432.0"/>
    </g>
   </g>
   <g id="PolyCollection_5">
    <defs>
     <path d="
M72 -158.433
L72 -322.939
L75.72 -322.939
L79.44 -322.939
L83.16 -322.939
L86.88 -322.939
L90.6 -322.939
L94.32 -284.626
L98.04 -284.626
L101.76 -241.574
L105.48 -241.574
L109.2 -241.574
L112.92 -236.835
L116.64 -251.646
L120.36 -251.646
L124.08 -239.698
L127.8 -211.754
L131.52 -200.399
L135.24 -200.399
L138.96 -200.399
L142.68 -200.399
L146.4 -200.399
L150.12 -200.399
L153.84 -200.399
L157.56 -200.399
L161.28 -185.291
L165 -185.291
L168.72 -176.997
L172.44 -197.338
L176.16 -200.004
L179.88 -200.004
L183.6 -210.47
L187.32 -205.829
L191.04 -185.587
L194.76 -185.587
L198.48 -185.587
L202.2 -185.587
L205.92 -191.808
L209.64 -191.808
L213.36 -191.808
L217.08 -191.808
L220.8 -184.995
L224.52 -184.995
L228.24 -167.912
L231.96 -167.912
L235.68 -169.69
L239.4 -169.69
L243.12 -169.69
L246.84 -165.147
L250.56 -165.147
L254.28 -165.147
L258 -165.147
L261.72 -165.147
L265.44 -165.147
L269.16 -165.147
L272.88 -165.147
L276.6 -165.147
L280.32 -165.147
L284.04 -165.147
L287.76 -165.147
L291.48 -165.147
L295.2 -165.147
L298.92 -165.147
L302.64 -165.147
L306.36 -165.147
L310.08 -165.147
L313.8 -165.147
L317.52 -165.147
L321.24 -165.147
L324.96 -165.147
L328.68 -165.147
L332.4 -165.147
L336.12 -165.147
L339.84 -171.961
L343.56 -168.505
L347.28 -168.505
L351 -168.505
L354.72 -165.049
L358.44 -167.616
L362.16 -167.616
L365.88 -171.961
L369.6 -171.961
L373.32 -177.194
L377.04 -177.194
L380.76 -172.751
L384.48 -172.751
L388.2 -172.751
L391.92 -172.751
L395.64 -177.194
L399.36 -177.194
L403.08 -179.465
L406.8 -179.465
L410.52 -179.465
L414.24 -179.465
L417.96 -179.465
L421.68 -186.081
L425.4 -182.921
L429.12 -182.921
L432.84 -177.589
L436.56 -180.156
L440.28 -181.736
L444 -178.478
L447.72 -178.478
L451.44 -178.478
L455.16 -177.392
L458.88 -174.133
L462.6 -175.91
L466.32 -177.589
L470.04 -177.589
L473.76 -177.589
L477.48 -177.589
L481.2 -174.331
L481.2 -135.228
L481.2 -135.228
L477.48 -137.894
L473.76 -137.894
L470.04 -137.894
L466.32 -137.894
L462.6 -135.623
L458.88 -133.451
L455.16 -136.117
L451.44 -137.006
L447.72 -137.006
L444 -137.006
L440.28 -139.672
L436.56 -137.302
L432.84 -133.945
L429.12 -138.487
L425.4 -138.487
L421.68 -141.252
L417.96 -134.043
L414.24 -134.043
L410.52 -134.043
L406.8 -134.043
L403.08 -134.043
L399.36 -130.39
L395.64 -130.39
L391.92 -124.959
L388.2 -124.959
L384.48 -124.959
L380.76 -124.959
L377.04 -128.415
L373.32 -128.415
L369.6 -121.799
L365.88 -121.799
L362.16 -116.27
L358.44 -116.27
L354.72 -112.912
L351 -115.381
L347.28 -115.381
L343.56 -115.381
L339.84 -117.85
L336.12 -108.864
L332.4 -108.864
L328.68 -108.864
L324.96 -108.864
L321.24 -108.864
L317.52 -108.864
L313.8 -108.864
L310.08 -108.864
L306.36 -108.864
L302.64 -108.864
L298.92 -108.864
L295.2 -108.864
L291.48 -108.864
L287.76 -108.864
L284.04 -108.864
L280.32 -108.864
L276.6 -108.864
L272.88 -108.864
L269.16 -108.864
L265.44 -108.864
L261.72 -108.864
L258 -108.864
L254.28 -108.864
L250.56 -108.864
L246.84 -108.864
L243.12 -112.221
L239.4 -112.221
L235.68 -112.221
L231.96 -108.074
L228.24 -108.074
L224.52 -122.589
L220.8 -122.589
L217.08 -127.625
L213.36 -127.625
L209.64 -127.625
L205.92 -127.625
L202.2 -120.022
L198.48 -120.022
L194.76 -120.022
L191.04 -120.022
L187.32 -137.302
L183.6 -140.56
L179.88 -127.329
L176.16 -127.329
L172.44 -120.121
L168.72 -95.04
L165 -100.57
L161.28 -100.57
L157.56 -111.135
L153.84 -111.135
L150.12 -111.135
L146.4 -111.135
L142.68 -111.135
L138.96 -111.135
L135.24 -111.135
L131.52 -111.135
L127.8 -119.528
L124.08 -140.955
L120.36 -142.832
L116.64 -142.832
L112.92 -122.096
L109.2 -111.431
L105.48 -111.431
L101.76 -111.431
L98.04 -143.424
L94.32 -143.424
L90.6 -158.433
L86.88 -158.433
L83.16 -158.433
L79.44 -158.433
L75.72 -158.433
L72 -158.433
z
" id="C4_0_299bd83975"/>
    </defs>
    <g clip-path="url(#p7ff5b81e1d)">
     <use style="fill:#bf00bf;fill-opacity:0.25;stroke:#bf00bf;stroke-opacity:0.25;" x="0.0" xlink:href="#C4_0_299bd83975" y="432.0"/>
    </g>
   </g>
   <g id="PolyCollection_6">
    <defs>
     <path d="
M72 -158.433
L72 -322.939
L75.72 -322.939
L79.44 -276.628
L83.16 -276.628
L86.88 -228.244
L90.6 -184.007
L94.32 -193.783
L98.04 -193.783
L101.76 -216.494
L105.48 -226.664
L109.2 -226.664
L112.92 -221.233
L116.64 -207.804
L120.36 -192.4
L124.08 -193.783
L127.8 -193.783
L131.52 -193.783
L135.24 -189.833
L138.96 -184.106
L142.68 -184.106
L146.4 -184.106
L150.12 -184.106
L153.84 -184.995
L157.56 -184.995
L161.28 -191.709
L165 -191.709
L168.72 -191.709
L172.44 -174.429
L176.16 -174.429
L179.88 -161.296
L183.6 -169.295
L187.32 -164.851
L191.04 -178.576
L194.76 -171.862
L198.48 -171.862
L202.2 -171.862
L205.92 -165.444
L209.64 -165.444
L213.36 -165.444
L217.08 -165.444
L220.8 -169.788
L224.52 -169.788
L228.24 -181.736
L231.96 -181.736
L235.68 -178.873
L239.4 -178.873
L243.12 -180.156
L246.84 -182.724
L250.56 -182.724
L254.28 -182.724
L258 -182.724
L261.72 -182.724
L265.44 -182.724
L269.16 -182.724
L272.88 -182.724
L276.6 -182.724
L280.32 -182.724
L284.04 -182.724
L287.76 -182.724
L291.48 -182.724
L295.2 -182.724
L298.92 -182.724
L302.64 -182.724
L306.36 -182.724
L310.08 -182.724
L313.8 -182.724
L317.52 -182.724
L321.24 -182.724
L324.96 -182.724
L328.68 -183.909
L332.4 -199.016
L336.12 -196.844
L339.84 -196.844
L343.56 -198.523
L347.28 -198.523
L351 -195.264
L354.72 -197.93
L358.44 -194.672
L362.16 -194.672
L365.88 -191.413
L369.6 -191.413
L373.32 -194.869
L377.04 -194.869
L380.76 -194.869
L384.48 -189.636
L388.2 -184.304
L391.92 -184.304
L395.64 -180.058
L399.36 -180.058
L403.08 -180.551
L406.8 -180.551
L410.52 -180.551
L414.24 -180.551
L417.96 -180.551
L421.68 -180.551
L425.4 -180.551
L429.12 -185.192
L432.84 -180.946
L436.56 -177.787
L440.28 -177.787
L444 -177.787
L447.72 -177.787
L451.44 -175.614
L455.16 -175.515
L458.88 -172.356
L462.6 -170.282
L466.32 -168.998
L470.04 -168.998
L473.76 -166.727
L477.48 -166.727
L481.2 -168.505
L481.2 -133.155
L481.2 -133.155
L477.48 -130.982
L473.76 -130.982
L470.04 -132.661
L466.32 -132.661
L462.6 -133.352
L458.88 -135.228
L455.16 -137.993
L451.44 -137.894
L447.72 -139.672
L444 -139.672
L440.28 -139.672
L436.56 -139.672
L432.84 -142.437
L429.12 -146.09
L425.4 -140.857
L421.68 -140.857
L417.96 -140.857
L414.24 -140.857
L410.52 -140.857
L406.8 -140.857
L403.08 -140.857
L399.36 -139.376
L395.64 -139.376
L391.92 -143.029
L388.2 -143.029
L384.48 -147.571
L380.76 -152.212
L377.04 -152.212
L373.32 -152.212
L369.6 -147.769
L365.88 -147.769
L362.16 -150.435
L358.44 -150.435
L354.72 -153.101
L351 -149.842
L347.28 -152.508
L343.56 -152.508
L339.84 -150.237
L336.12 -150.237
L332.4 -152.015
L328.68 -135.525
L324.96 -132.76
L321.24 -132.76
L317.52 -132.76
L313.8 -132.76
L310.08 -132.76
L306.36 -132.76
L302.64 -132.76
L298.92 -132.76
L295.2 -132.76
L291.48 -132.76
L287.76 -132.76
L284.04 -132.76
L280.32 -132.76
L276.6 -132.76
L272.88 -132.76
L269.16 -132.76
L265.44 -132.76
L261.72 -132.76
L258 -132.76
L254.28 -132.76
L250.56 -132.76
L246.84 -132.76
L243.12 -129.403
L239.4 -126.736
L235.68 -126.736
L231.96 -127.823
L228.24 -127.823
L224.52 -114.097
L220.8 -114.097
L217.08 -108.568
L213.36 -108.568
L209.64 -108.568
L205.92 -108.568
L202.2 -113.999
L198.48 -113.999
L194.76 -113.999
L191.04 -119.133
L187.32 -103.236
L183.6 -106.692
L179.88 -96.9161
L176.16 -107.482
L172.44 -107.482
L168.72 -121.799
L165 -121.799
L161.28 -121.799
L157.56 -112.715
L153.84 -112.715
L150.12 -107.679
L146.4 -107.679
L142.68 -107.679
L138.96 -107.679
L135.24 -111.826
L131.52 -111.826
L127.8 -111.826
L124.08 -111.826
L120.36 -105.309
L116.64 -117.553
L112.92 -127.823
L109.2 -126.341
L105.48 -126.341
L101.76 -106.889
L98.04 -78.2537
L94.32 -78.2537
L90.6 -58.4064
L86.88 -91.189
L83.16 -125.749
L79.44 -125.749
L75.72 -158.433
L72 -158.433
z
" id="C5_0_caa2deb5e1"/>
    </defs>
    <g clip-path="url(#p7ff5b81e1d)">
     <use style="fill:#bfbf00;fill-opacity:0.25;stroke:#bfbf00;stroke-opacity:0.25;" x="0.0" xlink:href="#C5_0_caa2deb5e1" y="432.0"/>
    </g>
   </g>
   <g id="line2d_1">
    <path clip-path="url(#p7ff5b81e1d)" d="
M72 191.314
L75.72 158.729
L79.44 131.081
L83.16 165.641
L86.88 192.302
L90.6 165.641
L94.32 165.641
L98.04 138.981
L101.76 138.981
L105.48 126.144
L109.2 126.144
L112.92 128.119
L116.64 128.119
L120.36 128.119
L124.08 124.169
L127.8 141.943
L131.52 134.043
L135.24 134.043
L138.96 130.094
L142.68 136.018
L146.4 134.043
L150.12 138.981
L153.84 138.981
L157.56 132.069
L161.28 132.069
L165 144.905
L168.72 144.905
L172.44 131.081
L176.16 127.131
L179.88 136.018
L183.6 136.018
L187.32 136.018
L191.04 148.855
L194.76 154.779
L198.48 148.855
L202.2 145.893
L205.92 145.893
L209.64 140.955
L213.36 141.943
L217.08 138.981
L220.8 138.981
L224.52 132.069
L228.24 132.069
L231.96 129.106
L235.68 129.106
L239.4 128.119
L243.12 128.119
L246.84 128.119
L250.56 126.144
L254.28 122.194
L258 125.157
L261.72 125.157
L265.44 126.144
L269.16 124.169
L272.88 123.182
L276.6 123.182
L280.32 123.182
L284.04 123.182
L287.76 123.182
L291.48 123.182
L295.2 123.182
L298.92 123.182
L302.64 123.182
L306.36 129.106
L310.08 134.043
L313.8 128.119
L317.52 133.056
L321.24 133.056
L324.96 127.131
L328.68 128.119
L332.4 128.119
L336.12 128.119
L339.84 128.119
L343.56 128.119
L347.28 124.169
L351 123.182
L354.72 123.182
L358.44 123.182
L362.16 123.182
L365.88 120.219
L369.6 120.219
L373.32 120.219
L377.04 117.257
L380.76 117.257
L384.48 120.219
L388.2 124.169
L391.92 134.043
L395.64 134.043
L399.36 134.043
L403.08 134.043
L406.8 134.043
L410.52 132.069
L414.24 127.131
L417.96 127.131
L421.68 127.131
L425.4 127.131
L429.12 127.131
L432.84 127.131
L436.56 127.131
L440.28 127.131
L444 127.131
L447.72 127.131
L451.44 127.131
L455.16 127.131
L458.88 127.131
L462.6 127.131
L466.32 127.131
L470.04 127.131
L473.76 127.131
L477.48 127.131
L481.2 125.157" style="fill:none;stroke:#0000ff;stroke-linecap:square;"/>
   </g>
   <g id="line2d_2">
    <path clip-path="url(#p7ff5b81e1d)" d="
M72 191.314
L75.72 158.729
L79.44 131.081
L83.16 165.641
L86.88 192.302
L90.6 165.641
L94.32 165.641
L98.04 138.981
L101.76 138.981
L105.48 126.144
L109.2 126.144
L112.92 128.119
L116.64 128.119
L120.36 128.119
L124.08 124.169
L127.8 141.943
L131.52 134.043
L135.24 134.043
L138.96 130.094
L142.68 136.018
L146.4 134.043
L150.12 138.981
L153.84 138.981
L157.56 132.069
L161.28 132.069
L165 144.905
L168.72 144.905
L172.44 131.081
L176.16 127.131
L179.88 136.018
L183.6 136.018
L187.32 136.018
L191.04 148.855
L194.76 154.779
L198.48 148.855
L202.2 145.893
L205.92 145.893
L209.64 140.955
L213.36 141.943
L217.08 138.981
L220.8 138.981
L224.52 132.069
L228.24 132.069
L231.96 129.106
L235.68 129.106
L239.4 128.119
L243.12 128.119
L246.84 128.119
L250.56 126.144
L254.28 122.194
L258 125.157
L261.72 125.157
L265.44 126.144
L269.16 124.169
L272.88 123.182
L276.6 123.182
L280.32 123.182
L284.04 123.182
L287.76 123.182
L291.48 123.182
L295.2 123.182
L298.92 123.182
L302.64 123.182
L306.36 129.106
L310.08 134.043
L313.8 128.119
L317.52 133.056
L321.24 133.056
L324.96 127.131
L328.68 128.119
L332.4 128.119
L336.12 128.119
L339.84 128.119
L343.56 128.119
L347.28 124.169
L351 123.182
L354.72 123.182
L358.44 123.182
L362.16 123.182
L365.88 120.219
L369.6 120.219
L373.32 120.219
L377.04 117.257
L380.76 117.257
L384.48 120.219
L388.2 124.169
L391.92 134.043
L395.64 134.043
L399.36 134.043
L403.08 134.043
L406.8 134.043
L410.52 132.069
L414.24 127.131
L417.96 127.131
L421.68 127.131
L425.4 127.131
L429.12 127.131
L432.84 127.131
L436.56 127.131
L440.28 127.131
L444 127.131
L447.72 127.131
L451.44 127.131
L455.16 127.131
L458.88 127.131
L462.6 127.131
L466.32 127.131
L470.04 127.131
L473.76 127.131
L477.48 127.131
L481.2 125.157" style="fill:none;stroke:#0000ff;stroke-linecap:square;"/>
   </g>
   <g id="line2d_3">
    <path clip-path="url(#p7ff5b81e1d)" d="
M72 191.314
L75.72 158.729
L79.44 186.377
L83.16 151.817
L86.88 125.157
L90.6 150.83
L94.32 150.83
L98.04 150.83
L101.76 129.106
L105.48 141.943
L109.2 141.943
L112.92 139.968
L116.64 139.968
L120.36 139.968
L124.08 143.918
L127.8 126.144
L131.52 126.144
L135.24 129.106
L138.96 133.056
L142.68 133.056
L146.4 136.018
L150.12 136.018
L153.84 134.043
L157.56 134.043
L161.28 126.144
L165 126.144
L168.72 121.207
L172.44 136.018
L176.16 139.968
L179.88 139.968
L183.6 139.968
L187.32 139.968
L191.04 139.968
L194.76 133.056
L198.48 133.056
L202.2 129.106
L205.92 129.106
L209.64 123.182
L213.36 123.182
L217.08 119.232
L220.8 115.282
L224.52 115.282
L228.24 127.131
L231.96 130.094
L235.68 130.094
L239.4 130.094
L243.12 127.131
L246.84 124.169
L250.56 122.194
L254.28 126.144
L258 123.182
L261.72 123.182
L265.44 122.194
L269.16 119.232
L272.88 118.245
L276.6 118.245
L280.32 114.295
L284.04 113.307
L287.76 119.232
L291.48 118.245
L295.2 119.232
L298.92 119.232
L302.64 116.27
L306.36 110.345
L310.08 105.408
L313.8 111.333
L317.52 107.383
L321.24 107.383
L324.96 112.32
L328.68 111.333
L332.4 121.207
L336.12 121.207
L339.84 124.169
L343.56 124.169
L347.28 127.131
L351 129.106
L354.72 129.106
L358.44 127.131
L362.16 127.131
L365.88 127.131
L369.6 127.131
L373.32 127.131
L377.04 127.131
L380.76 127.131
L384.48 127.131
L388.2 127.131
L391.92 127.131
L395.64 127.131
L399.36 127.131
L403.08 127.131
L406.8 127.131
L410.52 127.131
L414.24 127.131
L417.96 127.131
L421.68 127.131
L425.4 127.131
L429.12 127.131
L432.84 127.131
L436.56 127.131
L440.28 127.131
L444 127.131
L447.72 127.131
L451.44 127.131
L455.16 127.131
L458.88 127.131
L462.6 127.131
L466.32 127.131
L470.04 127.131
L473.76 127.131
L477.48 127.131
L481.2 127.131" style="fill:none;stroke:#008000;stroke-linecap:square;"/>
   </g>
   <g id="line2d_4">
    <path clip-path="url(#p7ff5b81e1d)" d="
M72 191.314
L75.72 158.729
L79.44 186.377
L83.16 151.817
L86.88 125.157
L90.6 150.83
L94.32 150.83
L98.04 150.83
L101.76 129.106
L105.48 141.943
L109.2 141.943
L112.92 139.968
L116.64 139.968
L120.36 139.968
L124.08 143.918
L127.8 126.144
L131.52 126.144
L135.24 129.106
L138.96 133.056
L142.68 133.056
L146.4 136.018
L150.12 136.018
L153.84 134.043
L157.56 134.043
L161.28 126.144
L165 126.144
L168.72 121.207
L172.44 136.018
L176.16 139.968
L179.88 139.968
L183.6 139.968
L187.32 139.968
L191.04 139.968
L194.76 133.056
L198.48 133.056
L202.2 129.106
L205.92 129.106
L209.64 123.182
L213.36 123.182
L217.08 119.232
L220.8 115.282
L224.52 115.282
L228.24 127.131
L231.96 130.094
L235.68 130.094
L239.4 130.094
L243.12 127.131
L246.84 124.169
L250.56 122.194
L254.28 126.144
L258 123.182
L261.72 123.182
L265.44 122.194
L269.16 119.232
L272.88 118.245
L276.6 118.245
L280.32 114.295
L284.04 113.307
L287.76 119.232
L291.48 118.245
L295.2 119.232
L298.92 119.232
L302.64 116.27
L306.36 110.345
L310.08 105.408
L313.8 111.333
L317.52 107.383
L321.24 107.383
L324.96 112.32
L328.68 111.333
L332.4 121.207
L336.12 121.207
L339.84 124.169
L343.56 124.169
L347.28 127.131
L351 129.106
L354.72 129.106
L358.44 127.131
L362.16 127.131
L365.88 127.131
L369.6 127.131
L373.32 127.131
L377.04 127.131
L380.76 127.131
L384.48 127.131
L388.2 127.131
L391.92 127.131
L395.64 127.131
L399.36 127.131
L403.08 127.131
L406.8 127.131
L410.52 127.131
L414.24 127.131
L417.96 127.131
L421.68 127.131
L425.4 127.131
L429.12 127.131
L432.84 127.131
L436.56 127.131
L440.28 127.131
L444 127.131
L447.72 127.131
L451.44 127.131
L455.16 127.131
L458.88 127.131
L462.6 127.131
L466.32 127.131
L470.04 127.131
L473.76 127.131
L477.48 127.131
L481.2 127.131" style="fill:none;stroke:#008000;stroke-linecap:square;"/>
   </g>
   <g id="line2d_5">
    <path clip-path="url(#p7ff5b81e1d)" d="
M72 191.314
L75.72 223.899
L79.44 223.899
L83.16 263.397
L86.88 233.774
L90.6 205.138
L94.32 216.987
L98.04 191.314
L101.76 191.314
L105.48 203.163
L109.2 215.013
L112.92 215.013
L116.64 225.874
L120.36 238.711
L124.08 238.711
L127.8 220.937
L131.52 213.038
L135.24 211.063
L138.96 211.063
L142.68 204.151
L146.4 204.151
L150.12 210.075
L153.84 212.05
L157.56 212.05
L161.28 218.962
L165 231.799
L168.72 231.799
L172.44 231.799
L176.16 231.799
L179.88 220.937
L183.6 228.837
L187.32 228.837
L191.04 228.837
L194.76 222.912
L198.48 229.824
L202.2 233.774
L205.92 233.774
L209.64 233.774
L213.36 233.774
L217.08 233.774
L220.8 238.711
L224.52 230.811
L228.24 230.811
L231.96 230.811
L235.68 232.786
L239.4 234.761
L243.12 234.761
L246.84 237.723
L250.56 239.698
L254.28 243.648
L258 246.61
L261.72 249.573
L265.44 249.573
L269.16 249.573
L272.88 251.547
L276.6 251.547
L280.32 255.497
L284.04 256.485
L287.76 250.56
L291.48 251.547
L295.2 250.56
L298.92 250.56
L302.64 253.522
L306.36 247.598
L310.08 247.598
L313.8 241.673
L317.52 236.736
L321.24 236.736
L324.96 236.736
L328.68 237.723
L332.4 227.849
L336.12 225.874
L339.84 229.824
L343.56 229.824
L347.28 225.874
L351 225.874
L354.72 227.849
L358.44 227.849
L362.16 227.849
L365.88 229.824
L369.6 229.824
L373.32 229.824
L377.04 226.862
L380.76 228.837
L384.48 228.837
L388.2 224.887
L391.92 224.887
L395.64 221.925
L399.36 220.937
L403.08 221.925
L406.8 221.925
L410.52 221.925
L414.24 217.975
L417.96 217.975
L421.68 217.975
L425.4 217.975
L429.12 215.013
L432.84 212.05
L436.56 212.05
L440.28 211.063
L444 212.05
L447.72 209.088
L451.44 209.088
L455.16 209.088
L458.88 209.088
L462.6 211.063
L466.32 211.063
L470.04 211.063
L473.76 209.088
L477.48 207.113
L481.2 209.088" style="fill:none;stroke:#ff0000;stroke-linecap:square;"/>
   </g>
   <g id="line2d_6">
    <path clip-path="url(#p7ff5b81e1d)" d="
M72 191.314
L75.72 223.899
L79.44 223.899
L83.16 263.397
L86.88 233.774
L90.6 205.138
L94.32 216.987
L98.04 191.314
L101.76 191.314
L105.48 203.163
L109.2 215.013
L112.92 215.013
L116.64 225.874
L120.36 238.711
L124.08 238.711
L127.8 220.937
L131.52 213.038
L135.24 211.063
L138.96 211.063
L142.68 204.151
L146.4 204.151
L150.12 210.075
L153.84 212.05
L157.56 212.05
L161.28 218.962
L165 231.799
L168.72 231.799
L172.44 231.799
L176.16 231.799
L179.88 220.937
L183.6 228.837
L187.32 228.837
L191.04 228.837
L194.76 222.912
L198.48 229.824
L202.2 233.774
L205.92 233.774
L209.64 233.774
L213.36 233.774
L217.08 233.774
L220.8 238.711
L224.52 230.811
L228.24 230.811
L231.96 230.811
L235.68 232.786
L239.4 234.761
L243.12 234.761
L246.84 237.723
L250.56 239.698
L254.28 243.648
L258 246.61
L261.72 249.573
L265.44 249.573
L269.16 249.573
L272.88 251.547
L276.6 251.547
L280.32 255.497
L284.04 256.485
L287.76 250.56
L291.48 251.547
L295.2 250.56
L298.92 250.56
L302.64 253.522
L306.36 247.598
L310.08 247.598
L313.8 241.673
L317.52 236.736
L321.24 236.736
L324.96 236.736
L328.68 237.723
L332.4 227.849
L336.12 225.874
L339.84 229.824
L343.56 229.824
L347.28 225.874
L351 225.874
L354.72 227.849
L358.44 227.849
L362.16 227.849
L365.88 229.824
L369.6 229.824
L373.32 229.824
L377.04 226.862
L380.76 228.837
L384.48 228.837
L388.2 224.887
L391.92 224.887
L395.64 221.925
L399.36 220.937
L403.08 221.925
L406.8 221.925
L410.52 221.925
L414.24 217.975
L417.96 217.975
L421.68 217.975
L425.4 217.975
L429.12 215.013
L432.84 212.05
L436.56 212.05
L440.28 211.063
L444 212.05
L447.72 209.088
L451.44 209.088
L455.16 209.088
L458.88 209.088
L462.6 211.063
L466.32 211.063
L470.04 211.063
L473.76 209.088
L477.48 207.113
L481.2 209.088" style="fill:none;stroke:#ff0000;stroke-linecap:square;"/>
   </g>
   <g id="line2d_7">
    <path clip-path="url(#p7ff5b81e1d)" d="
M72 191.314
L75.72 223.899
L79.44 223.899
L83.16 185.39
L86.88 185.39
L90.6 185.39
L94.32 169.591
L98.04 201.189
L101.76 201.189
L105.48 201.189
L109.2 201.189
L112.92 201.189
L116.64 201.189
L120.36 201.189
L124.08 201.189
L127.8 201.189
L131.52 201.189
L135.24 201.189
L138.96 201.189
L142.68 187.365
L146.4 192.302
L150.12 184.402
L153.84 188.352
L157.56 197.239
L161.28 197.239
L165 180.453
L168.72 180.453
L172.44 180.453
L176.16 180.453
L179.88 165.641
L183.6 165.641
L187.32 161.691
L191.04 142.93
L194.76 142.93
L198.48 142.93
L202.2 142.93
L205.92 142.93
L209.64 149.842
L213.36 148.855
L217.08 153.792
L220.8 153.792
L224.52 162.679
L228.24 148.855
L231.96 148.855
L235.68 148.855
L239.4 151.817
L243.12 154.779
L246.84 154.779
L250.56 156.754
L254.28 151.817
L258 147.867
L261.72 143.918
L265.44 144.905
L269.16 147.867
L272.88 149.842
L276.6 149.842
L280.32 144.905
L284.04 145.893
L287.76 145.893
L291.48 145.893
L295.2 145.893
L298.92 145.893
L302.64 145.893
L306.36 145.893
L310.08 145.893
L313.8 145.893
L317.52 145.893
L321.24 145.893
L324.96 145.893
L328.68 145.893
L332.4 145.893
L336.12 145.893
L339.84 140.955
L343.56 138.981
L347.28 138.981
L351 137.006
L354.72 135.031
L358.44 135.031
L362.16 135.031
L365.88 135.031
L369.6 135.031
L373.32 135.031
L377.04 138.981
L380.76 136.018
L384.48 136.018
L388.2 131.081
L391.92 118.245
L395.64 118.245
L399.36 118.245
L403.08 118.245
L406.8 118.245
L410.52 120.219
L414.24 120.219
L417.96 120.219
L421.68 120.219
L425.4 120.219
L429.12 120.219
L432.84 120.219
L436.56 120.219
L440.28 120.219
L444 118.245
L447.72 114.295
L451.44 114.295
L455.16 114.295
L458.88 114.295
L462.6 114.295
L466.32 114.295
L470.04 115.282
L473.76 118.245
L477.48 118.245
L481.2 118.245" style="fill:none;stroke:#00bfbf;stroke-linecap:square;"/>
   </g>
   <g id="line2d_8">
    <path clip-path="url(#p7ff5b81e1d)" d="
M72 191.314
L75.72 223.899
L79.44 223.899
L83.16 185.39
L86.88 185.39
L90.6 185.39
L94.32 169.591
L98.04 201.189
L101.76 201.189
L105.48 201.189
L109.2 201.189
L112.92 201.189
L116.64 201.189
L120.36 201.189
L124.08 201.189
L127.8 201.189
L131.52 201.189
L135.24 201.189
L138.96 201.189
L142.68 187.365
L146.4 192.302
L150.12 184.402
L153.84 188.352
L157.56 197.239
L161.28 197.239
L165 180.453
L168.72 180.453
L172.44 180.453
L176.16 180.453
L179.88 165.641
L183.6 165.641
L187.32 161.691
L191.04 142.93
L194.76 142.93
L198.48 142.93
L202.2 142.93
L205.92 142.93
L209.64 149.842
L213.36 148.855
L217.08 153.792
L220.8 153.792
L224.52 162.679
L228.24 148.855
L231.96 148.855
L235.68 148.855
L239.4 151.817
L243.12 154.779
L246.84 154.779
L250.56 156.754
L254.28 151.817
L258 147.867
L261.72 143.918
L265.44 144.905
L269.16 147.867
L272.88 149.842
L276.6 149.842
L280.32 144.905
L284.04 145.893
L287.76 145.893
L291.48 145.893
L295.2 145.893
L298.92 145.893
L302.64 145.893
L306.36 145.893
L310.08 145.893
L313.8 145.893
L317.52 145.893
L321.24 145.893
L324.96 145.893
L328.68 145.893
L332.4 145.893
L336.12 145.893
L339.84 140.955
L343.56 138.981
L347.28 138.981
L351 137.006
L354.72 135.031
L358.44 135.031
L362.16 135.031
L365.88 135.031
L369.6 135.031
L373.32 135.031
L377.04 138.981
L380.76 136.018
L384.48 136.018
L388.2 131.081
L391.92 118.245
L395.64 118.245
L399.36 118.245
L403.08 118.245
L406.8 118.245
L410.52 120.219
L414.24 120.219
L417.96 120.219
L421.68 120.219
L425.4 120.219
L429.12 120.219
L432.84 120.219
L436.56 120.219
L440.28 120.219
L444 118.245
L447.72 114.295
L451.44 114.295
L455.16 114.295
L458.88 114.295
L462.6 114.295
L466.32 114.295
L470.04 115.282
L473.76 118.245
L477.48 118.245
L481.2 118.245" style="fill:none;stroke:#00bfbf;stroke-linecap:square;"/>
   </g>
   <g id="line2d_9">
    <path clip-path="url(#p7ff5b81e1d)" d="
M72 191.314
L75.72 191.314
L79.44 191.314
L83.16 191.314
L86.88 191.314
L90.6 191.314
L94.32 217.975
L98.04 217.975
L101.76 255.497
L105.48 255.497
L109.2 255.497
L112.92 252.535
L116.64 234.761
L120.36 234.761
L124.08 241.673
L127.8 266.359
L131.52 276.233
L135.24 276.233
L138.96 276.233
L142.68 276.233
L146.4 276.233
L150.12 276.233
L153.84 276.233
L157.56 276.233
L161.28 289.07
L165 289.07
L168.72 295.982
L172.44 273.271
L176.16 268.334
L179.88 268.334
L183.6 256.485
L187.32 260.434
L191.04 279.195
L194.76 279.195
L198.48 279.195
L202.2 279.195
L205.92 272.283
L209.64 272.283
L213.36 272.283
L217.08 272.283
L220.8 278.208
L224.52 278.208
L228.24 294.007
L231.96 294.007
L235.68 291.045
L239.4 291.045
L243.12 291.045
L246.84 294.994
L250.56 294.994
L254.28 294.994
L258 294.994
L261.72 294.994
L265.44 294.994
L269.16 294.994
L272.88 294.994
L276.6 294.994
L280.32 294.994
L284.04 294.994
L287.76 294.994
L291.48 294.994
L295.2 294.994
L298.92 294.994
L302.64 294.994
L306.36 294.994
L310.08 294.994
L313.8 294.994
L317.52 294.994
L321.24 294.994
L324.96 294.994
L328.68 294.994
L332.4 294.994
L336.12 294.994
L339.84 287.095
L343.56 290.057
L347.28 290.057
L351 290.057
L354.72 293.019
L358.44 290.057
L362.16 290.057
L365.88 285.12
L369.6 285.12
L373.32 279.195
L377.04 279.195
L380.76 283.145
L384.48 283.145
L388.2 283.145
L391.92 283.145
L395.64 278.208
L399.36 278.208
L403.08 275.246
L406.8 275.246
L410.52 275.246
L414.24 275.246
L417.96 275.246
L421.68 268.334
L425.4 271.296
L429.12 271.296
L432.84 276.233
L436.56 273.271
L440.28 271.296
L444 274.258
L447.72 274.258
L451.44 274.258
L455.16 275.246
L458.88 278.208
L462.6 276.233
L466.32 274.258
L470.04 274.258
L473.76 274.258
L477.48 274.258
L481.2 277.221" style="fill:none;stroke:#bf00bf;stroke-linecap:square;"/>
   </g>
   <g id="line2d_10">
    <path clip-path="url(#p7ff5b81e1d)" d="
M72 191.314
L75.72 191.314
L79.44 191.314
L83.16 191.314
L86.88 191.314
L90.6 191.314
L94.32 217.975
L98.04 217.975
L101.76 255.497
L105.48 255.497
L109.2 255.497
L112.92 252.535
L116.64 234.761
L120.36 234.761
L124.08 241.673
L127.8 266.359
L131.52 276.233
L135.24 276.233
L138.96 276.233
L142.68 276.233
L146.4 276.233
L150.12 276.233
L153.84 276.233
L157.56 276.233
L161.28 289.07
L165 289.07
L168.72 295.982
L172.44 273.271
L176.16 268.334
L179.88 268.334
L183.6 256.485
L187.32 260.434
L191.04 279.195
L194.76 279.195
L198.48 279.195
L202.2 279.195
L205.92 272.283
L209.64 272.283
L213.36 272.283
L217.08 272.283
L220.8 278.208
L224.52 278.208
L228.24 294.007
L231.96 294.007
L235.68 291.045
L239.4 291.045
L243.12 291.045
L246.84 294.994
L250.56 294.994
L254.28 294.994
L258 294.994
L261.72 294.994
L265.44 294.994
L269.16 294.994
L272.88 294.994
L276.6 294.994
L280.32 294.994
L284.04 294.994
L287.76 294.994
L291.48 294.994
L295.2 294.994
L298.92 294.994
L302.64 294.994
L306.36 294.994
L310.08 294.994
L313.8 294.994
L317.52 294.994
L321.24 294.994
L324.96 294.994
L328.68 294.994
L332.4 294.994
L336.12 294.994
L339.84 287.095
L343.56 290.057
L347.28 290.057
L351 290.057
L354.72 293.019
L358.44 290.057
L362.16 290.057
L365.88 285.12
L369.6 285.12
L373.32 279.195
L377.04 279.195
L380.76 283.145
L384.48 283.145
L388.2 283.145
L391.92 283.145
L395.64 278.208
L399.36 278.208
L403.08 275.246
L406.8 275.246
L410.52 275.246
L414.24 275.246
L417.96 275.246
L421.68 268.334
L425.4 271.296
L429.12 271.296
L432.84 276.233
L436.56 273.271
L440.28 271.296
L444 274.258
L447.72 274.258
L451.44 274.258
L455.16 275.246
L458.88 278.208
L462.6 276.233
L466.32 274.258
L470.04 274.258
L473.76 274.258
L477.48 274.258
L481.2 277.221" style="fill:none;stroke:#bf00bf;stroke-linecap:square;"/>
   </g>
   <g id="line2d_11">
    <path clip-path="url(#p7ff5b81e1d)" d="
M72 191.314
L75.72 191.314
L79.44 230.811
L83.16 230.811
L86.88 272.283
L90.6 310.793
L94.32 295.982
L98.04 295.982
L101.76 270.309
L105.48 255.497
L109.2 255.497
L112.92 257.472
L116.64 269.321
L120.36 283.145
L124.08 279.195
L127.8 279.195
L131.52 279.195
L135.24 281.17
L138.96 286.107
L142.68 286.107
L146.4 286.107
L150.12 286.107
L153.84 283.145
L157.56 283.145
L161.28 275.246
L165 275.246
L168.72 275.246
L172.44 291.045
L176.16 291.045
L179.88 302.894
L183.6 294.007
L187.32 297.957
L191.04 283.145
L194.76 289.07
L198.48 289.07
L202.2 289.07
L205.92 294.994
L209.64 294.994
L213.36 294.994
L217.08 294.994
L220.8 290.057
L224.52 290.057
L228.24 277.221
L231.96 277.221
L235.68 279.195
L239.4 279.195
L243.12 277.221
L246.84 274.258
L250.56 274.258
L254.28 274.258
L258 274.258
L261.72 274.258
L265.44 274.258
L269.16 274.258
L272.88 274.258
L276.6 274.258
L280.32 274.258
L284.04 274.258
L287.76 274.258
L291.48 274.258
L295.2 274.258
L298.92 274.258
L302.64 274.258
L306.36 274.258
L310.08 274.258
L313.8 274.258
L317.52 274.258
L321.24 274.258
L324.96 274.258
L328.68 272.283
L332.4 256.485
L336.12 258.459
L339.84 258.459
L343.56 256.485
L347.28 256.485
L351 259.447
L354.72 256.485
L358.44 259.447
L362.16 259.447
L365.88 262.409
L369.6 262.409
L373.32 258.459
L377.04 258.459
L380.76 258.459
L384.48 263.397
L388.2 268.334
L391.92 268.334
L395.64 272.283
L399.36 272.283
L403.08 271.296
L406.8 271.296
L410.52 271.296
L414.24 271.296
L417.96 271.296
L421.68 271.296
L425.4 271.296
L429.12 266.359
L432.84 270.309
L436.56 273.271
L440.28 273.271
L444 273.271
L447.72 273.271
L451.44 275.246
L455.16 275.246
L458.88 278.208
L462.6 280.183
L466.32 281.17
L470.04 281.17
L473.76 283.145
L477.48 283.145
L481.2 281.17" style="fill:none;stroke:#bfbf00;stroke-linecap:square;"/>
   </g>
   <g id="line2d_12">
    <path clip-path="url(#p7ff5b81e1d)" d="
M72 191.314
L75.72 191.314
L79.44 230.811
L83.16 230.811
L86.88 272.283
L90.6 310.793
L94.32 295.982
L98.04 295.982
L101.76 270.309
L105.48 255.497
L109.2 255.497
L112.92 257.472
L116.64 269.321
L120.36 283.145
L124.08 279.195
L127.8 279.195
L131.52 279.195
L135.24 281.17
L138.96 286.107
L142.68 286.107
L146.4 286.107
L150.12 286.107
L153.84 283.145
L157.56 283.145
L161.28 275.246
L165 275.246
L168.72 275.246
L172.44 291.045
L176.16 291.045
L179.88 302.894
L183.6 294.007
L187.32 297.957
L191.04 283.145
L194.76 289.07
L198.48 289.07
L202.2 289.07
L205.92 294.994
L209.64 294.994
L213.36 294.994
L217.08 294.994
L220.8 290.057
L224.52 290.057
L228.24 277.221
L231.96 277.221
L235.68 279.195
L239.4 279.195
L243.12 277.221
L246.84 274.258
L250.56 274.258
L254.28 274.258
L258 274.258
L261.72 274.258
L265.44 274.258
L269.16 274.258
L272.88 274.258
L276.6 274.258
L280.32 274.258
L284.04 274.258
L287.76 274.258
L291.48 274.258
L295.2 274.258
L298.92 274.258
L302.64 274.258
L306.36 274.258
L310.08 274.258
L313.8 274.258
L317.52 274.258
L321.24 274.258
L324.96 274.258
L328.68 272.283
L332.4 256.485
L336.12 258.459
L339.84 258.459
L343.56 256.485
L347.28 256.485
L351 259.447
L354.72 256.485
L358.44 259.447
L362.16 259.447
L365.88 262.409
L369.6 262.409
L373.32 258.459
L377.04 258.459
L380.76 258.459
L384.48 263.397
L388.2 268.334
L391.92 268.334
L395.64 272.283
L399.36 272.283
L403.08 271.296
L406.8 271.296
L410.52 271.296
L414.24 271.296
L417.96 271.296
L421.68 271.296
L425.4 271.296
L429.12 266.359
L432.84 270.309
L436.56 273.271
L440.28 273.271
L444 273.271
L447.72 273.271
L451.44 275.246
L455.16 275.246
L458.88 278.208
L462.6 280.183
L466.32 281.17
L470.04 281.17
L473.76 283.145
L477.48 283.145
L481.2 281.17" style="fill:none;stroke:#bfbf00;stroke-linecap:square;"/>
   </g>
   <g id="matplotlib.axis_1">
    <g id="xtick_1">
     <g id="line2d_13">
      <defs>
       <path d="
M0 0
L0 -4" id="m93b0483c22" style="stroke:#000000;stroke-width:0.5;"/>
      </defs>
      <g>
       <use style="stroke:#000000;stroke-width:0.5;" x="72.0" xlink:href="#m93b0483c22" y="388.8"/>
      </g>
     </g>
     <g id="line2d_14">
      <defs>
       <path d="
M0 0
L0 4" id="m741efc42ff" style="stroke:#000000;stroke-width:0.5;"/>
      </defs>
      <g>
       <use style="stroke:#000000;stroke-width:0.5;" x="72.0" xlink:href="#m741efc42ff" y="43.2"/>
      </g>
     </g>
     <g id="text_1">
      <!-- 0 -->
      <defs>
       <path d="
M31.7812 66.4062
Q24.1719 66.4062 20.3281 58.9062
Q16.5 51.4219 16.5 36.375
Q16.5 21.3906 20.3281 13.8906
Q24.1719 6.39062 31.7812 6.39062
Q39.4531 6.39062 43.2812 13.8906
Q47.125 21.3906 47.125 36.375
Q47.125 51.4219 43.2812 58.9062
Q39.4531 66.4062 31.7812 66.4062
M31.7812 74.2188
Q44.0469 74.2188 50.5156 64.5156
Q56.9844 54.8281 56.9844 36.375
Q56.9844 17.9688 50.5156 8.26562
Q44.0469 -1.42188 31.7812 -1.42188
Q19.5312 -1.42188 13.0625 8.26562
Q6.59375 17.9688 6.59375 36.375
Q6.59375 54.8281 13.0625 64.5156
Q19.5312 74.2188 31.7812 74.2188" id="DejaVuSans-30"/>
      </defs>
      <g transform="translate(68.9765625 401.918125)scale(0.12 -0.12)">
       <use xlink:href="#DejaVuSans-30"/>
      </g>
     </g>
    </g>
    <g id="xtick_2">
     <g id="line2d_15">
      <g>
       <use style="stroke:#000000;stroke-width:0.5;" x="146.4" xlink:href="#m93b0483c22" y="388.8"/>
      </g>
     </g>
     <g id="line2d_16">
      <g>
       <use style="stroke:#000000;stroke-width:0.5;" x="146.4" xlink:href="#m741efc42ff" y="43.2"/>
      </g>
     </g>
     <g id="text_2">
      <!-- 20 -->
      <defs>
       <path d="
M19.1875 8.29688
L53.6094 8.29688
L53.6094 0
L7.32812 0
L7.32812 8.29688
Q12.9375 14.1094 22.625 23.8906
Q32.3281 33.6875 34.8125 36.5312
Q39.5469 41.8438 41.4219 45.5312
Q43.3125 49.2188 43.3125 52.7812
Q43.3125 58.5938 39.2344 62.25
Q35.1562 65.9219 28.6094 65.9219
Q23.9688 65.9219 18.8125 64.3125
Q13.6719 62.7031 7.8125 59.4219
L7.8125 69.3906
Q13.7656 71.7812 18.9375 73
Q24.125 74.2188 28.4219 74.2188
Q39.75 74.2188 46.4844 68.5469
Q53.2188 62.8906 53.2188 53.4219
Q53.2188 48.9219 51.5312 44.8906
Q49.8594 40.875 45.4062 35.4062
Q44.1875 33.9844 37.6406 27.2188
Q31.1094 20.4531 19.1875 8.29688" id="DejaVuSans-32"/>
      </defs>
      <g transform="translate(139.603125 401.918125)scale(0.12 -0.12)">
       <use xlink:href="#DejaVuSans-32"/>
       <use x="63.623046875" xlink:href="#DejaVuSans-30"/>
      </g>
     </g>
    </g>
    <g id="xtick_3">
     <g id="line2d_17">
      <g>
       <use style="stroke:#000000;stroke-width:0.5;" x="220.8" xlink:href="#m93b0483c22" y="388.8"/>
      </g>
     </g>
     <g id="line2d_18">
      <g>
       <use style="stroke:#000000;stroke-width:0.5;" x="220.8" xlink:href="#m741efc42ff" y="43.2"/>
      </g>
     </g>
     <g id="text_3">
      <!-- 40 -->
      <defs>
       <path d="
M37.7969 64.3125
L12.8906 25.3906
L37.7969 25.3906
z

M35.2031 72.9062
L47.6094 72.9062
L47.6094 25.3906
L58.0156 25.3906
L58.0156 17.1875
L47.6094 17.1875
L47.6094 0
L37.7969 0
L37.7969 17.1875
L4.89062 17.1875
L4.89062 26.7031
z
" id="DejaVuSans-34"/>
      </defs>
      <g transform="translate(213.856875 401.918125)scale(0.12 -0.12)">
       <use xlink:href="#DejaVuSans-34"/>
       <use x="63.623046875" xlink:href="#DejaVuSans-30"/>
      </g>
     </g>
    </g>
    <g id="xtick_4">
     <g id="line2d_19">
      <g>
       <use style="stroke:#000000;stroke-width:0.5;" x="295.2" xlink:href="#m93b0483c22" y="388.8"/>
      </g>
     </g>
     <g id="line2d_20">
      <g>
       <use style="stroke:#000000;stroke-width:0.5;" x="295.2" xlink:href="#m741efc42ff" y="43.2"/>
      </g>
     </g>
     <g id="text_4">
      <!-- 60 -->
      <defs>
       <path d="
M33.0156 40.375
Q26.375 40.375 22.4844 35.8281
Q18.6094 31.2969 18.6094 23.3906
Q18.6094 15.5312 22.4844 10.9531
Q26.375 6.39062 33.0156 6.39062
Q39.6562 6.39062 43.5312 10.9531
Q47.4062 15.5312 47.4062 23.3906
Q47.4062 31.2969 43.5312 35.8281
Q39.6562 40.375 33.0156 40.375
M52.5938 71.2969
L52.5938 62.3125
Q48.875 64.0625 45.0938 64.9844
Q41.3125 65.9219 37.5938 65.9219
Q27.8281 65.9219 22.6719 59.3281
Q17.5312 52.7344 16.7969 39.4062
Q19.6719 43.6562 24.0156 45.9219
Q28.375 48.1875 33.5938 48.1875
Q44.5781 48.1875 50.9531 41.5156
Q57.3281 34.8594 57.3281 23.3906
Q57.3281 12.1562 50.6875 5.35938
Q44.0469 -1.42188 33.0156 -1.42188
Q20.3594 -1.42188 13.6719 8.26562
Q6.98438 17.9688 6.98438 36.375
Q6.98438 53.6562 15.1875 63.9375
Q23.3906 74.2188 37.2031 74.2188
Q40.9219 74.2188 44.7031 73.4844
Q48.4844 72.75 52.5938 71.2969" id="DejaVuSans-36"/>
      </defs>
      <g transform="translate(288.3825 401.918125)scale(0.12 -0.12)">
       <use xlink:href="#DejaVuSans-36"/>
       <use x="63.623046875" xlink:href="#DejaVuSans-30"/>
      </g>
     </g>
    </g>
    <g id="xtick_5">
     <g id="line2d_21">
      <g>
       <use style="stroke:#000000;stroke-width:0.5;" x="369.6" xlink:href="#m93b0483c22" y="388.8"/>
      </g>
     </g>
     <g id="line2d_22">
      <g>
       <use style="stroke:#000000;stroke-width:0.5;" x="369.6" xlink:href="#m741efc42ff" y="43.2"/>
      </g>
     </g>
     <g id="text_5">
      <!-- 80 -->
      <defs>
       <path d="
M31.7812 34.625
Q24.75 34.625 20.7188 30.8594
Q16.7031 27.0938 16.7031 20.5156
Q16.7031 13.9219 20.7188 10.1562
Q24.75 6.39062 31.7812 6.39062
Q38.8125 6.39062 42.8594 10.1719
Q46.9219 13.9688 46.9219 20.5156
Q46.9219 27.0938 42.8906 30.8594
Q38.875 34.625 31.7812 34.625
M21.9219 38.8125
Q15.5781 40.375 12.0312 44.7188
Q8.5 49.0781 8.5 55.3281
Q8.5 64.0625 14.7188 69.1406
Q20.9531 74.2188 31.7812 74.2188
Q42.6719 74.2188 48.875 69.1406
Q55.0781 64.0625 55.0781 55.3281
Q55.0781 49.0781 51.5312 44.7188
Q48 40.375 41.7031 38.8125
Q48.8281 37.1562 52.7969 32.3125
Q56.7812 27.4844 56.7812 20.5156
Q56.7812 9.90625 50.3125 4.23438
Q43.8438 -1.42188 31.7812 -1.42188
Q19.7344 -1.42188 13.25 4.23438
Q6.78125 9.90625 6.78125 20.5156
Q6.78125 27.4844 10.7812 32.3125
Q14.7969 37.1562 21.9219 38.8125
M18.3125 54.3906
Q18.3125 48.7344 21.8438 45.5625
Q25.3906 42.3906 31.7812 42.3906
Q38.1406 42.3906 41.7188 45.5625
Q45.3125 48.7344 45.3125 54.3906
Q45.3125 60.0625 41.7188 63.2344
Q38.1406 66.4062 31.7812 66.4062
Q25.3906 66.4062 21.8438 63.2344
Q18.3125 60.0625 18.3125 54.3906" id="DejaVuSans-38"/>
      </defs>
      <g transform="translate(362.7703125 401.918125)scale(0.12 -0.12)">
       <use xlink:href="#DejaVuSans-38"/>
       <use x="63.623046875" xlink:href="#DejaVuSans-30"/>
      </g>
     </g>
    </g>
    <g id="xtick_6">
     <g id="line2d_23">
      <g>
       <use style="stroke:#000000;stroke-width:0.5;" x="444.0" xlink:href="#m93b0483c22" y="388.8"/>
      </g>
     </g>
     <g id="line2d_24">
      <g>
       <use style="stroke:#000000;stroke-width:0.5;" x="444.0" xlink:href="#m741efc42ff" y="43.2"/>
      </g>
     </g>
     <g id="text_6">
      <!-- 100 -->
      <defs>
       <path d="
M12.4062 8.29688
L28.5156 8.29688
L28.5156 63.9219
L10.9844 60.4062
L10.9844 69.3906
L28.4219 72.9062
L38.2812 72.9062
L38.2812 8.29688
L54.3906 8.29688
L54.3906 0
L12.4062 0
z
" id="DejaVuSans-31"/>
      </defs>
      <g transform="translate(433.605 401.918125)scale(0.12 -0.12)">
       <use xlink:href="#DejaVuSans-31"/>
       <use x="63.623046875" xlink:href="#DejaVuSans-30"/>
       <use x="127.24609375" xlink:href="#DejaVuSans-30"/>
      </g>
     </g>
    </g>
    <g id="xtick_7">
     <g id="line2d_25">
      <g>
       <use style="stroke:#000000;stroke-width:0.5;" x="518.4" xlink:href="#m93b0483c22" y="388.8"/>
      </g>
     </g>
     <g id="line2d_26">
      <g>
       <use style="stroke:#000000;stroke-width:0.5;" x="518.4" xlink:href="#m741efc42ff" y="43.2"/>
      </g>
     </g>
     <g id="text_7">
      <!-- 120 -->
      <g transform="translate(508.005 401.918125)scale(0.12 -0.12)">
       <use xlink:href="#DejaVuSans-31"/>
       <use x="63.623046875" xlink:href="#DejaVuSans-32"/>
       <use x="127.24609375" xlink:href="#DejaVuSans-30"/>
      </g>
     </g>
    </g>
   </g>
   <g id="matplotlib.axis_2">
    <g id="ytick_1">
     <g id="line2d_27">
      <defs>
       <path d="
M0 0
L4 0" id="m728421d6d4" style="stroke:#000000;stroke-width:0.5;"/>
      </defs>
      <g>
       <use style="stroke:#000000;stroke-width:0.5;" x="72.0" xlink:href="#m728421d6d4" y="388.8"/>
      </g>
     </g>
     <g id="line2d_28">
      <defs>
       <path d="
M0 0
L-4 0" id="mcb0005524f" style="stroke:#000000;stroke-width:0.5;"/>
      </defs>
      <g>
       <use style="stroke:#000000;stroke-width:0.5;" x="518.4" xlink:href="#mcb0005524f" y="388.8"/>
      </g>
     </g>
     <g id="text_8">
      <!-- 5 -->
      <defs>
       <path d="
M10.7969 72.9062
L49.5156 72.9062
L49.5156 64.5938
L19.8281 64.5938
L19.8281 46.7344
Q21.9688 47.4688 24.1094 47.8281
Q26.2656 48.1875 28.4219 48.1875
Q40.625 48.1875 47.75 41.5
Q54.8906 34.8125 54.8906 23.3906
Q54.8906 11.625 47.5625 5.09375
Q40.2344 -1.42188 26.9062 -1.42188
Q22.3125 -1.42188 17.5469 -0.640625
Q12.7969 0.140625 7.71875 1.70312
L7.71875 11.625
Q12.1094 9.23438 16.7969 8.0625
Q21.4844 6.89062 26.7031 6.89062
Q35.1562 6.89062 40.0781 11.3281
Q45.0156 15.7656 45.0156 23.3906
Q45.0156 31 40.0781 35.4375
Q35.1562 39.8906 26.7031 39.8906
Q22.75 39.8906 18.8125 39.0156
Q14.8906 38.1406 10.7969 36.2812
z
" id="DejaVuSans-35"/>
      </defs>
      <g transform="translate(62.339375 392.11125)scale(0.12 -0.12)">
       <use xlink:href="#DejaVuSans-35"/>
      </g>
     </g>
    </g>
    <g id="ytick_2">
     <g id="line2d_29">
      <g>
       <use style="stroke:#000000;stroke-width:0.5;" x="72.0" xlink:href="#m728421d6d4" y="339.428571429"/>
      </g>
     </g>
     <g id="line2d_30">
      <g>
       <use style="stroke:#000000;stroke-width:0.5;" x="518.4" xlink:href="#mcb0005524f" y="339.428571429"/>
      </g>
     </g>
     <g id="text_9">
      <!-- 10 -->
      <g transform="translate(54.845 342.739821429)scale(0.12 -0.12)">
       <use xlink:href="#DejaVuSans-31"/>
       <use x="63.623046875" xlink:href="#DejaVuSans-30"/>
      </g>
     </g>
    </g>
    <g id="ytick_3">
     <g id="line2d_31">
      <g>
       <use style="stroke:#000000;stroke-width:0.5;" x="72.0" xlink:href="#m728421d6d4" y="290.057142857"/>
      </g>
     </g>
     <g id="line2d_32">
      <g>
       <use style="stroke:#000000;stroke-width:0.5;" x="518.4" xlink:href="#mcb0005524f" y="290.057142857"/>
      </g>
     </g>
     <g id="text_10">
      <!-- 15 -->
      <g transform="translate(55.09625 293.368392857)scale(0.12 -0.12)">
       <use xlink:href="#DejaVuSans-31"/>
       <use x="63.623046875" xlink:href="#DejaVuSans-35"/>
      </g>
     </g>
    </g>
    <g id="ytick_4">
     <g id="line2d_33">
      <g>
       <use style="stroke:#000000;stroke-width:0.5;" x="72.0" xlink:href="#m728421d6d4" y="240.685714286"/>
      </g>
     </g>
     <g id="line2d_34">
      <g>
       <use style="stroke:#000000;stroke-width:0.5;" x="518.4" xlink:href="#mcb0005524f" y="240.685714286"/>
      </g>
     </g>
     <g id="text_11">
      <!-- 20 -->
      <g transform="translate(54.40625 243.996964286)scale(0.12 -0.12)">
       <use xlink:href="#DejaVuSans-32"/>
       <use x="63.623046875" xlink:href="#DejaVuSans-30"/>
      </g>
     </g>
    </g>
    <g id="ytick_5">
     <g id="line2d_35">
      <g>
       <use style="stroke:#000000;stroke-width:0.5;" x="72.0" xlink:href="#m728421d6d4" y="191.314285714"/>
      </g>
     </g>
     <g id="line2d_36">
      <g>
       <use style="stroke:#000000;stroke-width:0.5;" x="518.4" xlink:href="#mcb0005524f" y="191.314285714"/>
      </g>
     </g>
     <g id="text_12">
      <!-- 25 -->
      <g transform="translate(54.6575 194.625535714)scale(0.12 -0.12)">
       <use xlink:href="#DejaVuSans-32"/>
       <use x="63.623046875" xlink:href="#DejaVuSans-35"/>
      </g>
     </g>
    </g>
    <g id="ytick_6">
     <g id="line2d_37">
      <g>
       <use style="stroke:#000000;stroke-width:0.5;" x="72.0" xlink:href="#m728421d6d4" y="141.942857143"/>
      </g>
     </g>
     <g id="line2d_38">
      <g>
       <use style="stroke:#000000;stroke-width:0.5;" x="518.4" xlink:href="#mcb0005524f" y="141.942857143"/>
      </g>
     </g>
     <g id="text_13">
      <!-- 30 -->
      <defs>
       <path d="
M40.5781 39.3125
Q47.6562 37.7969 51.625 33
Q55.6094 28.2188 55.6094 21.1875
Q55.6094 10.4062 48.1875 4.48438
Q40.7656 -1.42188 27.0938 -1.42188
Q22.5156 -1.42188 17.6562 -0.515625
Q12.7969 0.390625 7.625 2.20312
L7.625 11.7188
Q11.7188 9.32812 16.5938 8.10938
Q21.4844 6.89062 26.8125 6.89062
Q36.0781 6.89062 40.9375 10.5469
Q45.7969 14.2031 45.7969 21.1875
Q45.7969 27.6406 41.2812 31.2656
Q36.7656 34.9062 28.7188 34.9062
L20.2188 34.9062
L20.2188 43.0156
L29.1094 43.0156
Q36.375 43.0156 40.2344 45.9219
Q44.0938 48.8281 44.0938 54.2969
Q44.0938 59.9062 40.1094 62.9062
Q36.1406 65.9219 28.7188 65.9219
Q24.6562 65.9219 20.0156 65.0312
Q15.375 64.1562 9.8125 62.3125
L9.8125 71.0938
Q15.4375 72.6562 20.3438 73.4375
Q25.25 74.2188 29.5938 74.2188
Q40.8281 74.2188 47.3594 69.1094
Q53.9062 64.0156 53.9062 55.3281
Q53.9062 49.2656 50.4375 45.0938
Q46.9688 40.9219 40.5781 39.3125" id="DejaVuSans-33"/>
      </defs>
      <g transform="translate(54.441875 145.254107143)scale(0.12 -0.12)">
       <use xlink:href="#DejaVuSans-33"/>
       <use x="63.623046875" xlink:href="#DejaVuSans-30"/>
      </g>
     </g>
    </g>
    <g id="ytick_7">
     <g id="line2d_39">
      <g>
       <use style="stroke:#000000;stroke-width:0.5;" x="72.0" xlink:href="#m728421d6d4" y="92.5714285714"/>
      </g>
     </g>
     <g id="line2d_40">
      <g>
       <use style="stroke:#000000;stroke-width:0.5;" x="518.4" xlink:href="#mcb0005524f" y="92.5714285714"/>
      </g>
     </g>
     <g id="text_14">
      <!-- 35 -->
      <g transform="translate(54.693125 95.8826785714)scale(0.12 -0.12)">
       <use xlink:href="#DejaVuSans-33"/>
       <use x="63.623046875" xlink:href="#DejaVuSans-35"/>
      </g>
     </g>
    </g>
    <g id="ytick_8">
     <g id="line2d_41">
      <g>
       <use style="stroke:#000000;stroke-width:0.5;" x="72.0" xlink:href="#m728421d6d4" y="43.2"/>
      </g>
     </g>
     <g id="line2d_42">
      <g>
       <use style="stroke:#000000;stroke-width:0.5;" x="518.4" xlink:href="#mcb0005524f" y="43.2"/>
      </g>
     </g>
     <g id="text_15">
      <!-- 40 -->
      <g transform="translate(54.11375 46.51125)scale(0.12 -0.12)">
       <use xlink:href="#DejaVuSans-34"/>
       <use x="63.623046875" xlink:href="#DejaVuSans-30"/>
      </g>
     </g>
    </g>
   </g>
   <g id="patch_3">
    <path d="
M72 43.2
L518.4 43.2" style="fill:none;stroke:#000000;"/>
   </g>
   <g id="patch_4">
    <path d="
M518.4 388.8
L518.4 43.2" style="fill:none;stroke:#000000;"/>
   </g>
   <g id="patch_5">
    <path d="
M72 388.8
L518.4 388.8" style="fill:none;stroke:#000000;"/>
   </g>
   <g id="patch_6">
    <path d="
M72 388.8
L72 43.2" style="fill:none;stroke:#000000;"/>
   </g>
   <g id="legend_1">
    <g id="patch_7">
     <path d="
M79.2 381.6
L385.722 381.6
L385.722 335.007
L79.2 335.007
L79.2 381.6
z
" style="fill:#ffffff;stroke:#000000;"/>
    </g>
    <g id="line2d_43">
     <path d="
M89.28 346.669
L109.44 346.669" style="fill:none;stroke:#0000ff;stroke-linecap:square;"/>
    </g>
    <g id="line2d_44"/>
    <g id="text_16">
     <!-- evan -->
     <defs>
      <path d="
M54.8906 33.0156
L54.8906 0
L45.9062 0
L45.9062 32.7188
Q45.9062 40.4844 42.875 44.3281
Q39.8438 48.1875 33.7969 48.1875
Q26.5156 48.1875 22.3125 43.5469
Q18.1094 38.9219 18.1094 30.9062
L18.1094 0
L9.07812 0
L9.07812 54.6875
L18.1094 54.6875
L18.1094 46.1875
Q21.3438 51.125 25.7031 53.5625
Q30.0781 56 35.7969 56
Q45.2188 56 50.0469 50.1719
Q54.8906 44.3438 54.8906 33.0156" id="DejaVuSans-6e"/>
      <path d="
M56.2031 29.5938
L56.2031 25.2031
L14.8906 25.2031
Q15.4844 15.9219 20.4844 11.0625
Q25.4844 6.20312 34.4219 6.20312
Q39.5938 6.20312 44.4531 7.46875
Q49.3125 8.73438 54.1094 11.2812
L54.1094 2.78125
Q49.2656 0.734375 44.1875 -0.34375
Q39.1094 -1.42188 33.8906 -1.42188
Q20.7969 -1.42188 13.1562 6.1875
Q5.51562 13.8125 5.51562 26.8125
Q5.51562 40.2344 12.7656 48.1094
Q20.0156 56 32.3281 56
Q43.3594 56 49.7812 48.8906
Q56.2031 41.7969 56.2031 29.5938
M47.2188 32.2344
Q47.125 39.5938 43.0938 43.9844
Q39.0625 48.3906 32.4219 48.3906
Q24.9062 48.3906 20.3906 44.1406
Q15.875 39.8906 15.1875 32.1719
z
" id="DejaVuSans-65"/>
      <path d="
M34.2812 27.4844
Q23.3906 27.4844 19.1875 25
Q14.9844 22.5156 14.9844 16.5
Q14.9844 11.7188 18.1406 8.90625
Q21.2969 6.10938 26.7031 6.10938
Q34.1875 6.10938 38.7031 11.4062
Q43.2188 16.7031 43.2188 25.4844
L43.2188 27.4844
z

M52.2031 31.2031
L52.2031 0
L43.2188 0
L43.2188 8.29688
Q40.1406 3.32812 35.5469 0.953125
Q30.9531 -1.42188 24.3125 -1.42188
Q15.9219 -1.42188 10.9531 3.29688
Q6 8.01562 6 15.9219
Q6 25.1406 12.1719 29.8281
Q18.3594 34.5156 30.6094 34.5156
L43.2188 34.5156
L43.2188 35.4062
Q43.2188 41.6094 39.1406 45
Q35.0625 48.3906 27.6875 48.3906
Q23 48.3906 18.5469 47.2656
Q14.1094 46.1406 10.0156 43.8906
L10.0156 52.2031
Q14.9375 54.1094 19.5781 55.0469
Q24.2188 56 28.6094 56
Q40.4844 56 46.3438 49.8438
Q52.2031 43.7031 52.2031 31.2031" id="DejaVuSans-61"/>
      <path d="
M2.98438 54.6875
L12.5 54.6875
L29.5938 8.79688
L46.6875 54.6875
L56.2031 54.6875
L35.6875 0
L23.4844 0
z
" id="DejaVuSans-76"/>
     </defs>
     <g transform="translate(125.28 351.70875)scale(0.144 -0.144)">
      <use xlink:href="#DejaVuSans-65"/>
      <use x="61.5234375" xlink:href="#DejaVuSans-76"/>
      <use x="120.703125" xlink:href="#DejaVuSans-61"/>
      <use x="181.982421875" xlink:href="#DejaVuSans-6e"/>
     </g>
    </g>
    <g id="line2d_45">
     <path d="
M89.28 367.805
L109.44 367.805" style="fill:none;stroke:#008000;stroke-linecap:square;"/>
    </g>
    <g id="line2d_46"/>
    <g id="text_17">
     <!-- nick -->
     <defs>
      <path d="
M9.07812 75.9844
L18.1094 75.9844
L18.1094 31.1094
L44.9219 54.6875
L56.3906 54.6875
L27.3906 29.1094
L57.625 0
L45.9062 0
L18.1094 26.7031
L18.1094 0
L9.07812 0
z
" id="DejaVuSans-6b"/>
      <path d="
M48.7812 52.5938
L48.7812 44.1875
Q44.9688 46.2969 41.1406 47.3438
Q37.3125 48.3906 33.4062 48.3906
Q24.6562 48.3906 19.8125 42.8438
Q14.9844 37.3125 14.9844 27.2969
Q14.9844 17.2812 19.8125 11.7344
Q24.6562 6.20312 33.4062 6.20312
Q37.3125 6.20312 41.1406 7.25
Q44.9688 8.29688 48.7812 10.4062
L48.7812 2.09375
Q45.0156 0.34375 40.9844 -0.53125
Q36.9688 -1.42188 32.4219 -1.42188
Q20.0625 -1.42188 12.7812 6.34375
Q5.51562 14.1094 5.51562 27.2969
Q5.51562 40.6719 12.8594 48.3281
Q20.2188 56 33.0156 56
Q37.1562 56 41.1094 55.1406
Q45.0625 54.2969 48.7812 52.5938" id="DejaVuSans-63"/>
      <path d="
M9.42188 54.6875
L18.4062 54.6875
L18.4062 0
L9.42188 0
z

M9.42188 75.9844
L18.4062 75.9844
L18.4062 64.5938
L9.42188 64.5938
z
" id="DejaVuSans-69"/>
     </defs>
     <g transform="translate(125.28 372.84525)scale(0.144 -0.144)">
      <use xlink:href="#DejaVuSans-6e"/>
      <use x="63.37890625" xlink:href="#DejaVuSans-69"/>
      <use x="91.162109375" xlink:href="#DejaVuSans-63"/>
      <use x="146.142578125" xlink:href="#DejaVuSans-6b"/>
     </g>
    </g>
    <g id="line2d_47">
     <path d="
M191.718 346.669
L211.878 346.669" style="fill:none;stroke:#ff0000;stroke-linecap:square;"/>
    </g>
    <g id="line2d_48"/>
    <g id="text_18">
     <!-- william -->
     <defs>
      <path d="
M52 44.1875
Q55.375 50.25 60.0625 53.125
Q64.75 56 71.0938 56
Q79.6406 56 84.2812 50.0156
Q88.9219 44.0469 88.9219 33.0156
L88.9219 0
L79.8906 0
L79.8906 32.7188
Q79.8906 40.5781 77.0938 44.375
Q74.3125 48.1875 68.6094 48.1875
Q61.625 48.1875 57.5625 43.5469
Q53.5156 38.9219 53.5156 30.9062
L53.5156 0
L44.4844 0
L44.4844 32.7188
Q44.4844 40.625 41.7031 44.4062
Q38.9219 48.1875 33.1094 48.1875
Q26.2188 48.1875 22.1562 43.5312
Q18.1094 38.875 18.1094 30.9062
L18.1094 0
L9.07812 0
L9.07812 54.6875
L18.1094 54.6875
L18.1094 46.1875
Q21.1875 51.2188 25.4844 53.6094
Q29.7812 56 35.6875 56
Q41.6562 56 45.8281 52.9688
Q50 49.9531 52 44.1875" id="DejaVuSans-6d"/>
      <path d="
M4.20312 54.6875
L13.1875 54.6875
L24.4219 12.0156
L35.5938 54.6875
L46.1875 54.6875
L57.4219 12.0156
L68.6094 54.6875
L77.5938 54.6875
L63.2812 0
L52.6875 0
L40.9219 44.8281
L29.1094 0
L18.5 0
z
" id="DejaVuSans-77"/>
      <path d="
M9.42188 75.9844
L18.4062 75.9844
L18.4062 0
L9.42188 0
z
" id="DejaVuSans-6c"/>
     </defs>
     <g transform="translate(227.718 351.70875)scale(0.144 -0.144)">
      <use xlink:href="#DejaVuSans-77"/>
      <use x="81.787109375" xlink:href="#DejaVuSans-69"/>
      <use x="109.5703125" xlink:href="#DejaVuSans-6c"/>
      <use x="137.353515625" xlink:href="#DejaVuSans-6c"/>
      <use x="165.13671875" xlink:href="#DejaVuSans-69"/>
      <use x="192.919921875" xlink:href="#DejaVuSans-61"/>
      <use x="254.19921875" xlink:href="#DejaVuSans-6d"/>
     </g>
    </g>
    <g id="line2d_49">
     <path d="
M191.718 367.805
L211.878 367.805" style="fill:none;stroke:#00bfbf;stroke-linecap:square;"/>
    </g>
    <g id="line2d_50"/>
    <g id="text_19">
     <!-- chris -->
     <defs>
      <path d="
M44.2812 53.0781
L44.2812 44.5781
Q40.4844 46.5312 36.375 47.5
Q32.2812 48.4844 27.875 48.4844
Q21.1875 48.4844 17.8438 46.4375
Q14.5 44.3906 14.5 40.2812
Q14.5 37.1562 16.8906 35.375
Q19.2812 33.5938 26.5156 31.9844
L29.5938 31.2969
Q39.1562 29.25 43.1875 25.5156
Q47.2188 21.7812 47.2188 15.0938
Q47.2188 7.46875 41.1875 3.01562
Q35.1562 -1.42188 24.6094 -1.42188
Q20.2188 -1.42188 15.4531 -0.5625
Q10.6875 0.296875 5.42188 2
L5.42188 11.2812
Q10.4062 8.6875 15.2344 7.39062
Q20.0625 6.10938 24.8125 6.10938
Q31.1562 6.10938 34.5625 8.28125
Q37.9844 10.4531 37.9844 14.4062
Q37.9844 18.0625 35.5156 20.0156
Q33.0625 21.9688 24.7031 23.7812
L21.5781 24.5156
Q13.2344 26.2656 9.51562 29.9062
Q5.8125 33.5469 5.8125 39.8906
Q5.8125 47.6094 11.2812 51.7969
Q16.75 56 26.8125 56
Q31.7812 56 36.1719 55.2656
Q40.5781 54.5469 44.2812 53.0781" id="DejaVuSans-73"/>
      <path d="
M54.8906 33.0156
L54.8906 0
L45.9062 0
L45.9062 32.7188
Q45.9062 40.4844 42.875 44.3281
Q39.8438 48.1875 33.7969 48.1875
Q26.5156 48.1875 22.3125 43.5469
Q18.1094 38.9219 18.1094 30.9062
L18.1094 0
L9.07812 0
L9.07812 75.9844
L18.1094 75.9844
L18.1094 46.1875
Q21.3438 51.125 25.7031 53.5625
Q30.0781 56 35.7969 56
Q45.2188 56 50.0469 50.1719
Q54.8906 44.3438 54.8906 33.0156" id="DejaVuSans-68"/>
      <path d="
M41.1094 46.2969
Q39.5938 47.1719 37.8125 47.5781
Q36.0312 48 33.8906 48
Q26.2656 48 22.1875 43.0469
Q18.1094 38.0938 18.1094 28.8125
L18.1094 0
L9.07812 0
L9.07812 54.6875
L18.1094 54.6875
L18.1094 46.1875
Q20.9531 51.1719 25.4844 53.5781
Q30.0312 56 36.5312 56
Q37.4531 56 38.5781 55.875
Q39.7031 55.7656 41.0625 55.5156
z
" id="DejaVuSans-72"/>
     </defs>
     <g transform="translate(227.718 372.84525)scale(0.144 -0.144)">
      <use xlink:href="#DejaVuSans-63"/>
      <use x="54.98046875" xlink:href="#DejaVuSans-68"/>
      <use x="118.359375" xlink:href="#DejaVuSans-72"/>
      <use x="159.47265625" xlink:href="#DejaVuSans-69"/>
      <use x="187.255859375" xlink:href="#DejaVuSans-73"/>
     </g>
    </g>
    <g id="line2d_51">
     <path d="
M309.64 346.669
L329.8 346.669" style="fill:none;stroke:#bf00bf;stroke-linecap:square;"/>
    </g>
    <g id="line2d_52"/>
    <g id="text_20">
     <!-- andy -->
     <defs>
      <path d="
M45.4062 46.3906
L45.4062 75.9844
L54.3906 75.9844
L54.3906 0
L45.4062 0
L45.4062 8.20312
Q42.5781 3.32812 38.25 0.953125
Q33.9375 -1.42188 27.875 -1.42188
Q17.9688 -1.42188 11.7344 6.48438
Q5.51562 14.4062 5.51562 27.2969
Q5.51562 40.1875 11.7344 48.0938
Q17.9688 56 27.875 56
Q33.9375 56 38.25 53.625
Q42.5781 51.2656 45.4062 46.3906
M14.7969 27.2969
Q14.7969 17.3906 18.875 11.75
Q22.9531 6.10938 30.0781 6.10938
Q37.2031 6.10938 41.2969 11.75
Q45.4062 17.3906 45.4062 27.2969
Q45.4062 37.2031 41.2969 42.8438
Q37.2031 48.4844 30.0781 48.4844
Q22.9531 48.4844 18.875 42.8438
Q14.7969 37.2031 14.7969 27.2969" id="DejaVuSans-64"/>
      <path d="
M32.1719 -5.07812
Q28.375 -14.8438 24.75 -17.8125
Q21.1406 -20.7969 15.0938 -20.7969
L7.90625 -20.7969
L7.90625 -13.2812
L13.1875 -13.2812
Q16.8906 -13.2812 18.9375 -11.5156
Q21 -9.76562 23.4844 -3.21875
L25.0938 0.875
L2.98438 54.6875
L12.5 54.6875
L29.5938 11.9219
L46.6875 54.6875
L56.2031 54.6875
z
" id="DejaVuSans-79"/>
     </defs>
     <g transform="translate(345.6405 351.70875)scale(0.144 -0.144)">
      <use xlink:href="#DejaVuSans-61"/>
      <use x="61.279296875" xlink:href="#DejaVuSans-6e"/>
      <use x="124.658203125" xlink:href="#DejaVuSans-64"/>
      <use x="188.134765625" xlink:href="#DejaVuSans-79"/>
     </g>
    </g>
    <g id="line2d_53">
     <path d="
M309.64 367.805
L329.8 367.805" style="fill:none;stroke:#bfbf00;stroke-linecap:square;"/>
    </g>
    <g id="line2d_54"/>
    <g id="text_21">
     <!-- tim -->
     <defs>
      <path d="
M18.3125 70.2188
L18.3125 54.6875
L36.8125 54.6875
L36.8125 47.7031
L18.3125 47.7031
L18.3125 18.0156
Q18.3125 11.3281 20.1406 9.42188
Q21.9688 7.51562 27.5938 7.51562
L36.8125 7.51562
L36.8125 0
L27.5938 0
Q17.1875 0 13.2344 3.875
Q9.28125 7.76562 9.28125 18.0156
L9.28125 47.7031
L2.6875 47.7031
L2.6875 54.6875
L9.28125 54.6875
L9.28125 70.2188
z
" id="DejaVuSans-74"/>
     </defs>
     <g transform="translate(345.6405 372.84525)scale(0.144 -0.144)">
      <use xlink:href="#DejaVuSans-74"/>
      <use x="39.208984375" xlink:href="#DejaVuSans-69"/>
      <use x="66.9921875" xlink:href="#DejaVuSans-6d"/>
     </g>
    </g>
   </g>
  </g>
 </g>
 <defs>
  <clipPath id="p7ff5b81e1d">
   <rect height="345.6" width="446.4" x="72.0" y="43.2"/>
  </clipPath>
 </defs>
</svg>
