<?xml version="1.0" encoding="utf-8" standalone="no"?>
<!DOCTYPE svg PUBLIC "-//W3C//DTD SVG 1.1//EN"
  "http://www.w3.org/Graphics/SVG/1.1/DTD/svg11.dtd">
<!-- Created with matplotlib (http://matplotlib.org/) -->
<svg height="432pt" version="1.1" viewBox="0 0 576 432" width="576pt" xmlns="http://www.w3.org/2000/svg" xmlns:xlink="http://www.w3.org/1999/xlink">
 <defs>
  <style type="text/css">
*{stroke-linecap:butt;stroke-linejoin:round;}
  </style>
 </defs>
 <g id="figure_1">
  <g id="patch_1">
   <path d="
M0 432
L576 432
L576 0
L0 0
z
" style="fill:#ffffff;"/>
  </g>
  <g id="axes_1">
   <g id="patch_2">
    <path d="
M72 388.8
L518.4 388.8
L518.4 43.2
L72 43.2
z
" style="fill:#ffffff;"/>
   </g>
   <g id="line2d_1">
    <path clip-path="url(#p7ff5b81e1d)" d="
M72 388.8
L75.72 144.288
L79.44 120.096
L83.16 150.336
L86.88 173.664
L90.6 150.336
L94.32 150.336
L98.04 127.008
L101.76 127.008
L105.48 115.776
L109.2 115.776
L112.92 117.504
L116.64 117.504
L120.36 117.504
L124.08 114.048
L127.8 129.6
L131.52 122.688
L135.24 122.688
L138.96 119.232
L142.68 124.416
L146.4 122.688
L150.12 127.008
L153.84 127.008
L157.56 120.96
L161.28 120.96
L165 132.192
L168.72 132.192
L172.44 120.096
L176.16 116.64
L179.88 124.416
L183.6 124.416
L187.32 124.416
L191.04 135.648
L194.76 140.832
L198.48 135.648
L202.2 133.056
L205.92 133.056
L209.64 128.736
L213.36 129.6
L217.08 127.008
L220.8 127.008
L224.52 120.96
L228.24 120.96
L231.96 118.368
L235.68 118.368
L239.4 117.504
L243.12 117.504
L246.84 117.504
L250.56 115.776
L254.28 112.32
L258 114.912
L261.72 114.912
L265.44 115.776
L269.16 114.048
L272.88 113.184
L276.6 113.184
L280.32 113.184
L284.04 113.184
L287.76 113.184
L291.48 113.184
L295.2 113.184
L298.92 113.184
L302.64 113.184
L306.36 118.368
L310.08 122.688
L313.8 117.504
L317.52 121.824
L321.24 121.824
L324.96 116.64
L328.68 117.504
L332.4 117.504
L336.12 117.504
L339.84 117.504
L343.56 117.504
L347.28 114.048
L351 113.184
L354.72 113.184
L358.44 113.184
L362.16 113.184
L365.88 110.592
L369.6 110.592
L373.32 110.592
L377.04 108
L380.76 108
L384.48 110.592
L388.2 114.048
L391.92 122.688
L395.64 122.688
L399.36 122.688
L403.08 122.688
L406.8 122.688
L410.52 120.96
L414.24 116.64
L417.96 116.64
L421.68 116.64
L425.4 116.64
L429.12 116.64
L432.84 116.64
L436.56 116.64
L440.28 116.64
L444 116.64
L447.72 116.64
L451.44 116.64
L455.16 116.64
L458.88 116.64
L462.6 116.64
L466.32 116.64
L470.04 116.64
L473.76 116.64
L477.48 116.64
L481.2 114.912" style="fill:none;stroke:#0000ff;stroke-linecap:square;"/>
   </g>
   <g id="line2d_2">
    <path clip-path="url(#p7ff5b81e1d)" d="
M72 388.8
L75.72 144.288
L79.44 168.48
L83.16 138.24
L86.88 114.912
L90.6 137.376
L94.32 137.376
L98.04 137.376
L101.76 118.368
L105.48 129.6
L109.2 129.6
L112.92 127.872
L116.64 127.872
L120.36 127.872
L124.08 131.328
L127.8 115.776
L131.52 115.776
L135.24 118.368
L138.96 121.824
L142.68 121.824
L146.4 124.416
L150.12 124.416
L153.84 122.688
L157.56 122.688
L161.28 115.776
L165 115.776
L168.72 111.456
L172.44 124.416
L176.16 127.872
L179.88 127.872
L183.6 127.872
L187.32 127.872
L191.04 127.872
L194.76 121.824
L198.48 121.824
L202.2 118.368
L205.92 118.368
L209.64 113.184
L213.36 113.184
L217.08 109.728
L220.8 106.272
L224.52 106.272
L228.24 116.64
L231.96 119.232
L235.68 119.232
L239.4 119.232
L243.12 116.64
L246.84 114.048
L250.56 112.32
L254.28 115.776
L258 113.184
L261.72 113.184
L265.44 112.32
L269.16 109.728
L272.88 108.864
L276.6 108.864
L280.32 105.408
L284.04 104.544
L287.76 109.728
L291.48 108.864
L295.2 109.728
L298.92 109.728
L302.64 107.136
L306.36 101.952
L310.08 97.632
L313.8 102.816
L317.52 99.36
L321.24 99.36
L324.96 103.68
L328.68 102.816
L332.4 111.456
L336.12 111.456
L339.84 114.048
L343.56 114.048
L347.28 116.64
L351 118.368
L354.72 118.368
L358.44 116.64
L362.16 116.64
L365.88 116.64
L369.6 116.64
L373.32 116.64
L377.04 116.64
L380.76 116.64
L384.48 116.64
L388.2 116.64
L391.92 116.64
L395.64 116.64
L399.36 116.64
L403.08 116.64
L406.8 116.64
L410.52 116.64
L414.24 116.64
L417.96 116.64
L421.68 116.64
L425.4 116.64
L429.12 116.64
L432.84 116.64
L436.56 116.64
L440.28 116.64
L444 116.64
L447.72 116.64
L451.44 116.64
L455.16 116.64
L458.88 116.64
L462.6 116.64
L466.32 116.64
L470.04 116.64
L473.76 116.64
L477.48 116.64
L481.2 116.64" style="fill:none;stroke:#008000;stroke-linecap:square;"/>
   </g>
   <g id="line2d_3">
    <path clip-path="url(#p7ff5b81e1d)" d="
M72 388.8
L75.72 201.312
L79.44 201.312
L83.16 235.872
L86.88 209.952
L90.6 184.896
L94.32 195.264
L98.04 172.8
L101.76 172.8
L105.48 183.168
L109.2 193.536
L112.92 193.536
L116.64 203.04
L120.36 214.272
L124.08 214.272
L127.8 198.72
L131.52 191.808
L135.24 190.08
L138.96 190.08
L142.68 184.032
L146.4 184.032
L150.12 189.216
L153.84 190.944
L157.56 190.944
L161.28 196.992
L165 208.224
L168.72 208.224
L172.44 208.224
L176.16 208.224
L179.88 198.72
L183.6 205.632
L187.32 205.632
L191.04 205.632
L194.76 200.448
L198.48 206.496
L202.2 209.952
L205.92 209.952
L209.64 209.952
L213.36 209.952
L217.08 209.952
L220.8 214.272
L224.52 207.36
L228.24 207.36
L231.96 207.36
L235.68 209.088
L239.4 210.816
L243.12 210.816
L246.84 213.408
L250.56 215.136
L254.28 218.592
L258 221.184
L261.72 223.776
L265.44 223.776
L269.16 223.776
L272.88 225.504
L276.6 225.504
L280.32 228.96
L284.04 229.824
L287.76 224.64
L291.48 225.504
L295.2 224.64
L298.92 224.64
L302.64 227.232
L306.36 222.048
L310.08 222.048
L313.8 216.864
L317.52 212.544
L321.24 212.544
L324.96 212.544
L328.68 213.408
L332.4 204.768
L336.12 203.04
L339.84 206.496
L343.56 206.496
L347.28 203.04
L351 203.04
L354.72 204.768
L358.44 204.768
L362.16 204.768
L365.88 206.496
L369.6 206.496
L373.32 206.496
L377.04 203.904
L380.76 205.632
L384.48 205.632
L388.2 202.176
L391.92 202.176
L395.64 199.584
L399.36 198.72
L403.08 199.584
L406.8 199.584
L410.52 199.584
L414.24 196.128
L417.96 196.128
L421.68 196.128
L425.4 196.128
L429.12 193.536
L432.84 190.944
L436.56 190.944
L440.28 190.08
L444 190.944
L447.72 188.352
L451.44 188.352
L455.16 188.352
L458.88 188.352
L462.6 190.08
L466.32 190.08
L470.04 190.08
L473.76 188.352
L477.48 186.624
L481.2 188.352" style="fill:none;stroke:#ff0000;stroke-linecap:square;"/>
   </g>
   <g id="line2d_4">
    <path clip-path="url(#p7ff5b81e1d)" d="
M72 388.8
L75.72 201.312
L79.44 201.312
L83.16 167.616
L86.88 167.616
L90.6 167.616
L94.32 153.792
L98.04 181.44
L101.76 181.44
L105.48 181.44
L109.2 181.44
L112.92 181.44
L116.64 181.44
L120.36 181.44
L124.08 181.44
L127.8 181.44
L131.52 181.44
L135.24 181.44
L138.96 181.44
L142.68 169.344
L146.4 173.664
L150.12 166.752
L153.84 170.208
L157.56 177.984
L161.28 177.984
L165 163.296
L168.72 163.296
L172.44 163.296
L176.16 163.296
L179.88 150.336
L183.6 150.336
L187.32 146.88
L191.04 130.464
L194.76 130.464
L198.48 130.464
L202.2 130.464
L205.92 130.464
L209.64 136.512
L213.36 135.648
L217.08 139.968
L220.8 139.968
L224.52 147.744
L228.24 135.648
L231.96 135.648
L235.68 135.648
L239.4 138.24
L243.12 140.832
L246.84 140.832
L250.56 142.56
L254.28 138.24
L258 134.784
L261.72 131.328
L265.44 132.192
L269.16 134.784
L272.88 136.512
L276.6 136.512
L280.32 132.192
L284.04 133.056
L287.76 133.056
L291.48 133.056
L295.2 133.056
L298.92 133.056
L302.64 133.056
L306.36 133.056
L310.08 133.056
L313.8 133.056
L317.52 133.056
L321.24 133.056
L324.96 133.056
L328.68 133.056
L332.4 133.056
L336.12 133.056
L339.84 128.736
L343.56 127.008
L347.28 127.008
L351 125.28
L354.72 123.552
L358.44 123.552
L362.16 123.552
L365.88 123.552
L369.6 123.552
L373.32 123.552
L377.04 127.008
L380.76 124.416
L384.48 124.416
L388.2 120.096
L391.92 108.864
L395.64 108.864
L399.36 108.864
L403.08 108.864
L406.8 108.864
L410.52 110.592
L414.24 110.592
L417.96 110.592
L421.68 110.592
L425.4 110.592
L429.12 110.592
L432.84 110.592
L436.56 110.592
L440.28 110.592
L444 108.864
L447.72 105.408
L451.44 105.408
L455.16 105.408
L458.88 105.408
L462.6 105.408
L466.32 105.408
L470.04 106.272
L473.76 108.864
L477.48 108.864
L481.2 108.864" style="fill:none;stroke:#00bfbf;stroke-linecap:square;"/>
   </g>
   <g id="line2d_5">
    <path clip-path="url(#p7ff5b81e1d)" d="
M72 388.8
L75.72 388.8
L79.44 388.8
L83.16 388.8
L86.88 388.8
L90.6 388.8
L94.32 388.8
L98.04 388.8
L101.76 241.92
L105.48 228.96
L109.2 228.96
L112.92 230.688
L116.64 241.056
L120.36 253.152
L124.08 249.696
L127.8 249.696
L131.52 249.696
L135.24 251.424
L138.96 255.744
L142.68 255.744
L146.4 255.744
L150.12 255.744
L153.84 253.152
L157.56 253.152
L161.28 246.24
L165 246.24
L168.72 246.24
L172.44 260.064
L176.16 260.064
L179.88 270.432
L183.6 262.656
L187.32 266.112
L191.04 253.152
L194.76 258.336
L198.48 258.336
L202.2 258.336
L205.92 263.52
L209.64 263.52
L213.36 263.52
L217.08 263.52
L220.8 259.2
L224.52 259.2
L228.24 247.968
L231.96 247.968
L235.68 249.696
L239.4 249.696
L243.12 247.968
L246.84 245.376
L250.56 245.376
L254.28 245.376
L258 245.376
L261.72 245.376
L265.44 245.376
L269.16 245.376
L272.88 245.376
L276.6 245.376
L280.32 245.376
L284.04 245.376
L287.76 245.376
L291.48 245.376
L295.2 245.376
L298.92 245.376
L302.64 245.376
L306.36 245.376
L310.08 245.376
L313.8 245.376
L317.52 245.376
L321.24 245.376
L324.96 245.376
L328.68 243.648
L332.4 229.824
L336.12 231.552
L339.84 231.552
L343.56 229.824
L347.28 229.824
L351 232.416
L354.72 229.824
L358.44 232.416
L362.16 232.416
L365.88 235.008
L369.6 235.008
L373.32 231.552
L377.04 231.552
L380.76 231.552
L384.48 235.872
L388.2 240.192
L391.92 240.192
L395.64 243.648
L399.36 243.648
L403.08 242.784
L406.8 242.784
L410.52 242.784
L414.24 242.784
L417.96 242.784
L421.68 242.784
L425.4 242.784
L429.12 238.464
L432.84 241.92
L436.56 244.512
L440.28 244.512
L444 244.512
L447.72 244.512
L451.44 246.24
L455.16 246.24
L458.88 248.832
L462.6 250.56
L466.32 251.424
L470.04 251.424
L473.76 253.152
L477.48 253.152
L481.2 251.424" style="fill:none;stroke:#bf00bf;stroke-linecap:square;"/>
   </g>
   <g id="line2d_6">
    <path clip-path="url(#p7ff5b81e1d)" d="
M72 388.8
L75.72 388.8
L79.44 388.8
L83.16 388.8
L86.88 388.8
L90.6 388.8
L94.32 388.8
L98.04 388.8
L101.76 388.8
L105.48 388.8
L109.2 388.8
L112.92 388.8
L116.64 388.8
L120.36 388.8
L124.08 388.8
L127.8 388.8
L131.52 388.8
L135.24 388.8
L138.96 388.8
L142.68 388.8
L146.4 388.8
L150.12 388.8
L153.84 388.8
L157.56 388.8
L161.28 388.8
L165 388.8
L168.72 388.8
L172.44 388.8
L176.16 388.8
L179.88 388.8
L183.6 388.8
L187.32 388.8
L191.04 388.8
L194.76 388.8
L198.48 388.8
L202.2 388.8
L205.92 388.8
L209.64 388.8
L213.36 388.8
L217.08 388.8
L220.8 388.8
L224.52 388.8
L228.24 388.8
L231.96 388.8
L235.68 388.8
L239.4 388.8
L243.12 388.8
L246.84 388.8
L250.56 388.8
L254.28 388.8
L258 388.8
L261.72 388.8
L265.44 388.8
L269.16 388.8
L272.88 388.8
L276.6 388.8
L280.32 388.8
L284.04 388.8
L287.76 388.8
L291.48 388.8
L295.2 388.8
L298.92 388.8
L302.64 388.8
L306.36 388.8
L310.08 388.8
L313.8 388.8
L317.52 388.8
L321.24 388.8
L324.96 388.8
L328.68 388.8
L332.4 388.8
L336.12 388.8
L339.84 388.8
L343.56 388.8
L347.28 388.8
L351 388.8
L354.72 388.8
L358.44 388.8
L362.16 388.8
L365.88 388.8
L369.6 131.328
L373.32 131.328
L377.04 131.328
L380.76 131.328
L384.48 131.328
L388.2 131.328
L391.92 131.328
L395.64 131.328
L399.36 131.328
L403.08 131.328
L406.8 131.328
L410.52 131.328
L414.24 131.328
L417.96 122.688
L421.68 122.688
L425.4 122.688
L429.12 122.688
L432.84 122.688
L436.56 122.688
L440.28 122.688
L444 122.688
L447.72 152.928
L451.44 152.928
L455.16 152.928
L458.88 152.928
L462.6 152.928
L466.32 152.928
L470.04 152.928
L473.76 152.928
L477.48 173.664
L481.2 173.664" style="fill:none;stroke:#bfbf00;stroke-linecap:square;"/>
   </g>
   <g id="line2d_7">
    <path clip-path="url(#p7ff5b81e1d)" d="
M72 388.8
L75.72 388.8
L79.44 388.8
L83.16 388.8
L86.88 388.8
L90.6 388.8
L94.32 388.8
L98.04 388.8
L101.76 241.92
L105.48 228.96
L109.2 228.96
L112.92 230.688
L116.64 241.056
L120.36 253.152
L124.08 249.696
L127.8 249.696
L131.52 249.696
L135.24 251.424
L138.96 255.744
L142.68 255.744
L146.4 255.744
L150.12 255.744
L153.84 253.152
L157.56 253.152
L161.28 246.24
L165 246.24
L168.72 246.24
L172.44 260.064
L176.16 260.064
L179.88 270.432
L183.6 262.656
L187.32 266.112
L191.04 253.152
L194.76 258.336
L198.48 258.336
L202.2 258.336
L205.92 263.52
L209.64 263.52
L213.36 263.52
L217.08 263.52
L220.8 259.2
L224.52 259.2
L228.24 247.968
L231.96 247.968
L235.68 249.696
L239.4 249.696
L243.12 247.968
L246.84 245.376
L250.56 245.376
L254.28 245.376
L258 245.376
L261.72 245.376
L265.44 245.376
L269.16 245.376
L272.88 245.376
L276.6 245.376
L280.32 245.376
L284.04 245.376
L287.76 245.376
L291.48 245.376
L295.2 245.376
L298.92 245.376
L302.64 245.376
L306.36 245.376
L310.08 245.376
L313.8 245.376
L317.52 245.376
L321.24 245.376
L324.96 245.376
L328.68 243.648
L332.4 229.824
L336.12 231.552
L339.84 231.552
L343.56 229.824
L347.28 229.824
L351 232.416
L354.72 229.824
L358.44 232.416
L362.16 232.416
L365.88 235.008
L369.6 235.008
L373.32 231.552
L377.04 231.552
L380.76 231.552
L384.48 235.872
L388.2 240.192
L391.92 240.192
L395.64 243.648
L399.36 243.648
L403.08 242.784
L406.8 242.784
L410.52 242.784
L414.24 242.784
L417.96 242.784
L421.68 242.784
L425.4 242.784
L429.12 238.464
L432.84 241.92
L436.56 244.512
L440.28 244.512
L444 244.512
L447.72 244.512
L451.44 246.24
L455.16 246.24
L458.88 248.832
L462.6 250.56
L466.32 251.424
L470.04 251.424
L473.76 253.152
L477.48 253.152
L481.2 251.424" style="fill:none;stroke:#000000;stroke-linecap:square;"/>
   </g>
   <g id="line2d_8">
    <path clip-path="url(#p7ff5b81e1d)" d="
M72 388.8
L75.72 388.8
L79.44 388.8
L83.16 388.8
L86.88 388.8
L90.6 388.8
L94.32 388.8
L98.04 388.8
L101.76 241.92
L105.48 228.96
L109.2 228.96
L112.92 230.688
L116.64 241.056
L120.36 253.152
L124.08 249.696
L127.8 249.696
L131.52 249.696
L135.24 251.424
L138.96 255.744
L142.68 255.744
L146.4 255.744
L150.12 255.744
L153.84 253.152
L157.56 253.152
L161.28 246.24
L165 246.24
L168.72 246.24
L172.44 260.064
L176.16 260.064
L179.88 270.432
L183.6 262.656
L187.32 266.112
L191.04 253.152
L194.76 258.336
L198.48 258.336
L202.2 258.336
L205.92 263.52
L209.64 263.52
L213.36 263.52
L217.08 263.52
L220.8 259.2
L224.52 259.2
L228.24 247.968
L231.96 247.968
L235.68 249.696
L239.4 249.696
L243.12 247.968
L246.84 245.376
L250.56 245.376
L254.28 245.376
L258 245.376
L261.72 245.376
L265.44 245.376
L269.16 245.376
L272.88 245.376
L276.6 245.376
L280.32 245.376
L284.04 245.376
L287.76 245.376
L291.48 245.376
L295.2 139.968
L298.92 139.968
L302.64 139.968
L306.36 139.968
L310.08 139.968
L313.8 139.968
L317.52 139.968
L321.24 139.968
L324.96 139.968
L328.68 139.968
L332.4 229.824
L336.12 231.552
L339.84 231.552
L343.56 229.824
L347.28 229.824
L351 232.416
L354.72 229.824
L358.44 232.416
L362.16 232.416
L365.88 235.008
L369.6 235.008
L373.32 231.552
L377.04 231.552
L380.76 231.552
L384.48 235.872
L388.2 240.192
L391.92 240.192
L395.64 243.648
L399.36 243.648
L403.08 242.784
L406.8 242.784
L410.52 242.784
L414.24 242.784
L417.96 242.784
L421.68 242.784
L425.4 242.784
L429.12 238.464
L432.84 241.92
L436.56 244.512
L440.28 244.512
L444 244.512
L447.72 244.512
L451.44 246.24
L455.16 246.24
L458.88 248.832
L462.6 250.56
L466.32 251.424
L470.04 251.424
L473.76 253.152
L477.48 253.152
L481.2 251.424" style="fill:none;stroke:#0000ff;stroke-linecap:square;"/>
   </g>
   <g id="line2d_9">
    <path clip-path="url(#p7ff5b81e1d)" d="
M72 388.8
L75.72 388.8
L79.44 388.8
L83.16 388.8
L86.88 388.8
L90.6 388.8
L94.32 388.8
L98.04 388.8
L101.76 388.8
L105.48 388.8
L109.2 388.8
L112.92 388.8
L116.64 388.8
L120.36 388.8
L124.08 388.8
L127.8 388.8
L131.52 388.8
L135.24 191.808
L138.96 191.808
L142.68 191.808
L146.4 191.808
L150.12 177.984
L153.84 177.984
L157.56 162.432
L161.28 162.432
L165 162.432
L168.72 171.936
L172.44 171.936
L176.16 171.936
L179.88 171.936
L183.6 171.936
L187.32 171.936
L191.04 171.936
L194.76 171.936
L198.48 188.352
L202.2 188.352
L205.92 188.352
L209.64 199.584
L213.36 199.584
L217.08 207.36
L220.8 207.36
L224.52 207.36
L228.24 207.36
L231.96 214.272
L235.68 214.272
L239.4 214.272
L243.12 214.272
L246.84 214.272
L250.56 214.272
L254.28 214.272
L258 214.272
L261.72 205.632
L265.44 205.632
L269.16 210.816
L272.88 210.816
L276.6 210.816
L280.32 210.816
L284.04 210.816
L287.76 210.816
L291.48 207.36
L295.2 207.36
L298.92 207.36
L302.64 213.408
L306.36 213.408
L310.08 225.504
L313.8 225.504
L317.52 225.504
L321.24 225.504
L324.96 225.504
L328.68 225.504
L332.4 225.504
L336.12 225.504
L339.84 225.504
L343.56 228.96
L347.28 228.96
L351 228.96
L354.72 228.96
L358.44 228.96
L362.16 228.96
L365.88 228.96
L369.6 228.96
L373.32 228.96
L377.04 237.6
L380.76 237.6
L384.48 237.6
L388.2 237.6
L391.92 211.68
L395.64 211.68
L399.36 215.136
L403.08 215.136
L406.8 215.136
L410.52 215.136
L414.24 226.368
L417.96 226.368
L421.68 226.368
L425.4 226.368
L429.12 226.368
L432.84 226.368
L436.56 226.368
L440.28 226.368
L444 222.912
L447.72 222.912
L451.44 222.912
L455.16 222.912
L458.88 222.912
L462.6 222.912
L466.32 222.912
L470.04 222.912
L473.76 218.592
L477.48 218.592
L481.2 218.592" style="fill:none;stroke:#008000;stroke-linecap:square;"/>
   </g>
   <g id="line2d_10">
    <path clip-path="url(#p7ff5b81e1d)" d="
M72 388.8
L75.72 388.8
L79.44 388.8
L83.16 388.8
L86.88 388.8
L90.6 388.8
L94.32 388.8
L98.04 184.032
L101.76 184.032
L105.48 184.032
L109.2 206.496
L112.92 206.496
L116.64 206.496
L120.36 183.168
L124.08 183.168
L127.8 183.168
L131.52 183.168
L135.24 183.168
L138.96 183.168
L142.68 196.992
L146.4 191.808
L150.12 191.808
L153.84 191.808
L157.56 203.904
L161.28 203.904
L165 203.904
L168.72 196.128
L172.44 196.128
L176.16 203.04
L179.88 203.04
L183.6 203.04
L187.32 203.04
L191.04 203.04
L194.76 203.04
L198.48 203.04
L202.2 203.04
L205.92 211.68
L209.64 211.68
L213.36 210.816
L217.08 210.816
L220.8 210.816
L224.52 222.912
L228.24 222.912
L231.96 222.912
L235.68 220.32
L239.4 220.32
L243.12 220.32
L246.84 220.32
L250.56 220.32
L254.28 220.32
L258 220.32
L261.72 220.32
L265.44 220.32
L269.16 220.32
L272.88 220.32
L276.6 220.32
L280.32 220.32
L284.04 220.32
L287.76 220.32
L291.48 220.32
L295.2 220.32
L298.92 220.32
L302.64 220.32
L306.36 232.416
L310.08 232.416
L313.8 244.512
L317.52 244.512
L321.24 244.512
L324.96 254.88
L328.68 254.88
L332.4 254.88
L336.12 254.88
L339.84 254.88
L343.56 254.88
L347.28 254.88
L351 254.88
L354.72 254.88
L358.44 254.88
L362.16 254.88
L365.88 254.88
L369.6 254.88
L373.32 254.88
L377.04 254.88
L380.76 254.88
L384.48 254.88
L388.2 254.88
L391.92 254.88
L395.64 254.88
L399.36 254.88
L403.08 254.88
L406.8 254.88
L410.52 249.696
L414.24 249.696
L417.96 249.696
L421.68 249.696
L425.4 249.696
L429.12 249.696
L432.84 249.696
L436.56 249.696
L440.28 249.696
L444 249.696
L447.72 249.696
L451.44 249.696
L455.16 249.696
L458.88 249.696
L462.6 249.696
L466.32 249.696
L470.04 249.696
L473.76 249.696
L477.48 249.696
L481.2 249.696" style="fill:none;stroke:#ff0000;stroke-linecap:square;"/>
   </g>
   <g id="line2d_11">
    <path clip-path="url(#p7ff5b81e1d)" d="
M72 388.8
L75.72 388.8
L79.44 388.8
L83.16 388.8
L86.88 388.8
L90.6 388.8
L94.32 388.8
L98.04 388.8
L101.76 228.96
L105.48 228.96
L109.2 228.96
L112.92 226.368
L116.64 210.816
L120.36 210.816
L124.08 216.864
L127.8 238.464
L131.52 247.104
L135.24 247.104
L138.96 247.104
L142.68 247.104
L146.4 247.104
L150.12 247.104
L153.84 247.104
L157.56 247.104
L161.28 258.336
L165 258.336
L168.72 264.384
L172.44 244.512
L176.16 240.192
L179.88 240.192
L183.6 229.824
L187.32 233.28
L191.04 249.696
L194.76 249.696
L198.48 249.696
L202.2 249.696
L205.92 243.648
L209.64 243.648
L213.36 243.648
L217.08 243.648
L220.8 248.832
L224.52 248.832
L228.24 262.656
L231.96 262.656
L235.68 260.064
L239.4 260.064
L243.12 260.064
L246.84 263.52
L250.56 263.52
L254.28 263.52
L258 263.52
L261.72 263.52
L265.44 263.52
L269.16 263.52
L272.88 263.52
L276.6 263.52
L280.32 263.52
L284.04 263.52
L287.76 263.52
L291.48 263.52
L295.2 263.52
L298.92 263.52
L302.64 263.52
L306.36 263.52
L310.08 263.52
L313.8 263.52
L317.52 263.52
L321.24 263.52
L324.96 263.52
L328.68 263.52
L332.4 263.52
L336.12 263.52
L339.84 256.608
L343.56 259.2
L347.28 259.2
L351 259.2
L354.72 261.792
L358.44 259.2
L362.16 259.2
L365.88 254.88
L369.6 254.88
L373.32 249.696
L377.04 249.696
L380.76 253.152
L384.48 253.152
L388.2 253.152
L391.92 253.152
L395.64 248.832
L399.36 248.832
L403.08 246.24
L406.8 246.24
L410.52 246.24
L414.24 246.24
L417.96 246.24
L421.68 240.192
L425.4 242.784
L429.12 242.784
L432.84 247.104
L436.56 244.512
L440.28 242.784
L444 245.376
L447.72 245.376
L451.44 245.376
L455.16 246.24
L458.88 248.832
L462.6 247.104
L466.32 245.376
L470.04 245.376
L473.76 245.376
L477.48 245.376
L481.2 247.968" style="fill:none;stroke:#00bfbf;stroke-linecap:square;"/>
   </g>
   <g id="line2d_12">
    <path clip-path="url(#p7ff5b81e1d)" d="
M72 388.8
L75.72 388.8
L79.44 388.8
L83.16 388.8
L86.88 388.8
L90.6 388.8
L94.32 388.8
L98.04 388.8
L101.76 388.8
L105.48 388.8
L109.2 388.8
L112.92 388.8
L116.64 388.8
L120.36 388.8
L124.08 388.8
L127.8 388.8
L131.52 388.8
L135.24 388.8
L138.96 388.8
L142.68 388.8
L146.4 388.8
L150.12 388.8
L153.84 388.8
L157.56 388.8
L161.28 388.8
L165 388.8
L168.72 388.8
L172.44 388.8
L176.16 388.8
L179.88 388.8
L183.6 388.8
L187.32 388.8
L191.04 388.8
L194.76 388.8
L198.48 388.8
L202.2 388.8
L205.92 388.8
L209.64 388.8
L213.36 388.8
L217.08 388.8
L220.8 388.8
L224.52 388.8
L228.24 388.8
L231.96 388.8
L235.68 388.8
L239.4 388.8
L243.12 388.8
L246.84 388.8
L250.56 388.8
L254.28 388.8
L258 388.8
L261.72 388.8
L265.44 388.8
L269.16 388.8
L272.88 388.8
L276.6 388.8
L280.32 388.8
L284.04 388.8
L287.76 388.8
L291.48 388.8
L295.2 388.8
L298.92 388.8
L302.64 388.8
L306.36 388.8
L310.08 388.8
L313.8 388.8
L317.52 388.8
L321.24 388.8
L324.96 388.8
L328.68 388.8
L332.4 388.8
L336.12 388.8
L339.84 388.8
L343.56 388.8
L347.28 388.8
L351 388.8
L354.72 388.8
L358.44 388.8
L362.16 388.8
L365.88 388.8
L369.6 388.8
L373.32 388.8
L377.04 388.8
L380.76 388.8
L384.48 388.8
L388.2 388.8
L391.92 388.8
L395.64 388.8
L399.36 388.8
L403.08 388.8
L406.8 388.8
L410.52 388.8
L414.24 388.8
L417.96 388.8
L421.68 388.8
L425.4 388.8
L429.12 388.8
L432.84 388.8
L436.56 388.8
L440.28 388.8
L444 388.8
L447.72 388.8
L451.44 388.8
L455.16 388.8
L458.88 388.8
L462.6 388.8
L466.32 388.8
L470.04 388.8
L473.76 388.8
L477.48 388.8
L481.2 388.8" style="fill:none;stroke:#bf00bf;stroke-linecap:square;"/>
   </g>
   <g id="line2d_13">
    <path clip-path="url(#p7ff5b81e1d)" d="
M72 388.8
L75.72 388.8
L79.44 388.8
L83.16 388.8
L86.88 388.8
L90.6 388.8
L94.32 388.8
L98.04 388.8
L101.76 388.8
L105.48 388.8
L109.2 388.8
L112.92 388.8
L116.64 113.184
L120.36 113.184
L124.08 113.184
L127.8 113.184
L131.52 113.184
L135.24 113.184
L138.96 101.088
L142.68 101.088
L146.4 101.088
L150.12 101.088
L153.84 101.088
L157.56 101.088
L161.28 101.088
L165 101.088
L168.72 101.088
L172.44 101.088
L176.16 101.088
L179.88 101.088
L183.6 101.088
L187.32 101.088
L191.04 101.088
L194.76 101.088
L198.48 101.088
L202.2 101.088
L205.92 101.088
L209.64 101.088
L213.36 101.088
L217.08 101.088
L220.8 101.088
L224.52 101.088
L228.24 101.088
L231.96 86.4
L235.68 86.4
L239.4 77.76
L243.12 77.76
L246.84 77.76
L250.56 77.76
L254.28 77.76
L258 77.76
L261.72 77.76
L265.44 77.76
L269.16 77.76
L272.88 77.76
L276.6 68.256
L280.32 87.264
L284.04 83.808
L287.76 83.808
L291.48 83.808
L295.2 83.808
L298.92 83.808
L302.64 83.808
L306.36 83.808
L310.08 83.808
L313.8 83.808
L317.52 83.808
L321.24 83.808
L324.96 83.808
L328.68 83.808
L332.4 83.808
L336.12 76.896
L339.84 76.896
L343.56 76.896
L347.28 76.896
L351 76.896
L354.72 76.896
L358.44 76.896
L362.16 67.392
L365.88 67.392
L369.6 60.48
L373.32 60.48
L377.04 60.48
L380.76 60.48
L384.48 45.792
L388.2 45.792
L391.92 88.992
L395.64 88.992
L399.36 88.992
L403.08 88.992
L406.8 76.032
L410.52 76.032
L414.24 92.448
L417.96 89.856
L421.68 89.856
L425.4 84.672
L429.12 95.04
L432.84 95.04
L436.56 95.04
L440.28 95.04
L444 95.04
L447.72 95.04
L451.44 89.856
L455.16 88.128
L458.88 88.128
L462.6 84.672
L466.32 84.672
L470.04 84.672
L473.76 84.672
L477.48 78.624
L481.2 78.624" style="fill:none;stroke:#bfbf00;stroke-linecap:square;"/>
   </g>
   <g id="line2d_14">
    <path clip-path="url(#p7ff5b81e1d)" d="
M72 388.8
L75.72 388.8
L79.44 388.8
L83.16 388.8
L86.88 388.8
L90.6 388.8
L94.32 388.8
L98.04 388.8
L101.76 388.8
L105.48 388.8
L109.2 388.8
L112.92 388.8
L116.64 388.8
L120.36 388.8
L124.08 388.8
L127.8 388.8
L131.52 388.8
L135.24 388.8
L138.96 388.8
L142.68 388.8
L146.4 388.8
L150.12 388.8
L153.84 388.8
L157.56 388.8
L161.28 388.8
L165 388.8
L168.72 388.8
L172.44 388.8
L176.16 388.8
L179.88 388.8
L183.6 225.504
L187.32 211.68
L191.04 211.68
L194.76 211.68
L198.48 185.76
L202.2 185.76
L205.92 185.76
L209.64 185.76
L213.36 185.76
L217.08 185.76
L220.8 185.76
L224.52 185.76
L228.24 185.76
L231.96 185.76
L235.68 185.76
L239.4 185.76
L243.12 196.128
L246.84 196.128
L250.56 196.128
L254.28 196.128
L258 196.128
L261.72 209.088
L265.44 209.088
L269.16 209.088
L272.88 209.088
L276.6 209.088
L280.32 209.088
L284.04 209.088
L287.76 229.824
L291.48 235.008
L295.2 238.464
L298.92 238.464
L302.64 231.552
L306.36 231.552
L310.08 216.864
L313.8 216.864
L317.52 228.96
L321.24 229.824
L324.96 218.592
L328.68 218.592
L332.4 240.192
L336.12 240.192
L339.84 240.192
L343.56 240.192
L347.28 247.968
L351 247.968
L354.72 247.968
L358.44 251.424
L362.16 251.424
L365.88 251.424
L369.6 251.424
L373.32 256.608
L377.04 256.608
L380.76 252.288
L384.48 247.104
L388.2 247.104
L391.92 247.104
L395.64 252.288
L399.36 254.88
L403.08 257.472
L406.8 252.288
L410.52 252.288
L414.24 252.288
L417.96 252.288
L421.68 258.336
L425.4 255.744
L429.12 260.928
L432.84 255.744
L436.56 253.152
L440.28 254.88
L444 254.88
L447.72 254.88
L451.44 253.152
L455.16 252.288
L458.88 249.696
L462.6 249.696
L466.32 248.832
L470.04 248.832
L473.76 248.832
L477.48 248.832
L481.2 248.832" style="fill:none;stroke:#000000;stroke-linecap:square;"/>
   </g>
   <g id="line2d_15">
    <path clip-path="url(#p7ff5b81e1d)" d="
M72 388.8
L75.72 388.8
L79.44 388.8
L83.16 388.8
L86.88 388.8
L90.6 388.8
L94.32 388.8
L98.04 388.8
L101.76 388.8
L105.48 388.8
L109.2 388.8
L112.92 388.8
L116.64 388.8
L120.36 388.8
L124.08 388.8
L127.8 388.8
L131.52 388.8
L135.24 388.8
L138.96 388.8
L142.68 388.8
L146.4 388.8
L150.12 388.8
L153.84 388.8
L157.56 388.8
L161.28 388.8
L165 388.8
L168.72 388.8
L172.44 388.8
L176.16 388.8
L179.88 388.8
L183.6 388.8
L187.32 388.8
L191.04 388.8
L194.76 388.8
L198.48 388.8
L202.2 388.8
L205.92 388.8
L209.64 388.8
L213.36 388.8
L217.08 388.8
L220.8 388.8
L224.52 388.8
L228.24 388.8
L231.96 388.8
L235.68 388.8
L239.4 388.8
L243.12 388.8
L246.84 388.8
L250.56 388.8
L254.28 388.8
L258 388.8
L261.72 388.8
L265.44 388.8
L269.16 388.8
L272.88 388.8
L276.6 388.8
L280.32 388.8
L284.04 388.8
L287.76 81.216
L291.48 81.216
L295.2 81.216
L298.92 80.352
L302.64 80.352
L306.36 80.352
L310.08 80.352
L313.8 80.352
L317.52 80.352
L321.24 80.352
L324.96 80.352
L328.68 80.352
L332.4 80.352
L336.12 80.352
L339.84 80.352
L343.56 80.352
L347.28 80.352
L351 80.352
L354.72 80.352
L358.44 80.352
L362.16 95.904
L365.88 95.904
L369.6 106.272
L373.32 106.272
L377.04 106.272
L380.76 106.272
L384.48 106.272
L388.2 106.272
L391.92 106.272
L395.64 106.272
L399.36 106.272
L403.08 106.272
L406.8 133.056
L410.52 133.056
L414.24 133.056
L417.96 138.24
L421.68 138.24
L425.4 138.24
L429.12 138.24
L432.84 138.24
L436.56 138.24
L440.28 146.88
L444 146.88
L447.72 146.88
L451.44 146.88
L455.16 146.88
L458.88 146.88
L462.6 146.88
L466.32 146.88
L470.04 146.88
L473.76 146.88
L477.48 160.704
L481.2 160.704" style="fill:none;stroke:#0000ff;stroke-linecap:square;"/>
   </g>
   <g id="line2d_16">
    <path clip-path="url(#p7ff5b81e1d)" d="
M72 388.8
L75.72 388.8
L79.44 388.8
L83.16 388.8
L86.88 388.8
L90.6 388.8
L94.32 388.8
L98.04 388.8
L101.76 388.8
L105.48 388.8
L109.2 388.8
L112.92 388.8
L116.64 388.8
L120.36 388.8
L124.08 388.8
L127.8 388.8
L131.52 388.8
L135.24 388.8
L138.96 388.8
L142.68 388.8
L146.4 388.8
L150.12 388.8
L153.84 388.8
L157.56 388.8
L161.28 388.8
L165 388.8
L168.72 388.8
L172.44 388.8
L176.16 388.8
L179.88 388.8
L183.6 388.8
L187.32 388.8
L191.04 388.8
L194.76 388.8
L198.48 388.8
L202.2 388.8
L205.92 388.8
L209.64 388.8
L213.36 388.8
L217.08 388.8
L220.8 388.8
L224.52 388.8
L228.24 388.8
L231.96 388.8
L235.68 388.8
L239.4 388.8
L243.12 388.8
L246.84 388.8
L250.56 388.8
L254.28 388.8
L258 388.8
L261.72 388.8
L265.44 388.8
L269.16 388.8
L272.88 388.8
L276.6 388.8
L280.32 388.8
L284.04 388.8
L287.76 388.8
L291.48 388.8
L295.2 388.8
L298.92 388.8
L302.64 388.8
L306.36 388.8
L310.08 388.8
L313.8 388.8
L317.52 388.8
L321.24 388.8
L324.96 388.8
L328.68 388.8
L332.4 388.8
L336.12 388.8
L339.84 388.8
L343.56 388.8
L347.28 388.8
L351 388.8
L354.72 388.8
L358.44 388.8
L362.16 388.8
L365.88 388.8
L369.6 388.8
L373.32 388.8
L377.04 388.8
L380.76 388.8
L384.48 388.8
L388.2 388.8
L391.92 388.8
L395.64 388.8
L399.36 388.8
L403.08 388.8
L406.8 388.8
L410.52 388.8
L414.24 388.8
L417.96 388.8
L421.68 388.8
L425.4 388.8
L429.12 388.8
L432.84 388.8
L436.56 388.8
L440.28 388.8
L444 388.8
L447.72 388.8
L451.44 388.8
L455.16 388.8
L458.88 388.8
L462.6 388.8
L466.32 388.8
L470.04 388.8
L473.76 388.8
L477.48 388.8
L481.2 388.8" style="fill:none;stroke:#008000;stroke-linecap:square;"/>
   </g>
   <g id="line2d_17">
    <path clip-path="url(#p7ff5b81e1d)" d="
M72 388.8
L75.72 388.8
L79.44 388.8
L83.16 388.8
L86.88 243.648
L90.6 277.344
L94.32 264.384
L98.04 264.384
L101.76 241.92
L105.48 228.96
L109.2 228.96
L112.92 230.688
L116.64 241.056
L120.36 253.152
L124.08 249.696
L127.8 249.696
L131.52 249.696
L135.24 251.424
L138.96 255.744
L142.68 255.744
L146.4 255.744
L150.12 255.744
L153.84 253.152
L157.56 253.152
L161.28 246.24
L165 246.24
L168.72 246.24
L172.44 260.064
L176.16 260.064
L179.88 270.432
L183.6 262.656
L187.32 266.112
L191.04 253.152
L194.76 258.336
L198.48 258.336
L202.2 258.336
L205.92 263.52
L209.64 263.52
L213.36 263.52
L217.08 263.52
L220.8 259.2
L224.52 259.2
L228.24 247.968
L231.96 247.968
L235.68 249.696
L239.4 249.696
L243.12 247.968
L246.84 245.376
L250.56 245.376
L254.28 245.376
L258 245.376
L261.72 245.376
L265.44 245.376
L269.16 245.376
L272.88 245.376
L276.6 245.376
L280.32 245.376
L284.04 245.376
L287.76 245.376
L291.48 245.376
L295.2 245.376
L298.92 245.376
L302.64 245.376
L306.36 245.376
L310.08 245.376
L313.8 245.376
L317.52 245.376
L321.24 245.376
L324.96 245.376
L328.68 243.648
L332.4 229.824
L336.12 231.552
L339.84 231.552
L343.56 229.824
L347.28 229.824
L351 232.416
L354.72 229.824
L358.44 232.416
L362.16 232.416
L365.88 235.008
L369.6 235.008
L373.32 231.552
L377.04 231.552
L380.76 231.552
L384.48 235.872
L388.2 240.192
L391.92 240.192
L395.64 243.648
L399.36 243.648
L403.08 242.784
L406.8 242.784
L410.52 242.784
L414.24 242.784
L417.96 242.784
L421.68 242.784
L425.4 242.784
L429.12 238.464
L432.84 241.92
L436.56 244.512
L440.28 244.512
L444 244.512
L447.72 244.512
L451.44 246.24
L455.16 246.24
L458.88 248.832
L462.6 250.56
L466.32 251.424
L470.04 251.424
L473.76 253.152
L477.48 253.152
L481.2 251.424" style="fill:none;stroke:#ff0000;stroke-linecap:square;"/>
   </g>
   <g id="line2d_18">
    <path clip-path="url(#p7ff5b81e1d)" d="
M72 388.8
L75.72 388.8
L79.44 388.8
L83.16 388.8
L86.88 388.8
L90.6 388.8
L94.32 388.8
L98.04 388.8
L101.76 388.8
L105.48 388.8
L109.2 388.8
L112.92 388.8
L116.64 388.8
L120.36 186.624
L124.08 186.624
L127.8 186.624
L131.52 186.624
L135.24 186.624
L138.96 186.624
L142.68 186.624
L146.4 186.624
L150.12 186.624
L153.84 186.624
L157.56 186.624
L161.28 186.624
L165 140.832
L168.72 140.832
L172.44 140.832
L176.16 140.832
L179.88 140.832
L183.6 140.832
L187.32 140.832
L191.04 140.832
L194.76 140.832
L198.48 140.832
L202.2 155.52
L205.92 155.52
L209.64 155.52
L213.36 155.52
L217.08 155.52
L220.8 155.52
L224.52 155.52
L228.24 155.52
L231.96 155.52
L235.68 155.52
L239.4 155.52
L243.12 155.52
L246.84 155.52
L250.56 155.52
L254.28 155.52
L258 155.52
L261.72 155.52
L265.44 150.336
L269.16 150.336
L272.88 150.336
L276.6 150.336
L280.32 150.336
L284.04 150.336
L287.76 150.336
L291.48 150.336
L295.2 150.336
L298.92 150.336
L302.64 150.336
L306.36 150.336
L310.08 150.336
L313.8 150.336
L317.52 150.336
L321.24 150.336
L324.96 150.336
L328.68 150.336
L332.4 150.336
L336.12 150.336
L339.84 150.336
L343.56 150.336
L347.28 150.336
L351 150.336
L354.72 150.336
L358.44 150.336
L362.16 150.336
L365.88 150.336
L369.6 150.336
L373.32 166.752
L377.04 166.752
L380.76 166.752
L384.48 166.752
L388.2 166.752
L391.92 166.752
L395.64 166.752
L399.36 158.976
L403.08 158.976
L406.8 158.976
L410.52 158.976
L414.24 158.976
L417.96 158.976
L421.68 177.984
L425.4 177.984
L429.12 177.984
L432.84 177.984
L436.56 177.984
L440.28 177.984
L444 177.984
L447.72 177.984
L451.44 177.984
L455.16 177.984
L458.88 168.48
L462.6 168.48
L466.32 168.48
L470.04 168.48
L473.76 168.48
L477.48 168.48
L481.2 168.48" style="fill:none;stroke:#00bfbf;stroke-linecap:square;"/>
   </g>
   <g id="line2d_19">
    <path clip-path="url(#p7ff5b81e1d)" d="
M72 388.8
L75.72 388.8
L79.44 388.8
L83.16 388.8
L86.88 388.8
L90.6 388.8
L94.32 388.8
L98.04 388.8
L101.76 388.8
L105.48 388.8
L109.2 388.8
L112.92 388.8
L116.64 388.8
L120.36 388.8
L124.08 388.8
L127.8 388.8
L131.52 388.8
L135.24 388.8
L138.96 388.8
L142.68 388.8
L146.4 388.8
L150.12 388.8
L153.84 388.8
L157.56 388.8
L161.28 388.8
L165 388.8
L168.72 388.8
L172.44 388.8
L176.16 388.8
L179.88 388.8
L183.6 388.8
L187.32 388.8
L191.04 388.8
L194.76 388.8
L198.48 388.8
L202.2 388.8
L205.92 388.8
L209.64 388.8
L213.36 388.8
L217.08 388.8
L220.8 388.8
L224.52 388.8
L228.24 388.8
L231.96 388.8
L235.68 388.8
L239.4 388.8
L243.12 388.8
L246.84 388.8
L250.56 388.8
L254.28 388.8
L258 388.8
L261.72 388.8
L265.44 388.8
L269.16 388.8
L272.88 388.8
L276.6 388.8
L280.32 388.8
L284.04 388.8
L287.76 388.8
L291.48 388.8
L295.2 388.8
L298.92 388.8
L302.64 388.8
L306.36 388.8
L310.08 388.8
L313.8 388.8
L317.52 388.8
L321.24 388.8
L324.96 388.8
L328.68 388.8
L332.4 388.8
L336.12 388.8
L339.84 388.8
L343.56 388.8
L347.28 388.8
L351 388.8
L354.72 388.8
L358.44 388.8
L362.16 388.8
L365.88 388.8
L369.6 388.8
L373.32 388.8
L377.04 388.8
L380.76 388.8
L384.48 388.8
L388.2 388.8
L391.92 388.8
L395.64 388.8
L399.36 388.8
L403.08 388.8
L406.8 388.8
L410.52 388.8
L414.24 388.8
L417.96 388.8
L421.68 388.8
L425.4 388.8
L429.12 388.8
L432.84 388.8
L436.56 388.8
L440.28 388.8
L444 388.8
L447.72 388.8
L451.44 388.8
L455.16 388.8
L458.88 388.8
L462.6 388.8
L466.32 388.8
L470.04 388.8
L473.76 388.8
L477.48 388.8
L481.2 388.8" style="fill:none;stroke:#bf00bf;stroke-linecap:square;"/>
   </g>
   <g id="line2d_20">
    <path clip-path="url(#p7ff5b81e1d)" d="
M72 388.8
L75.72 388.8
L79.44 388.8
L83.16 388.8
L86.88 388.8
L90.6 388.8
L94.32 388.8
L98.04 388.8
L101.76 388.8
L105.48 388.8
L109.2 388.8
L112.92 388.8
L116.64 388.8
L120.36 388.8
L124.08 388.8
L127.8 388.8
L131.52 388.8
L135.24 388.8
L138.96 388.8
L142.68 388.8
L146.4 388.8
L150.12 388.8
L153.84 388.8
L157.56 388.8
L161.28 388.8
L165 388.8
L168.72 388.8
L172.44 388.8
L176.16 388.8
L179.88 388.8
L183.6 388.8
L187.32 388.8
L191.04 388.8
L194.76 388.8
L198.48 388.8
L202.2 388.8
L205.92 388.8
L209.64 388.8
L213.36 388.8
L217.08 388.8
L220.8 388.8
L224.52 388.8
L228.24 388.8
L231.96 388.8
L235.68 388.8
L239.4 388.8
L243.12 388.8
L246.84 388.8
L250.56 388.8
L254.28 388.8
L258 388.8
L261.72 388.8
L265.44 388.8
L269.16 388.8
L272.88 388.8
L276.6 388.8
L280.32 388.8
L284.04 388.8
L287.76 388.8
L291.48 388.8
L295.2 388.8
L298.92 388.8
L302.64 388.8
L306.36 388.8
L310.08 388.8
L313.8 388.8
L317.52 388.8
L321.24 388.8
L324.96 388.8
L328.68 388.8
L332.4 388.8
L336.12 388.8
L339.84 388.8
L343.56 388.8
L347.28 388.8
L351 388.8
L354.72 388.8
L358.44 388.8
L362.16 388.8
L365.88 388.8
L369.6 202.176
L373.32 202.176
L377.04 202.176
L380.76 202.176
L384.48 202.176
L388.2 202.176
L391.92 202.176
L395.64 202.176
L399.36 202.176
L403.08 202.176
L406.8 240.192
L410.52 240.192
L414.24 240.192
L417.96 247.104
L421.68 247.104
L425.4 247.104
L429.12 247.104
L432.84 247.104
L436.56 247.104
L440.28 247.104
L444 247.104
L447.72 247.104
L451.44 247.104
L455.16 247.104
L458.88 247.104
L462.6 247.104
L466.32 247.104
L470.04 247.104
L473.76 247.104
L477.48 247.104
L481.2 247.104" style="fill:none;stroke:#bfbf00;stroke-linecap:square;"/>
   </g>
   <g id="line2d_21">
    <path clip-path="url(#p7ff5b81e1d)" d="
M72 388.8
L75.72 388.8
L79.44 388.8
L83.16 388.8
L86.88 388.8
L90.6 388.8
L94.32 388.8
L98.04 388.8
L101.76 388.8
L105.48 388.8
L109.2 388.8
L112.92 388.8
L116.64 388.8
L120.36 388.8
L124.08 388.8
L127.8 388.8
L131.52 388.8
L135.24 388.8
L138.96 388.8
L142.68 388.8
L146.4 388.8
L150.12 388.8
L153.84 388.8
L157.56 388.8
L161.28 388.8
L165 388.8
L168.72 388.8
L172.44 388.8
L176.16 388.8
L179.88 388.8
L183.6 388.8
L187.32 388.8
L191.04 388.8
L194.76 388.8
L198.48 388.8
L202.2 388.8
L205.92 388.8
L209.64 388.8
L213.36 388.8
L217.08 388.8
L220.8 388.8
L224.52 388.8
L228.24 388.8
L231.96 388.8
L235.68 388.8
L239.4 388.8
L243.12 388.8
L246.84 388.8
L250.56 388.8
L254.28 388.8
L258 388.8
L261.72 388.8
L265.44 388.8
L269.16 388.8
L272.88 388.8
L276.6 388.8
L280.32 388.8
L284.04 388.8
L287.76 388.8
L291.48 388.8
L295.2 388.8
L298.92 388.8
L302.64 388.8
L306.36 388.8
L310.08 388.8
L313.8 388.8
L317.52 388.8
L321.24 388.8
L324.96 388.8
L328.68 388.8
L332.4 388.8
L336.12 388.8
L339.84 388.8
L343.56 388.8
L347.28 388.8
L351 388.8
L354.72 388.8
L358.44 388.8
L362.16 388.8
L365.88 388.8
L369.6 388.8
L373.32 388.8
L377.04 388.8
L380.76 388.8
L384.48 388.8
L388.2 388.8
L391.92 388.8
L395.64 388.8
L399.36 388.8
L403.08 388.8
L406.8 388.8
L410.52 388.8
L414.24 388.8
L417.96 388.8
L421.68 388.8
L425.4 388.8
L429.12 388.8
L432.84 388.8
L436.56 388.8
L440.28 388.8
L444 388.8
L447.72 388.8
L451.44 388.8
L455.16 388.8
L458.88 388.8
L462.6 388.8
L466.32 388.8
L470.04 388.8
L473.76 388.8
L477.48 388.8
L481.2 388.8" style="fill:none;stroke:#000000;stroke-linecap:square;"/>
   </g>
   <g id="matplotlib.axis_1">
    <g id="xtick_1">
     <g id="line2d_22">
      <defs>
       <path d="
M0 0
L0 -4" id="m93b0483c22" style="stroke:#000000;stroke-width:0.5;"/>
      </defs>
      <g>
       <use style="stroke:#000000;stroke-width:0.5;" x="72.0" xlink:href="#m93b0483c22" y="388.8"/>
      </g>
     </g>
     <g id="line2d_23">
      <defs>
       <path d="
M0 0
L0 4" id="m741efc42ff" style="stroke:#000000;stroke-width:0.5;"/>
      </defs>
      <g>
       <use style="stroke:#000000;stroke-width:0.5;" x="72.0" xlink:href="#m741efc42ff" y="43.2"/>
      </g>
     </g>
     <g id="text_1">
      <!-- 0 -->
      <defs>
       <path d="
M31.7812 66.4062
Q24.1719 66.4062 20.3281 58.9062
Q16.5 51.4219 16.5 36.375
Q16.5 21.3906 20.3281 13.8906
Q24.1719 6.39062 31.7812 6.39062
Q39.4531 6.39062 43.2812 13.8906
Q47.125 21.3906 47.125 36.375
Q47.125 51.4219 43.2812 58.9062
Q39.4531 66.4062 31.7812 66.4062
M31.7812 74.2188
Q44.0469 74.2188 50.5156 64.5156
Q56.9844 54.8281 56.9844 36.375
Q56.9844 17.9688 50.5156 8.26562
Q44.0469 -1.42188 31.7812 -1.42188
Q19.5312 -1.42188 13.0625 8.26562
Q6.59375 17.9688 6.59375 36.375
Q6.59375 54.8281 13.0625 64.5156
Q19.5312 74.2188 31.7812 74.2188" id="DejaVuSans-30"/>
      </defs>
      <g transform="translate(68.9765625 401.918125)scale(0.12 -0.12)">
       <use xlink:href="#DejaVuSans-30"/>
      </g>
     </g>
    </g>
    <g id="xtick_2">
     <g id="line2d_24">
      <g>
       <use style="stroke:#000000;stroke-width:0.5;" x="146.4" xlink:href="#m93b0483c22" y="388.8"/>
      </g>
     </g>
     <g id="line2d_25">
      <g>
       <use style="stroke:#000000;stroke-width:0.5;" x="146.4" xlink:href="#m741efc42ff" y="43.2"/>
      </g>
     </g>
     <g id="text_2">
      <!-- 20 -->
      <defs>
       <path d="
M19.1875 8.29688
L53.6094 8.29688
L53.6094 0
L7.32812 0
L7.32812 8.29688
Q12.9375 14.1094 22.625 23.8906
Q32.3281 33.6875 34.8125 36.5312
Q39.5469 41.8438 41.4219 45.5312
Q43.3125 49.2188 43.3125 52.7812
Q43.3125 58.5938 39.2344 62.25
Q35.1562 65.9219 28.6094 65.9219
Q23.9688 65.9219 18.8125 64.3125
Q13.6719 62.7031 7.8125 59.4219
L7.8125 69.3906
Q13.7656 71.7812 18.9375 73
Q24.125 74.2188 28.4219 74.2188
Q39.75 74.2188 46.4844 68.5469
Q53.2188 62.8906 53.2188 53.4219
Q53.2188 48.9219 51.5312 44.8906
Q49.8594 40.875 45.4062 35.4062
Q44.1875 33.9844 37.6406 27.2188
Q31.1094 20.4531 19.1875 8.29688" id="DejaVuSans-32"/>
      </defs>
      <g transform="translate(139.603125 401.918125)scale(0.12 -0.12)">
       <use xlink:href="#DejaVuSans-32"/>
       <use x="63.623046875" xlink:href="#DejaVuSans-30"/>
      </g>
     </g>
    </g>
    <g id="xtick_3">
     <g id="line2d_26">
      <g>
       <use style="stroke:#000000;stroke-width:0.5;" x="220.8" xlink:href="#m93b0483c22" y="388.8"/>
      </g>
     </g>
     <g id="line2d_27">
      <g>
       <use style="stroke:#000000;stroke-width:0.5;" x="220.8" xlink:href="#m741efc42ff" y="43.2"/>
      </g>
     </g>
     <g id="text_3">
      <!-- 40 -->
      <defs>
       <path d="
M37.7969 64.3125
L12.8906 25.3906
L37.7969 25.3906
z

M35.2031 72.9062
L47.6094 72.9062
L47.6094 25.3906
L58.0156 25.3906
L58.0156 17.1875
L47.6094 17.1875
L47.6094 0
L37.7969 0
L37.7969 17.1875
L4.89062 17.1875
L4.89062 26.7031
z
" id="DejaVuSans-34"/>
      </defs>
      <g transform="translate(213.856875 401.918125)scale(0.12 -0.12)">
       <use xlink:href="#DejaVuSans-34"/>
       <use x="63.623046875" xlink:href="#DejaVuSans-30"/>
      </g>
     </g>
    </g>
    <g id="xtick_4">
     <g id="line2d_28">
      <g>
       <use style="stroke:#000000;stroke-width:0.5;" x="295.2" xlink:href="#m93b0483c22" y="388.8"/>
      </g>
     </g>
     <g id="line2d_29">
      <g>
       <use style="stroke:#000000;stroke-width:0.5;" x="295.2" xlink:href="#m741efc42ff" y="43.2"/>
      </g>
     </g>
     <g id="text_4">
      <!-- 60 -->
      <defs>
       <path d="
M33.0156 40.375
Q26.375 40.375 22.4844 35.8281
Q18.6094 31.2969 18.6094 23.3906
Q18.6094 15.5312 22.4844 10.9531
Q26.375 6.39062 33.0156 6.39062
Q39.6562 6.39062 43.5312 10.9531
Q47.4062 15.5312 47.4062 23.3906
Q47.4062 31.2969 43.5312 35.8281
Q39.6562 40.375 33.0156 40.375
M52.5938 71.2969
L52.5938 62.3125
Q48.875 64.0625 45.0938 64.9844
Q41.3125 65.9219 37.5938 65.9219
Q27.8281 65.9219 22.6719 59.3281
Q17.5312 52.7344 16.7969 39.4062
Q19.6719 43.6562 24.0156 45.9219
Q28.375 48.1875 33.5938 48.1875
Q44.5781 48.1875 50.9531 41.5156
Q57.3281 34.8594 57.3281 23.3906
Q57.3281 12.1562 50.6875 5.35938
Q44.0469 -1.42188 33.0156 -1.42188
Q20.3594 -1.42188 13.6719 8.26562
Q6.98438 17.9688 6.98438 36.375
Q6.98438 53.6562 15.1875 63.9375
Q23.3906 74.2188 37.2031 74.2188
Q40.9219 74.2188 44.7031 73.4844
Q48.4844 72.75 52.5938 71.2969" id="DejaVuSans-36"/>
      </defs>
      <g transform="translate(288.3825 401.918125)scale(0.12 -0.12)">
       <use xlink:href="#DejaVuSans-36"/>
       <use x="63.623046875" xlink:href="#DejaVuSans-30"/>
      </g>
     </g>
    </g>
    <g id="xtick_5">
     <g id="line2d_30">
      <g>
       <use style="stroke:#000000;stroke-width:0.5;" x="369.6" xlink:href="#m93b0483c22" y="388.8"/>
      </g>
     </g>
     <g id="line2d_31">
      <g>
       <use style="stroke:#000000;stroke-width:0.5;" x="369.6" xlink:href="#m741efc42ff" y="43.2"/>
      </g>
     </g>
     <g id="text_5">
      <!-- 80 -->
      <defs>
       <path d="
M31.7812 34.625
Q24.75 34.625 20.7188 30.8594
Q16.7031 27.0938 16.7031 20.5156
Q16.7031 13.9219 20.7188 10.1562
Q24.75 6.39062 31.7812 6.39062
Q38.8125 6.39062 42.8594 10.1719
Q46.9219 13.9688 46.9219 20.5156
Q46.9219 27.0938 42.8906 30.8594
Q38.875 34.625 31.7812 34.625
M21.9219 38.8125
Q15.5781 40.375 12.0312 44.7188
Q8.5 49.0781 8.5 55.3281
Q8.5 64.0625 14.7188 69.1406
Q20.9531 74.2188 31.7812 74.2188
Q42.6719 74.2188 48.875 69.1406
Q55.0781 64.0625 55.0781 55.3281
Q55.0781 49.0781 51.5312 44.7188
Q48 40.375 41.7031 38.8125
Q48.8281 37.1562 52.7969 32.3125
Q56.7812 27.4844 56.7812 20.5156
Q56.7812 9.90625 50.3125 4.23438
Q43.8438 -1.42188 31.7812 -1.42188
Q19.7344 -1.42188 13.25 4.23438
Q6.78125 9.90625 6.78125 20.5156
Q6.78125 27.4844 10.7812 32.3125
Q14.7969 37.1562 21.9219 38.8125
M18.3125 54.3906
Q18.3125 48.7344 21.8438 45.5625
Q25.3906 42.3906 31.7812 42.3906
Q38.1406 42.3906 41.7188 45.5625
Q45.3125 48.7344 45.3125 54.3906
Q45.3125 60.0625 41.7188 63.2344
Q38.1406 66.4062 31.7812 66.4062
Q25.3906 66.4062 21.8438 63.2344
Q18.3125 60.0625 18.3125 54.3906" id="DejaVuSans-38"/>
      </defs>
      <g transform="translate(362.7703125 401.918125)scale(0.12 -0.12)">
       <use xlink:href="#DejaVuSans-38"/>
       <use x="63.623046875" xlink:href="#DejaVuSans-30"/>
      </g>
     </g>
    </g>
    <g id="xtick_6">
     <g id="line2d_32">
      <g>
       <use style="stroke:#000000;stroke-width:0.5;" x="444.0" xlink:href="#m93b0483c22" y="388.8"/>
      </g>
     </g>
     <g id="line2d_33">
      <g>
       <use style="stroke:#000000;stroke-width:0.5;" x="444.0" xlink:href="#m741efc42ff" y="43.2"/>
      </g>
     </g>
     <g id="text_6">
      <!-- 100 -->
      <defs>
       <path d="
M12.4062 8.29688
L28.5156 8.29688
L28.5156 63.9219
L10.9844 60.4062
L10.9844 69.3906
L28.4219 72.9062
L38.2812 72.9062
L38.2812 8.29688
L54.3906 8.29688
L54.3906 0
L12.4062 0
z
" id="DejaVuSans-31"/>
      </defs>
      <g transform="translate(433.605 401.918125)scale(0.12 -0.12)">
       <use xlink:href="#DejaVuSans-31"/>
       <use x="63.623046875" xlink:href="#DejaVuSans-30"/>
       <use x="127.24609375" xlink:href="#DejaVuSans-30"/>
      </g>
     </g>
    </g>
    <g id="xtick_7">
     <g id="line2d_34">
      <g>
       <use style="stroke:#000000;stroke-width:0.5;" x="518.4" xlink:href="#m93b0483c22" y="388.8"/>
      </g>
     </g>
     <g id="line2d_35">
      <g>
       <use style="stroke:#000000;stroke-width:0.5;" x="518.4" xlink:href="#m741efc42ff" y="43.2"/>
      </g>
     </g>
     <g id="text_7">
      <!-- 120 -->
      <g transform="translate(508.005 401.918125)scale(0.12 -0.12)">
       <use xlink:href="#DejaVuSans-31"/>
       <use x="63.623046875" xlink:href="#DejaVuSans-32"/>
       <use x="127.24609375" xlink:href="#DejaVuSans-30"/>
      </g>
     </g>
    </g>
   </g>
   <g id="matplotlib.axis_2">
    <g id="ytick_1">
     <g id="line2d_36">
      <defs>
       <path d="
M0 0
L4 0" id="m728421d6d4" style="stroke:#000000;stroke-width:0.5;"/>
      </defs>
      <g>
       <use style="stroke:#000000;stroke-width:0.5;" x="72.0" xlink:href="#m728421d6d4" y="388.8"/>
      </g>
     </g>
     <g id="line2d_37">
      <defs>
       <path d="
M0 0
L-4 0" id="mcb0005524f" style="stroke:#000000;stroke-width:0.5;"/>
      </defs>
      <g>
       <use style="stroke:#000000;stroke-width:0.5;" x="518.4" xlink:href="#mcb0005524f" y="388.8"/>
      </g>
     </g>
     <g id="text_8">
      <!-- 0 -->
      <g transform="translate(61.953125 392.11125)scale(0.12 -0.12)">
       <use xlink:href="#DejaVuSans-30"/>
      </g>
     </g>
    </g>
    <g id="ytick_2">
     <g id="line2d_38">
      <g>
       <use style="stroke:#000000;stroke-width:0.5;" x="72.0" xlink:href="#m728421d6d4" y="345.6"/>
      </g>
     </g>
     <g id="line2d_39">
      <g>
       <use style="stroke:#000000;stroke-width:0.5;" x="518.4" xlink:href="#mcb0005524f" y="345.6"/>
      </g>
     </g>
     <g id="text_9">
      <!-- 5 -->
      <defs>
       <path d="
M10.7969 72.9062
L49.5156 72.9062
L49.5156 64.5938
L19.8281 64.5938
L19.8281 46.7344
Q21.9688 47.4688 24.1094 47.8281
Q26.2656 48.1875 28.4219 48.1875
Q40.625 48.1875 47.75 41.5
Q54.8906 34.8125 54.8906 23.3906
Q54.8906 11.625 47.5625 5.09375
Q40.2344 -1.42188 26.9062 -1.42188
Q22.3125 -1.42188 17.5469 -0.640625
Q12.7969 0.140625 7.71875 1.70312
L7.71875 11.625
Q12.1094 9.23438 16.7969 8.0625
Q21.4844 6.89062 26.7031 6.89062
Q35.1562 6.89062 40.0781 11.3281
Q45.0156 15.7656 45.0156 23.3906
Q45.0156 31 40.0781 35.4375
Q35.1562 39.8906 26.7031 39.8906
Q22.75 39.8906 18.8125 39.0156
Q14.8906 38.1406 10.7969 36.2812
z
" id="DejaVuSans-35"/>
      </defs>
      <g transform="translate(62.339375 348.91125)scale(0.12 -0.12)">
       <use xlink:href="#DejaVuSans-35"/>
      </g>
     </g>
    </g>
    <g id="ytick_3">
     <g id="line2d_40">
      <g>
       <use style="stroke:#000000;stroke-width:0.5;" x="72.0" xlink:href="#m728421d6d4" y="302.4"/>
      </g>
     </g>
     <g id="line2d_41">
      <g>
       <use style="stroke:#000000;stroke-width:0.5;" x="518.4" xlink:href="#mcb0005524f" y="302.4"/>
      </g>
     </g>
     <g id="text_10">
      <!-- 10 -->
      <g transform="translate(54.845 305.71125)scale(0.12 -0.12)">
       <use xlink:href="#DejaVuSans-31"/>
       <use x="63.623046875" xlink:href="#DejaVuSans-30"/>
      </g>
     </g>
    </g>
    <g id="ytick_4">
     <g id="line2d_42">
      <g>
       <use style="stroke:#000000;stroke-width:0.5;" x="72.0" xlink:href="#m728421d6d4" y="259.2"/>
      </g>
     </g>
     <g id="line2d_43">
      <g>
       <use style="stroke:#000000;stroke-width:0.5;" x="518.4" xlink:href="#mcb0005524f" y="259.2"/>
      </g>
     </g>
     <g id="text_11">
      <!-- 15 -->
      <g transform="translate(55.09625 262.51125)scale(0.12 -0.12)">
       <use xlink:href="#DejaVuSans-31"/>
       <use x="63.623046875" xlink:href="#DejaVuSans-35"/>
      </g>
     </g>
    </g>
    <g id="ytick_5">
     <g id="line2d_44">
      <g>
       <use style="stroke:#000000;stroke-width:0.5;" x="72.0" xlink:href="#m728421d6d4" y="216.0"/>
      </g>
     </g>
     <g id="line2d_45">
      <g>
       <use style="stroke:#000000;stroke-width:0.5;" x="518.4" xlink:href="#mcb0005524f" y="216.0"/>
      </g>
     </g>
     <g id="text_12">
      <!-- 20 -->
      <g transform="translate(54.40625 219.31125)scale(0.12 -0.12)">
       <use xlink:href="#DejaVuSans-32"/>
       <use x="63.623046875" xlink:href="#DejaVuSans-30"/>
      </g>
     </g>
    </g>
    <g id="ytick_6">
     <g id="line2d_46">
      <g>
       <use style="stroke:#000000;stroke-width:0.5;" x="72.0" xlink:href="#m728421d6d4" y="172.8"/>
      </g>
     </g>
     <g id="line2d_47">
      <g>
       <use style="stroke:#000000;stroke-width:0.5;" x="518.4" xlink:href="#mcb0005524f" y="172.8"/>
      </g>
     </g>
     <g id="text_13">
      <!-- 25 -->
      <g transform="translate(54.6575 176.11125)scale(0.12 -0.12)">
       <use xlink:href="#DejaVuSans-32"/>
       <use x="63.623046875" xlink:href="#DejaVuSans-35"/>
      </g>
     </g>
    </g>
    <g id="ytick_7">
     <g id="line2d_48">
      <g>
       <use style="stroke:#000000;stroke-width:0.5;" x="72.0" xlink:href="#m728421d6d4" y="129.6"/>
      </g>
     </g>
     <g id="line2d_49">
      <g>
       <use style="stroke:#000000;stroke-width:0.5;" x="518.4" xlink:href="#mcb0005524f" y="129.6"/>
      </g>
     </g>
     <g id="text_14">
      <!-- 30 -->
      <defs>
       <path d="
M40.5781 39.3125
Q47.6562 37.7969 51.625 33
Q55.6094 28.2188 55.6094 21.1875
Q55.6094 10.4062 48.1875 4.48438
Q40.7656 -1.42188 27.0938 -1.42188
Q22.5156 -1.42188 17.6562 -0.515625
Q12.7969 0.390625 7.625 2.20312
L7.625 11.7188
Q11.7188 9.32812 16.5938 8.10938
Q21.4844 6.89062 26.8125 6.89062
Q36.0781 6.89062 40.9375 10.5469
Q45.7969 14.2031 45.7969 21.1875
Q45.7969 27.6406 41.2812 31.2656
Q36.7656 34.9062 28.7188 34.9062
L20.2188 34.9062
L20.2188 43.0156
L29.1094 43.0156
Q36.375 43.0156 40.2344 45.9219
Q44.0938 48.8281 44.0938 54.2969
Q44.0938 59.9062 40.1094 62.9062
Q36.1406 65.9219 28.7188 65.9219
Q24.6562 65.9219 20.0156 65.0312
Q15.375 64.1562 9.8125 62.3125
L9.8125 71.0938
Q15.4375 72.6562 20.3438 73.4375
Q25.25 74.2188 29.5938 74.2188
Q40.8281 74.2188 47.3594 69.1094
Q53.9062 64.0156 53.9062 55.3281
Q53.9062 49.2656 50.4375 45.0938
Q46.9688 40.9219 40.5781 39.3125" id="DejaVuSans-33"/>
      </defs>
      <g transform="translate(54.441875 132.91125)scale(0.12 -0.12)">
       <use xlink:href="#DejaVuSans-33"/>
       <use x="63.623046875" xlink:href="#DejaVuSans-30"/>
      </g>
     </g>
    </g>
    <g id="ytick_8">
     <g id="line2d_50">
      <g>
       <use style="stroke:#000000;stroke-width:0.5;" x="72.0" xlink:href="#m728421d6d4" y="86.4"/>
      </g>
     </g>
     <g id="line2d_51">
      <g>
       <use style="stroke:#000000;stroke-width:0.5;" x="518.4" xlink:href="#mcb0005524f" y="86.4"/>
      </g>
     </g>
     <g id="text_15">
      <!-- 35 -->
      <g transform="translate(54.693125 89.71125)scale(0.12 -0.12)">
       <use xlink:href="#DejaVuSans-33"/>
       <use x="63.623046875" xlink:href="#DejaVuSans-35"/>
      </g>
     </g>
    </g>
    <g id="ytick_9">
     <g id="line2d_52">
      <g>
       <use style="stroke:#000000;stroke-width:0.5;" x="72.0" xlink:href="#m728421d6d4" y="43.2"/>
      </g>
     </g>
     <g id="line2d_53">
      <g>
       <use style="stroke:#000000;stroke-width:0.5;" x="518.4" xlink:href="#mcb0005524f" y="43.2"/>
      </g>
     </g>
     <g id="text_16">
      <!-- 40 -->
      <g transform="translate(54.11375 46.51125)scale(0.12 -0.12)">
       <use xlink:href="#DejaVuSans-34"/>
       <use x="63.623046875" xlink:href="#DejaVuSans-30"/>
      </g>
     </g>
    </g>
   </g>
   <g id="patch_3">
    <path d="
M72 43.2
L518.4 43.2" style="fill:none;stroke:#000000;"/>
   </g>
   <g id="patch_4">
    <path d="
M518.4 388.8
L518.4 43.2" style="fill:none;stroke:#000000;"/>
   </g>
   <g id="patch_5">
    <path d="
M72 388.8
L518.4 388.8" style="fill:none;stroke:#000000;"/>
   </g>
   <g id="patch_6">
    <path d="
M72 388.8
L72 43.2" style="fill:none;stroke:#000000;"/>
   </g>
  </g>
 </g>
 <defs>
  <clipPath id="p7ff5b81e1d">
   <rect height="345.6" width="446.4" x="72.0" y="43.2"/>
  </clipPath>
 </defs>
</svg>
